<?xml version="1.0" encoding="UTF-8" ?>
<!DOCTYPE svg PUBLIC "-//W3C//DTD SVG 1.1//EN" "http://www.w3.org/Graphics/SVG/1.1/DTD/svg11.dtd">
<svg width="1100pt" height="1200pt" viewBox="0 0 1100 1200" version="1.1" xmlns="http://www.w3.org/2000/svg">
<g id="#ffc833ff">
<path fill="#ffc833" opacity="1.00" d=" M 468.26 341.26 C 495.49 314.06 522.60 286.74 549.96 259.67 C 583.26 292.53 616.22 325.75 649.27 358.87 C 696.51 359.20 743.75 358.87 790.99 359.01 C 791.05 404.03 790.96 449.04 790.96 494.05 C 789.30 499.41 793.58 502.90 796.68 506.30 C 828.21 537.66 859.68 569.08 891.03 600.63 C 887.47 604.10 883.96 607.62 880.51 611.20 C 870.72 589.09 853.49 570.19 832.02 558.97 C 817.62 551.11 801.27 547.44 785.01 546.14 C 770.62 483.96 730.74 428.01 676.03 394.96 C 627.15 364.65 567.21 353.44 510.55 362.50 C 447.13 373.06 388.28 409.79 352.06 463.04 C 310.23 522.10 297.86 600.81 319.07 669.93 C 336.19 727.24 375.42 777.68 427.08 807.92 C 478.32 838.51 541.25 848.76 599.61 836.52 C 649.28 826.18 695.07 799.49 729.22 762.07 C 749.81 761.50 770.40 762.86 790.99 762.12 C 791.02 788.74 791.02 815.36 790.99 841.99 C 745.97 842.06 700.96 841.96 655.95 841.96 C 650.58 840.30 647.10 844.58 643.70 847.68 C 612.56 878.98 581.38 910.24 550.04 941.33 C 516.74 908.47 483.78 875.25 450.73 842.13 C 403.49 841.79 356.25 842.13 309.01 841.99 C 308.94 796.97 309.04 751.96 309.04 706.95 C 310.69 701.58 306.41 698.10 303.32 694.70 C 271.79 663.33 240.31 631.91 208.96 600.36 C 242.43 567.33 275.46 533.86 308.84 500.74 C 309.25 453.49 308.85 406.25 309.01 359.01 C 355.95 358.71 402.92 359.51 449.83 358.71 C 456.77 353.81 462.18 347.12 468.26 341.26 Z" />
</g>
<g id="#ffeb2cff">
<path fill="#ffeb2c" opacity="1.00" d=" M 510.55 362.50 C 567.21 353.44 627.15 364.65 676.03 394.96 C 730.74 428.01 770.62 483.96 785.01 546.14 C 773.30 545.89 761.74 548.19 750.30 550.43 C 730.27 529.80 703.31 515.46 674.51 512.64 C 627.43 505.85 577.89 529.71 553.17 570.20 C 543.04 585.25 538.01 602.95 534.66 620.60 C 520.70 624.21 506.79 630.06 496.68 640.68 C 475.11 660.90 468.81 695.51 482.11 721.95 C 490.23 739.00 505.29 752.79 523.32 758.66 C 541.59 764.37 561.06 762.92 579.92 762.71 C 607.13 761.40 634.37 762.12 661.60 762.27 C 684.14 761.93 706.68 761.96 729.22 762.07 C 695.07 799.49 649.28 826.18 599.61 836.52 C 541.25 848.76 478.32 838.51 427.08 807.92 C 375.42 777.68 336.19 727.24 319.07 669.93 C 297.86 600.81 310.23 522.10 352.06 463.04 C 388.28 409.79 447.13 373.06 510.55 362.50 M 531.45 393.56 C 483.51 397.66 437.15 419.02 403.42 453.39 C 399.46 457.46 399.25 463.79 401.09 468.90 C 404.32 476.57 414.73 480.29 421.97 475.96 C 427.63 472.05 432.49 467.14 437.79 462.79 C 467.85 437.60 506.79 423.24 545.99 422.74 C 550.85 422.25 557.07 422.81 560.31 418.30 C 567.31 412.28 566.24 399.37 557.96 395.06 C 549.92 390.50 540.14 393.76 531.45 393.56 M 381.66 492.38 C 370.01 491.38 366.20 503.77 361.96 511.98 C 355.47 526.10 349.98 540.80 347.15 556.13 C 346.19 561.56 347.67 568.30 352.99 571.01 C 360.72 577.55 373.76 572.70 375.77 562.83 C 379.65 550.08 383.01 537.02 389.04 525.04 C 391.73 518.42 397.35 512.08 395.53 504.44 C 394.69 497.79 388.09 492.84 381.66 492.38 Z" />
</g>
<g id="#ffffffff">
<path fill="#ffffff" opacity="1.00" d=" M 531.45 393.56 C 540.14 393.76 549.92 390.50 557.96 395.06 C 566.24 399.37 567.31 412.28 560.31 418.30 C 557.07 422.81 550.85 422.25 545.99 422.74 C 506.79 423.24 467.85 437.60 437.79 462.79 C 432.49 467.14 427.63 472.05 421.97 475.96 C 414.73 480.29 404.32 476.57 401.09 468.90 C 399.25 463.79 399.46 457.46 403.42 453.39 C 437.15 419.02 483.51 397.66 531.45 393.56 Z" />
<path fill="#ffffff" opacity="1.00" d=" M 381.66 492.38 C 388.09 492.84 394.69 497.79 395.53 504.44 C 397.35 512.08 391.73 518.42 389.04 525.04 C 383.01 537.02 379.65 550.08 375.77 562.83 C 373.76 572.70 360.72 577.55 352.99 571.01 C 347.67 568.30 346.19 561.56 347.15 556.13 C 349.98 540.80 355.47 526.10 361.96 511.98 C 366.20 503.77 370.01 491.38 381.66 492.38 Z" />
<path fill="#ffffff" opacity="1.00" d=" M 660.45 537.56 C 691.58 534.59 723.53 547.50 744.81 570.21 C 750.26 575.71 750.62 584.85 745.93 590.94 C 740.86 595.50 731.63 598.50 726.26 592.68 C 716.96 585.08 707.67 576.93 696.31 572.58 C 683.31 567.24 668.82 565.98 654.98 567.95 C 645.23 569.38 636.66 574.61 627.29 577.22 C 620.77 579.52 614.39 575.28 610.95 570.04 C 607.11 563.18 609.82 553.52 616.76 549.79 C 630.23 542.61 645.21 538.44 660.45 537.56 Z" />
<path fill="#ffffff" opacity="1.00" d=" M 587.43 575.43 C 597.08 572.57 607.28 582.04 605.68 591.86 C 604.83 602.53 590.31 609.45 582.07 601.91 C 571.62 595.54 575.51 577.40 587.43 575.43 Z" />
<path fill="#ffffff" opacity="1.00" d=" M 896.32 706.39 C 907.20 704.98 915.33 716.91 911.53 726.57 C 908.58 735.86 895.46 739.31 888.19 732.80 C 882.51 728.84 881.99 721.04 883.91 714.95 C 885.73 709.85 891.29 707.23 896.32 706.39 Z" />
</g>
<g id="#5fd2ffff">
<path fill="#5fd2ff" opacity="1.00" d=" M 553.17 570.20 C 577.89 529.71 627.43 505.85 674.51 512.64 C 703.31 515.46 730.27 529.80 750.30 550.43 C 761.74 548.19 773.30 545.89 785.01 546.14 C 801.27 547.44 817.62 551.11 832.02 558.97 C 853.49 570.19 870.72 589.09 880.51 611.20 C 884.10 619.65 886.61 628.53 888.38 637.54 C 913.64 641.12 935.85 660.82 941.01 686.05 C 948.47 715.35 930.58 748.05 902.34 758.40 C 895.25 761.04 887.64 762.13 880.11 762.51 C 850.41 761.67 820.69 761.95 790.99 762.12 C 770.40 762.86 749.81 761.50 729.22 762.07 C 706.68 761.96 684.14 761.93 661.60 762.27 C 634.37 762.12 607.13 761.40 579.92 762.71 C 561.06 762.92 541.59 764.37 523.32 758.66 C 505.29 752.79 490.23 739.00 482.11 721.95 C 468.81 695.51 475.11 660.90 496.68 640.68 C 506.79 630.06 520.70 624.21 534.66 620.60 C 538.01 602.95 543.04 585.25 553.17 570.20 M 660.45 537.56 C 645.21 538.44 630.23 542.61 616.76 549.79 C 609.82 553.52 607.11 563.18 610.95 570.04 C 614.39 575.28 620.77 579.52 627.29 577.22 C 636.66 574.61 645.23 569.38 654.98 567.95 C 668.82 565.98 683.31 567.24 696.31 572.58 C 707.67 576.93 716.96 585.08 726.26 592.68 C 731.63 598.50 740.86 595.50 745.93 590.94 C 750.62 584.85 750.26 575.71 744.81 570.21 C 723.53 547.50 691.58 534.59 660.45 537.56 M 587.43 575.43 C 575.51 577.40 571.62 595.54 582.07 601.91 C 590.31 609.45 604.83 602.53 605.68 591.86 C 607.28 582.04 597.08 572.57 587.43 575.43 M 896.32 706.39 C 891.29 707.23 885.73 709.85 883.91 714.95 C 881.99 721.04 882.51 728.84 888.19 732.80 C 895.46 739.31 908.58 735.86 911.53 726.57 C 915.33 716.91 907.20 704.98 896.32 706.39 Z" />
</g>
</svg>
