<?xml version="1.0" encoding="UTF-8" ?>
<!DOCTYPE svg PUBLIC "-//W3C//DTD SVG 1.1//EN" "http://www.w3.org/Graphics/SVG/1.1/DTD/svg11.dtd">
<svg width="1100pt" height="1200pt" viewBox="0 0 1100 1200" version="1.1" xmlns="http://www.w3.org/2000/svg">
<g id="#ffc833ff">
<path fill="#ffc833" opacity="1.00" d=" M 549.92 259.72 C 583.34 292.47 616.18 325.80 649.28 358.86 C 696.52 359.23 743.75 358.85 790.99 359.02 C 791.09 398.25 790.86 437.48 791.11 476.71 C 778.35 473.55 765.34 471.32 752.27 470.01 C 720.67 418.86 668.05 381.88 610.03 367.00 C 583.10 360.01 554.99 358.39 527.31 360.31 C 457.65 366.79 391.45 405.09 352.06 463.04 C 317.49 511.78 303.12 573.94 311.06 633.02 C 292.96 635.20 275.30 641.61 260.33 652.08 C 243.47 634.59 225.93 617.77 208.99 600.35 C 237.24 572.49 265.08 544.20 293.30 516.30 C 298.41 511.12 304.07 506.36 308.26 500.37 C 309.34 492.29 309.11 484.12 309.15 476.00 C 308.89 437.01 308.98 398.01 309.03 359.02 C 355.92 358.49 402.88 359.85 449.72 358.52 C 460.17 351.04 468.24 340.80 477.49 331.95 C 501.71 307.95 525.63 283.64 549.92 259.72 Z" />
<path fill="#ffc833" opacity="1.00" d=" M 533.96 852.82 C 540.18 851.59 545.52 848.09 551.00 845.09 C 582.70 844.71 614.43 845.12 646.14 845.06 C 615.83 876.12 584.75 906.41 554.30 937.33 C 552.59 938.70 549.90 942.76 547.80 939.26 C 519.82 911.16 491.45 883.40 463.81 854.96 C 476.53 854.28 489.26 853.71 502.00 854.29 C 512.61 854.55 523.61 855.90 533.96 852.82 Z" />
</g>
<g id="#23baeaff">
<path fill="#23baea" opacity="1.00" d=" M 256.99 381.99 C 288.74 339.56 340.93 313.04 393.99 312.93 C 422.87 311.50 451.96 318.52 477.49 331.95 C 468.24 340.80 460.17 351.04 449.72 358.52 C 402.88 359.85 355.92 358.49 309.03 359.02 C 308.98 398.01 308.89 437.01 309.15 476.00 C 309.11 484.12 309.34 492.29 308.26 500.37 C 304.07 506.36 298.41 511.12 293.30 516.30 C 265.08 544.20 237.24 572.49 208.99 600.35 C 225.93 617.77 243.47 634.59 260.33 652.08 C 254.48 656.58 248.73 661.27 243.42 666.41 C 204.01 668.93 164.83 645.61 147.97 610.02 C 132.78 579.64 134.78 541.65 153.02 513.03 C 167.98 488.96 193.50 471.88 221.50 467.34 C 226.25 436.59 237.74 406.63 256.99 381.99 Z" />
<path fill="#23baea" opacity="1.00" d=" M 628.31 507.32 C 663.36 480.42 708.29 467.64 752.27 470.01 C 765.34 471.32 778.35 473.55 791.11 476.71 C 839.75 490.44 882.26 524.31 905.97 569.01 C 917.03 589.06 923.20 611.34 927.01 633.82 C 947.21 638.01 966.93 646.57 981.79 661.21 C 1006.83 683.71 1019.28 718.76 1015.12 752.05 C 1012.41 771.15 1005.14 789.84 992.86 804.85 C 973.67 829.31 943.24 844.87 912.02 845.00 C 823.40 845.06 734.77 844.90 646.14 845.06 C 614.43 845.12 582.70 844.71 551.00 845.09 C 560.84 836.63 570.44 826.16 572.92 812.99 C 579.61 790.10 568.35 763.96 547.98 752.04 C 541.55 747.63 533.75 746.03 526.51 743.53 C 520.91 709.04 495.23 678.83 461.92 668.14 C 444.86 662.64 426.38 662.03 408.94 666.04 C 403.82 667.51 400.26 662.65 396.54 659.96 C 402.56 642.16 406.16 623.29 415.93 606.96 C 437.87 565.20 479.30 534.81 525.41 525.38 C 551.32 519.51 578.38 521.78 603.88 528.51 C 611.90 521.31 619.77 513.91 628.31 507.32 M 737.40 512.43 C 721.83 513.67 706.37 516.89 691.88 522.80 C 686.31 525.20 679.82 526.85 676.11 532.10 C 671.26 537.27 671.14 545.29 673.32 551.68 C 676.54 558.12 683.57 562.87 690.89 562.73 C 698.43 561.60 705.16 557.82 712.34 555.48 C 723.04 551.38 734.55 549.57 746.00 549.92 C 769.60 549.61 793.78 555.96 812.91 570.11 C 819.72 574.63 825.27 581.27 833.33 583.69 C 838.40 584.61 844.05 583.49 847.93 579.92 C 857.09 573.67 857.53 558.87 849.44 551.56 C 819.99 523.23 777.90 509.60 737.40 512.43 Z" />
</g>
<g id="#ffeb2cff">
<path fill="#ffeb2c" opacity="1.00" d=" M 527.31 360.31 C 554.99 358.39 583.10 360.01 610.03 367.00 C 668.05 381.88 720.67 418.86 752.27 470.01 C 708.29 467.64 663.36 480.42 628.31 507.32 C 619.77 513.91 611.90 521.31 603.88 528.51 C 578.38 521.78 551.32 519.51 525.41 525.38 C 479.30 534.81 437.87 565.20 415.93 606.96 C 406.16 623.29 402.56 642.16 396.54 659.96 C 373.68 638.93 341.62 630.24 311.06 633.02 C 303.12 573.94 317.49 511.78 352.06 463.04 C 391.45 405.09 457.65 366.79 527.31 360.31 M 531.44 393.56 C 483.51 397.66 437.15 419.02 403.42 453.39 C 396.27 460.97 400.70 474.97 410.86 477.24 C 420.40 480.33 427.03 471.87 433.47 466.49 C 460.91 441.81 496.48 426.85 533.13 423.30 C 540.85 422.64 548.78 423.38 556.34 421.34 C 565.36 417.33 567.91 404.03 560.83 397.16 C 552.84 389.71 541.11 393.73 531.44 393.56 M 381.66 492.38 C 370.01 491.39 366.20 503.77 361.96 511.98 C 355.46 526.10 349.98 540.81 347.15 556.13 C 346.19 561.56 347.67 568.31 353.00 571.01 C 360.72 577.55 373.76 572.69 375.77 562.84 C 379.64 550.08 383.02 537.03 389.04 525.04 C 391.72 518.42 397.36 512.08 395.53 504.43 C 394.69 497.78 388.09 492.84 381.66 492.38 Z" />
</g>
<g id="#ffffffff">
<path fill="#ffffff" opacity="1.00" d=" M 531.44 393.56 C 541.11 393.73 552.84 389.71 560.83 397.16 C 567.91 404.03 565.36 417.33 556.34 421.34 C 548.78 423.38 540.85 422.64 533.13 423.30 C 496.48 426.85 460.91 441.81 433.47 466.49 C 427.03 471.87 420.40 480.33 410.86 477.24 C 400.70 474.97 396.27 460.97 403.42 453.39 C 437.15 419.02 483.51 397.66 531.44 393.56 Z" />
<path fill="#ffffff" opacity="1.00" d=" M 381.66 492.38 C 388.09 492.84 394.69 497.78 395.53 504.43 C 397.36 512.08 391.72 518.42 389.04 525.04 C 383.02 537.03 379.64 550.08 375.77 562.84 C 373.76 572.69 360.72 577.55 353.00 571.01 C 347.67 568.31 346.19 561.56 347.15 556.13 C 349.98 540.81 355.46 526.10 361.96 511.98 C 366.20 503.77 370.01 491.39 381.66 492.38 Z" />
<path fill="#ffffff" opacity="1.00" d=" M 737.40 512.43 C 777.90 509.60 819.99 523.23 849.44 551.56 C 857.53 558.87 857.09 573.67 847.93 579.92 C 844.05 583.49 838.40 584.61 833.33 583.69 C 825.27 581.27 819.72 574.63 812.91 570.11 C 793.78 555.96 769.60 549.61 746.00 549.92 C 734.55 549.57 723.04 551.38 712.34 555.48 C 705.16 557.82 698.43 561.60 690.89 562.73 C 683.57 562.87 676.54 558.12 673.32 551.68 C 671.14 545.29 671.26 537.27 676.11 532.10 C 679.82 526.85 686.31 525.20 691.88 522.80 C 706.37 516.89 721.83 513.67 737.40 512.43 Z" />
<path fill="#ffffff" opacity="1.00" d=" M 324.45 655.52 C 350.97 652.99 377.99 663.59 396.96 682.04 C 400.33 685.10 403.83 688.96 403.01 694.01 C 404.33 703.09 392.84 710.25 385.04 705.93 C 378.53 701.95 373.56 695.92 367.01 692.01 C 352.12 682.37 333.30 679.94 316.08 683.24 C 307.21 685.17 299.31 691.01 290.03 691.02 C 279.31 690.08 275.45 674.81 283.29 668.31 C 295.41 660.17 310.09 656.83 324.45 655.52 Z" />
<path fill="#ffffff" opacity="1.00" d=" M 259.42 689.39 C 265.57 687.47 272.83 690.90 275.07 696.96 C 279.21 705.34 271.44 716.57 261.95 715.08 C 252.87 715.39 246.55 703.85 251.00 696.00 C 253.01 693.05 255.61 689.82 259.42 689.39 Z" />
<path fill="#ffffff" opacity="1.00" d=" M 532.43 805.46 C 541.01 803.47 549.80 812.10 547.84 820.87 C 546.45 831.82 529.52 836.04 524.01 826.00 C 518.21 818.77 523.24 806.45 532.43 805.46 Z" />
</g>
<g id="#5fd2ffff">
<path fill="#5fd2ff" opacity="1.00" d=" M 311.06 633.02 C 341.62 630.24 373.68 638.93 396.54 659.96 C 400.26 662.65 403.82 667.51 408.94 666.04 C 426.38 662.03 444.86 662.64 461.92 668.14 C 495.23 678.83 520.91 709.04 526.51 743.53 C 533.75 746.03 541.55 747.63 547.98 752.04 C 568.35 763.96 579.61 790.10 572.92 812.99 C 570.44 826.16 560.84 836.63 551.00 845.09 C 545.52 848.09 540.18 851.59 533.96 852.82 C 523.61 855.90 512.61 854.55 502.00 854.29 C 489.26 853.71 476.53 854.28 463.81 854.96 C 383.53 855.07 303.25 854.95 222.98 855.02 C 196.02 855.21 170.22 836.10 163.08 809.99 C 155.67 787.21 163.27 760.96 181.23 745.24 C 189.79 736.75 201.21 732.17 212.80 729.58 C 216.57 706.11 226.78 683.56 243.42 666.41 C 248.73 661.27 254.48 656.58 260.33 652.08 C 275.30 641.61 292.96 635.20 311.06 633.02 M 324.45 655.52 C 310.09 656.83 295.41 660.17 283.29 668.31 C 275.45 674.81 279.31 690.08 290.03 691.02 C 299.31 691.01 307.21 685.17 316.08 683.24 C 333.30 679.94 352.12 682.37 367.01 692.01 C 373.56 695.92 378.53 701.95 385.04 705.93 C 392.84 710.25 404.33 703.09 403.01 694.01 C 403.83 688.96 400.33 685.10 396.96 682.04 C 377.99 663.59 350.97 652.99 324.45 655.52 M 259.42 689.39 C 255.61 689.82 253.01 693.05 251.00 696.00 C 246.55 703.85 252.87 715.39 261.95 715.08 C 271.44 716.57 279.21 705.34 275.07 696.96 C 272.83 690.90 265.57 687.47 259.42 689.39 M 532.43 805.46 C 523.24 806.45 518.21 818.77 524.01 826.00 C 529.52 836.04 546.45 831.82 547.84 820.87 C 549.80 812.10 541.01 803.47 532.43 805.46 Z" />
</g>
</svg>
