<?xml version="1.0" encoding="UTF-8" ?>
<!DOCTYPE svg PUBLIC "-//W3C//DTD SVG 1.1//EN" "http://www.w3.org/Graphics/SVG/1.1/DTD/svg11.dtd">
<svg width="1100pt" height="1200pt" viewBox="0 0 1100 1200" version="1.1" xmlns="http://www.w3.org/2000/svg">
<g id="#132a3333">
<path fill="#132a33" opacity="0.20" d=" M 390.15 185.08 C 402.86 181.77 415.96 180.27 429.00 178.98 C 441.00 179.35 453.10 178.14 465.02 179.96 C 506.37 183.85 546.27 200.46 578.66 226.36 C 586.39 233.07 594.36 239.52 601.39 246.98 C 614.98 243.30 628.86 239.91 643.02 239.92 C 651.26 238.53 659.73 238.57 667.99 239.87 C 686.58 240.60 704.69 245.57 722.11 251.82 C 746.13 261.52 768.75 275.45 786.73 294.22 C 810.90 317.32 827.34 347.79 836.11 379.88 C 837.75 385.77 838.36 391.89 840.05 397.77 C 866.84 401.05 891.78 415.36 909.03 435.98 C 920.94 450.50 929.18 468.10 932.44 486.61 C 933.26 492.46 934.66 498.34 933.68 504.27 C 927.85 499.43 921.83 494.81 915.48 490.66 C 914.49 490.21 913.50 489.76 912.52 489.32 C 911.15 488.44 909.81 487.54 908.45 486.68 C 905.40 485.22 902.37 483.73 899.41 482.12 C 898.95 482.06 898.01 481.96 897.55 481.90 C 896.53 481.33 895.52 480.77 894.52 480.22 C 893.47 479.90 892.43 479.58 891.40 479.25 C 890.94 479.14 890.02 478.92 889.56 478.81 C 888.18 478.25 886.79 477.74 885.43 477.19 C 884.97 477.07 884.06 476.82 883.60 476.70 C 882.27 476.33 880.94 476.01 879.62 475.69 C 877.85 475.19 876.08 474.76 874.35 474.24 C 873.11 474.05 871.88 473.87 870.67 473.68 C 867.88 473.03 864.97 473.01 862.22 472.20 C 858.71 471.94 855.19 472.03 851.69 471.91 C 850.62 471.48 849.55 471.08 848.49 470.71 C 846.10 469.56 843.74 468.39 841.43 467.13 C 840.96 467.06 840.04 466.94 839.58 466.87 C 836.55 465.25 833.45 463.75 830.43 462.13 C 829.97 462.06 829.03 461.93 828.57 461.87 C 825.55 460.25 822.47 458.76 819.46 457.14 C 818.98 457.07 818.03 456.94 817.55 456.87 C 815.19 455.60 812.79 454.39 810.43 453.12 C 809.97 453.06 809.03 452.93 808.56 452.87 C 805.54 451.24 802.46 449.75 799.44 448.13 C 798.97 448.07 798.03 447.94 797.56 447.88 C 795.19 446.60 792.79 445.39 790.43 444.12 C 789.96 444.06 789.02 443.93 788.55 443.87 C 785.53 442.24 782.44 440.75 779.43 439.13 C 778.96 439.07 778.03 438.94 777.57 438.88 C 775.20 437.61 772.81 436.40 770.46 435.13 C 769.98 435.07 769.02 434.93 768.54 434.86 C 765.53 433.24 762.45 431.75 759.44 430.14 C 758.97 430.07 758.02 429.93 757.55 429.86 C 754.54 428.25 751.46 426.76 748.46 425.14 C 747.99 425.07 747.05 424.93 746.57 424.86 C 744.51 423.75 742.41 422.70 740.30 421.71 C 740.00 421.14 739.41 420.01 739.11 419.44 C 739.06 418.95 738.97 417.99 738.93 417.51 C 738.31 416.50 737.69 415.50 737.09 414.50 C 737.01 414.02 736.85 413.07 736.78 412.59 C 736.42 411.56 736.08 410.52 735.77 409.48 C 735.20 408.46 734.64 407.45 734.08 406.44 C 734.05 405.96 733.97 405.00 733.94 404.51 C 733.31 403.50 732.69 402.49 732.08 401.48 C 732.01 401.02 731.86 400.09 731.78 399.62 C 731.42 398.57 731.08 397.53 730.77 396.48 C 730.22 395.47 729.67 394.47 729.13 393.48 C 729.04 393.00 728.86 392.06 728.77 391.59 C 728.41 390.55 728.08 389.52 727.77 388.49 C 727.22 387.47 726.67 386.47 726.13 385.47 C 726.04 385.00 725.86 384.06 725.77 383.60 C 725.41 382.54 725.08 381.50 724.76 380.45 C 724.21 379.45 723.67 378.47 723.13 377.49 C 723.04 377.01 722.86 376.06 722.77 375.59 C 722.41 374.55 722.08 373.50 721.77 372.46 C 721.20 371.45 720.64 370.44 720.08 369.44 C 720.05 368.96 719.97 368.00 719.94 367.52 C 719.31 366.50 718.69 365.49 718.09 364.48 C 718.01 364.02 717.86 363.09 717.79 362.63 C 717.42 361.58 717.08 360.53 716.77 359.48 C 716.21 358.47 715.67 357.47 715.13 356.48 C 715.04 356.01 714.86 355.07 714.77 354.60 C 714.41 353.55 714.08 352.50 713.76 351.45 C 713.21 350.45 712.66 349.46 712.12 348.47 C 712.03 348.00 711.86 347.05 711.77 346.58 C 711.41 345.55 711.08 344.52 710.77 343.49 C 710.21 342.47 709.65 341.46 709.09 340.45 C 709.05 339.98 708.95 339.03 708.91 338.55 C 708.34 337.54 707.78 336.53 707.23 335.52 C 706.90 334.48 706.57 333.44 706.23 332.42 C 706.15 331.93 705.98 330.96 705.89 330.48 C 705.29 329.48 704.69 328.49 704.10 327.50 C 704.02 327.03 703.86 326.07 703.77 325.59 C 703.42 324.55 703.08 323.52 702.77 322.48 C 702.21 321.47 701.67 320.47 701.12 319.47 C 701.04 319.00 700.86 318.07 700.78 317.60 C 700.41 316.57 700.07 315.54 699.75 314.51 C 699.24 313.50 698.74 312.50 698.26 311.50 C 697.91 310.46 697.57 309.43 697.21 308.41 C 697.14 307.93 696.98 306.98 696.91 306.50 C 696.29 305.49 695.67 304.48 695.06 303.49 C 695.03 303.00 694.95 302.04 694.92 301.56 C 694.34 300.55 693.78 299.53 693.23 298.52 C 692.89 297.47 692.55 296.43 692.20 295.39 C 692.15 294.89 692.05 293.89 692.00 293.39 C 691.14 292.26 690.50 290.90 689.32 290.08 C 688.01 290.38 686.76 290.79 685.49 291.14 C 684.48 291.72 683.48 292.30 682.49 292.89 C 682.02 292.97 681.07 293.14 680.59 293.23 C 679.55 293.57 678.52 293.90 677.50 294.23 C 676.47 294.77 675.46 295.32 674.46 295.87 C 673.99 295.96 673.06 296.14 672.59 296.23 C 671.55 296.57 670.51 296.91 669.48 297.23 C 668.47 297.77 667.47 298.32 666.47 298.87 C 666.00 298.96 665.06 299.14 664.58 299.23 C 663.54 299.58 662.51 299.91 661.48 300.23 C 660.47 300.77 659.47 301.32 658.48 301.87 C 658.01 301.96 657.07 302.14 656.60 302.23 C 655.56 302.57 654.52 302.90 653.49 303.22 C 652.46 303.78 651.44 304.35 650.43 304.92 C 649.96 304.96 649.01 305.02 648.54 305.05 C 647.52 305.67 646.51 306.29 645.50 306.91 C 645.02 306.99 644.07 307.14 643.59 307.22 C 642.56 307.57 641.53 307.91 640.50 308.23 C 639.48 308.77 638.47 309.32 637.47 309.87 C 637.00 309.96 636.06 310.14 635.59 310.22 C 634.56 310.57 633.53 310.92 632.51 311.25 C 631.49 311.75 630.49 312.25 629.49 312.75 C 628.45 313.08 627.42 313.42 626.40 313.79 C 625.92 313.86 624.96 314.02 624.48 314.10 C 623.47 314.71 622.47 315.33 621.47 315.95 C 620.98 315.97 620.00 316.03 619.51 316.05 C 618.53 316.66 617.54 317.27 616.57 317.89 C 616.06 317.97 615.06 318.14 614.55 318.23 C 613.54 318.58 612.52 318.92 611.52 319.25 C 610.50 319.75 609.49 320.25 608.48 320.75 C 607.45 321.08 606.43 321.42 605.42 321.78 C 604.94 321.86 603.97 322.02 603.48 322.10 C 602.48 322.70 601.49 323.30 600.50 323.90 C 600.03 323.98 599.08 324.14 598.60 324.22 C 597.56 324.57 596.53 324.90 595.49 325.23 C 594.51 325.75 593.54 326.29 592.58 326.83 C 592.05 326.94 590.99 327.17 590.46 327.28 C 589.46 327.60 588.47 327.92 587.48 328.23 C 586.47 328.78 585.47 329.33 584.48 329.90 C 583.99 329.95 583.03 330.05 582.54 330.09 C 581.53 330.65 580.53 331.21 579.53 331.77 C 578.48 332.09 577.44 332.42 576.41 332.77 C 575.94 332.86 574.99 333.04 574.52 333.13 C 573.52 333.67 572.52 334.22 571.52 334.77 C 570.47 335.09 569.44 335.42 568.41 335.77 C 567.94 335.86 566.98 336.02 566.51 336.11 C 565.50 336.69 564.50 337.28 563.51 337.86 C 563.05 337.99 562.12 338.25 561.66 338.37 C 559.60 339.12 557.40 339.10 555.34 338.39 C 554.89 338.25 553.98 337.96 553.53 337.82 C 551.16 336.59 548.78 335.39 546.44 334.13 C 545.97 334.06 545.02 333.93 544.55 333.87 C 541.54 332.24 538.46 330.75 535.45 329.14 C 534.97 329.07 534.01 328.93 533.53 328.87 C 531.18 327.60 528.79 326.39 526.45 325.13 C 525.97 325.06 525.03 324.93 524.55 324.86 C 521.54 323.24 518.45 321.75 515.44 320.13 C 514.97 320.07 514.04 319.94 513.57 319.88 C 511.20 318.60 508.80 317.40 506.44 316.12 C 505.98 316.06 505.04 315.93 504.57 315.87 C 501.55 314.25 498.47 312.76 495.46 311.14 C 494.98 311.07 494.02 310.93 493.54 310.86 C 490.53 309.24 487.45 307.75 484.44 306.13 C 483.97 306.07 483.03 305.94 482.57 305.88 C 480.20 304.60 477.81 303.40 475.45 302.13 C 474.98 302.06 474.02 301.93 473.55 301.86 C 470.53 300.24 467.45 298.75 464.43 297.13 C 463.96 297.06 463.02 296.94 462.55 296.87 C 460.20 295.60 457.80 294.40 455.45 293.13 C 454.97 293.06 454.02 292.93 453.54 292.86 C 450.53 291.24 447.45 289.75 444.43 288.13 C 443.96 288.07 443.03 287.94 442.56 287.88 C 440.21 286.61 437.83 285.41 435.49 284.15 C 435.01 284.07 434.05 283.91 433.57 283.83 C 431.79 282.77 429.87 281.42 427.91 282.92 C 427.91 283.55 427.91 284.81 427.91 285.45 C 426.23 288.44 424.74 291.54 423.13 294.57 C 423.06 295.04 422.93 295.98 422.87 296.44 C 421.24 299.46 419.75 302.54 418.13 305.55 C 418.07 306.03 417.94 306.97 417.87 307.45 C 416.60 309.80 415.39 312.19 414.13 314.55 C 414.06 315.02 413.94 315.96 413.88 316.44 C 411.94 319.97 410.13 323.59 408.52 327.28 C 406.49 326.28 404.49 325.23 402.51 324.16 C 401.99 324.08 400.95 323.91 400.44 323.83 C 398.83 322.95 397.21 322.10 395.60 321.25 C 394.55 320.95 393.50 320.65 392.46 320.34 C 391.45 320.00 390.44 319.66 389.44 319.31 C 388.44 318.98 387.44 318.65 386.46 318.31 C 385.44 317.99 384.44 317.66 383.44 317.33 C 382.42 316.97 381.42 316.60 380.41 316.22 C 379.96 316.10 379.05 315.87 378.59 315.75 C 376.86 315.22 375.11 314.77 373.38 314.24 C 372.46 314.06 371.55 313.87 370.65 313.69 C 369.00 313.28 367.32 312.96 365.66 312.65 C 364.00 312.26 362.34 311.94 360.68 311.60 C 358.39 311.14 356.06 310.94 353.75 310.68 C 350.82 309.90 347.77 309.97 344.77 309.76 C 341.30 308.60 337.60 309.03 334.01 308.99 C 327.26 309.12 320.50 308.75 313.76 309.22 C 310.37 310.37 306.70 309.69 303.28 310.69 C 301.75 310.89 300.23 311.07 298.71 311.26 C 297.05 311.69 295.36 312.02 293.68 312.38 C 292.01 312.73 290.32 313.01 288.63 313.29 C 286.88 313.78 285.12 314.20 283.37 314.68 C 282.04 315.00 280.71 315.33 279.40 315.70 C 278.95 315.83 278.04 316.08 277.59 316.21 C 276.21 316.73 274.82 317.21 273.45 317.73 C 272.44 318.04 271.44 318.35 270.45 318.68 C 269.44 319.00 268.43 319.33 267.42 319.67 C 266.42 320.03 265.43 320.41 264.44 320.80 C 263.95 320.88 262.98 321.05 262.50 321.13 C 260.83 322.05 259.15 322.95 257.48 323.88 C 257.00 323.94 256.05 324.06 255.57 324.12 C 248.39 327.91 240.98 331.29 234.03 335.51 C 234.30 330.99 236.29 326.85 237.63 322.59 C 243.57 306.52 251.48 291.21 260.75 276.81 C 266.46 269.20 271.41 260.93 278.20 254.20 C 280.48 251.48 282.60 248.62 285.24 246.23 C 291.07 240.73 296.26 234.51 302.77 229.77 C 327.89 208.35 358.16 193.12 390.15 185.08 Z" />
<path fill="#132a33" opacity="0.20" d=" M 152.33 411.33 C 160.10 402.99 167.96 394.16 178.25 388.92 C 174.31 394.96 171.18 401.48 167.10 407.44 C 167.04 407.95 166.92 408.97 166.86 409.48 C 164.88 413.09 163.10 416.81 161.27 420.50 C 160.93 421.53 160.58 422.55 160.22 423.58 C 160.14 424.05 159.97 424.99 159.88 425.46 C 159.32 426.47 158.77 427.48 158.22 428.50 C 157.91 429.53 157.58 430.55 157.25 431.58 C 157.13 432.05 156.90 432.97 156.78 433.43 C 156.40 434.42 156.02 435.42 155.66 436.43 C 155.20 438.10 154.79 439.79 154.33 441.47 C 154.16 441.98 153.82 443.01 153.65 443.52 C 153.30 444.80 152.98 446.09 152.67 447.38 C 152.30 448.70 151.96 450.03 151.63 451.37 C 151.25 453.01 150.95 454.68 150.64 456.35 C 150.13 458.76 149.86 461.22 149.45 463.66 C 148.95 465.03 149.04 466.87 147.66 467.76 C 146.33 468.02 144.97 468.12 143.63 468.28 C 141.90 468.76 140.16 469.18 138.44 469.67 C 137.44 470.00 136.45 470.34 135.46 470.69 C 134.45 471.00 133.44 471.33 132.43 471.66 C 131.42 472.03 130.41 472.42 129.41 472.82 C 128.93 472.88 127.95 473.01 127.47 473.08 C 126.45 473.67 125.42 474.25 124.42 474.87 C 126.98 451.51 137.22 429.24 152.33 411.33 Z" />
</g>
<g id="#dfca5cff">
<path fill="#dfca5c" opacity="1.00" d=" M 427.91 282.92 C 429.87 281.42 431.79 282.77 433.57 283.83 C 434.05 283.91 435.01 284.07 435.49 284.15 C 437.83 285.41 440.21 286.61 442.56 287.88 C 443.03 287.94 443.96 288.07 444.43 288.13 C 447.45 289.75 450.53 291.24 453.54 292.86 C 454.02 292.93 454.97 293.06 455.45 293.13 C 457.80 294.40 460.20 295.60 462.55 296.87 C 463.02 296.94 463.96 297.06 464.43 297.13 C 467.45 298.75 470.53 300.24 473.55 301.86 C 474.02 301.93 474.98 302.06 475.45 302.13 C 477.81 303.40 480.20 304.60 482.57 305.88 C 483.03 305.94 483.97 306.07 484.44 306.13 C 487.45 307.75 490.53 309.24 493.54 310.86 C 494.02 310.93 494.98 311.07 495.46 311.14 C 498.47 312.76 501.55 314.25 504.57 315.87 C 505.04 315.93 505.98 316.06 506.44 316.12 C 508.80 317.40 511.20 318.60 513.57 319.88 C 514.04 319.94 514.97 320.07 515.44 320.13 C 518.45 321.75 521.54 323.24 524.55 324.86 C 525.03 324.93 525.97 325.06 526.45 325.13 C 528.79 326.39 531.18 327.60 533.53 328.87 C 534.01 328.93 534.97 329.07 535.45 329.14 C 538.46 330.75 541.54 332.24 544.55 333.87 C 545.02 333.93 545.97 334.06 546.44 334.13 C 548.78 335.39 551.16 336.59 553.53 337.82 C 553.98 337.96 554.89 338.25 555.34 338.39 C 557.40 339.10 559.60 339.12 561.66 338.37 C 562.12 338.25 563.05 337.99 563.51 337.86 C 564.50 337.28 565.50 336.69 566.51 336.11 C 566.98 336.02 567.94 335.86 568.41 335.77 C 569.44 335.42 570.47 335.09 571.52 334.77 C 572.52 334.22 573.52 333.67 574.52 333.13 C 574.99 333.04 575.94 332.86 576.41 332.77 C 577.44 332.42 578.48 332.09 579.53 331.77 C 580.53 331.21 581.53 330.65 582.54 330.09 C 583.03 330.05 583.99 329.95 584.48 329.90 C 585.47 329.33 586.47 328.78 587.48 328.23 C 588.47 327.92 589.46 327.60 590.46 327.28 C 590.99 327.17 592.05 326.94 592.58 326.83 C 593.54 326.29 594.51 325.75 595.49 325.23 C 596.53 324.90 597.56 324.57 598.60 324.22 C 599.08 324.14 600.03 323.98 600.50 323.90 C 601.49 323.30 602.48 322.70 603.48 322.10 C 603.97 322.02 604.94 321.86 605.42 321.78 C 606.43 321.42 607.45 321.08 608.48 320.75 C 609.49 320.25 610.50 319.75 611.52 319.25 C 612.52 318.92 613.54 318.58 614.55 318.23 C 615.06 318.14 616.06 317.97 616.57 317.89 C 617.54 317.27 618.53 316.66 619.51 316.05 C 620.00 316.03 620.98 315.97 621.47 315.95 C 622.47 315.33 623.47 314.71 624.48 314.10 C 624.96 314.02 625.92 313.86 626.40 313.79 C 627.42 313.42 628.45 313.08 629.49 312.75 C 630.49 312.25 631.49 311.75 632.51 311.25 C 633.53 310.92 634.56 310.57 635.59 310.22 C 636.06 310.14 637.00 309.96 637.47 309.87 C 638.47 309.32 639.48 308.77 640.50 308.23 C 641.53 307.91 642.56 307.57 643.59 307.22 C 644.07 307.14 645.02 306.99 645.50 306.91 C 646.51 306.29 647.52 305.67 648.54 305.05 C 649.01 305.02 649.96 304.96 650.43 304.92 C 651.44 304.35 652.46 303.78 653.49 303.22 C 654.52 302.90 655.56 302.57 656.60 302.23 C 657.07 302.14 658.01 301.96 658.48 301.87 C 659.47 301.32 660.47 300.77 661.48 300.23 C 662.51 299.91 663.54 299.58 664.58 299.23 C 665.06 299.14 666.00 298.96 666.47 298.87 C 667.47 298.32 668.47 297.77 669.48 297.23 C 670.51 296.91 671.55 296.57 672.59 296.23 C 673.06 296.14 673.99 295.96 674.46 295.87 C 675.46 295.32 676.47 294.77 677.50 294.23 C 678.52 293.90 679.55 293.57 680.59 293.23 C 681.07 293.14 682.02 292.97 682.49 292.89 C 683.48 292.30 684.48 291.72 685.49 291.14 C 686.76 290.79 688.01 290.38 689.32 290.08 C 690.50 290.90 691.14 292.26 692.00 293.39 C 692.05 293.89 692.15 294.89 692.20 295.39 C 692.55 296.43 692.89 297.47 693.23 298.52 C 693.78 299.53 694.34 300.55 694.92 301.56 C 694.95 302.04 695.03 303.00 695.06 303.49 C 695.67 304.48 696.29 305.49 696.91 306.50 C 696.98 306.98 697.14 307.93 697.21 308.41 C 697.57 309.43 697.91 310.46 698.26 311.50 C 698.74 312.50 699.24 313.50 699.75 314.51 C 700.07 315.54 700.41 316.57 700.78 317.60 C 700.86 318.07 701.04 319.00 701.12 319.47 C 701.67 320.47 702.21 321.47 702.77 322.48 C 703.08 323.52 703.42 324.55 703.77 325.59 C 703.86 326.07 704.02 327.03 704.10 327.50 C 704.69 328.49 705.29 329.48 705.89 330.48 C 705.98 330.96 706.15 331.93 706.23 332.42 C 706.57 333.44 706.90 334.48 707.23 335.52 C 707.78 336.53 708.34 337.54 708.91 338.55 C 708.95 339.03 709.05 339.98 709.09 340.45 C 709.65 341.46 710.21 342.47 710.77 343.49 C 711.08 344.52 711.41 345.55 711.77 346.58 C 711.86 347.05 712.03 348.00 712.12 348.47 C 712.66 349.46 713.21 350.45 713.76 351.45 C 714.08 352.50 714.41 353.55 714.77 354.60 C 714.86 355.07 715.04 356.01 715.13 356.48 C 715.67 357.47 716.21 358.47 716.77 359.48 C 717.08 360.53 717.42 361.58 717.79 362.63 C 717.86 363.09 718.01 364.02 718.09 364.48 C 718.69 365.49 719.31 366.50 719.94 367.52 C 719.97 368.00 720.05 368.96 720.08 369.44 C 720.64 370.44 721.20 371.45 721.77 372.46 C 722.08 373.50 722.41 374.55 722.77 375.59 C 722.86 376.06 723.04 377.01 723.13 377.49 C 723.67 378.47 724.21 379.45 724.76 380.45 C 725.08 381.50 725.41 382.54 725.77 383.60 C 725.86 384.06 726.04 385.00 726.13 385.47 C 726.67 386.47 727.22 387.47 727.77 388.49 C 728.08 389.52 728.41 390.55 728.77 391.59 C 728.86 392.06 729.04 393.00 729.13 393.48 C 729.67 394.47 730.22 395.47 730.77 396.48 C 731.08 397.53 731.42 398.57 731.78 399.62 C 731.86 400.09 732.01 401.02 732.08 401.48 C 732.69 402.49 733.31 403.50 733.94 404.51 C 733.97 405.00 734.05 405.96 734.08 406.44 C 734.64 407.45 735.20 408.46 735.77 409.48 C 736.08 410.52 736.42 411.56 736.78 412.59 C 736.85 413.07 737.01 414.02 737.09 414.50 C 737.69 415.50 738.31 416.50 738.93 417.51 C 738.97 417.99 739.06 418.95 739.11 419.44 C 739.41 420.01 740.00 421.14 740.30 421.71 C 742.41 422.70 744.51 423.75 746.57 424.86 C 747.05 424.93 747.99 425.07 748.46 425.14 C 751.46 426.76 754.54 428.25 757.55 429.86 C 758.02 429.93 758.97 430.07 759.44 430.14 C 762.45 431.75 765.53 433.24 768.54 434.86 C 769.02 434.93 769.98 435.07 770.46 435.13 C 772.81 436.40 775.20 437.61 777.57 438.88 C 778.03 438.94 778.96 439.07 779.43 439.13 C 782.44 440.75 785.53 442.24 788.55 443.87 C 789.02 443.93 789.96 444.06 790.43 444.12 C 792.79 445.39 795.19 446.60 797.56 447.88 C 798.03 447.94 798.97 448.07 799.44 448.13 C 802.46 449.75 805.54 451.24 808.56 452.87 C 809.03 452.93 809.97 453.06 810.43 453.12 C 812.79 454.39 815.19 455.60 817.55 456.87 C 818.03 456.94 818.98 457.07 819.46 457.14 C 822.47 458.76 825.55 460.25 828.57 461.87 C 829.03 461.93 829.97 462.06 830.43 462.13 C 833.45 463.75 836.55 465.25 839.58 466.87 C 840.04 466.94 840.96 467.06 841.43 467.13 C 843.74 468.39 846.10 469.56 848.49 470.71 C 849.55 471.08 850.62 471.48 851.69 471.91 C 850.69 471.86 848.68 471.77 847.68 471.72 C 819.29 471.32 790.95 480.98 768.52 498.37 C 758.05 476.15 744.09 455.62 727.65 437.40 C 688.54 394.69 633.59 366.81 575.96 360.79 C 568.61 359.55 561.11 360.57 553.77 359.31 C 548.51 358.34 543.33 360.18 538.07 360.01 C 534.18 359.87 530.29 360.04 526.46 360.72 C 521.27 359.91 515.98 360.21 510.80 359.33 C 504.91 358.49 498.94 359.00 493.08 359.83 C 481.92 360.57 470.89 362.65 460.16 365.78 C 454.00 359.63 448.29 352.91 441.03 348.01 C 431.16 339.73 420.05 332.98 408.52 327.28 C 410.13 323.59 411.94 319.97 413.88 316.44 C 413.94 315.96 414.06 315.02 414.13 314.55 C 415.39 312.19 416.60 309.80 417.87 307.45 C 417.94 306.97 418.07 306.03 418.13 305.55 C 419.75 302.54 421.24 299.46 422.87 296.44 C 422.93 295.98 423.06 295.04 423.13 294.57 C 424.74 291.54 426.23 288.44 427.91 285.45 C 427.91 284.81 427.91 283.55 427.91 282.92 Z" />
</g>
<g id="#2fbfeeff">
<path fill="#2fbfee" opacity="1.00" d=" M 313.76 309.22 C 320.50 308.75 327.26 309.12 334.01 308.99 C 337.60 309.03 341.30 308.60 344.77 309.76 C 347.77 309.97 350.82 309.90 353.75 310.68 C 356.06 310.94 358.39 311.14 360.68 311.60 C 362.34 311.94 364.00 312.26 365.66 312.65 C 367.32 312.96 369.00 313.28 370.65 313.69 C 371.55 313.87 372.46 314.06 373.38 314.24 C 375.11 314.77 376.86 315.22 378.59 315.75 C 379.05 315.87 379.96 316.10 380.41 316.22 C 381.42 316.60 382.42 316.97 383.44 317.33 C 384.44 317.66 385.44 317.99 386.46 318.31 C 387.44 318.65 388.44 318.98 389.44 319.31 C 390.44 319.66 391.45 320.00 392.46 320.34 C 393.50 320.65 394.55 320.95 395.60 321.25 C 397.21 322.10 398.83 322.95 400.44 323.83 C 400.95 323.91 401.99 324.08 402.51 324.16 C 404.49 325.23 406.49 326.28 408.52 327.28 C 420.05 332.98 431.16 339.73 441.03 348.01 C 448.29 352.91 454.00 359.63 460.16 365.78 C 470.89 362.65 481.92 360.57 493.08 359.83 C 498.94 359.00 504.91 358.49 510.80 359.33 C 515.98 360.21 521.27 359.91 526.46 360.72 C 552.70 364.35 578.02 374.73 599.17 390.70 C 631.03 414.68 653.54 451.27 659.18 490.87 C 674.96 493.18 690.13 499.46 702.77 509.22 C 712.94 517.32 722.24 527.27 727.43 539.34 C 723.45 537.96 719.77 535.90 716.10 533.89 C 705.75 528.72 695.01 524.30 683.84 521.24 C 671.40 518.31 658.87 515.06 646.00 515.00 C 633.47 514.61 620.81 514.28 608.41 516.44 C 575.71 520.96 544.29 534.81 518.96 556.00 C 515.76 558.77 512.65 561.64 509.38 564.34 C 506.77 566.45 504.80 569.33 501.85 571.01 C 499.30 571.01 496.84 570.26 494.38 569.70 C 482.81 566.81 470.92 565.35 459.02 564.93 C 451.51 564.95 444.06 566.05 436.58 566.52 C 407.60 570.44 379.61 582.39 357.18 601.24 C 352.05 605.01 347.83 609.81 343.22 614.16 C 319.49 613.71 295.74 614.18 272.00 613.97 C 259.36 613.85 246.70 614.33 234.07 613.83 C 205.61 610.67 177.78 597.91 158.24 576.75 C 140.55 559.47 129.28 536.18 124.95 511.94 C 123.24 499.67 121.85 487.14 124.42 474.87 C 125.42 474.25 126.45 473.67 127.47 473.08 C 127.95 473.01 128.93 472.88 129.41 472.82 C 130.41 472.42 131.42 472.03 132.43 471.66 C 133.44 471.33 134.45 471.00 135.46 470.69 C 136.45 470.34 137.44 470.00 138.44 469.67 C 140.16 469.18 141.90 468.76 143.63 468.28 C 144.97 468.12 146.33 468.02 147.66 467.76 C 149.04 466.87 148.95 465.03 149.45 463.66 C 149.86 461.22 150.13 458.76 150.64 456.35 C 150.95 454.68 151.25 453.01 151.63 451.37 C 151.96 450.03 152.30 448.70 152.67 447.38 C 152.98 446.09 153.30 444.80 153.65 443.52 C 153.82 443.01 154.16 441.98 154.33 441.47 C 154.79 439.79 155.20 438.10 155.66 436.43 C 156.02 435.42 156.40 434.42 156.78 433.43 C 156.90 432.97 157.13 432.05 157.25 431.58 C 157.58 430.55 157.91 429.53 158.22 428.50 C 158.77 427.48 159.32 426.47 159.88 425.46 C 159.97 424.99 160.14 424.05 160.22 423.58 C 160.58 422.55 160.93 421.53 161.27 420.50 C 163.10 416.81 164.88 413.09 166.86 409.48 C 166.92 408.97 167.04 407.95 167.10 407.44 C 171.18 401.48 174.31 394.96 178.25 388.92 C 178.99 387.89 179.53 386.60 180.76 386.07 C 189.34 382.21 197.37 377.08 206.44 374.37 C 212.80 371.80 219.59 370.75 226.19 369.07 C 227.19 366.47 227.44 363.66 227.89 360.93 C 229.05 352.72 231.07 344.66 233.03 336.62 C 233.28 336.34 233.78 335.79 234.03 335.51 C 240.98 331.29 248.39 327.91 255.57 324.12 C 256.05 324.06 257.00 323.94 257.48 323.88 C 259.15 322.95 260.83 322.05 262.50 321.13 C 262.98 321.05 263.95 320.88 264.44 320.80 C 265.43 320.41 266.42 320.03 267.42 319.67 C 268.43 319.33 269.44 319.00 270.45 318.68 C 271.44 318.35 272.44 318.04 273.45 317.73 C 274.82 317.21 276.21 316.73 277.59 316.21 C 278.04 316.08 278.95 315.83 279.40 315.70 C 280.71 315.33 282.04 315.00 283.37 314.68 C 285.12 314.20 286.88 313.78 288.63 313.29 C 290.32 313.01 292.01 312.73 293.68 312.38 C 295.36 312.02 297.05 311.69 298.71 311.26 C 300.23 311.07 301.75 310.89 303.28 310.69 C 306.70 309.69 310.37 310.37 313.76 309.22 M 241.37 373.45 C 233.90 378.81 226.29 384.20 220.38 391.34 C 214.74 400.38 219.11 414.30 229.46 417.69 C 235.25 420.42 242.18 418.85 247.16 415.16 C 251.19 411.47 255.52 408.13 259.86 404.81 C 276.04 393.60 295.44 387.52 314.98 385.96 C 321.66 386.24 328.43 385.36 335.02 386.80 C 344.66 387.72 353.98 390.54 363.00 393.98 C 367.57 395.64 371.97 398.45 377.03 398.08 C 383.51 398.70 390.04 394.74 392.99 389.03 C 396.19 384.14 395.38 377.74 393.79 372.42 C 391.56 369.29 389.34 365.85 385.67 364.27 C 377.86 360.68 369.91 357.32 361.53 355.31 C 352.68 352.09 343.27 351.09 334.00 349.99 C 325.99 349.97 317.97 350.04 309.96 349.96 C 285.65 352.02 261.74 359.94 241.37 373.45 Z" />
</g>
<g id="#23baeaff">
<path fill="#23baea" opacity="1.00" d=" M 206.79 355.71 C 215.33 349.09 223.48 341.79 233.03 336.62 C 231.07 344.66 229.05 352.72 227.89 360.93 C 227.44 363.66 227.19 366.47 226.19 369.07 C 219.59 370.75 212.80 371.80 206.44 374.37 C 197.37 377.08 189.34 382.21 180.76 386.07 C 184.59 380.27 188.65 374.52 193.73 369.73 C 197.30 364.39 202.42 360.37 206.79 355.71 Z" />
<path fill="#23baea" opacity="1.00" d=" M 115.41 479.34 C 118.55 478.10 120.92 475.18 124.42 474.87 C 121.85 487.14 123.24 499.67 124.95 511.94 C 129.28 536.18 140.55 559.47 158.24 576.75 C 177.78 597.91 205.61 610.67 234.07 613.83 C 246.70 614.33 259.36 613.85 272.00 613.97 C 295.74 614.18 319.49 613.71 343.22 614.16 C 328.01 630.46 316.23 649.88 308.92 670.95 C 290.76 671.06 272.61 670.97 254.46 670.99 C 239.99 670.99 225.51 671.03 211.04 670.97 C 209.44 671.01 207.69 670.72 206.39 671.91 C 192.47 672.06 178.54 672.07 164.62 671.90 C 160.67 669.89 155.89 671.57 151.61 670.91 C 149.89 669.54 147.61 670.11 145.60 669.84 C 143.95 669.10 142.15 668.84 140.45 668.30 C 139.11 668.02 137.77 667.77 136.48 667.37 C 135.48 667.03 134.49 666.67 133.50 666.31 C 132.49 666.00 131.49 665.68 130.50 665.34 C 129.53 665.01 128.57 664.66 127.62 664.30 C 125.57 663.35 123.44 662.62 121.37 661.76 C 120.88 661.50 119.90 660.98 119.41 660.72 C 115.80 659.20 112.77 656.67 109.41 654.72 C 95.86 646.22 84.84 634.14 76.67 620.44 C 76.22 619.48 75.76 618.54 75.29 617.60 C 74.63 616.25 73.96 614.92 73.28 613.59 C 72.77 612.52 72.23 611.47 71.70 610.42 C 70.70 608.54 69.96 606.54 69.31 604.52 C 69.00 603.54 68.67 602.57 68.31 601.62 C 67.41 600.05 66.92 598.34 66.70 596.56 C 66.19 595.27 65.97 593.90 65.70 592.57 C 64.74 590.61 65.34 588.25 64.15 586.39 C 63.88 584.37 64.45 582.11 63.10 580.38 C 62.93 572.80 62.94 565.20 63.10 557.61 C 65.00 555.22 63.06 551.86 64.82 549.40 C 64.94 548.46 65.06 547.52 65.19 546.60 C 66.23 544.71 65.89 542.46 66.60 540.47 C 66.98 539.45 67.38 538.45 67.80 537.46 C 67.90 536.97 68.10 536.00 68.20 535.52 C 68.88 533.82 69.50 532.09 70.25 530.43 C 71.67 527.92 72.35 525.10 73.69 522.56 C 73.94 522.06 74.42 521.06 74.66 520.57 C 75.70 518.91 76.83 517.33 77.72 515.59 C 80.40 511.11 83.45 506.85 86.71 502.79 C 91.06 498.42 95.42 494.07 99.78 489.72 C 104.08 486.24 108.63 483.05 113.38 480.22 C 113.89 480.00 114.90 479.56 115.41 479.34 M 168.36 594.95 C 163.69 605.73 158.02 616.31 156.11 628.03 C 154.98 635.37 159.71 642.72 166.36 645.67 C 175.59 650.01 188.15 644.67 190.66 634.61 C 191.52 629.82 191.51 624.51 188.72 620.31 C 183.12 611.01 176.25 602.41 168.36 594.95 Z" />
<path fill="#23baea" opacity="1.00" d=" M 531.11 802.14 C 533.87 795.65 536.28 788.98 539.65 782.77 C 543.82 788.41 548.93 793.28 552.84 799.14 C 557.16 805.33 563.22 811.80 562.03 819.98 C 561.44 830.63 549.14 838.77 539.15 834.84 C 533.28 833.05 528.14 828.06 527.19 821.86 C 525.87 815.01 528.84 808.43 531.11 802.14 Z" />
<path fill="#23baea" opacity="1.00" d=" M 654.73 818.66 C 657.70 811.27 660.61 803.82 664.40 796.82 C 672.95 805.40 680.65 815.04 686.14 825.87 C 688.00 832.45 687.73 840.55 682.69 845.74 C 675.58 853.78 661.08 852.78 655.13 843.87 C 650.06 836.42 651.54 826.56 654.73 818.66 Z" />
</g>
<g id="#dff6ffff">
<path fill="#dff6ff" opacity="1.00" d=" M 241.37 373.45 C 261.74 359.94 285.65 352.02 309.96 349.96 C 317.97 350.04 325.99 349.97 334.00 349.99 C 343.27 351.09 352.68 352.09 361.53 355.31 C 369.91 357.32 377.86 360.68 385.67 364.27 C 389.34 365.85 391.56 369.29 393.79 372.42 C 395.38 377.74 396.19 384.14 392.99 389.03 C 390.04 394.74 383.51 398.70 377.03 398.08 C 371.97 398.45 367.57 395.64 363.00 393.98 C 353.98 390.54 344.66 387.72 335.02 386.80 C 328.43 385.36 321.66 386.24 314.98 385.96 C 295.44 387.52 276.04 393.60 259.86 404.81 C 255.52 408.13 251.19 411.47 247.16 415.16 C 242.18 418.85 235.25 420.42 229.46 417.69 C 219.11 414.30 214.74 400.38 220.38 391.34 C 226.29 384.20 233.90 378.81 241.37 373.45 Z" />
<path fill="#dff6ff" opacity="1.00" d=" M 816.17 500.27 C 822.80 499.41 829.34 497.47 836.08 497.99 C 854.38 497.34 872.64 501.94 889.04 509.95 C 892.60 511.52 895.07 514.60 897.79 517.26 C 899.45 522.31 899.90 528.27 896.84 532.90 C 893.44 538.81 885.82 541.36 879.39 539.62 C 867.74 533.87 855.12 529.24 842.02 528.97 C 821.24 527.99 800.19 535.79 785.11 550.12 C 781.24 552.55 778.79 557.15 774.07 558.11 C 768.29 560.15 761.90 557.27 757.77 553.17 C 754.23 548.27 752.93 541.48 755.98 536.00 C 771.11 517.59 793.01 505.34 816.17 500.27 Z" />
<path fill="#dff6ff" opacity="1.00" d=" M 906.83 541.91 C 909.67 539.40 913.21 537.57 916.98 537.01 C 921.03 536.62 924.59 539.00 928.25 540.35 L 928.13 540.71 C 924.94 550.36 920.08 559.39 914.57 567.90 C 909.20 566.47 904.54 562.43 903.18 556.94 C 902.37 551.73 902.96 545.83 906.83 541.91 Z" />
</g>
<g id="#dfe656ff">
<path fill="#dfe656" opacity="1.00" d=" M 538.07 360.01 C 543.33 360.18 548.51 358.34 553.77 359.31 C 561.11 360.57 568.61 359.55 575.96 360.79 C 633.59 366.81 688.54 394.69 727.65 437.40 C 744.09 455.62 758.05 476.15 768.52 498.37 C 763.47 502.03 759.01 506.35 754.69 510.82 C 753.61 512.39 751.76 511.72 750.26 511.36 C 750.36 505.06 746.30 500.04 742.52 495.44 C 740.04 492.55 737.97 489.29 735.05 486.81 C 730.44 493.05 728.20 500.64 725.96 507.97 C 718.22 508.17 710.37 507.33 702.77 509.22 C 690.13 499.46 674.96 493.18 659.18 490.87 C 653.54 451.27 631.03 414.68 599.17 390.70 C 578.02 374.73 552.70 364.35 526.46 360.72 C 530.29 360.04 534.18 359.87 538.07 360.01 Z" />
</g>
<g id="#5fd2ffff">
<path fill="#5fd2ff" opacity="1.00" d=" M 768.52 498.37 C 790.95 480.98 819.29 471.32 847.68 471.72 C 848.68 471.77 850.69 471.86 851.69 471.91 C 855.19 472.03 858.71 471.94 862.22 472.20 C 864.97 473.01 867.88 473.03 870.67 473.68 C 871.88 473.87 873.11 474.05 874.35 474.24 C 876.08 474.76 877.85 475.19 879.62 475.69 C 880.94 476.01 882.27 476.33 883.60 476.70 C 884.06 476.82 884.97 477.07 885.43 477.19 C 886.79 477.74 888.18 478.25 889.56 478.81 C 890.02 478.92 890.94 479.14 891.40 479.25 C 892.43 479.58 893.47 479.90 894.52 480.22 C 895.52 480.77 896.53 481.33 897.55 481.90 C 898.01 481.96 898.95 482.06 899.41 482.12 C 902.37 483.73 905.40 485.22 908.45 486.68 C 909.81 487.54 911.15 488.44 912.52 489.32 C 913.50 489.76 914.49 490.21 915.48 490.66 C 921.83 494.81 927.85 499.43 933.68 504.27 C 943.86 513.65 952.67 524.43 959.73 536.36 C 960.84 539.15 962.97 541.42 963.69 544.39 C 964.54 546.13 965.43 547.85 966.31 549.58 C 967.30 551.46 968.03 553.46 968.69 555.48 C 968.98 556.45 969.32 557.42 969.71 558.39 C 970.82 560.29 970.98 562.53 971.77 564.57 C 971.88 565.03 972.11 565.96 972.22 566.43 C 972.93 567.65 972.99 569.07 973.26 570.44 C 974.41 572.33 973.49 574.80 974.88 576.60 C 975.12 578.59 974.51 580.87 975.87 582.59 C 975.92 583.18 976.01 584.35 976.05 584.94 C 976.64 584.99 977.82 585.10 978.41 585.15 C 980.01 585.97 981.86 586.07 983.56 586.72 C 984.87 586.96 986.22 587.17 987.52 587.62 C 988.47 587.96 989.43 588.32 990.38 588.71 C 992.70 589.76 995.14 590.53 997.44 591.64 C 998.82 592.50 1000.14 593.48 1001.59 594.29 C 1008.78 598.16 1014.78 603.82 1020.20 609.87 C 1021.77 612.59 1024.52 614.46 1025.72 617.42 C 1026.67 619.09 1027.81 620.66 1028.75 622.36 C 1029.66 624.41 1030.66 626.43 1031.78 628.39 C 1032.34 629.73 1032.90 631.09 1033.33 632.50 C 1033.67 633.48 1034.01 634.48 1034.35 635.48 C 1034.82 636.75 1035.01 638.10 1035.27 639.44 C 1035.87 640.68 1036.00 642.07 1036.26 643.44 C 1038.27 646.86 1035.59 651.33 1037.92 654.60 C 1037.80 656.92 1038.72 659.62 1037.08 661.61 C 1036.97 664.20 1037.01 666.79 1036.92 669.40 C 1035.46 671.16 1036.40 673.65 1035.27 675.56 C 1035.01 676.88 1034.79 678.22 1034.39 679.52 C 1033.89 680.91 1033.31 682.28 1032.72 683.64 C 1031.99 685.59 1031.27 687.56 1030.30 689.41 C 1029.63 690.74 1028.96 692.08 1028.33 693.43 C 1023.58 701.07 1018.20 708.51 1011.00 714.02 C 1007.61 716.64 1004.06 719.05 1000.43 721.33 C 998.80 722.09 997.19 722.88 995.61 723.72 C 993.33 724.91 990.97 725.93 988.52 726.68 C 987.46 726.99 986.44 727.36 985.44 727.78 C 984.97 727.89 984.04 728.10 983.57 728.21 C 982.08 729.20 980.26 728.96 978.59 729.17 C 976.47 730.82 973.42 729.11 971.40 730.92 C 944.82 731.13 918.23 730.89 891.66 731.04 C 892.27 732.53 892.98 733.99 893.77 735.42 C 894.50 737.06 895.09 738.77 895.68 740.48 C 895.99 741.52 896.36 742.54 896.78 743.56 C 896.89 744.03 897.10 744.98 897.21 745.45 C 897.62 746.44 898.01 747.44 898.38 748.47 C 899.04 750.03 899.00 751.74 899.18 753.41 C 900.52 755.25 899.41 757.82 900.91 759.60 C 901.22 761.91 900.31 764.62 901.92 766.60 C 902.05 772.20 902.05 777.80 901.92 783.39 C 900.19 785.68 901.30 788.74 900.92 791.39 C 899.10 793.42 900.83 796.48 899.16 798.59 C 899.03 799.52 898.92 800.46 898.82 801.42 C 898.03 803.01 897.87 804.81 897.38 806.51 C 896.90 807.91 896.32 809.27 895.72 810.63 C 895.19 811.88 894.78 813.18 894.31 814.47 C 893.70 816.94 892.44 819.16 891.28 821.41 C 891.03 821.91 890.53 822.91 890.28 823.41 C 890.04 823.92 889.58 824.93 889.34 825.43 C 888.48 826.83 887.50 828.15 886.71 829.59 C 878.38 843.54 866.54 855.37 852.59 863.71 C 850.55 864.95 848.59 866.33 846.41 867.31 C 845.07 867.96 843.74 868.63 842.42 869.31 C 840.16 870.50 837.71 871.25 835.37 872.27 C 834.08 872.80 832.75 873.24 831.47 873.80 C 830.99 873.91 830.04 874.12 829.56 874.22 C 827.90 874.93 826.07 875.05 824.43 875.77 C 823.97 875.88 823.04 876.10 822.57 876.21 C 820.42 877.77 817.46 876.17 815.40 877.88 C 813.39 878.14 811.07 877.46 809.40 878.92 C 769.33 879.10 729.25 878.96 689.18 878.99 C 653.45 879.01 617.72 879.00 581.98 879.00 C 560.98 879.02 539.98 878.97 518.98 879.03 C 517.41 878.95 515.65 879.30 514.39 878.08 C 508.60 877.90 502.80 878.04 497.00 878.00 C 489.00 878.16 480.98 877.68 473.00 878.20 C 465.75 879.65 458.33 878.75 451.00 879.04 C 446.61 879.28 442.35 877.88 437.97 877.97 C 424.25 878.03 410.53 877.99 396.81 877.99 C 373.08 878.06 349.34 877.89 325.61 878.08 C 325.19 878.30 324.36 878.73 323.95 878.95 C 317.67 879.04 311.38 879.05 305.11 878.95 C 304.68 878.74 303.82 878.32 303.40 878.11 C 301.79 878.01 300.19 877.96 298.60 877.89 C 296.81 876.49 294.34 877.41 292.44 876.26 C 291.08 875.99 289.64 875.94 288.43 875.20 C 287.96 875.10 287.01 874.90 286.53 874.80 C 285.24 874.24 283.91 873.80 282.63 873.27 C 280.58 872.35 278.45 871.64 276.39 870.77 C 274.16 869.53 271.87 868.42 269.57 867.32 C 268.16 866.48 266.85 865.50 265.42 864.72 C 253.48 857.22 243.22 846.92 236.28 834.59 C 235.49 833.15 234.51 831.83 233.67 830.43 C 232.37 827.90 231.20 825.31 230.28 822.63 C 229.52 820.93 228.89 819.19 228.19 817.48 C 228.10 816.99 227.90 816.03 227.80 815.55 C 227.37 814.54 226.98 813.53 226.63 812.52 C 226.13 810.82 225.92 809.05 225.20 807.44 C 225.13 806.86 224.99 805.68 224.92 805.10 C 224.45 799.05 223.00 793.08 223.06 786.99 C 223.97 777.71 224.81 768.31 227.86 759.43 C 228.06 758.94 228.45 757.95 228.65 757.46 C 229.09 756.05 229.67 754.70 230.28 753.36 C 231.00 751.39 231.71 749.42 232.71 747.58 C 233.22 746.50 233.75 745.43 234.24 744.36 C 237.61 738.86 241.15 733.45 245.35 728.55 C 256.83 714.99 272.66 705.39 289.59 700.23 C 290.51 700.06 291.44 699.89 292.37 699.74 C 295.47 698.73 298.67 698.01 301.94 697.84 C 304.03 688.82 305.69 679.67 308.92 670.95 C 316.23 649.88 328.01 630.46 343.22 614.16 C 347.83 609.81 352.05 605.01 357.18 601.24 C 379.61 582.39 407.60 570.44 436.58 566.52 C 444.06 566.05 451.51 564.95 459.02 564.93 C 470.92 565.35 482.81 566.81 494.38 569.70 C 496.84 570.26 499.30 571.01 501.85 571.01 C 504.80 569.33 506.77 566.45 509.38 564.34 C 512.65 561.64 515.76 558.77 518.96 556.00 C 544.29 534.81 575.71 520.96 608.41 516.44 C 620.81 514.28 633.47 514.61 646.00 515.00 C 658.87 515.06 671.40 518.31 683.84 521.24 C 695.01 524.30 705.75 528.72 716.10 533.89 C 719.77 535.90 723.45 537.96 727.43 539.34 C 722.24 527.27 712.94 517.32 702.77 509.22 C 710.37 507.33 718.22 508.17 725.96 507.97 C 734.19 507.60 742.32 509.39 750.26 511.36 C 751.76 511.72 753.61 512.39 754.69 510.82 C 759.01 506.35 763.47 502.03 768.52 498.37 M 816.17 500.27 C 793.01 505.34 771.11 517.59 755.98 536.00 C 752.93 541.48 754.23 548.27 757.77 553.17 C 761.90 557.27 768.29 560.15 774.07 558.11 C 778.79 557.15 781.24 552.55 785.11 550.12 C 800.19 535.79 821.24 527.99 842.02 528.97 C 855.12 529.24 867.74 533.87 879.39 539.62 C 885.82 541.36 893.44 538.81 896.84 532.90 C 899.90 528.27 899.45 522.31 897.79 517.26 C 895.07 514.60 892.60 511.52 889.04 509.95 C 872.64 501.94 854.38 497.34 836.08 497.99 C 829.34 497.47 822.80 499.41 816.17 500.27 M 906.83 541.91 C 902.96 545.83 902.37 551.73 903.18 556.94 C 904.54 562.43 909.20 566.47 914.57 567.90 C 921.79 569.18 929.92 565.60 932.32 558.35 C 935.28 552.40 932.96 544.94 928.13 540.71 L 928.25 540.35 C 924.59 539.00 921.03 536.62 916.98 537.01 C 913.21 537.57 909.67 539.40 906.83 541.91 M 521.22 681.77 C 517.47 688.36 514.73 695.52 512.69 702.82 C 510.73 708.49 513.77 715.44 519.48 717.54 C 527.54 721.71 538.45 714.08 537.02 705.01 C 534.53 695.68 526.90 689.16 521.22 681.77 M 531.11 802.14 C 528.84 808.43 525.87 815.01 527.19 821.86 C 528.14 828.06 533.28 833.05 539.15 834.84 C 549.14 838.77 561.44 830.63 562.03 819.98 C 563.22 811.80 557.16 805.33 552.84 799.14 C 548.93 793.28 543.82 788.41 539.65 782.77 C 536.28 788.98 533.87 795.65 531.11 802.14 M 654.73 818.66 C 651.54 826.56 650.06 836.42 655.13 843.87 C 661.08 852.78 675.58 853.78 682.69 845.74 C 687.73 840.55 688.00 832.45 686.14 825.87 C 680.65 815.04 672.95 805.40 664.40 796.82 C 660.61 803.82 657.70 811.27 654.73 818.66 Z" />
</g>
<g id="#c9e374ff">
<path fill="#c9e374" opacity="1.00" d=" M 725.96 507.97 C 728.20 500.64 730.44 493.05 735.05 486.81 C 737.97 489.29 740.04 492.55 742.52 495.44 C 746.30 500.04 750.36 505.06 750.26 511.36 C 742.32 509.39 734.19 507.60 725.96 507.97 Z" />
</g>
<g id="#ffffffff">
<path fill="#ffffff" opacity="1.00" d=" M 928.13 540.71 C 932.96 544.94 935.28 552.40 932.32 558.35 C 929.92 565.60 921.79 569.18 914.57 567.90 C 920.08 559.39 924.94 550.36 928.13 540.71 Z" />
</g>
<g id="#52cdfaff">
<path fill="#52cdfa" opacity="1.00" d=" M 168.36 594.95 C 176.25 602.41 183.12 611.01 188.72 620.31 C 191.51 624.51 191.52 629.82 190.66 634.61 C 188.15 644.67 175.59 650.01 166.36 645.67 C 159.71 642.72 154.98 635.37 156.11 628.03 C 158.02 616.31 163.69 605.73 168.36 594.95 Z" />
</g>
<g id="#ffc833ff">
<path fill="#ffc833" opacity="1.00" d=" M 254.46 670.99 C 272.61 670.97 290.76 671.06 308.92 670.95 C 305.69 679.67 304.03 688.82 301.94 697.84 C 298.67 698.01 295.47 698.73 292.37 699.74 C 291.44 699.89 290.51 700.06 289.59 700.23 C 272.66 705.39 256.83 714.99 245.35 728.55 L 244.89 727.31 C 244.33 727.05 243.19 726.52 242.62 726.26 C 240.57 725.35 238.45 724.63 236.39 723.77 C 235.45 723.27 234.52 722.79 233.58 722.32 C 232.67 721.79 231.79 721.22 230.92 720.67 C 231.55 719.65 232.16 718.63 232.76 717.62 C 233.01 717.12 233.51 716.13 233.76 715.63 C 234.95 712.56 236.09 709.46 237.70 706.58 C 237.97 706.09 238.50 705.12 238.77 704.64 C 239.96 701.56 241.04 698.43 242.77 695.61 C 243.64 693.55 244.36 691.44 245.22 689.38 C 245.73 688.45 246.23 687.52 246.73 686.59 C 246.99 686.10 247.50 685.12 247.76 684.63 C 248.63 682.57 249.37 680.45 250.21 678.38 C 250.73 677.45 251.25 676.52 251.76 675.60 C 251.98 675.09 252.41 674.07 252.63 673.56 C 253.08 672.58 253.69 671.72 254.46 670.99 Z" />
<path fill="#ffc833" opacity="1.00" d=" M 396.81 877.99 C 410.53 877.99 424.25 878.03 437.97 877.97 C 442.35 877.88 446.61 879.28 451.00 879.04 C 458.33 878.75 465.75 879.65 473.00 878.20 C 480.98 877.68 489.00 878.16 497.00 878.00 L 497.00 878.76 C 495.81 878.98 494.63 879.27 493.48 879.63 C 492.51 879.96 491.56 880.32 490.62 880.72 C 489.26 881.33 487.90 881.91 486.47 882.32 C 485.19 882.78 483.88 883.19 482.62 883.72 C 480.56 884.64 478.43 885.35 476.38 886.28 C 475.10 886.78 473.79 887.20 472.52 887.70 C 471.54 887.99 470.57 888.32 469.61 888.70 C 468.27 889.33 466.91 889.93 465.47 890.31 C 463.74 890.89 462.03 891.50 460.39 892.30 C 459.43 892.66 458.45 892.99 457.48 893.30 C 455.75 893.90 454.03 894.51 452.36 895.27 C 450.69 895.91 449.01 896.53 447.39 897.30 C 446.43 897.66 445.46 897.99 444.48 898.30 C 443.20 898.78 441.89 899.19 440.63 899.72 C 438.96 900.47 437.24 901.08 435.52 901.70 C 434.54 901.99 433.57 902.32 432.62 902.70 C 431.27 903.33 429.90 903.92 428.47 904.31 C 426.74 904.90 425.03 905.50 423.39 906.30 C 422.43 906.66 421.46 906.99 420.48 907.30 C 418.76 907.90 417.04 908.50 415.39 909.29 C 414.44 909.65 413.48 910.00 412.52 910.34 C 410.73 912.03 409.32 910.01 408.57 908.49 C 408.27 907.47 407.99 906.47 407.73 905.47 C 407.08 903.75 406.47 902.02 405.73 900.36 C 405.08 898.69 404.46 897.00 403.70 895.39 C 403.33 894.42 402.99 893.45 402.70 892.48 C 402.09 890.75 401.48 889.02 400.72 887.37 C 400.20 886.09 399.78 884.79 399.28 883.52 C 399.00 882.52 398.71 881.54 398.40 880.57 C 397.87 879.69 397.34 878.83 396.81 877.99 Z" />
<path fill="#ffc833" opacity="1.00" d=" M 581.98 879.00 C 617.72 879.00 653.45 879.01 689.18 878.99 C 688.50 880.10 687.85 881.24 687.20 882.37 C 686.28 884.73 685.50 887.16 684.30 889.40 C 682.84 892.01 681.85 894.83 680.79 897.61 C 680.27 898.53 679.76 899.46 679.27 900.41 C 679.01 900.90 678.49 901.88 678.23 902.37 C 677.04 905.42 675.94 908.54 674.27 911.39 C 673.03 913.62 672.22 916.04 671.29 918.41 C 670.08 919.84 668.62 918.12 667.37 917.70 C 665.69 917.06 664.01 916.45 662.36 915.77 C 661.88 915.50 660.92 914.95 660.44 914.68 C 658.95 913.96 657.45 913.26 655.95 912.60 C 656.88 910.11 657.67 907.21 656.41 904.70 C 654.26 900.15 650.82 896.37 647.40 892.75 C 646.44 895.02 645.40 897.25 644.29 899.46 C 643.97 900.47 643.65 901.50 643.34 902.53 C 642.92 903.72 642.49 904.91 642.07 906.11 C 640.70 906.01 639.56 905.24 638.37 904.71 C 636.70 904.06 635.02 903.46 633.39 902.79 C 632.45 902.26 631.52 901.76 630.59 901.27 C 630.10 901.01 629.12 900.50 628.63 900.24 C 626.57 899.36 624.45 898.64 622.40 897.77 C 619.58 896.04 616.45 894.96 613.40 893.78 C 612.08 893.05 610.75 892.35 609.43 891.67 C 607.16 890.51 604.74 889.73 602.39 888.78 C 601.08 888.04 599.75 887.35 598.42 886.67 C 596.16 885.51 593.73 884.73 591.39 883.78 C 589.19 882.52 586.94 881.30 584.48 880.69 C 583.86 880.44 582.62 879.95 582.00 879.70 L 581.98 879.00 Z" />
</g>
<g id="#37c3f2ff">
<path fill="#37c3f2" opacity="1.00" d=" M 521.22 681.77 C 526.90 689.16 534.53 695.68 537.02 705.01 C 538.45 714.08 527.54 721.71 519.48 717.54 C 513.77 715.44 510.73 708.49 512.69 702.82 C 514.73 695.52 517.47 688.36 521.22 681.77 Z" />
</g>
<g id="#5cccf8f9">
<path fill="#5cccf8" opacity="0.98" d=" M 220.63 755.55 C 221.19 754.60 221.64 753.53 222.60 752.93 C 224.58 754.91 225.73 757.56 227.86 759.43 C 224.81 768.31 223.97 777.71 223.06 786.99 C 223.00 793.08 224.45 799.05 224.92 805.10 C 222.61 805.26 220.52 804.43 218.53 803.38 C 215.75 801.63 213.38 799.22 211.60 796.47 C 210.89 794.84 210.19 793.20 209.63 791.53 C 208.84 789.99 209.01 788.26 209.03 786.62 C 210.58 784.88 209.52 782.30 210.79 780.43 C 210.89 779.95 211.11 779.01 211.21 778.54 C 211.75 777.20 212.19 775.84 212.70 774.52 C 213.00 773.53 213.33 772.56 213.70 771.61 C 215.04 768.60 216.01 765.41 217.77 762.61 C 218.73 760.25 219.55 757.85 220.63 755.55 Z" />
</g>
<g id="#408faeaf">
<path fill="#408fae" opacity="0.69" d=" M 978.34 762.58 C 980.52 766.97 985.00 769.49 987.35 773.71 C 989.11 775.61 991.14 777.33 992.36 779.68 C 993.44 780.90 994.55 782.09 995.64 783.33 C 996.46 784.80 997.53 786.11 998.67 787.37 C 999.54 788.80 1000.46 790.20 1001.32 791.66 C 1001.65 792.08 1002.32 792.93 1002.66 793.35 C 1003.28 794.38 1003.94 795.39 1004.63 796.41 C 1006.18 798.68 1007.59 801.04 1008.86 803.49 C 1008.96 803.97 1009.16 804.92 1009.26 805.39 C 1010.48 809.89 1010.50 815.09 1009.26 819.59 C 1009.15 820.07 1008.94 821.01 1008.84 821.48 C 1008.57 822.01 1008.04 823.05 1007.77 823.58 C 1006.76 825.29 1005.68 826.96 1004.71 828.71 C 1003.72 829.71 1002.72 830.70 1001.70 831.66 C 1000.07 832.42 998.75 833.64 997.54 834.94 C 997.03 834.97 996.01 835.05 995.50 835.08 C 994.51 835.66 993.53 836.24 992.56 836.81 C 991.11 837.00 989.65 837.13 988.37 837.86 C 985.71 838.01 982.94 838.36 980.40 837.37 C 979.05 837.01 977.70 836.69 976.40 836.25 C 975.91 836.16 974.94 835.98 974.46 835.89 C 972.74 834.81 971.06 833.69 969.31 832.70 C 967.91 831.41 966.57 830.07 965.28 828.69 C 964.30 826.95 963.22 825.29 962.23 823.59 C 961.97 823.06 961.43 822.01 961.16 821.48 C 961.06 821.01 960.85 820.07 960.74 819.60 C 959.25 815.80 960.17 811.58 960.15 807.62 C 960.78 805.92 961.19 804.16 961.71 802.44 C 961.97 801.10 962.24 799.77 962.59 798.46 C 962.98 797.44 963.39 796.44 963.82 795.45 C 963.89 794.96 964.03 793.97 964.09 793.48 C 964.69 792.48 965.31 791.49 965.93 790.51 C 965.97 790.00 966.04 788.98 966.07 788.47 C 966.68 787.48 967.30 786.50 967.92 785.52 C 967.97 785.02 968.06 784.01 968.11 783.51 C 968.40 782.99 968.97 781.96 969.25 781.44 C 969.78 780.45 970.33 779.47 970.89 778.50 C 970.95 778.00 971.07 777.02 971.12 776.53 C 972.02 774.90 972.87 773.24 973.74 771.60 C 975.18 768.55 976.67 765.52 978.34 762.58 Z" />
<path fill="#408fae" opacity="0.69" d=" M 835.52 884.62 C 838.28 886.41 840.47 888.89 842.65 891.33 C 843.45 892.80 844.52 894.10 845.64 895.37 C 846.71 897.06 847.82 898.74 848.89 900.46 C 848.98 900.94 849.15 901.91 849.24 902.40 C 850.30 904.28 849.95 906.49 850.02 908.57 C 848.39 911.01 846.61 913.52 844.05 915.05 C 841.47 916.67 838.29 915.80 835.44 916.00 C 833.03 914.55 830.98 912.63 829.06 910.62 C 828.99 910.12 828.86 909.11 828.79 908.61 C 827.82 907.09 828.01 905.30 828.08 903.62 C 828.80 901.94 829.21 900.15 829.77 898.43 C 829.87 897.95 830.05 896.99 830.15 896.51 C 830.42 895.99 830.97 894.96 831.25 894.44 C 831.78 893.44 832.33 892.46 832.89 891.49 C 832.95 891.01 833.08 890.04 833.15 889.56 C 834.02 887.95 834.80 886.29 835.52 884.62 Z" />
</g>
<g id="#22b8e8fd">
<path fill="#22b8e8" opacity="1.00" d=" M 248.30 866.78 C 250.92 869.20 253.30 871.89 255.03 875.03 C 255.08 876.21 254.90 877.37 254.49 878.51 C 253.13 882.18 246.87 882.18 245.51 878.51 C 244.87 876.87 244.75 875.05 245.61 873.47 C 246.10 872.07 246.68 870.71 247.28 869.37 C 247.53 868.72 248.05 867.43 248.30 866.78 Z" />
</g>
<g id="#24bae9ff">
<path fill="#24bae9" opacity="1.00" d=" M 647.40 892.75 C 650.82 896.37 654.26 900.15 656.41 904.70 C 657.67 907.21 656.88 910.11 655.95 912.60 C 654.58 913.06 653.50 914.00 652.46 914.97 C 650.42 914.99 648.39 914.99 646.37 915.01 C 645.01 913.56 643.66 912.09 642.48 910.50 C 642.10 909.07 641.73 907.57 642.07 906.11 C 642.49 904.91 642.92 903.72 643.34 902.53 C 643.65 901.50 643.97 900.47 644.29 899.46 C 645.40 897.25 646.44 895.02 647.40 892.75 Z" />
</g>
<g id="#4ca9cdce">
<path fill="#4ca9cd" opacity="0.81" d=" M 128.52 895.61 C 130.52 896.84 132.19 898.53 133.68 900.34 C 134.70 902.24 136.19 903.82 137.53 905.51 C 138.35 908.19 138.27 911.13 136.84 913.60 C 135.59 914.21 134.48 915.04 133.43 915.95 C 131.74 915.98 130.05 915.99 128.36 916.02 C 127.01 914.56 125.67 913.08 124.46 911.51 C 123.88 909.52 123.72 907.38 124.59 905.46 C 125.19 903.72 125.93 902.05 126.83 900.47 C 126.91 899.99 127.09 899.02 127.17 898.54 C 127.51 897.80 128.18 896.34 128.52 895.61 Z" />
</g>
<g id="#21b4e3f8">
<path fill="#21b4e3" opacity="0.97" d=" M 306.36 912.70 C 309.47 916.45 312.33 920.42 315.00 924.51 C 315.57 928.05 314.34 931.48 311.69 933.89 C 309.61 933.83 307.54 933.82 305.47 933.85 C 301.17 932.33 300.42 927.50 301.12 923.54 C 301.68 922.56 302.24 921.58 302.78 920.61 C 303.13 918.82 303.91 917.18 304.70 915.58 C 305.24 914.60 305.80 913.65 306.36 912.70 Z" />
</g>
<g id="#152f3839">
<path fill="#152f38" opacity="0.22" d=" M 199.25 924.62 C 201.81 927.43 204.86 930.28 205.80 934.10 C 206.45 936.63 203.98 938.21 202.64 939.96 C 200.52 939.64 197.66 939.73 196.69 937.37 C 194.59 933.03 198.08 928.71 199.25 924.62 Z" />
</g>
<g id="#0c1c2222">
<path fill="#0c1c22" opacity="0.13" d=" M 764.32 926.98 C 766.86 929.33 769.45 931.67 771.60 934.41 C 776.83 941.27 782.88 947.68 786.36 955.69 C 787.23 957.75 786.77 960.04 786.81 962.22 C 782.65 953.51 776.02 946.40 770.04 938.95 C 768.71 937.31 767.18 935.87 765.63 934.47 C 760.62 945.17 755.34 955.91 752.93 967.56 C 750.23 964.15 747.53 960.71 744.29 957.80 C 742.70 962.31 740.69 966.68 739.33 971.28 C 738.72 965.34 741.78 959.81 744.51 954.75 C 747.07 957.43 749.05 960.59 751.60 963.28 C 753.28 950.42 759.23 938.73 764.32 926.98 Z" />
</g>
<g id="#224f6061">
<path fill="#224f60" opacity="0.38" d=" M 765.63 934.47 C 767.18 935.87 768.71 937.31 770.04 938.95 C 776.02 946.40 782.65 953.51 786.81 962.22 C 786.99 962.62 787.37 963.41 787.55 963.81 C 786.42 968.25 784.58 972.90 780.64 975.58 C 776.04 979.03 769.88 979.90 764.36 978.58 C 760.34 977.23 756.90 974.34 754.58 970.83 C 754.15 969.95 753.71 969.10 753.24 968.29 C 752.69 970.07 752.57 971.99 753.14 973.80 C 751.12 975.46 748.80 977.33 746.02 977.07 C 743.67 976.65 741.68 975.25 739.64 974.14 L 738.99 973.76 C 739.08 973.14 739.25 971.90 739.33 971.28 C 740.69 966.68 742.70 962.31 744.29 957.80 C 747.53 960.71 750.23 964.15 752.93 967.56 C 755.34 955.91 760.62 945.17 765.63 934.47 Z" />
</g>
<g id="#1a3b4849">
<path fill="#1a3b48" opacity="0.29" d=" M 787.55 963.81 C 788.56 969.44 788.72 976.03 784.24 980.29 C 780.74 985.07 774.82 987.41 768.99 986.98 C 762.64 986.04 756.80 982.08 754.39 976.00 C 752.70 976.60 752.12 978.77 750.42 979.43 C 746.25 981.37 740.02 979.19 739.64 974.14 C 741.68 975.25 743.67 976.65 746.02 977.07 C 748.80 977.33 751.12 975.46 753.14 973.80 C 753.98 972.99 754.46 972.00 754.58 970.83 C 756.90 974.34 760.34 977.23 764.36 978.58 C 769.88 979.90 776.04 979.03 780.64 975.58 C 784.58 972.90 786.42 968.25 787.55 963.81 Z" />
</g>
<g id="#2f6c8384">
<path fill="#2f6c83" opacity="0.52" d=" M 753.24 968.29 C 753.71 969.10 754.15 969.95 754.58 970.83 C 754.46 972.00 753.98 972.99 753.14 973.80 C 752.57 971.99 752.69 970.07 753.24 968.29 Z" />
</g>
<g id="#1fabd7eb">
<path fill="#1fabd7" opacity="0.92" d=" M 582.26 984.84 C 584.03 986.65 586.02 988.34 587.21 990.65 C 588.62 992.21 590.10 993.74 591.28 995.51 C 593.07 998.05 594.28 1000.94 595.94 1003.56 C 596.05 1006.22 595.97 1008.89 595.78 1011.57 C 594.65 1013.41 593.50 1015.47 591.26 1016.09 C 590.85 1016.51 590.03 1017.34 589.62 1017.76 C 586.02 1017.48 581.86 1018.73 578.85 1016.15 C 576.43 1014.31 575.07 1011.47 574.67 1008.51 C 574.48 1007.57 574.32 1006.64 574.19 1005.72 C 574.75 1004.35 575.09 1002.93 575.44 1001.52 C 575.78 1000.51 576.12 999.52 576.45 998.53 C 576.77 997.50 577.09 996.48 577.40 995.46 C 578.56 993.19 579.74 990.91 580.42 988.45 C 581.02 987.23 581.62 986.02 582.26 984.84 Z" />
<path fill="#1fabd7" opacity="0.92" d=" M 387.66 997.65 C 390.39 1000.08 393.47 1002.38 395.19 1005.70 C 396.92 1007.63 399.02 1009.29 400.21 1011.66 C 401.64 1013.24 403.23 1014.74 404.22 1016.68 C 405.63 1018.23 407.14 1019.74 408.26 1021.54 C 408.92 1022.53 409.59 1023.54 410.24 1024.57 C 410.91 1025.56 411.57 1026.57 412.21 1027.61 C 413.25 1028.85 414.30 1030.10 415.23 1031.45 C 415.83 1032.82 416.47 1034.19 417.11 1035.57 C 417.61 1036.52 418.12 1037.49 418.62 1038.47 C 418.93 1039.49 419.26 1040.52 419.62 1041.55 C 419.89 1043.25 420.11 1044.98 420.63 1046.65 C 420.73 1048.53 420.74 1050.42 420.71 1052.32 L 420.05 1053.36 C 417.48 1057.62 415.71 1062.55 411.70 1065.76 C 404.17 1072.55 392.58 1073.99 383.56 1069.39 C 378.56 1067.33 375.52 1062.70 371.83 1059.01 L 371.41 1058.58 C 370.28 1054.96 370.07 1051.20 369.51 1047.50 C 370.34 1045.30 370.19 1042.93 370.31 1040.64 C 370.93 1038.89 371.36 1037.09 371.95 1035.36 C 372.05 1034.93 372.24 1034.06 372.34 1033.63 C 372.74 1032.60 373.12 1031.58 373.49 1030.56 C 373.81 1029.54 374.12 1028.53 374.42 1027.53 C 375.21 1025.90 375.95 1024.26 376.46 1022.54 C 377.21 1020.89 377.97 1019.25 378.42 1017.50 C 379.53 1015.22 380.80 1012.99 381.41 1010.52 C 382.39 1008.45 383.42 1006.42 384.42 1004.38 C 384.67 1003.89 385.19 1002.91 385.45 1002.42 C 386.21 1000.84 386.94 999.24 387.66 997.65 Z" />
</g>
<g id="#177fa0af">
<path fill="#177fa0" opacity="0.69" d=" M 411.70 1065.76 C 415.71 1062.55 417.48 1057.62 420.05 1053.36 C 419.90 1054.79 419.84 1056.27 419.26 1057.64 C 419.16 1058.10 418.95 1059.02 418.85 1059.48 C 417.50 1063.00 414.78 1065.60 412.56 1068.56 C 410.61 1070.03 408.72 1071.59 406.59 1072.81 C 405.52 1073.08 404.47 1073.38 403.43 1073.72 C 402.97 1073.86 402.06 1074.15 401.61 1074.30 C 397.39 1075.42 392.58 1075.52 388.39 1074.26 C 387.92 1074.16 386.98 1073.96 386.51 1073.87 C 380.05 1070.88 373.93 1066.10 371.83 1059.01 C 375.52 1062.70 378.56 1067.33 383.56 1069.39 C 392.58 1073.99 404.17 1072.55 411.70 1065.76 Z" />
</g>
</svg>
