<?xml version="1.0" encoding="UTF-8" ?>
<!DOCTYPE svg PUBLIC "-//W3C//DTD SVG 1.1//EN" "http://www.w3.org/Graphics/SVG/1.1/DTD/svg11.dtd">
<svg width="1100pt" height="1200pt" viewBox="0 0 1100 1200" version="1.1" xmlns="http://www.w3.org/2000/svg">
<g id="#5fd2ffff">
<path fill="#5fd2ff" opacity="1.00" d=" M 575.70 352.07 C 577.56 352.00 579.42 352.00 581.29 352.07 C 582.39 352.84 583.62 353.15 584.96 353.02 C 589.41 353.04 593.85 352.90 598.30 353.09 C 601.39 355.27 605.56 352.75 608.68 354.87 C 610.22 354.96 611.76 355.03 613.31 355.13 C 614.81 356.11 616.63 355.99 618.34 356.22 C 620.33 357.08 622.55 356.98 624.60 357.65 C 625.92 357.98 627.26 358.30 628.60 358.66 C 629.92 358.98 631.27 359.29 632.60 359.66 C 633.94 359.96 635.30 360.27 636.62 360.74 C 637.08 360.86 637.99 361.09 638.45 361.20 C 639.78 361.81 641.21 362.18 642.55 362.80 C 643.02 362.91 643.96 363.11 644.43 363.22 C 645.43 363.63 646.47 364.00 647.53 364.30 C 649.25 364.90 650.96 365.53 652.63 366.28 C 653.85 366.78 655.12 367.19 656.38 367.65 C 657.44 368.23 658.54 368.77 659.62 369.36 C 660.86 369.79 662.12 370.20 663.37 370.65 C 665.10 371.54 666.84 372.44 668.61 373.29 C 669.53 373.76 670.46 374.22 671.40 374.69 C 673.86 375.79 676.04 377.40 678.36 378.76 C 679.72 379.37 681.08 380.02 682.45 380.66 C 689.02 385.02 695.62 389.36 702.14 393.80 C 707.04 398.64 713.12 402.11 717.75 407.24 C 722.84 412.50 728.25 417.47 733.18 422.86 C 734.89 425.75 737.59 427.80 739.63 430.42 C 743.57 436.68 748.63 442.15 752.29 448.59 C 753.33 450.58 754.65 452.41 755.71 454.40 C 756.52 455.83 757.47 457.16 758.32 458.58 C 758.77 459.52 759.23 460.46 759.71 461.41 C 759.96 461.91 760.46 462.90 760.71 463.39 C 761.22 464.46 761.75 465.53 762.28 466.61 C 762.54 467.10 763.05 468.08 763.31 468.57 C 763.98 469.93 764.61 471.30 765.22 472.70 C 755.65 470.51 745.72 469.10 735.94 470.66 C 719.74 471.99 704.04 477.57 690.40 486.35 C 681.93 492.04 674.76 499.40 667.88 506.87 C 657.33 520.16 650.18 536.21 647.63 553.01 C 646.53 553.00 645.43 552.99 644.34 552.99 C 635.31 539.59 624.99 526.76 612.11 516.86 C 590.04 498.39 562.54 486.48 534.03 482.69 C 523.63 482.01 513.18 480.00 502.76 481.58 C 491.01 482.26 479.47 484.67 468.12 487.69 C 461.73 481.13 455.40 474.46 447.88 469.17 C 406.71 436.08 350.32 423.70 298.85 434.78 C 292.90 436.28 286.94 437.79 280.95 439.15 L 281.00 438.29 C 281.61 438.06 282.83 437.61 283.44 437.38 C 285.83 435.84 288.13 434.16 290.55 432.67 C 291.91 432.02 293.25 431.35 294.61 430.72 C 295.10 430.47 296.09 429.97 296.58 429.72 C 297.90 429.03 299.24 428.37 300.59 427.72 C 301.91 427.03 303.24 426.34 304.58 425.68 C 307.13 424.38 309.92 423.64 312.43 422.25 C 313.76 421.63 315.12 421.09 316.53 420.67 C 317.81 420.10 319.20 419.87 320.48 419.30 C 321.49 419.01 322.50 418.68 323.50 418.34 C 324.53 418.01 325.56 417.64 326.57 417.23 C 327.03 417.10 327.93 416.86 328.39 416.73 C 329.69 416.26 331.05 415.97 332.40 415.66 C 333.72 415.29 335.06 414.97 336.40 414.65 C 338.43 414.05 340.57 413.95 342.60 413.34 C 343.99 413.01 345.42 412.80 346.70 412.12 C 349.04 411.84 351.62 412.53 353.70 411.11 C 356.03 410.84 358.64 411.55 360.70 410.09 C 372.23 409.94 383.77 409.94 395.30 410.09 C 397.66 411.69 400.63 410.76 403.29 411.09 C 405.06 412.38 407.28 411.92 409.31 412.15 C 411.27 413.26 413.65 412.78 415.66 413.77 C 417.32 413.98 419.06 413.98 420.61 414.73 C 421.06 414.87 421.94 415.14 422.38 415.28 C 423.69 415.75 425.05 416.01 426.42 416.28 C 426.83 416.47 427.66 416.85 428.07 417.04 C 432.78 413.59 436.10 408.34 441.14 405.19 C 450.69 395.75 462.04 388.36 473.40 381.28 C 474.83 380.47 476.17 379.52 477.58 378.67 C 478.52 378.21 479.46 377.75 480.41 377.29 C 480.91 377.04 481.89 376.54 482.39 376.29 C 483.45 375.76 484.52 375.24 485.59 374.72 C 487.19 373.90 488.80 373.10 490.42 372.29 C 491.76 371.63 493.09 370.93 494.42 370.22 C 496.45 369.35 498.55 368.63 500.60 367.78 C 501.53 367.27 502.46 366.76 503.40 366.26 C 504.47 365.95 505.53 365.61 506.59 365.24 C 507.05 365.13 507.99 364.91 508.45 364.79 C 509.74 364.17 511.15 363.85 512.48 363.29 C 513.49 362.99 514.49 362.68 515.50 362.34 C 516.53 362.01 517.56 361.64 518.57 361.23 C 519.03 361.10 519.94 360.86 520.39 360.73 C 521.69 360.23 523.06 359.97 524.43 359.70 C 526.14 359.12 527.93 358.85 529.63 358.22 C 530.53 358.07 531.43 357.92 532.35 357.78 C 534.34 356.82 536.65 357.17 538.66 356.22 C 540.35 356.00 542.16 356.09 543.69 355.15 C 545.70 354.92 547.93 355.37 549.70 354.10 C 551.89 354.00 554.10 353.99 556.30 353.90 C 562.34 351.28 569.69 354.74 575.70 352.07 Z" />
<path fill="#5fd2ff" opacity="1.00" d=" M 753.87 563.83 C 769.10 557.28 785.49 553.68 801.97 552.17 C 809.29 551.76 816.63 552.07 823.96 551.98 C 863.04 554.14 901.28 571.30 928.27 599.76 C 946.62 617.60 959.84 640.53 967.15 665.00 C 967.29 665.39 967.56 666.17 967.70 666.56 C 967.97 667.92 968.24 669.29 968.71 670.61 C 968.85 671.06 969.14 671.94 969.28 672.39 C 969.71 673.69 970.01 675.04 970.32 676.40 C 971.17 678.25 970.95 680.33 971.16 682.31 C 972.55 684.98 971.60 688.20 973.15 690.87 C 975.24 691.64 977.43 692.04 979.56 692.69 C 980.91 692.98 982.30 693.22 983.61 693.74 C 984.07 693.86 984.99 694.09 985.45 694.20 C 986.78 694.81 988.22 695.19 989.56 695.83 C 990.05 695.90 991.02 696.04 991.50 696.11 C 992.02 696.42 993.06 697.04 993.58 697.35 C 995.26 697.93 996.94 698.50 998.60 699.21 C 999.52 699.71 1000.47 700.20 1001.43 700.69 C 1015.62 708.93 1027.84 720.48 1036.33 734.56 C 1036.96 735.90 1037.63 737.25 1038.29 738.61 C 1038.53 739.11 1039.02 740.11 1039.26 740.61 C 1039.76 741.53 1040.26 742.46 1040.79 743.40 C 1041.47 745.03 1042.06 746.70 1042.71 748.37 C 1043.32 749.71 1043.92 751.08 1044.40 752.50 C 1044.76 753.78 1045.02 755.09 1045.32 756.41 C 1045.70 757.72 1046.00 759.06 1046.35 760.40 C 1047.09 762.44 1046.75 764.78 1047.91 766.71 C 1048.04 769.90 1047.96 773.10 1048.08 776.31 C 1049.50 778.01 1048.88 780.27 1048.94 782.30 C 1046.98 785.57 1048.47 789.66 1047.92 793.29 C 1046.36 795.45 1047.48 798.29 1046.31 800.59 C 1046.00 801.89 1045.75 803.21 1045.40 804.51 C 1045.02 805.53 1044.62 806.55 1044.21 807.57 C 1044.10 808.03 1043.89 808.96 1043.79 809.43 C 1043.36 810.43 1042.97 811.45 1042.64 812.50 C 1042.31 813.50 1042.01 814.52 1041.75 815.56 C 1041.49 816.06 1040.96 817.07 1040.70 817.58 C 1040.02 818.91 1039.35 820.26 1038.75 821.64 C 1037.79 823.33 1036.67 824.91 1035.72 826.60 C 1033.13 831.50 1029.40 835.65 1026.02 839.99 C 1022.65 844.98 1017.40 848.09 1013.14 852.19 C 1010.37 854.15 1007.57 856.08 1004.60 857.72 C 1003.16 858.52 1001.82 859.47 1000.42 860.32 C 999.47 860.78 998.53 861.24 997.60 861.70 C 996.52 862.25 995.42 862.75 994.38 863.33 C 993.05 863.82 991.71 864.25 990.43 864.82 C 989.94 864.89 988.97 865.03 988.48 865.11 C 987.96 865.43 986.92 866.09 986.40 866.42 C 984.71 866.88 982.98 867.15 981.36 867.78 C 980.44 867.91 979.54 868.05 978.65 868.21 C 976.82 869.26 974.68 868.96 972.68 869.14 C 969.23 871.33 964.69 868.62 961.30 870.92 C 929.77 871.05 898.23 871.06 866.70 870.91 C 865.05 869.61 862.94 870.04 861.02 869.98 C 847.92 870.08 834.80 869.87 821.70 870.09 C 819.73 871.54 817.22 870.85 814.98 871.03 C 812.73 870.86 810.24 871.53 808.30 870.09 C 760.43 869.94 712.56 869.95 664.70 870.08 C 662.35 871.74 659.34 870.79 656.69 870.92 C 655.57 870.14 654.35 869.83 653.01 869.98 C 617.32 870.01 581.63 870.01 545.94 869.98 C 543.71 870.12 541.23 869.46 539.30 870.91 C 536.43 871.03 533.56 871.03 530.70 870.91 C 528.02 869.20 524.68 870.31 521.71 869.91 C 519.79 868.70 517.41 869.18 515.39 868.28 C 514.94 868.14 514.03 867.87 513.58 867.73 C 511.96 867.12 510.23 866.93 508.63 866.31 C 505.59 865.01 502.47 863.90 499.58 862.30 C 499.09 862.04 498.10 861.53 497.61 861.28 C 496.25 860.63 494.91 859.97 493.56 859.34 C 487.95 856.15 483.39 851.57 478.42 847.57 C 476.38 844.08 472.68 841.97 470.64 838.49 C 468.33 834.78 465.54 831.36 463.68 827.40 C 463.43 826.91 462.93 825.93 462.68 825.43 C 461.70 823.53 460.99 821.53 460.30 819.53 C 459.99 818.47 459.63 817.43 459.22 816.43 C 459.12 815.96 458.90 815.03 458.79 814.57 C 458.36 813.55 457.96 812.53 457.60 811.51 C 457.23 810.21 456.98 808.89 456.69 807.59 C 455.27 804.99 456.86 801.76 455.09 799.30 C 455.00 797.19 454.97 795.09 454.96 793.00 C 454.77 785.70 455.62 778.41 457.35 771.33 C 460.64 757.55 468.31 745.17 477.87 734.85 C 484.25 728.41 491.95 723.48 499.77 718.96 C 501.04 720.50 502.31 722.05 503.58 723.60 C 502.68 723.77 500.87 724.11 499.97 724.28 C 499.99 725.03 500.02 726.53 500.03 727.28 C 501.69 726.86 503.36 726.45 505.02 726.03 C 503.45 728.43 502.62 731.12 504.34 733.69 C 505.99 730.95 507.13 727.83 509.33 725.47 C 511.63 724.51 514.13 724.19 516.56 723.71 C 514.78 726.79 513.21 730.12 510.58 732.57 C 507.63 734.19 504.02 733.61 500.90 734.73 C 500.31 735.82 499.77 736.95 499.28 738.11 C 502.28 737.94 505.28 737.71 508.28 737.39 C 507.08 738.96 505.90 740.54 504.71 742.13 C 505.51 742.92 506.32 743.72 507.13 744.53 C 508.43 742.92 509.73 741.31 511.02 739.70 C 511.78 741.79 512.53 743.88 513.28 745.98 C 514.03 745.99 515.52 746.01 516.27 746.02 C 515.74 742.30 514.96 738.64 513.95 735.04 C 516.02 732.00 517.98 728.88 519.77 725.67 C 520.38 728.33 521.01 730.99 521.64 733.66 C 519.26 736.27 517.27 739.27 516.55 742.79 C 518.59 741.41 520.50 739.86 522.36 738.25 C 523.49 739.79 524.47 741.45 525.60 743.00 C 525.74 741.07 525.85 739.17 525.95 737.26 C 528.16 738.28 530.49 738.95 532.91 739.31 C 530.82 736.17 527.57 734.20 524.27 732.57 C 523.83 730.22 523.40 727.88 522.97 725.54 C 525.99 727.30 529.41 728.68 531.74 731.39 C 533.31 734.69 533.28 738.48 533.96 742.03 C 534.69 742.02 536.16 742.01 536.89 742.01 C 536.95 739.50 537.01 737.00 537.09 734.50 C 538.62 735.50 540.14 736.50 541.68 737.51 C 542.09 736.43 542.57 735.37 542.87 734.26 C 541.90 732.93 540.75 731.76 539.65 730.56 C 541.87 729.71 544.09 728.85 546.30 727.97 C 545.49 727.05 544.69 726.14 543.89 725.24 C 540.95 726.18 538.04 727.39 534.94 727.61 C 531.50 726.87 528.73 724.47 525.79 722.68 C 526.14 722.31 526.85 721.58 527.21 721.21 C 529.10 720.93 531.00 720.67 532.90 720.39 C 534.99 722.00 537.06 723.62 539.13 725.25 C 539.79 724.62 540.47 723.99 541.14 723.37 C 539.78 722.17 538.42 720.98 537.06 719.80 C 538.67 718.61 540.36 717.54 542.00 716.40 C 540.08 716.23 538.17 716.14 536.26 716.05 C 537.29 713.82 537.96 711.44 538.25 709.00 C 535.56 711.16 533.94 714.23 531.70 716.78 C 529.64 718.38 526.84 718.50 524.42 719.24 C 526.38 715.71 528.62 712.36 531.09 709.18 C 534.43 708.94 537.75 708.53 541.05 707.93 C 541.04 707.22 541.01 705.80 541.00 705.09 C 538.57 705.05 536.15 705.01 533.73 704.97 C 534.65 703.00 535.59 701.04 536.51 699.07 C 535.25 699.06 533.99 699.07 532.74 699.09 C 531.74 700.23 530.75 701.37 529.75 702.51 C 528.89 700.22 528.05 697.93 527.20 695.66 C 533.39 678.07 541.22 660.67 553.41 646.35 C 557.82 641.45 561.79 636.09 567.05 632.03 C 587.44 613.22 613.68 600.83 641.23 597.33 C 660.47 594.14 680.19 596.55 698.87 601.70 C 703.96 596.45 709.01 591.09 715.04 586.90 C 726.66 577.19 740.04 569.86 753.87 563.83 M 798.63 584.40 C 795.14 585.11 791.56 584.91 788.03 585.18 C 779.69 586.28 771.50 588.25 763.38 590.42 C 742.37 597.56 722.48 608.93 707.23 625.23 C 702.83 628.84 700.20 634.35 700.08 640.02 C 700.48 642.93 701.48 645.72 702.22 648.57 C 706.05 655.43 714.00 659.91 721.88 658.85 C 727.62 657.46 732.78 654.09 736.76 649.76 C 744.38 641.65 753.94 635.63 764.01 631.04 C 773.83 626.74 784.27 623.48 795.04 623.00 C 799.37 622.90 803.63 621.43 807.98 622.06 C 815.21 623.10 822.55 623.64 829.61 625.62 C 837.86 627.49 845.38 631.47 853.06 634.88 C 859.26 637.48 866.59 635.76 871.79 631.75 C 879.95 624.72 880.46 610.75 872.73 603.23 C 868.51 599.83 863.49 597.65 858.53 595.57 C 847.11 590.45 834.91 587.21 822.54 585.41 C 814.60 584.68 806.60 583.06 798.63 584.40 M 896.33 633.37 C 891.67 634.23 888.21 637.75 885.43 641.34 C 882.00 646.73 882.46 653.65 884.14 659.56 C 886.31 662.42 888.35 665.50 891.33 667.60 C 894.33 669.55 897.99 669.87 901.43 670.54 C 910.07 670.63 918.10 664.36 920.11 655.96 C 922.01 651.03 920.10 645.70 917.64 641.35 C 913.59 634.04 904.14 631.09 896.33 633.37 M 652.08 697.99 C 651.42 701.01 650.98 704.07 650.73 707.16 C 648.74 705.17 646.72 703.21 644.67 701.31 C 644.10 702.24 643.53 703.17 642.97 704.12 C 642.44 707.11 645.57 708.89 647.18 710.96 C 643.81 711.28 639.74 709.96 636.91 712.25 C 637.12 713.74 638.32 714.82 639.07 716.08 C 643.25 715.94 647.44 716.02 651.63 716.09 C 654.80 719.09 657.72 722.35 660.14 725.99 C 657.16 725.99 654.19 725.97 651.22 725.94 C 648.67 722.76 646.13 719.58 643.41 716.56 C 640.64 719.30 643.36 722.35 645.04 724.80 C 642.81 725.11 639.77 724.40 638.71 727.00 C 639.74 729.62 642.91 728.83 645.12 729.21 C 643.62 730.72 641.98 732.17 640.97 734.07 C 641.25 735.23 641.58 736.39 641.98 737.54 C 644.95 735.01 647.55 732.09 650.17 729.22 C 653.54 729.83 656.94 730.10 660.36 730.22 C 657.11 733.16 653.55 735.76 650.53 738.96 C 645.72 739.07 640.99 738.05 636.20 737.86 C 635.84 738.84 635.49 739.82 635.14 740.81 C 635.84 741.45 636.54 742.10 637.26 742.75 C 639.62 742.99 641.97 743.36 644.29 743.87 C 642.77 745.57 641.13 747.19 639.88 749.11 C 640.01 750.44 641.09 751.43 641.64 752.64 C 643.78 751.12 645.90 749.57 647.98 747.96 C 647.96 750.56 647.77 753.19 648.21 755.78 C 649.04 757.53 651.98 757.58 652.78 755.76 C 653.31 751.65 652.95 747.49 653.07 743.36 C 656.43 739.86 660.17 736.76 664.06 733.86 C 663.38 737.14 662.98 740.48 662.79 743.83 C 660.01 746.01 656.83 747.88 654.90 750.93 C 655.44 751.79 656.03 752.63 656.66 753.45 C 658.78 751.92 660.90 750.40 663.01 748.86 C 662.84 750.33 662.62 751.83 662.59 753.34 C 662.31 754.95 664.46 754.76 665.46 755.35 C 666.02 753.54 666.59 751.75 667.07 749.93 C 669.04 751.49 671.06 753.00 673.14 754.45 C 673.46 753.30 673.75 752.15 674.02 751.01 C 672.26 748.10 669.47 746.03 667.08 743.68 C 667.28 740.83 666.13 737.40 668.17 735.03 C 671.71 737.70 674.36 741.44 676.84 745.07 C 676.45 749.86 675.15 754.62 675.90 759.45 C 681.02 759.33 681.23 753.64 681.22 749.81 C 683.06 751.71 684.88 753.65 687.04 755.21 C 687.51 754.85 688.45 754.13 688.92 753.77 C 690.04 750.40 686.68 748.24 684.82 746.01 C 687.79 746.03 690.79 746.24 693.75 745.79 C 694.94 744.96 694.87 743.25 695.45 742.04 C 690.56 740.40 685.39 741.39 680.40 740.68 C 676.99 738.00 674.78 734.16 671.86 731.00 C 674.82 731.02 677.79 731.02 680.76 731.03 C 682.91 733.67 685.05 736.33 687.17 739.02 C 687.99 739.01 689.64 738.98 690.46 738.97 C 689.74 736.50 688.64 734.17 687.11 732.10 C 689.24 731.83 692.32 732.62 693.26 730.01 C 692.21 727.37 689.09 728.10 686.87 727.79 C 689.13 725.59 692.37 723.02 690.15 719.61 C 686.90 721.52 684.10 724.06 681.65 726.90 C 678.31 727.00 674.97 727.00 671.65 726.89 C 674.91 723.46 678.80 720.73 682.21 717.45 C 686.72 718.10 691.22 718.82 695.77 719.15 C 696.14 718.15 696.52 717.16 696.90 716.17 C 696.16 715.54 695.42 714.93 694.70 714.32 C 692.40 713.87 690.11 713.40 687.83 712.93 C 689.29 711.34 690.92 709.85 692.02 707.97 C 691.75 706.74 691.43 705.54 691.06 704.36 C 688.29 705.27 686.02 707.09 684.05 709.19 C 684.05 706.53 684.21 703.85 683.76 701.23 C 682.76 699.63 680.55 700.14 679.00 699.71 C 678.83 704.33 679.42 709.01 678.64 713.59 C 675.78 717.47 671.46 719.91 667.95 723.14 C 668.63 719.85 669.02 716.50 669.18 713.15 C 671.86 710.76 675.11 708.94 677.26 706.00 C 676.89 705.50 676.15 704.51 675.78 704.02 C 673.11 704.50 671.11 706.70 668.87 708.09 C 669.11 706.41 669.37 704.75 669.64 703.09 C 668.88 702.28 668.13 701.48 667.39 700.68 C 666.38 702.77 665.40 704.89 664.48 707.02 C 663.06 705.52 661.66 703.99 659.98 702.79 C 658.31 703.31 658.22 705.13 657.66 706.51 C 660.16 708.22 663.00 709.77 664.65 712.42 C 665.57 715.74 665.01 719.24 664.00 722.48 C 661.24 718.81 657.57 715.75 655.16 711.89 C 655.57 707.25 656.72 702.65 656.19 697.96 C 654.81 697.97 653.44 697.97 652.08 697.99 M 877.70 705.68 C 874.73 708.45 875.17 712.90 874.69 716.58 C 870.94 714.15 868.82 710.12 865.73 707.01 C 864.51 706.98 863.30 706.95 862.11 706.92 C 861.34 707.95 860.63 709.02 859.94 710.11 C 859.98 712.15 861.54 713.70 862.70 715.24 C 866.07 719.18 869.09 723.41 872.61 727.23 C 871.50 734.60 870.03 741.91 868.82 749.26 C 866.00 745.04 862.72 741.13 860.03 736.83 C 860.37 731.22 863.72 726.01 862.90 720.29 C 861.81 718.83 859.84 719.07 858.28 718.71 C 856.87 722.19 856.00 725.86 855.56 729.59 C 853.47 727.52 851.47 725.37 849.77 722.98 C 848.60 722.97 847.45 722.98 846.30 722.99 C 845.93 723.90 845.56 724.81 845.21 725.73 C 846.59 728.13 847.99 730.53 849.39 732.94 C 845.59 733.00 841.80 733.01 838.01 733.01 C 837.98 734.66 837.97 736.33 837.96 738.00 C 843.50 739.29 849.24 739.38 854.87 740.16 C 858.05 744.43 860.99 748.88 864.29 753.08 C 857.55 751.40 850.57 751.00 843.87 749.21 C 841.23 748.74 840.12 746.09 838.87 744.06 C 836.59 739.93 834.00 735.99 831.48 732.01 C 830.08 732.00 828.69 732.00 827.31 732.01 C 826.46 732.95 825.63 733.90 824.80 734.86 C 826.91 739.02 829.40 742.97 831.49 747.15 C 827.76 746.51 824.02 746.02 820.25 745.86 C 819.37 747.31 818.49 748.77 817.61 750.23 C 820.67 754.35 825.98 753.77 830.34 755.35 C 826.95 757.90 823.36 760.32 820.64 763.61 C 818.28 766.42 822.63 770.45 825.51 768.69 C 831.15 765.46 835.09 759.71 841.06 757.06 C 848.28 757.12 855.25 759.63 862.44 760.31 C 858.45 763.42 854.34 766.45 849.91 768.90 C 844.22 769.25 839.03 765.47 833.31 766.09 C 831.55 767.12 831.08 770.88 833.34 771.54 C 836.61 772.60 840.01 773.19 843.32 774.16 C 840.83 775.78 838.15 777.21 836.07 779.38 C 835.32 781.61 837.61 782.94 838.85 784.41 C 841.63 782.59 844.41 780.76 847.08 778.78 C 845.94 782.32 845.82 786.04 846.01 789.73 C 847.01 790.60 848.02 791.48 849.04 792.37 C 849.96 791.47 850.90 790.59 851.85 789.71 C 852.08 784.63 853.23 779.63 853.09 774.54 C 857.44 771.54 861.63 768.32 866.07 765.46 C 864.87 772.88 863.66 780.31 861.97 787.64 C 856.21 790.98 850.32 794.16 844.99 798.17 C 844.96 799.40 844.94 800.64 844.93 801.88 C 846.42 802.62 847.74 804.81 849.59 803.68 C 853.65 801.89 857.34 799.35 860.94 796.78 C 859.87 800.73 859.29 804.79 858.77 808.84 C 860.82 810.97 863.37 811.28 865.98 809.95 C 866.91 806.20 867.70 802.42 868.29 798.61 C 870.90 801.68 873.13 805.11 876.02 807.95 C 877.77 809.88 880.24 808.26 882.28 807.86 C 881.93 805.92 882.12 803.76 880.85 802.14 C 877.73 797.65 873.76 793.80 870.75 789.24 C 869.57 787.89 870.32 786.11 870.49 784.57 C 871.60 778.85 872.47 773.10 873.42 767.36 C 877.19 770.75 879.42 775.42 882.68 779.26 C 881.61 784.78 879.29 790.10 879.04 795.74 C 880.28 797.15 882.28 796.94 883.97 797.32 C 885.80 793.69 886.50 789.67 887.14 785.70 C 888.92 788.17 890.71 790.65 892.38 793.21 C 893.82 792.83 895.86 793.30 896.70 791.73 C 896.87 790.69 897.00 789.65 897.11 788.62 C 895.19 786.52 893.45 784.28 891.63 782.10 C 894.33 782.86 897.13 783.25 899.95 783.11 C 901.67 782.95 903.81 783.33 904.96 781.68 C 905.56 779.76 903.76 778.46 902.90 776.99 C 897.73 777.34 892.64 776.15 887.51 775.82 C 884.72 771.42 881.40 767.40 878.71 762.95 C 885.97 764.75 893.59 765.13 900.70 767.39 C 904.63 772.70 907.35 778.83 911.22 784.22 C 913.47 784.02 917.54 784.38 917.09 780.97 C 916.52 776.34 912.70 772.91 910.77 768.80 C 914.79 769.39 918.82 769.93 922.88 770.20 C 923.36 768.16 923.86 766.13 924.38 764.10 C 920.75 762.05 916.55 761.80 912.59 760.85 C 915.50 757.82 918.84 755.27 922.16 752.72 C 922.04 751.23 922.00 749.73 921.76 748.27 C 920.71 746.35 918.24 747.25 916.49 746.97 C 912.21 751.45 906.75 754.56 902.48 759.05 C 894.75 758.63 887.25 756.53 879.57 755.71 C 883.57 752.80 887.99 750.42 891.58 746.97 C 897.43 746.85 902.85 749.38 908.57 750.20 C 909.54 749.05 910.53 747.92 911.52 746.79 C 908.44 743.40 903.72 742.97 899.58 741.79 C 901.54 740.34 903.63 739.03 905.31 737.23 C 906.98 735.55 906.05 731.28 903.16 732.04 C 900.64 733.36 898.36 735.08 895.91 736.52 C 895.98 733.04 896.44 729.59 897.19 726.20 C 895.91 725.51 894.65 724.83 893.39 724.16 C 892.82 724.44 891.67 725.01 891.10 725.29 C 889.60 730.68 890.24 736.37 888.81 741.78 C 884.55 744.94 879.97 747.69 876.07 751.32 C 877.69 743.74 878.86 736.07 880.22 728.44 C 885.81 725.34 891.23 721.95 896.71 718.64 C 897.16 717.74 897.63 716.85 898.11 715.97 C 897.31 714.54 896.52 713.11 895.74 711.69 C 890.44 712.24 886.55 716.24 881.91 718.44 C 882.79 714.39 883.16 710.26 883.10 706.13 C 881.36 705.89 879.23 704.12 877.70 705.68 M 498.21 805.18 C 493.01 810.51 491.80 818.57 494.22 825.48 C 495.92 827.86 497.37 830.50 499.59 832.46 C 507.67 840.17 522.97 838.32 528.26 828.23 C 533.13 820.99 531.43 810.68 525.33 804.70 C 521.93 801.10 516.91 799.29 512.04 799.09 C 507.07 799.95 501.57 801.06 498.21 805.18 Z" />
<path fill="#5fd2ff" opacity="1.00" d=" M 152.75 580.77 C 154.52 579.05 156.70 577.82 158.83 576.61 C 158.11 580.90 157.29 585.18 156.49 589.46 C 150.75 590.43 145.12 591.95 139.62 593.84 C 142.55 588.21 148.55 585.29 152.75 580.77 Z" />
<path fill="#5fd2ff" opacity="1.00" d=" M 502.27 717.91 C 504.22 717.14 506.17 716.36 508.10 715.54 L 508.61 715.87 C 511.15 717.63 513.74 719.33 516.41 720.92 C 513.70 721.38 510.97 722.24 508.20 721.92 C 505.95 721.02 504.15 719.35 502.27 717.91 Z" />
</g>
<g id="#23baeaff">
<path fill="#23baea" opacity="1.00" d=" M 298.85 434.78 C 350.32 423.70 406.71 436.08 447.88 469.17 C 455.40 474.46 461.73 481.13 468.12 487.69 C 479.47 484.67 491.01 482.26 502.76 481.58 C 513.18 480.00 523.63 482.01 534.03 482.69 C 562.54 486.48 590.04 498.39 612.11 516.86 C 624.99 526.76 635.31 539.59 644.34 552.99 C 645.43 552.99 646.53 553.00 647.63 553.01 C 650.18 536.21 657.33 520.16 667.88 506.87 C 674.76 499.40 681.93 492.04 690.40 486.35 C 704.04 477.57 719.74 471.99 735.94 470.66 C 745.72 469.10 755.65 470.51 765.22 472.70 C 766.27 472.92 767.33 473.09 768.40 473.30 C 769.70 473.78 771.08 473.98 772.46 474.18 C 775.65 470.80 778.77 467.29 782.69 464.73 C 786.41 462.17 789.54 458.81 793.58 456.71 C 795.30 455.82 796.90 454.70 798.55 453.69 C 799.89 453.03 801.23 452.36 802.59 451.72 C 803.90 451.03 805.24 450.36 806.58 449.71 C 809.09 448.35 811.69 447.17 814.41 446.32 C 814.92 446.06 815.93 445.53 816.43 445.26 C 817.49 444.98 818.53 444.64 819.57 444.25 C 820.03 444.12 820.94 443.84 821.40 443.70 C 822.72 443.27 824.08 443.00 825.45 442.69 C 827.14 442.09 828.95 441.86 830.64 441.20 C 831.86 441.05 833.09 440.93 834.33 440.80 C 836.62 439.49 839.46 440.55 841.71 439.11 C 850.56 438.92 859.43 438.93 868.30 439.11 C 870.39 440.46 872.96 439.88 875.32 440.15 C 876.99 440.86 878.83 441.08 880.55 441.70 C 881.89 442.00 883.25 442.25 884.58 442.68 C 885.88 442.96 887.21 443.22 888.51 443.61 C 889.52 443.98 890.54 444.37 891.56 444.79 C 892.04 444.89 892.99 445.09 893.47 445.19 C 895.48 445.96 897.52 446.70 899.43 447.75 C 901.46 448.65 903.56 449.38 905.64 450.18 C 907.29 451.18 908.88 452.29 910.53 453.33 C 911.50 453.76 912.48 454.21 913.46 454.67 C 924.38 461.68 934.86 469.78 942.75 480.18 C 946.16 483.53 948.34 487.83 951.35 491.51 C 951.79 492.49 952.22 493.47 952.67 494.47 C 953.51 495.85 954.48 497.15 955.32 498.54 C 955.97 499.89 956.62 501.25 957.28 502.61 C 957.54 503.10 958.07 504.07 958.33 504.56 C 959.45 506.85 960.26 509.27 961.27 511.62 C 961.80 512.91 962.24 514.24 962.79 515.53 C 962.91 516.01 963.14 516.96 963.25 517.43 C 963.92 519.08 964.06 520.90 964.73 522.57 C 964.88 523.02 965.16 523.94 965.30 524.39 C 965.93 525.97 965.99 527.68 966.28 529.35 C 966.97 531.40 966.98 533.63 967.78 535.66 C 967.85 536.17 967.99 537.17 968.05 537.67 C 968.67 537.94 969.90 538.47 970.52 538.74 C 971.87 538.99 973.23 539.28 974.59 539.63 C 975.84 539.95 977.12 540.27 978.38 540.66 C 979.99 541.44 981.68 542.07 983.38 542.69 C 984.43 543.21 985.50 543.75 986.59 544.29 C 987.53 544.75 988.49 545.21 989.46 545.68 C 996.81 549.68 1002.54 555.80 1008.19 561.84 C 1009.99 564.34 1011.64 566.95 1013.32 569.54 C 1013.77 570.50 1014.23 571.45 1014.70 572.41 C 1015.36 573.76 1016.05 575.10 1016.79 576.42 C 1017.47 578.11 1018.12 579.82 1018.78 581.54 C 1018.91 582.00 1019.16 582.93 1019.29 583.40 C 1019.66 584.72 1020.00 586.06 1020.37 587.40 C 1021.07 589.29 1020.99 591.33 1021.18 593.32 C 1022.93 598.03 1021.67 603.34 1021.89 608.29 C 1020.54 610.51 1021.30 613.24 1020.36 615.60 C 1019.99 616.91 1019.69 618.25 1019.35 619.58 C 1019.03 621.33 1018.49 623.03 1017.74 624.65 C 1017.07 626.28 1016.46 627.94 1015.80 629.59 C 1009.93 640.84 1001.51 650.91 990.45 657.35 C 989.94 657.58 988.92 658.04 988.41 658.26 C 987.91 658.52 986.93 659.03 986.43 659.29 C 983.87 660.66 981.20 661.82 978.47 662.79 C 978.00 662.91 977.07 663.16 976.61 663.29 C 975.27 663.67 973.92 664.00 972.60 664.36 C 970.87 665.11 968.96 664.97 967.15 665.00 C 959.84 640.53 946.62 617.60 928.27 599.76 C 901.28 571.30 863.04 554.14 823.96 551.98 C 816.63 552.07 809.29 551.76 801.97 552.17 C 785.49 553.68 769.10 557.28 753.87 563.83 C 740.04 569.86 726.66 577.19 715.04 586.90 C 709.01 591.09 703.96 596.45 698.87 601.70 C 680.19 596.55 660.47 594.14 641.23 597.33 C 613.68 600.83 587.44 613.22 567.05 632.03 C 561.79 636.09 557.82 641.45 553.41 646.35 C 541.22 660.67 533.39 678.07 527.20 695.66 C 526.64 696.15 525.53 697.15 524.98 697.65 C 525.47 701.17 526.16 704.67 526.73 708.19 C 524.86 710.74 523.13 713.39 521.49 716.09 C 521.12 714.96 520.75 713.83 520.40 712.72 C 520.02 711.54 519.65 710.38 519.29 709.23 C 520.83 707.30 522.37 705.37 523.95 703.46 C 523.97 702.84 524.02 701.59 524.04 700.96 C 523.44 700.98 522.24 701.02 521.64 701.04 C 520.48 702.53 519.30 704.02 518.12 705.50 C 518.06 703.99 518.01 702.48 517.97 700.98 C 517.13 700.99 515.44 701.01 514.60 701.02 C 515.03 702.66 515.49 704.31 515.97 705.96 C 513.50 704.69 510.84 703.86 508.07 703.71 C 510.02 707.01 513.60 708.51 516.88 710.14 C 516.89 710.81 516.90 712.16 516.90 712.84 L 516.98 714.00 C 517.33 714.98 517.71 715.97 518.10 716.95 C 516.19 715.90 514.24 714.92 512.34 713.85 C 507.18 711.65 508.13 705.42 507.09 700.89 C 506.31 700.92 504.76 700.98 503.98 701.01 C 503.99 703.28 504.00 705.55 504.02 707.83 C 502.04 707.04 500.06 706.27 498.08 705.53 C 498.03 706.36 497.93 708.01 497.88 708.84 C 499.27 709.77 500.66 710.71 502.06 711.64 C 501.71 711.95 501.01 712.56 500.66 712.86 C 499.56 712.91 498.46 712.97 497.36 713.04 C 496.53 713.80 495.71 714.58 494.89 715.36 C 495.24 715.86 495.95 716.86 496.31 717.36 C 500.23 716.82 504.08 714.93 508.10 715.54 C 506.17 716.36 504.22 717.14 502.27 717.91 C 501.42 718.23 500.59 718.58 499.77 718.96 C 491.95 723.48 484.25 728.41 477.87 734.85 C 468.31 745.17 460.64 757.55 457.35 771.33 C 455.62 778.41 454.77 785.70 454.96 793.00 C 416.54 793.07 378.11 792.87 339.69 793.09 C 337.83 794.42 335.16 794.42 333.31 793.10 C 294.11 792.94 254.90 792.93 215.70 793.10 C 214.04 794.33 211.94 793.94 210.03 794.03 C 197.59 793.90 185.14 794.15 172.70 793.90 C 168.71 791.95 163.99 793.53 159.70 792.89 C 157.90 791.71 155.71 792.03 153.68 791.81 C 152.36 791.24 150.94 790.99 149.56 790.68 C 147.87 790.11 146.10 789.86 144.43 789.26 C 143.95 789.14 143.01 788.91 142.54 788.80 C 141.21 788.17 139.78 787.81 138.46 787.19 C 137.98 787.09 137.02 786.91 136.54 786.81 C 134.11 785.89 131.71 784.92 129.40 783.75 C 128.46 783.24 127.52 782.74 126.58 782.25 C 126.08 782.02 125.07 781.57 124.56 781.34 C 123.17 780.48 121.84 779.52 120.42 778.73 C 106.28 770.33 94.38 758.36 85.71 744.42 C 84.43 742.05 82.84 739.86 81.68 737.43 C 80.37 734.90 79.22 732.31 78.26 729.64 C 77.54 727.96 76.91 726.24 76.30 724.53 C 75.98 723.48 75.63 722.45 75.24 721.44 C 75.12 720.97 74.87 720.03 74.75 719.56 C 74.06 717.88 73.91 716.06 73.24 714.39 C 73.02 712.66 73.01 710.88 72.18 709.31 C 71.96 707.28 72.28 705.09 71.11 703.29 C 70.93 695.10 70.93 686.90 71.11 678.71 C 72.72 676.19 71.44 673.05 72.65 670.40 C 72.98 669.07 73.30 667.73 73.68 666.42 C 73.96 665.10 74.22 663.77 74.61 662.49 C 74.98 661.46 75.38 660.44 75.78 659.44 C 75.89 658.97 76.12 658.04 76.23 657.57 C 76.62 656.54 76.99 655.51 77.33 654.48 C 77.78 653.19 78.18 651.88 78.65 650.61 C 79.33 649.26 80.03 647.93 80.73 646.60 C 81.25 645.53 81.74 644.45 82.26 643.39 C 83.42 640.97 84.85 638.70 86.26 636.42 C 88.58 631.91 92.08 628.18 95.24 624.28 C 98.22 621.85 99.62 617.96 102.99 615.99 C 105.00 614.70 106.54 612.85 108.32 611.28 C 113.14 607.38 118.39 604.07 123.55 600.65 C 124.06 600.43 125.09 599.99 125.60 599.77 C 126.53 599.24 127.47 598.72 128.41 598.21 C 130.47 597.35 132.58 596.63 134.63 595.73 C 135.88 595.20 137.17 594.77 138.43 594.24 C 138.73 594.14 139.32 593.94 139.62 593.84 C 145.12 591.95 150.75 590.43 156.49 589.46 C 157.29 585.18 158.11 580.90 158.83 576.61 C 158.97 575.59 159.11 574.57 159.24 573.57 C 159.88 571.89 160.11 570.10 160.73 568.44 C 160.87 567.97 161.14 567.04 161.28 566.57 C 161.83 564.88 162.15 563.13 162.70 561.45 C 162.97 560.12 163.23 558.79 163.59 557.49 C 164.10 556.09 164.66 554.71 165.28 553.37 C 165.81 552.07 166.25 550.74 166.80 549.46 C 166.90 548.98 167.09 548.01 167.19 547.53 C 167.97 545.50 168.71 543.45 169.77 541.56 C 170.34 540.21 170.89 538.84 171.31 537.44 C 171.55 536.94 172.03 535.93 172.27 535.42 C 172.96 534.09 173.62 532.75 174.28 531.42 C 175.11 529.80 175.89 528.17 176.69 526.55 C 177.53 525.16 178.46 523.82 179.27 522.42 C 180.17 520.69 181.28 519.09 182.33 517.46 C 182.76 516.47 183.20 515.48 183.65 514.51 C 188.96 507.54 193.50 499.92 199.71 493.68 C 201.51 491.19 203.45 488.80 205.74 486.74 C 216.62 475.38 229.03 465.51 242.42 457.27 C 243.83 456.47 245.15 455.52 246.55 454.70 C 247.50 454.23 248.45 453.75 249.40 453.27 C 250.76 452.62 252.11 451.97 253.48 451.34 C 254.49 450.68 255.48 450.00 256.44 449.27 C 257.85 448.87 259.23 448.35 260.60 447.83 C 261.53 447.28 262.46 446.74 263.39 446.20 C 265.46 445.36 267.58 444.64 269.61 443.70 C 270.57 443.34 271.55 443.00 272.53 442.69 C 274.24 442.07 275.94 441.47 277.63 440.81 C 278.12 440.49 279.10 439.84 279.59 439.52 C 279.93 439.43 280.61 439.24 280.95 439.15 C 286.94 437.79 292.90 436.28 298.85 434.78 M 312.29 472.75 C 310.42 472.93 308.56 473.07 306.70 473.26 C 304.26 473.74 301.82 474.30 299.35 474.65 C 298.44 474.85 297.53 475.07 296.62 475.29 C 295.28 475.67 293.93 476.00 292.58 476.33 C 290.88 476.79 289.16 477.20 287.45 477.65 C 286.45 477.98 285.45 478.33 284.46 478.70 C 283.45 479.00 282.45 479.32 281.45 479.65 C 280.43 480.02 279.42 480.41 278.42 480.82 C 277.94 480.88 276.97 481.02 276.49 481.09 C 275.49 481.70 274.49 482.31 273.49 482.93 C 273.01 482.98 272.06 483.07 271.58 483.12 C 268.60 484.72 265.58 486.25 262.53 487.71 C 251.15 493.38 240.88 501.04 231.44 509.48 C 229.93 511.43 228.41 513.36 227.07 515.43 C 226.97 515.90 226.77 516.86 226.67 517.34 C 225.61 521.01 225.62 524.98 226.67 528.66 C 226.77 529.14 226.96 530.10 227.05 530.58 C 229.46 534.71 233.11 537.99 237.51 539.86 C 237.97 539.99 238.89 540.23 239.36 540.36 C 242.38 541.32 245.64 541.31 248.66 540.34 C 249.13 540.23 250.06 540.00 250.52 539.89 C 254.42 537.81 257.66 534.81 261.00 531.98 C 268.09 525.91 276.28 521.31 284.58 517.13 C 285.06 517.08 286.01 516.98 286.49 516.93 C 287.49 516.31 288.49 515.70 289.50 515.10 C 289.98 515.02 290.94 514.88 291.42 514.81 C 292.42 514.41 293.44 514.03 294.46 513.67 C 295.82 513.21 297.19 512.78 298.55 512.30 C 299.91 511.98 301.27 511.66 302.62 511.30 C 303.53 511.07 304.44 510.86 305.36 510.67 C 307.02 510.33 308.67 509.96 310.33 509.57 C 312.62 509.13 314.95 508.91 317.28 508.71 C 320.40 507.64 323.73 508.01 326.97 507.99 C 331.40 508.05 335.85 507.83 340.28 508.20 C 343.00 509.05 345.88 509.09 348.67 509.57 C 350.32 509.96 351.98 510.34 353.65 510.68 C 354.56 510.87 355.47 511.06 356.39 511.27 C 358.10 511.76 359.83 512.18 361.54 512.68 C 362.54 513.00 363.54 513.32 364.55 513.66 C 365.56 514.02 366.57 514.41 367.58 514.80 C 368.05 514.88 368.99 515.04 369.47 515.12 C 371.16 516.05 372.86 516.96 374.55 517.91 C 375.04 517.94 376.01 518.02 376.50 518.06 C 377.50 518.69 378.51 519.33 379.52 519.98 C 383.16 520.01 386.81 520.00 390.45 519.97 C 395.23 517.75 399.18 514.06 401.95 509.60 C 402.05 509.12 402.24 508.15 402.33 507.66 C 403.37 504.31 403.32 500.70 402.37 497.34 C 402.24 496.89 401.99 495.97 401.86 495.51 C 400.78 493.52 399.86 491.39 398.30 489.72 C 395.96 487.00 392.47 485.81 389.42 484.12 C 388.94 484.07 387.98 483.98 387.50 483.93 C 386.49 483.30 385.49 482.68 384.50 482.06 C 384.00 482.03 383.01 481.97 382.51 481.94 C 381.51 481.32 380.50 480.70 379.50 480.09 C 379.02 480.02 378.06 479.88 377.58 479.82 C 376.57 479.41 375.57 479.02 374.56 478.65 C 372.84 478.19 371.12 477.77 369.42 477.30 C 368.96 477.15 368.05 476.84 367.59 476.69 C 366.26 476.31 364.92 475.99 363.59 475.66 C 362.27 475.27 360.94 474.93 359.61 474.59 C 357.16 474.24 354.72 473.80 352.30 473.25 C 350.43 473.07 348.57 472.93 346.71 472.75 C 341.27 471.17 335.51 472.34 329.93 472.00 C 324.07 472.36 318.01 471.15 312.29 472.75 Z" />
</g>
<g id="#ffffffff">
<path fill="#ffffff" opacity="1.00" d=" M 312.29 472.75 C 318.01 471.15 324.07 472.36 329.93 472.00 C 335.51 472.34 341.27 471.17 346.71 472.75 C 348.57 472.93 350.43 473.07 352.30 473.25 C 354.72 473.80 357.16 474.24 359.61 474.59 C 360.94 474.93 362.27 475.27 363.59 475.66 C 364.92 475.99 366.26 476.31 367.59 476.69 C 368.05 476.84 368.96 477.15 369.42 477.30 C 371.12 477.77 372.84 478.19 374.56 478.65 C 375.57 479.02 376.57 479.41 377.58 479.82 C 378.06 479.88 379.02 480.02 379.50 480.09 C 380.50 480.70 381.51 481.32 382.51 481.94 C 383.01 481.97 384.00 482.03 384.50 482.06 C 385.49 482.68 386.49 483.30 387.50 483.93 C 387.98 483.98 388.94 484.07 389.42 484.12 C 392.47 485.81 395.96 487.00 398.30 489.72 C 399.86 491.39 400.78 493.52 401.86 495.51 C 401.99 495.97 402.24 496.89 402.37 497.34 C 403.32 500.70 403.37 504.31 402.33 507.66 C 402.24 508.15 402.05 509.12 401.95 509.60 C 399.18 514.06 395.23 517.75 390.45 519.97 C 386.81 520.00 383.16 520.01 379.52 519.98 C 378.51 519.33 377.50 518.69 376.50 518.06 C 376.01 518.02 375.04 517.94 374.55 517.91 C 372.86 516.96 371.16 516.05 369.47 515.12 C 368.99 515.04 368.05 514.88 367.58 514.80 C 366.57 514.41 365.56 514.02 364.55 513.66 C 363.54 513.32 362.54 513.00 361.54 512.68 C 359.83 512.18 358.10 511.76 356.39 511.27 C 355.47 511.06 354.56 510.87 353.65 510.68 C 351.98 510.34 350.32 509.96 348.67 509.57 C 345.88 509.09 343.00 509.05 340.28 508.20 C 335.85 507.83 331.40 508.05 326.97 507.99 C 323.73 508.01 320.40 507.64 317.28 508.71 C 314.95 508.91 312.62 509.13 310.33 509.57 C 308.67 509.96 307.02 510.33 305.36 510.67 C 304.44 510.86 303.53 511.07 302.62 511.30 C 301.27 511.66 299.91 511.98 298.55 512.30 C 297.19 512.78 295.82 513.21 294.46 513.67 C 293.44 514.03 292.42 514.41 291.42 514.81 C 290.94 514.88 289.98 515.02 289.50 515.10 C 288.49 515.70 287.49 516.31 286.49 516.93 C 286.01 516.98 285.06 517.08 284.58 517.13 C 276.28 521.31 268.09 525.91 261.00 531.98 C 257.66 534.81 254.42 537.81 250.52 539.89 C 250.06 540.00 249.13 540.23 248.66 540.34 C 245.64 541.31 242.38 541.32 239.36 540.36 C 238.89 540.23 237.97 539.99 237.51 539.86 C 233.11 537.99 229.46 534.71 227.05 530.58 C 226.96 530.10 226.77 529.14 226.67 528.66 C 225.62 524.98 225.61 521.01 226.67 517.34 C 226.77 516.86 226.97 515.90 227.07 515.43 C 228.41 513.36 229.93 511.43 231.44 509.48 C 240.88 501.04 251.15 493.38 262.53 487.71 C 265.58 486.25 268.60 484.72 271.58 483.12 C 272.06 483.07 273.01 482.98 273.49 482.93 C 274.49 482.31 275.49 481.70 276.49 481.09 C 276.97 481.02 277.94 480.88 278.42 480.82 C 279.42 480.41 280.43 480.02 281.45 479.65 C 282.45 479.32 283.45 479.00 284.46 478.70 C 285.45 478.33 286.45 477.98 287.45 477.65 C 289.16 477.20 290.88 476.79 292.58 476.33 C 293.93 476.00 295.28 475.67 296.62 475.29 C 297.53 475.07 298.44 474.85 299.35 474.65 C 301.82 474.30 304.26 473.74 306.70 473.26 C 308.56 473.07 310.42 472.93 312.29 472.75 Z" />
<path fill="#ffffff" opacity="1.00" d=" M 798.63 584.40 C 806.60 583.06 814.60 584.68 822.54 585.41 C 834.91 587.21 847.11 590.45 858.53 595.57 C 863.49 597.65 868.51 599.83 872.73 603.23 C 880.46 610.75 879.95 624.72 871.79 631.75 C 866.59 635.76 859.26 637.48 853.06 634.88 C 845.38 631.47 837.86 627.49 829.61 625.62 C 822.55 623.64 815.21 623.10 807.98 622.06 C 803.63 621.43 799.37 622.90 795.04 623.00 C 784.27 623.48 773.83 626.74 764.01 631.04 C 753.94 635.63 744.38 641.65 736.76 649.76 C 732.78 654.09 727.62 657.46 721.88 658.85 C 714.00 659.91 706.05 655.43 702.22 648.57 C 701.48 645.72 700.48 642.93 700.08 640.02 C 700.20 634.35 702.83 628.84 707.23 625.23 C 722.48 608.93 742.37 597.56 763.38 590.42 C 771.50 588.25 779.69 586.28 788.03 585.18 C 791.56 584.91 795.14 585.11 798.63 584.40 Z" />
<path fill="#ffffff" opacity="1.00" d=" M 896.33 633.37 C 904.14 631.09 913.59 634.04 917.64 641.35 C 920.10 645.70 922.01 651.03 920.11 655.96 C 918.10 664.36 910.07 670.63 901.43 670.54 C 897.99 669.87 894.33 669.55 891.33 667.60 C 888.35 665.50 886.31 662.42 884.14 659.56 C 882.46 653.65 882.00 646.73 885.43 641.34 C 888.21 637.75 891.67 634.23 896.33 633.37 Z" />
<path fill="#ffffff" opacity="1.00" d=" M 498.21 805.18 C 501.57 801.06 507.07 799.95 512.04 799.09 C 516.91 799.29 521.93 801.10 525.33 804.70 C 531.43 810.68 533.13 820.99 528.26 828.23 C 522.97 838.32 507.67 840.17 499.59 832.46 C 497.37 830.50 495.92 827.86 494.22 825.48 C 491.80 818.57 493.01 810.51 498.21 805.18 Z" />
</g>
<g id="#c6e3f0fd">
<path fill="#c6e3f0" opacity="1.00" d=" M 524.98 697.65 C 525.53 697.15 526.64 696.15 527.20 695.66 C 528.05 697.93 528.89 700.22 529.75 702.51 C 530.75 701.37 531.74 700.23 532.74 699.09 C 533.99 699.07 535.25 699.06 536.51 699.07 C 535.59 701.04 534.65 703.00 533.73 704.97 C 536.15 705.01 538.57 705.05 541.00 705.09 C 541.01 705.80 541.04 707.22 541.05 707.93 C 537.75 708.53 534.43 708.94 531.09 709.18 C 528.62 712.36 526.38 715.71 524.42 719.24 C 526.84 718.50 529.64 718.38 531.70 716.78 C 533.94 714.23 535.56 711.16 538.25 709.00 C 537.96 711.44 537.29 713.82 536.26 716.05 C 538.17 716.14 540.08 716.23 542.00 716.40 C 540.36 717.54 538.67 718.61 537.06 719.80 C 538.42 720.98 539.78 722.17 541.14 723.37 C 540.47 723.99 539.79 724.62 539.13 725.25 C 537.06 723.62 534.99 722.00 532.90 720.39 C 531.00 720.67 529.10 720.93 527.21 721.21 C 526.85 721.58 526.14 722.31 525.79 722.68 C 528.73 724.47 531.50 726.87 534.94 727.61 C 538.04 727.39 540.95 726.18 543.89 725.24 C 544.69 726.14 545.49 727.05 546.30 727.97 C 544.09 728.85 541.87 729.71 539.65 730.56 C 540.75 731.76 541.90 732.93 542.87 734.26 C 542.57 735.37 542.09 736.43 541.68 737.51 C 540.14 736.50 538.62 735.50 537.09 734.50 C 537.01 737.00 536.95 739.50 536.89 742.01 C 536.16 742.01 534.69 742.02 533.96 742.03 C 533.28 738.48 533.31 734.69 531.74 731.39 C 529.41 728.68 525.99 727.30 522.97 725.54 C 523.40 727.88 523.83 730.22 524.27 732.57 C 527.57 734.20 530.82 736.17 532.91 739.31 C 530.49 738.95 528.16 738.28 525.95 737.26 C 525.85 739.17 525.74 741.07 525.60 743.00 C 524.47 741.45 523.49 739.79 522.36 738.25 C 520.50 739.86 518.59 741.41 516.55 742.79 C 517.27 739.27 519.26 736.27 521.64 733.66 C 521.01 730.99 520.38 728.33 519.77 725.67 C 517.98 728.88 516.02 732.00 513.95 735.04 C 514.96 738.64 515.74 742.30 516.27 746.02 C 515.52 746.01 514.03 745.99 513.28 745.98 C 512.53 743.88 511.78 741.79 511.02 739.70 C 509.73 741.31 508.43 742.92 507.13 744.53 C 506.32 743.72 505.51 742.92 504.71 742.13 C 505.90 740.54 507.08 738.96 508.28 737.39 C 505.28 737.71 502.28 737.94 499.28 738.11 C 499.77 736.95 500.31 735.82 500.90 734.73 C 504.02 733.61 507.63 734.19 510.58 732.57 C 513.21 730.12 514.78 726.79 516.56 723.71 C 514.13 724.19 511.63 724.51 509.33 725.47 C 507.13 727.83 505.99 730.95 504.34 733.69 C 502.62 731.12 503.45 728.43 505.02 726.03 C 503.36 726.45 501.69 726.86 500.03 727.28 C 500.02 726.53 499.99 725.03 499.97 724.28 C 500.87 724.11 502.68 723.77 503.58 723.60 C 502.31 722.05 501.04 720.50 499.77 718.96 C 500.59 718.58 501.42 718.23 502.27 717.91 C 504.15 719.35 505.95 721.02 508.20 721.92 C 510.97 722.24 513.70 721.38 516.41 720.92 C 513.74 719.33 511.15 717.63 508.61 715.87 C 509.85 715.19 511.09 714.51 512.34 713.85 C 514.24 714.92 516.19 715.90 518.10 716.95 C 517.71 715.97 517.33 714.98 516.98 714.00 L 516.90 712.84 C 517.78 712.81 519.53 712.75 520.40 712.72 C 520.75 713.83 521.12 714.96 521.49 716.09 C 523.13 713.39 524.86 710.74 526.73 708.19 C 526.16 704.67 525.47 701.17 524.98 697.65 Z" />
<path fill="#c6e3f0" opacity="1.00" d=" M 877.70 705.68 C 879.23 704.12 881.36 705.89 883.10 706.13 C 883.16 710.26 882.79 714.39 881.91 718.44 C 886.55 716.24 890.44 712.24 895.74 711.69 C 896.52 713.11 897.31 714.54 898.11 715.97 C 897.63 716.85 897.16 717.74 896.71 718.64 C 891.23 721.95 885.81 725.34 880.22 728.44 C 878.86 736.07 877.69 743.74 876.07 751.32 C 879.97 747.69 884.55 744.94 888.81 741.78 C 890.24 736.37 889.60 730.68 891.10 725.29 C 891.67 725.01 892.82 724.44 893.39 724.16 C 894.65 724.83 895.91 725.51 897.19 726.20 C 896.44 729.59 895.98 733.04 895.91 736.52 C 898.36 735.08 900.64 733.36 903.16 732.04 C 906.05 731.28 906.98 735.55 905.31 737.23 C 903.63 739.03 901.54 740.34 899.58 741.79 C 903.72 742.97 908.44 743.40 911.52 746.79 C 910.53 747.92 909.54 749.05 908.57 750.20 C 902.85 749.38 897.43 746.85 891.58 746.97 C 887.99 750.42 883.57 752.80 879.57 755.71 C 887.25 756.53 894.75 758.63 902.48 759.05 C 906.75 754.56 912.21 751.45 916.49 746.97 C 918.24 747.25 920.71 746.35 921.76 748.27 C 922.00 749.73 922.04 751.23 922.16 752.72 C 918.84 755.27 915.50 757.82 912.59 760.85 C 916.55 761.80 920.75 762.05 924.38 764.10 C 923.86 766.13 923.36 768.16 922.88 770.20 C 918.82 769.93 914.79 769.39 910.77 768.80 C 912.70 772.91 916.52 776.34 917.09 780.97 C 917.54 784.38 913.47 784.02 911.22 784.22 C 907.35 778.83 904.63 772.70 900.70 767.39 C 893.59 765.13 885.97 764.75 878.71 762.95 C 881.40 767.40 884.72 771.42 887.51 775.82 C 892.64 776.15 897.73 777.34 902.90 776.99 C 903.76 778.46 905.56 779.76 904.96 781.68 C 903.81 783.33 901.67 782.95 899.95 783.11 C 897.13 783.25 894.33 782.86 891.63 782.10 C 893.45 784.28 895.19 786.52 897.11 788.62 C 897.00 789.65 896.87 790.69 896.70 791.73 C 895.86 793.30 893.82 792.83 892.38 793.21 C 890.71 790.65 888.92 788.17 887.14 785.70 C 886.50 789.67 885.80 793.69 883.97 797.32 C 882.28 796.94 880.28 797.15 879.04 795.74 C 879.29 790.10 881.61 784.78 882.68 779.26 C 879.42 775.42 877.19 770.75 873.42 767.36 C 872.47 773.10 871.60 778.85 870.49 784.57 C 870.32 786.11 869.57 787.89 870.75 789.24 C 873.76 793.80 877.73 797.65 880.85 802.14 C 882.12 803.76 881.93 805.92 882.28 807.86 C 880.24 808.26 877.77 809.88 876.02 807.95 C 873.13 805.11 870.90 801.68 868.29 798.61 C 867.70 802.42 866.91 806.20 865.98 809.95 C 863.37 811.28 860.82 810.97 858.77 808.84 C 859.29 804.79 859.87 800.73 860.94 796.78 C 857.34 799.35 853.65 801.89 849.59 803.68 C 847.74 804.81 846.42 802.62 844.93 801.88 C 844.94 800.64 844.96 799.40 844.99 798.17 C 850.32 794.16 856.21 790.98 861.97 787.64 C 863.66 780.31 864.87 772.88 866.07 765.46 C 861.63 768.32 857.44 771.54 853.09 774.54 C 853.23 779.63 852.08 784.63 851.85 789.71 C 850.90 790.59 849.96 791.47 849.04 792.37 C 848.02 791.48 847.01 790.60 846.01 789.73 C 845.82 786.04 845.94 782.32 847.08 778.78 C 844.41 780.76 841.63 782.59 838.85 784.41 C 837.61 782.94 835.32 781.61 836.07 779.38 C 838.15 777.21 840.83 775.78 843.32 774.16 C 840.01 773.19 836.61 772.60 833.34 771.54 C 831.08 770.88 831.55 767.12 833.31 766.09 C 839.03 765.47 844.22 769.25 849.91 768.90 C 854.34 766.45 858.45 763.42 862.44 760.31 C 855.25 759.63 848.28 757.12 841.06 757.06 C 835.09 759.71 831.15 765.46 825.51 768.69 C 822.63 770.45 818.28 766.42 820.64 763.61 C 823.36 760.32 826.95 757.90 830.34 755.35 C 825.98 753.77 820.67 754.35 817.61 750.23 C 818.49 748.77 819.37 747.31 820.25 745.86 C 824.02 746.02 827.76 746.51 831.49 747.15 C 829.40 742.97 826.91 739.02 824.80 734.86 C 825.63 733.90 826.46 732.95 827.31 732.01 C 828.69 732.00 830.08 732.00 831.48 732.01 C 834.00 735.99 836.59 739.93 838.87 744.06 C 840.12 746.09 841.23 748.74 843.87 749.21 C 850.57 751.00 857.55 751.40 864.29 753.08 C 860.99 748.88 858.05 744.43 854.87 740.16 C 849.24 739.38 843.50 739.29 837.96 738.00 C 837.97 736.33 837.98 734.66 838.01 733.01 C 841.80 733.01 845.59 733.00 849.39 732.94 C 847.99 730.53 846.59 728.13 845.21 725.73 C 845.56 724.81 845.93 723.90 846.30 722.99 C 847.45 722.98 848.60 722.97 849.77 722.98 C 851.47 725.37 853.47 727.52 855.56 729.59 C 856.00 725.86 856.87 722.19 858.28 718.71 C 859.84 719.07 861.81 718.83 862.90 720.29 C 863.72 726.01 860.37 731.22 860.03 736.83 C 862.72 741.13 866.00 745.04 868.82 749.26 C 870.03 741.91 871.50 734.60 872.61 727.23 C 869.09 723.41 866.07 719.18 862.70 715.24 C 861.54 713.70 859.98 712.15 859.94 710.11 C 860.63 709.02 861.34 707.95 862.11 706.92 C 863.30 706.95 864.51 706.98 865.73 707.01 C 868.82 710.12 870.94 714.15 874.69 716.58 C 875.17 712.90 874.73 708.45 877.70 705.68 Z" />
<path fill="#c6e3f0" opacity="1.00" d=" M 418.64 825.54 C 419.48 824.05 420.52 822.59 422.04 821.74 C 423.37 822.95 426.15 824.36 424.38 826.45 C 424.10 826.93 423.54 827.90 423.26 828.39 C 423.02 828.89 422.53 829.90 422.29 830.40 C 422.04 830.91 421.55 831.91 421.30 832.41 C 421.03 832.90 420.50 833.88 420.24 834.37 C 418.20 837.19 418.78 840.76 420.70 843.46 C 421.10 845.22 421.89 846.86 422.69 848.49 C 422.90 850.00 423.63 851.29 424.61 852.47 C 425.19 850.79 425.82 849.15 426.26 847.45 C 427.11 845.78 427.94 844.11 428.84 842.48 C 428.07 841.13 427.37 839.76 426.70 838.39 C 426.46 837.90 425.96 836.91 425.71 836.41 C 425.05 834.70 422.68 832.26 424.76 830.75 C 426.57 828.37 428.37 832.17 429.41 833.53 C 429.63 834.15 430.06 835.39 430.27 836.01 C 430.63 836.01 431.36 836.02 431.72 836.02 C 431.94 835.40 432.37 834.15 432.59 833.53 C 433.37 832.24 434.81 829.55 436.24 831.74 C 437.84 832.46 436.66 834.36 436.41 835.52 C 436.04 836.74 435.55 837.92 434.99 839.08 C 436.92 838.31 439.00 837.91 440.86 836.96 C 442.08 836.97 443.36 837.29 443.99 838.49 C 444.53 840.43 441.75 840.81 440.60 841.80 C 439.54 842.02 438.50 842.29 437.48 842.62 C 436.41 842.97 435.37 843.38 434.35 843.85 C 433.77 843.90 432.60 844.01 432.02 844.06 C 432.00 844.65 431.95 845.84 431.92 846.44 C 431.35 847.40 430.79 848.38 430.24 849.38 C 430.01 849.88 429.55 850.89 429.31 851.39 C 428.78 852.39 428.24 853.40 427.71 854.41 C 428.41 854.14 429.81 853.61 430.51 853.34 C 432.24 852.87 433.87 852.09 435.48 851.29 C 436.49 851.00 437.50 850.68 438.50 850.34 C 439.96 849.88 441.39 849.33 442.83 848.82 C 443.33 847.37 443.88 845.95 444.33 844.50 C 444.69 843.50 445.03 842.51 445.36 841.52 C 445.68 840.48 445.96 839.45 446.20 838.41 C 447.08 835.74 449.15 834.29 451.99 834.91 C 451.98 836.72 451.97 838.53 451.93 840.36 C 450.79 842.15 449.82 844.07 449.72 846.26 C 450.96 845.59 452.18 844.91 453.42 844.25 C 454.49 843.96 455.54 843.61 456.62 843.32 C 457.24 843.60 458.49 844.14 459.11 844.41 C 459.71 847.13 458.01 848.92 455.60 849.79 C 454.10 849.89 452.77 850.52 451.61 851.44 C 453.23 852.15 454.83 852.92 456.41 853.74 C 457.64 854.29 458.86 854.87 460.11 855.42 C 460.02 857.10 460.26 859.03 458.53 860.01 C 456.66 860.36 455.18 858.96 453.58 858.29 C 453.08 858.03 452.10 857.53 451.60 857.28 C 451.10 857.03 450.09 856.55 449.59 856.30 C 449.10 856.04 448.12 855.51 447.63 855.24 C 446.01 854.35 444.19 853.35 442.46 854.62 C 440.74 855.14 439.11 855.90 437.52 856.71 C 436.50 856.98 435.49 857.30 434.50 857.66 C 432.98 858.12 431.50 858.69 430.01 859.23 L 429.94 859.99 C 430.56 860.01 431.81 860.06 432.43 860.08 C 433.40 860.64 434.39 861.19 435.38 861.74 C 435.88 861.99 436.88 862.49 437.38 862.74 C 439.10 864.12 440.88 864.13 442.63 862.75 C 443.12 862.49 444.10 861.96 444.59 861.70 C 445.09 861.46 446.09 860.97 446.59 860.73 C 448.06 860.33 449.97 857.79 451.25 859.74 C 453.33 861.32 451.41 863.80 449.40 864.30 C 448.10 864.99 446.80 865.66 445.58 866.47 C 448.19 867.49 451.83 868.55 451.20 872.15 C 449.65 871.99 448.09 871.93 446.61 871.46 C 445.64 870.86 444.67 870.26 443.71 869.67 C 443.90 871.03 444.25 872.35 444.76 873.64 C 444.86 874.08 445.07 874.96 445.17 875.41 C 447.81 877.55 443.38 880.60 441.67 878.32 C 440.82 876.84 440.95 875.05 440.38 873.49 C 440.04 872.47 439.69 871.47 439.33 870.49 C 439.22 868.24 437.71 866.68 435.44 866.74 C 434.50 866.24 433.56 865.76 432.62 865.29 C 430.97 864.51 429.35 863.68 427.74 862.85 C 428.22 864.13 428.92 865.36 429.70 866.52 C 430.11 868.26 430.90 869.88 431.71 871.48 C 431.99 872.49 432.31 873.50 432.65 874.52 C 432.87 877.04 434.94 879.14 437.49 879.34 C 438.47 879.68 439.47 880.02 440.49 880.34 C 441.49 880.67 442.50 880.98 443.53 881.28 C 445.03 882.03 446.55 882.76 448.11 883.43 C 448.91 886.34 446.13 889.74 443.39 887.17 C 442.94 887.08 442.03 886.91 441.57 886.83 C 439.98 885.95 438.34 885.17 436.65 884.53 C 436.90 885.28 437.39 886.77 437.64 887.52 C 438.01 888.57 438.41 889.63 438.86 890.68 C 438.92 891.64 438.98 892.61 439.05 893.59 C 438.42 893.89 437.17 894.48 436.54 894.78 C 435.78 894.41 435.02 894.05 434.26 893.72 C 434.01 893.17 433.52 892.08 433.27 891.53 C 432.86 889.98 432.31 888.47 431.82 886.96 L 431.29 887.00 C 431.04 887.60 430.55 888.80 430.30 889.40 C 430.07 889.91 429.60 890.93 429.37 891.44 C 428.22 894.11 425.88 895.69 422.93 895.09 C 422.31 891.78 423.94 889.18 425.79 886.65 C 426.01 886.14 426.46 885.10 426.68 884.58 C 426.95 884.09 427.49 883.12 427.76 882.63 C 428.32 881.26 429.61 879.89 428.38 878.46 C 427.83 876.75 427.09 875.11 426.32 873.51 C 425.91 871.68 425.05 870.00 424.14 868.39 C 424.07 867.66 423.93 866.19 423.87 865.45 C 423.05 866.43 422.26 867.43 421.56 868.50 C 421.26 869.50 420.99 870.51 420.75 871.53 C 419.16 873.73 418.23 876.32 420.26 878.63 C 420.51 879.13 421.00 880.13 421.25 880.63 C 421.81 881.64 422.40 882.65 423.01 883.66 C 423.05 885.29 423.21 887.08 421.52 888.01 C 419.88 888.51 419.41 886.43 418.63 885.42 C 418.39 884.91 417.92 883.90 417.68 883.39 C 417.45 882.79 416.99 881.60 416.75 881.00 L 416.32 880.98 C 415.53 883.24 414.44 885.42 412.62 887.05 C 411.76 886.30 410.96 885.49 410.13 884.75 C 410.57 883.67 410.97 882.60 411.33 881.51 C 411.60 880.84 412.14 879.49 412.41 878.82 C 410.75 879.54 409.02 880.14 407.36 880.88 C 406.24 880.92 405.13 880.98 404.03 881.05 C 404.02 879.81 404.00 878.57 403.99 877.35 C 404.61 877.08 405.87 876.55 406.49 876.28 C 407.51 875.99 408.51 875.69 409.52 875.36 C 410.57 875.00 411.62 874.60 412.65 874.16 C 413.16 874.11 414.19 874.02 414.70 873.97 C 414.94 873.38 415.42 872.18 415.66 871.59 C 415.94 871.09 416.51 870.11 416.79 869.62 C 417.62 867.61 418.32 865.57 419.17 863.58 C 418.50 863.86 417.17 864.40 416.50 864.68 C 414.75 865.11 413.12 865.88 411.52 866.69 C 410.10 867.09 408.72 867.62 407.35 868.15 C 405.84 868.97 404.34 869.88 403.55 871.49 C 403.24 872.47 402.96 873.47 402.70 874.49 C 402.32 875.47 401.97 876.47 401.66 877.49 C 401.31 878.47 400.99 879.48 400.71 880.50 C 400.44 881.16 399.88 882.46 399.61 883.12 C 396.69 883.90 393.25 881.17 395.82 878.40 C 395.92 877.94 396.11 877.02 396.21 876.57 C 396.87 874.88 397.48 873.18 398.17 871.52 C 396.89 872.06 395.65 872.69 394.42 873.33 C 392.36 874.38 388.37 874.80 387.97 871.86 C 387.38 869.24 390.70 868.96 392.46 868.39 C 393.43 867.78 394.39 867.15 395.36 866.54 C 392.30 865.36 389.56 863.55 386.98 861.57 C 386.61 860.04 387.22 858.88 388.45 857.99 C 390.65 857.52 392.55 858.71 394.43 859.66 C 396.08 860.69 397.67 861.81 399.35 862.82 C 401.96 864.70 405.01 864.07 407.46 862.29 C 409.23 861.91 410.87 861.10 412.48 860.28 C 414.01 859.85 415.50 859.30 417.02 858.83 L 417.00 858.31 C 414.82 857.43 412.75 856.24 410.45 855.71 C 408.47 854.40 406.40 853.36 404.37 855.26 C 403.88 855.51 402.89 856.03 402.40 856.29 C 401.45 856.75 400.50 857.23 399.55 857.72 C 398.36 857.97 397.23 858.39 396.16 858.96 C 394.00 857.10 394.97 854.28 397.60 853.70 C 398.92 853.00 400.23 852.28 401.47 851.45 C 400.73 851.19 399.26 850.66 398.53 850.39 C 396.66 849.65 395.61 848.05 395.80 846.03 C 397.30 846.01 398.81 846.02 400.32 846.03 C 401.46 846.93 402.69 847.71 404.04 848.28 C 403.50 847.03 402.97 845.79 402.58 844.51 C 401.89 842.68 402.02 840.70 401.92 838.80 C 404.49 838.40 405.93 840.27 406.77 842.41 C 407.04 843.48 407.36 844.55 407.75 845.61 C 407.31 848.74 409.84 850.62 412.35 851.84 C 413.72 852.35 415.08 852.90 416.50 853.33 C 417.20 853.60 418.60 854.15 419.31 854.42 C 418.64 853.10 417.91 851.86 417.24 850.56 C 416.98 849.52 416.69 848.49 416.38 847.48 C 415.87 845.67 415.05 843.99 414.12 842.38 C 414.08 841.88 414.02 840.86 413.98 840.35 C 413.39 840.08 412.21 839.52 411.62 839.25 C 410.26 838.66 408.92 838.06 407.51 837.64 C 406.50 837.29 405.50 836.98 404.49 836.69 C 402.18 836.16 399.88 835.18 398.73 832.96 C 399.96 831.60 401.62 828.56 403.59 830.84 C 404.04 830.93 404.95 831.12 405.40 831.21 C 406.41 831.63 407.44 832.00 408.49 832.33 C 409.20 832.60 410.62 833.14 411.33 833.41 C 410.62 832.07 409.87 830.77 409.12 829.47 C 409.06 829.00 408.93 828.07 408.87 827.60 C 406.52 825.65 409.61 823.96 410.96 822.73 C 413.80 824.12 414.31 827.32 415.23 830.02 C 415.58 830.02 416.30 830.01 416.66 830.00 C 417.28 828.49 417.97 827.01 418.64 825.54 Z" />
</g>
<g id="#96e1ffff">
<path fill="#96e1ff" opacity="1.00" d=" M 652.08 697.99 C 653.44 697.97 654.81 697.97 656.19 697.96 C 656.72 702.65 655.57 707.25 655.16 711.89 C 657.57 715.75 661.24 718.81 664.00 722.48 C 665.01 719.24 665.57 715.74 664.65 712.42 C 663.00 709.77 660.16 708.22 657.66 706.51 C 658.22 705.13 658.31 703.31 659.98 702.79 C 661.66 703.99 663.06 705.52 664.48 707.02 C 665.40 704.89 666.38 702.77 667.39 700.68 C 668.13 701.48 668.88 702.28 669.64 703.09 C 669.37 704.75 669.11 706.41 668.87 708.09 C 671.11 706.70 673.11 704.50 675.78 704.02 C 676.15 704.51 676.89 705.50 677.26 706.00 C 675.11 708.94 671.86 710.76 669.18 713.15 C 669.02 716.50 668.63 719.85 667.95 723.14 C 671.46 719.91 675.78 717.47 678.64 713.59 C 679.42 709.01 678.83 704.33 679.00 699.71 C 680.55 700.14 682.76 699.63 683.76 701.23 C 684.21 703.85 684.05 706.53 684.05 709.19 C 686.02 707.09 688.29 705.27 691.06 704.36 C 691.43 705.54 691.75 706.74 692.02 707.97 C 690.92 709.85 689.29 711.34 687.83 712.93 C 690.11 713.40 692.40 713.87 694.70 714.32 C 695.42 714.93 696.16 715.54 696.90 716.17 C 696.52 717.16 696.14 718.15 695.77 719.15 C 691.22 718.82 686.72 718.10 682.21 717.45 C 678.80 720.73 674.91 723.46 671.65 726.89 C 674.97 727.00 678.31 727.00 681.65 726.90 C 684.10 724.06 686.90 721.52 690.15 719.61 C 692.37 723.02 689.13 725.59 686.87 727.79 C 689.09 728.10 692.21 727.37 693.26 730.01 C 692.32 732.62 689.24 731.83 687.11 732.10 C 688.64 734.17 689.74 736.50 690.46 738.97 C 689.64 738.98 687.99 739.01 687.17 739.02 C 685.05 736.33 682.91 733.67 680.76 731.03 C 677.79 731.02 674.82 731.02 671.86 731.00 C 674.78 734.16 676.99 738.00 680.40 740.68 C 685.39 741.39 690.56 740.40 695.45 742.04 C 694.87 743.25 694.94 744.96 693.75 745.79 C 690.79 746.24 687.79 746.03 684.82 746.01 C 686.68 748.24 690.04 750.40 688.92 753.77 C 688.45 754.13 687.51 754.85 687.04 755.21 C 684.88 753.65 683.06 751.71 681.22 749.81 C 681.23 753.64 681.02 759.33 675.90 759.45 C 675.15 754.62 676.45 749.86 676.84 745.07 C 674.36 741.44 671.71 737.70 668.17 735.03 C 666.13 737.40 667.28 740.83 667.08 743.68 C 669.47 746.03 672.26 748.10 674.02 751.01 C 673.75 752.15 673.46 753.30 673.14 754.45 C 671.06 753.00 669.04 751.49 667.07 749.93 C 666.59 751.75 666.02 753.54 665.46 755.35 C 664.46 754.76 662.31 754.95 662.59 753.34 C 662.62 751.83 662.84 750.33 663.01 748.86 C 660.90 750.40 658.78 751.92 656.66 753.45 C 656.03 752.63 655.44 751.79 654.90 750.93 C 656.83 747.88 660.01 746.01 662.79 743.83 C 662.98 740.48 663.38 737.14 664.06 733.86 C 660.17 736.76 656.43 739.86 653.07 743.36 C 652.95 747.49 653.31 751.65 652.78 755.76 C 651.98 757.58 649.04 757.53 648.21 755.78 C 647.77 753.19 647.96 750.56 647.98 747.96 C 645.90 749.57 643.78 751.12 641.64 752.64 C 641.09 751.43 640.01 750.44 639.88 749.11 C 641.13 747.19 642.77 745.57 644.29 743.87 C 641.97 743.36 639.62 742.99 637.26 742.75 C 636.54 742.10 635.84 741.45 635.14 740.81 C 635.49 739.82 635.84 738.84 636.20 737.86 C 640.99 738.05 645.72 739.07 650.53 738.96 C 653.55 735.76 657.11 733.16 660.36 730.22 C 656.94 730.10 653.54 729.83 650.17 729.22 C 647.55 732.09 644.95 735.01 641.98 737.54 C 641.58 736.39 641.25 735.23 640.97 734.07 C 641.98 732.17 643.62 730.72 645.12 729.21 C 642.91 728.83 639.74 729.62 638.71 727.00 C 639.77 724.40 642.81 725.11 645.04 724.80 C 643.36 722.35 640.64 719.30 643.41 716.56 C 646.13 719.58 648.67 722.76 651.22 725.94 C 654.19 725.97 657.16 725.99 660.14 725.99 C 657.72 722.35 654.80 719.09 651.63 716.09 C 647.44 716.02 643.25 715.94 639.07 716.08 C 638.32 714.82 637.12 713.74 636.91 712.25 C 639.74 709.96 643.81 711.28 647.18 710.96 C 645.57 708.89 642.44 707.11 642.97 704.12 C 643.53 703.17 644.10 702.24 644.67 701.31 C 646.72 703.21 648.74 705.17 650.73 707.16 C 650.98 704.07 651.42 701.01 652.08 697.99 Z" />
<path fill="#96e1ff" opacity="1.00" d=" M 503.98 701.01 C 504.76 700.98 506.31 700.92 507.09 700.89 C 508.13 705.42 507.18 711.65 512.34 713.85 C 511.09 714.51 509.85 715.19 508.61 715.87 L 508.10 715.54 C 504.08 714.93 500.23 716.82 496.31 717.36 C 495.95 716.86 495.24 715.86 494.89 715.36 C 495.71 714.58 496.53 713.80 497.36 713.04 C 498.46 712.97 499.56 712.91 500.66 712.86 C 501.01 712.56 501.71 711.95 502.06 711.64 C 500.66 710.71 499.27 709.77 497.88 708.84 C 497.93 708.01 498.03 706.36 498.08 705.53 C 500.06 706.27 502.04 707.04 504.02 707.83 C 504.00 705.55 503.99 703.28 503.98 701.01 Z" />
<path fill="#96e1ff" opacity="1.00" d=" M 514.60 701.02 C 515.44 701.01 517.13 700.99 517.97 700.98 C 518.01 702.48 518.06 703.99 518.12 705.50 C 519.30 704.02 520.48 702.53 521.64 701.04 C 522.24 701.02 523.44 700.98 524.04 700.96 C 524.02 701.59 523.97 702.84 523.95 703.46 C 522.37 705.37 520.83 707.30 519.29 709.23 C 519.65 710.38 520.02 711.54 520.40 712.72 C 519.53 712.75 517.78 712.81 516.90 712.84 C 516.90 712.16 516.89 710.81 516.88 710.14 C 513.60 708.51 510.02 707.01 508.07 703.71 C 510.84 703.86 513.50 704.69 515.97 705.96 C 515.49 704.31 515.03 702.66 514.60 701.02 Z" />
</g>
<g id="#8ba1aa77">
<path fill="#8ba1aa" opacity="0.47" d=" M 537.53 876.52 C 538.87 875.84 540.40 875.99 541.85 875.80 C 543.05 878.50 543.15 881.42 543.03 884.34 C 545.18 882.27 547.30 880.16 549.35 878.00 C 550.45 877.99 551.56 877.99 552.67 878.00 C 552.98 878.62 553.60 879.86 553.91 880.48 C 551.21 884.67 547.59 888.11 543.97 891.49 C 544.03 892.41 544.11 893.34 544.20 894.29 C 545.49 896.74 544.89 899.60 545.16 902.27 C 546.04 903.70 545.97 905.40 546.10 907.03 L 546.45 906.92 C 548.37 903.76 551.13 901.21 553.00 898.00 C 551.95 896.39 551.94 894.49 551.70 892.68 C 550.89 890.79 550.40 888.36 551.57 886.53 C 553.40 884.81 554.52 887.19 555.66 888.39 C 555.87 890.39 556.07 892.40 556.16 894.43 C 557.64 892.22 559.25 890.10 561.59 888.73 C 563.09 889.96 563.21 891.78 562.61 893.51 C 561.69 894.69 560.73 895.83 559.78 897.01 C 562.67 897.20 565.78 896.39 568.52 897.53 C 569.61 899.00 567.31 899.87 566.79 901.03 C 563.35 901.03 559.91 900.89 556.48 901.11 C 554.27 904.11 551.67 906.83 549.75 910.04 C 550.92 909.96 552.10 909.89 553.29 909.81 C 555.74 908.49 558.61 909.10 561.28 908.83 C 562.42 908.45 563.58 908.09 564.73 907.73 C 568.39 904.41 570.35 899.78 573.37 895.97 C 576.31 895.12 577.49 897.93 577.09 900.40 C 575.33 902.38 573.89 904.62 572.57 906.91 C 575.49 907.25 578.71 906.34 581.46 907.55 C 583.16 909.26 580.65 910.62 579.81 912.02 C 577.70 911.99 575.59 912.02 573.49 912.12 C 575.18 915.05 577.78 917.27 580.27 919.51 C 580.18 921.74 578.99 923.20 576.68 923.20 C 573.00 920.47 569.56 917.45 566.54 914.00 C 563.93 913.99 561.32 913.98 558.73 914.15 C 555.92 915.71 552.56 914.76 549.52 915.05 C 552.52 917.41 555.66 919.60 558.64 922.00 C 559.84 921.94 561.05 921.89 562.27 921.83 C 563.82 920.98 565.61 920.97 567.32 920.71 C 569.02 919.04 571.66 920.72 571.04 922.95 C 570.67 926.67 565.05 923.49 564.02 926.69 C 565.74 927.90 568.97 928.86 567.95 931.56 C 566.15 935.07 563.17 930.65 561.00 929.80 C 560.80 932.31 561.56 935.06 560.49 937.45 C 559.38 937.83 558.24 938.11 557.08 938.31 C 556.99 937.09 556.90 935.90 556.81 934.72 C 555.29 931.86 556.32 928.53 555.90 925.47 C 552.88 923.24 550.10 920.70 546.90 918.72 C 547.30 919.63 547.64 920.58 547.93 921.55 C 547.99 923.44 548.03 925.35 548.15 927.26 C 549.49 929.42 548.92 932.06 549.02 934.48 C 553.11 936.96 557.15 939.55 561.01 942.37 C 561.65 944.90 560.54 947.32 557.69 947.20 C 555.33 945.08 552.63 943.41 549.92 941.80 C 549.99 942.43 550.14 943.68 550.22 944.31 C 551.19 946.15 551.51 948.59 550.47 950.48 C 549.12 951.14 547.58 950.98 546.15 951.20 C 544.81 948.28 544.87 945.09 545.01 941.97 L 544.56 942.08 C 543.13 944.81 540.75 946.82 538.64 949.00 C 537.42 949.00 536.22 949.01 535.02 949.02 C 534.82 947.85 534.63 946.68 534.26 945.58 C 537.05 941.93 540.79 939.13 543.53 935.44 C 543.67 934.57 543.81 933.70 543.95 932.85 C 542.37 930.41 543.16 927.44 542.84 924.73 C 541.92 923.16 542.01 921.30 541.77 919.59 C 539.87 922.49 537.58 925.08 535.29 927.67 C 535.56 929.90 535.86 932.13 536.35 934.34 C 537.15 936.42 538.07 940.48 535.01 941.07 C 533.20 940.97 533.13 938.83 532.46 937.61 C 532.21 935.93 531.93 934.26 531.74 932.61 C 530.54 933.97 529.38 935.39 528.51 937.00 C 527.33 936.99 526.16 936.99 524.99 937.01 C 524.99 935.78 524.99 934.58 525.00 933.38 C 526.13 932.25 527.25 931.13 528.37 930.00 C 525.41 929.80 522.28 930.55 519.45 929.51 C 519.08 928.28 519.86 927.14 520.06 925.98 C 523.51 926.00 526.97 926.01 530.43 925.95 C 530.96 925.62 532.02 924.96 532.55 924.63 C 534.36 922.03 536.28 919.50 538.19 916.97 C 536.69 916.99 535.20 917.06 533.72 917.17 C 530.92 918.67 527.61 917.81 524.58 918.05 C 524.04 918.38 522.95 919.03 522.41 919.35 C 520.23 922.91 517.70 926.25 515.64 929.88 C 514.07 930.83 512.35 930.52 510.77 929.80 C 510.96 928.37 511.19 926.97 511.44 925.57 C 512.74 923.74 514.03 921.90 515.20 920.00 C 512.61 919.96 510.01 920.18 507.44 919.89 C 504.89 919.20 506.67 916.55 507.12 915.01 C 508.52 914.97 509.94 914.92 511.36 914.89 C 512.05 914.57 513.44 913.94 514.13 913.62 C 512.00 911.57 509.93 909.45 507.73 907.47 C 507.94 906.45 508.22 905.46 508.56 904.49 C 509.80 903.89 511.21 903.99 512.55 903.84 C 515.44 906.98 518.56 909.90 521.48 913.00 C 523.41 912.98 525.34 912.96 527.27 912.85 C 530.40 911.18 534.10 912.31 537.49 911.90 C 535.75 908.72 532.22 907.21 529.51 905.00 C 527.91 905.01 526.31 905.05 524.73 905.15 C 522.30 906.61 519.36 905.85 516.70 905.99 C 516.86 904.80 517.14 903.64 517.53 902.52 C 518.77 902.00 520.12 901.92 521.43 901.70 C 522.12 901.45 523.48 900.94 524.16 900.69 C 522.75 899.15 520.80 897.92 519.91 896.02 C 519.99 893.98 522.04 893.85 523.52 894.37 C 524.68 895.31 525.84 896.25 527.01 897.22 C 527.19 894.68 526.44 891.93 527.50 889.55 C 528.61 889.15 529.75 888.87 530.92 888.70 C 530.99 889.88 531.08 891.08 531.20 892.28 C 532.65 895.09 531.83 898.37 532.00 901.41 C 535.10 903.14 537.42 905.94 540.50 907.71 L 541.61 907.33 L 540.00 906.91 C 540.00 904.51 540.00 902.11 539.85 899.73 C 538.51 897.57 539.07 894.95 538.96 892.58 C 534.91 889.91 531.16 886.77 526.85 884.52 C 527.02 883.17 526.86 881.74 527.53 880.53 C 528.69 879.46 530.19 880.24 531.51 880.39 C 533.59 882.14 535.71 883.87 538.07 885.25 C 538.00 884.61 537.86 883.33 537.78 882.69 C 536.80 880.83 536.48 878.39 537.53 876.52 Z" />
<path fill="#8ba1aa" opacity="0.47" d=" M 765.95 949.02 C 766.61 949.01 767.95 949.00 768.61 948.99 C 768.93 949.64 769.55 950.93 769.87 951.58 C 769.91 952.09 769.99 953.10 770.03 953.61 C 770.40 954.00 771.15 954.77 771.53 955.16 C 772.33 953.51 773.10 951.57 774.98 950.91 C 776.07 951.12 776.53 952.37 777.29 953.12 C 776.07 954.89 774.83 956.66 773.60 958.44 C 774.37 958.09 775.92 957.40 776.69 957.05 C 778.18 957.26 780.15 956.41 781.29 957.73 C 783.07 958.70 781.44 960.86 779.95 960.85 C 778.06 961.02 776.18 961.18 774.34 961.58 C 772.25 961.68 770.52 962.56 769.55 964.46 C 768.75 965.75 767.98 967.06 767.24 968.39 C 766.74 969.34 766.25 970.29 765.77 971.26 C 767.38 971.01 769.01 970.79 770.63 970.53 C 772.65 970.00 773.97 968.48 774.86 966.66 C 775.33 965.42 775.81 964.20 776.30 962.99 C 777.04 963.01 778.51 963.05 779.25 963.07 C 778.98 964.18 778.70 965.29 778.40 966.40 C 777.81 967.40 777.24 968.41 776.67 969.44 C 777.41 969.12 778.88 968.48 779.62 968.16 C 780.21 968.10 781.37 967.99 781.96 967.93 C 781.97 968.69 781.99 970.20 782.01 970.96 C 781.36 970.97 780.05 970.98 779.40 970.99 C 779.01 971.38 778.24 972.15 777.85 972.53 C 779.96 973.26 781.57 974.78 782.50 976.82 C 781.74 976.87 780.21 976.98 779.45 977.03 C 777.62 975.81 775.91 974.43 774.38 972.88 C 772.65 972.99 770.88 973.04 769.28 973.78 C 768.14 973.86 767.02 973.94 765.90 974.03 L 766.07 974.57 C 767.59 975.43 769.06 976.39 770.57 977.29 C 771.54 978.04 772.53 978.81 773.53 979.58 C 775.56 980.08 777.66 980.19 779.64 979.39 C 780.08 979.20 780.95 978.82 781.38 978.63 C 783.44 977.65 785.59 977.86 787.35 979.36 C 786.41 980.16 785.49 980.97 784.57 981.80 C 783.00 982.19 781.44 982.66 779.89 983.12 L 780.13 983.49 C 781.46 984.37 782.77 985.31 784.09 986.25 C 784.04 987.00 783.95 988.48 783.91 989.23 C 782.78 988.97 781.67 988.71 780.57 988.44 C 779.69 987.86 778.81 987.30 777.95 986.74 C 777.96 989.15 777.97 991.57 777.98 993.99 C 777.33 994.00 776.02 994.00 775.37 994.01 C 775.08 993.36 774.48 992.07 774.18 991.42 C 774.04 989.36 774.00 987.28 773.32 985.33 C 773.21 984.85 773.01 983.91 772.90 983.44 C 771.39 982.55 769.94 981.58 768.47 980.66 C 766.90 979.59 765.29 978.59 763.69 977.61 C 763.96 978.95 764.28 980.29 764.65 981.62 C 764.50 984.20 766.08 986.03 768.51 986.71 C 770.31 987.84 771.87 989.31 773.42 990.78 C 770.70 993.52 768.39 989.82 766.00 988.64 C 767.08 990.83 767.35 993.26 765.88 995.37 C 765.41 994.92 764.48 994.01 764.02 993.56 C 763.99 992.18 763.97 990.80 763.95 989.44 C 762.60 990.81 761.36 992.29 760.42 993.98 C 759.81 993.98 758.60 993.98 757.99 993.98 C 758.00 993.37 758.02 992.15 758.03 991.54 C 759.25 990.22 760.46 988.89 761.62 987.53 C 762.42 984.45 761.97 981.30 760.64 978.45 C 759.81 979.76 758.99 981.10 758.25 982.48 C 757.37 983.87 756.41 985.22 755.44 986.57 C 755.12 987.89 755.07 989.26 755.48 990.59 C 755.94 991.59 756.41 992.61 756.90 993.63 C 756.94 995.40 756.96 997.19 757.00 998.99 C 756.35 998.99 755.04 999.00 754.38 999.01 C 754.07 998.36 753.45 997.06 753.14 996.41 C 753.02 995.05 752.91 993.71 752.80 992.39 C 750.94 993.49 749.79 995.30 748.49 996.96 C 746.67 997.55 746.19 995.10 745.81 993.85 C 746.86 992.55 747.89 991.22 748.60 989.70 C 747.02 989.89 745.53 990.34 744.12 991.04 C 741.88 991.23 740.86 989.25 740.68 987.34 C 742.37 987.04 744.10 986.82 745.73 986.19 C 747.65 986.05 749.59 986.00 751.54 985.98 C 752.42 984.44 753.38 982.95 754.31 981.45 C 755.00 980.47 755.69 979.50 756.38 978.52 C 756.63 977.87 757.14 976.57 757.40 975.92 C 755.80 976.64 754.07 976.94 752.35 977.15 C 750.83 977.97 749.45 979.02 748.55 980.52 C 748.27 981.00 747.71 981.97 747.43 982.46 C 746.61 983.74 745.49 984.77 744.20 985.58 C 744.10 984.20 744.03 982.84 743.97 981.49 C 744.79 980.66 745.61 979.84 746.43 979.02 C 744.43 978.97 742.44 978.93 740.46 978.84 C 741.29 976.67 743.19 975.62 745.49 975.67 C 743.92 974.61 742.31 973.63 740.84 972.47 C 741.34 971.61 741.71 970.67 742.19 969.83 C 743.98 970.97 745.74 972.18 747.51 973.38 C 748.79 974.28 750.19 975.81 751.71 974.16 C 753.14 974.06 754.59 974.01 756.05 973.96 C 756.04 973.59 756.01 972.85 755.99 972.48 C 754.81 971.80 753.67 971.07 752.54 970.35 C 750.92 969.27 749.31 968.20 747.67 967.19 C 745.92 967.72 744.15 968.17 742.42 968.73 C 741.97 968.88 741.07 969.18 740.62 969.33 C 738.78 970.51 735.66 970.04 735.95 967.37 C 737.27 966.25 738.97 965.80 740.54 965.15 C 741.29 965.08 742.80 964.93 743.55 964.86 C 742.04 963.72 740.44 962.72 738.99 961.52 C 738.84 960.14 739.58 958.92 740.06 957.71 C 741.75 958.83 743.41 960.00 745.03 961.26 C 745.04 958.28 744.51 955.07 746.28 952.45 C 747.17 953.75 748.03 955.09 748.88 956.45 C 748.97 958.47 749.09 960.50 749.38 962.53 C 750.30 963.61 751.27 964.68 752.27 965.74 C 753.35 966.32 754.41 966.95 755.48 967.63 C 756.79 968.51 758.07 969.45 759.38 970.38 C 758.98 969.01 758.59 967.65 758.21 966.29 C 758.13 965.25 758.07 964.22 758.01 963.20 C 756.59 962.09 755.12 961.07 753.54 960.25 C 752.15 959.38 750.83 958.40 749.54 957.43 C 750.75 956.77 751.97 955.71 753.44 956.43 C 754.29 957.04 755.14 957.66 756.01 958.30 C 756.02 956.34 756.05 954.39 756.14 952.46 C 758.26 953.26 759.37 955.08 759.25 957.36 C 760.71 955.78 762.21 954.24 763.72 952.71 C 766.62 955.48 762.88 958.53 760.96 960.54 C 760.83 963.44 761.02 966.37 762.09 969.11 L 762.61 968.94 C 763.62 967.11 764.73 965.34 765.71 963.50 C 766.46 962.37 767.27 961.27 768.14 960.24 C 767.88 959.28 767.63 958.33 767.38 957.40 C 766.98 956.02 766.61 954.64 766.20 953.29 C 766.09 951.86 766.01 950.43 765.95 949.02 Z" />
<path fill="#8ba1aa" opacity="0.47" d=" M 968.16 949.50 C 969.09 950.79 969.97 952.12 970.85 953.46 C 970.84 954.94 970.84 956.42 970.87 957.92 C 972.34 956.37 973.69 954.71 974.78 952.87 C 975.92 953.26 977.04 953.67 978.20 954.11 C 977.00 955.87 975.74 957.59 974.39 959.24 C 977.01 959.16 979.64 959.14 982.28 959.16 C 981.83 960.38 981.79 961.92 980.64 962.76 C 977.87 962.99 975.08 962.82 972.31 962.79 C 969.93 965.89 967.57 969.02 965.33 972.24 C 967.05 972.17 968.79 972.16 970.54 972.14 C 973.44 970.66 975.52 968.18 976.47 965.07 C 977.10 965.09 978.37 965.13 979.00 965.15 C 978.93 965.72 978.80 966.86 978.74 967.43 C 978.41 968.12 977.76 969.51 977.43 970.20 C 978.91 970.16 980.39 970.12 981.89 970.09 C 981.89 970.79 981.89 972.20 981.90 972.91 C 980.31 972.86 978.74 972.82 977.18 972.79 C 978.40 974.02 979.65 975.25 980.91 976.48 C 980.87 977.20 980.79 978.64 980.75 979.36 C 977.84 978.12 975.45 976.06 973.31 973.78 C 970.78 975.23 967.81 974.80 965.04 974.93 C 966.79 976.28 968.63 977.52 970.50 978.74 C 971.98 979.79 973.37 980.98 974.78 982.18 C 976.69 981.45 978.68 980.96 980.62 980.28 C 981.98 980.17 983.35 980.11 984.74 980.07 C 985.23 980.83 985.73 981.60 986.25 982.39 C 985.53 982.74 984.11 983.44 983.39 983.78 C 982.00 983.81 980.62 983.85 979.25 983.90 C 980.01 985.56 981.25 986.86 982.92 987.67 C 982.91 988.17 982.88 989.16 982.86 989.65 C 982.39 990.06 981.43 990.88 980.96 991.29 C 979.57 989.93 978.19 988.57 976.83 987.22 C 976.83 990.25 977.19 993.43 975.96 996.31 C 975.00 995.38 974.05 994.46 973.12 993.55 C 973.15 990.78 973.16 988.02 973.22 985.27 C 970.10 982.85 966.70 980.81 963.62 978.36 C 963.77 980.49 963.86 982.69 964.62 984.73 C 964.70 985.24 964.85 986.25 964.93 986.75 C 967.74 987.63 970.08 989.40 972.08 991.53 C 971.74 991.85 971.05 992.49 970.71 992.82 C 969.07 992.00 967.43 991.19 965.82 990.38 C 965.83 991.87 965.86 993.38 965.90 994.89 C 965.20 994.89 963.79 994.89 963.09 994.89 C 963.12 993.31 963.16 991.74 963.20 990.18 C 961.57 991.78 959.97 993.41 958.39 995.06 C 958.00 994.55 957.21 993.52 956.82 993.01 C 958.77 990.83 960.49 988.45 962.36 986.19 C 961.97 985.23 961.60 984.28 961.24 983.34 C 961.19 981.78 961.15 980.23 961.15 978.70 L 960.41 979.00 C 958.39 982.15 956.02 985.07 954.08 988.28 C 955.27 991.68 956.04 995.22 956.00 998.86 C 955.36 998.87 954.08 998.91 953.44 998.93 C 953.13 998.30 952.51 997.04 952.20 996.41 C 952.17 995.18 952.16 993.97 952.17 992.77 C 951.72 992.81 950.83 992.87 950.39 992.91 C 949.83 993.95 949.24 994.98 948.63 995.99 C 947.28 995.86 946.00 995.40 944.75 994.99 C 945.95 993.18 947.22 991.42 948.61 989.75 C 946.21 989.81 943.83 989.84 941.44 989.88 C 941.04 989.50 940.24 988.74 939.84 988.36 C 941.04 987.61 942.27 986.90 943.50 986.17 C 945.89 986.16 948.29 986.16 950.71 986.20 C 953.10 983.03 955.56 979.89 957.71 976.55 C 955.86 976.77 954.04 977.04 952.29 977.63 C 951.78 977.67 950.76 977.76 950.24 977.80 C 949.07 979.29 948.00 980.87 947.08 982.54 C 946.49 983.49 945.87 984.43 945.27 985.39 C 944.69 984.95 943.53 984.06 942.95 983.61 C 944.11 981.95 945.32 980.32 946.62 978.77 C 944.61 978.79 942.63 978.82 940.65 978.83 C 941.15 977.90 941.66 976.98 942.20 976.07 C 943.11 976.11 944.92 976.18 945.83 976.22 C 944.58 974.96 943.33 973.73 942.08 972.51 C 942.14 971.77 942.26 970.29 942.31 969.55 C 944.81 971.43 947.35 973.26 949.71 975.33 C 951.04 975.02 952.38 974.70 953.72 974.35 C 955.05 974.22 956.40 974.11 957.76 974.02 C 954.80 972.17 951.80 970.33 949.39 967.79 C 947.31 967.83 945.15 967.71 943.27 968.72 C 940.97 968.84 938.67 968.82 936.39 968.71 C 937.46 967.24 938.85 966.07 940.38 965.11 C 941.89 965.12 943.41 965.13 944.95 965.15 C 942.91 963.41 939.85 962.27 939.71 959.19 C 940.98 959.16 942.27 959.13 943.56 959.12 C 944.42 960.01 945.29 960.90 946.18 961.80 C 946.15 959.10 946.15 956.40 946.18 953.72 C 947.38 954.14 948.92 954.19 949.76 955.35 C 949.99 958.11 949.82 960.88 949.79 963.65 C 951.85 965.56 954.10 967.24 956.44 968.82 C 957.44 969.39 958.45 969.98 959.46 970.61 C 959.15 968.83 958.90 967.09 958.64 965.33 C 957.45 961.29 952.55 960.72 950.39 957.38 C 951.76 957.25 953.14 957.15 954.53 957.07 C 955.39 957.97 956.27 958.88 957.16 959.80 C 957.15 957.73 957.16 955.69 957.19 953.65 C 958.10 954.15 959.01 954.67 959.93 955.21 C 959.86 956.56 959.81 957.92 959.76 959.29 L 960.59 959.02 C 961.44 957.66 962.36 956.33 963.24 954.99 C 964.02 955.07 965.59 955.23 966.38 955.31 C 964.71 957.95 962.98 960.60 960.62 962.71 C 960.95 964.03 961.31 965.36 961.65 966.71 C 961.75 968.11 961.85 969.51 961.96 970.94 C 963.29 969.18 964.52 967.35 965.71 965.50 C 966.70 964.19 967.74 962.92 968.81 961.67 C 968.54 959.46 967.77 957.38 967.22 955.26 C 967.08 953.27 967.28 951.30 968.16 949.50 Z" />
<path fill="#8ba1aa" opacity="0.47" d=" M 378.00 1059.69 C 378.95 1060.59 379.89 1061.51 380.85 1062.44 C 380.83 1063.89 380.82 1065.35 380.82 1066.83 C 382.52 1065.82 384.08 1064.59 385.53 1063.25 C 386.11 1063.20 387.27 1063.09 387.84 1063.04 C 387.84 1064.12 387.84 1065.22 387.85 1066.33 C 384.92 1068.00 382.98 1070.98 379.84 1072.33 C 379.77 1076.50 379.83 1080.68 379.78 1084.86 C 381.92 1082.74 384.04 1080.61 386.21 1078.53 C 386.19 1075.23 386.18 1071.94 386.23 1068.65 C 387.11 1069.15 387.99 1069.67 388.87 1070.20 C 388.83 1072.09 388.79 1073.97 388.77 1075.89 C 390.07 1074.56 391.37 1073.25 392.67 1071.93 C 393.05 1072.48 393.82 1073.57 394.20 1074.11 C 392.84 1075.48 391.48 1076.85 390.13 1078.24 C 392.37 1078.19 394.62 1078.17 396.87 1078.12 C 396.88 1078.81 396.88 1080.18 396.88 1080.87 C 393.74 1080.80 390.61 1080.79 387.47 1080.79 C 385.71 1082.61 383.93 1084.40 382.15 1086.21 C 386.27 1086.09 390.42 1086.42 394.53 1086.06 C 396.46 1083.59 398.37 1081.10 400.58 1078.88 C 401.78 1079.26 402.98 1079.65 404.18 1080.09 C 402.77 1082.34 401.07 1084.37 399.22 1086.28 C 400.64 1086.22 402.07 1086.17 403.50 1086.14 C 404.33 1086.92 405.17 1087.72 406.02 1088.52 C 405.65 1088.85 404.92 1089.51 404.56 1089.84 C 402.41 1089.81 400.26 1089.78 398.12 1089.78 C 399.68 1091.33 401.24 1092.89 402.82 1094.43 C 402.83 1095.58 402.84 1096.74 402.86 1097.91 C 402.22 1097.90 400.94 1097.87 400.30 1097.86 C 397.98 1095.23 395.98 1092.36 393.65 1089.76 C 389.81 1089.82 385.97 1089.81 382.14 1089.78 C 384.26 1091.91 386.40 1094.04 388.47 1096.25 C 390.95 1096.19 393.57 1096.44 395.87 1095.27 C 396.20 1095.72 396.86 1096.61 397.20 1097.05 C 396.80 1097.50 396.02 1098.41 395.63 1098.86 C 393.82 1098.81 392.01 1098.75 390.22 1098.73 C 391.69 1100.32 393.16 1101.94 394.53 1103.64 C 393.82 1103.68 392.40 1103.75 391.69 1103.79 C 390.39 1102.91 389.08 1102.05 387.81 1101.17 C 387.81 1103.05 387.84 1104.97 387.87 1106.87 C 387.18 1106.87 385.79 1106.87 385.10 1106.87 C 385.20 1104.09 384.81 1101.16 386.28 1098.66 C 384.14 1096.45 381.97 1094.29 379.79 1092.14 C 379.81 1095.93 379.81 1099.73 379.80 1103.54 C 382.55 1106.19 385.21 1108.92 388.00 1111.54 C 387.63 1111.87 386.90 1112.54 386.53 1112.87 C 386.04 1112.85 385.07 1112.81 384.58 1112.78 C 383.11 1111.41 381.54 1110.17 379.82 1109.17 C 379.82 1110.62 379.83 1112.08 379.85 1113.55 C 378.90 1114.45 377.96 1115.37 377.02 1116.29 C 375.98 1113.69 376.16 1110.86 376.17 1108.14 C 374.63 1109.69 373.10 1111.25 371.57 1112.82 C 370.41 1112.82 369.26 1112.83 368.10 1112.87 C 368.11 1112.23 368.12 1110.95 368.13 1110.32 C 370.73 1107.99 373.60 1105.99 376.23 1103.69 C 376.18 1099.83 376.18 1095.98 376.21 1092.14 C 374.03 1094.28 371.86 1096.45 369.72 1098.65 C 370.98 1100.83 370.86 1103.35 370.93 1105.79 C 370.03 1106.30 369.13 1106.81 368.23 1107.34 C 368.21 1106.02 368.21 1104.71 368.21 1103.42 C 367.64 1102.90 366.50 1101.87 365.93 1101.35 C 365.11 1102.24 364.28 1103.14 363.47 1104.06 C 362.89 1103.34 362.32 1102.63 361.76 1101.94 C 363.12 1100.54 364.49 1099.15 365.87 1097.76 C 363.61 1097.78 361.37 1097.82 359.12 1097.88 C 359.12 1097.19 359.12 1095.82 359.12 1095.13 C 362.26 1095.19 365.39 1095.19 368.53 1095.21 C 370.28 1093.38 372.07 1091.58 373.85 1089.78 C 370.05 1089.81 366.25 1089.80 362.46 1089.80 C 360.19 1092.15 357.86 1094.46 355.59 1096.82 C 354.97 1096.84 353.73 1096.88 353.12 1096.91 C 353.13 1096.29 353.15 1095.06 353.16 1094.44 C 354.74 1092.91 356.29 1091.36 357.86 1089.83 C 356.01 1089.79 354.17 1089.89 352.34 1089.73 C 351.23 1088.88 351.18 1087.36 350.73 1086.18 C 353.06 1086.18 355.40 1086.20 357.75 1086.25 C 356.22 1084.03 354.60 1081.88 352.77 1079.91 C 353.51 1079.16 354.24 1078.42 354.99 1077.70 C 357.56 1080.40 360.81 1082.63 362.33 1086.16 C 366.51 1086.23 370.68 1086.16 374.86 1086.21 C 372.73 1084.07 370.59 1081.94 368.52 1079.75 C 366.05 1079.80 363.45 1079.52 361.17 1080.68 C 360.70 1080.10 360.24 1079.53 359.79 1078.98 C 360.18 1078.53 360.96 1077.61 361.35 1077.15 C 362.86 1077.16 364.37 1077.19 365.89 1077.23 C 364.95 1076.31 364.02 1075.40 363.09 1074.51 C 363.17 1073.76 363.32 1072.24 363.40 1071.48 C 365.08 1072.85 366.68 1074.31 368.28 1075.79 C 368.22 1073.91 368.17 1072.06 368.11 1070.21 C 368.99 1069.67 369.88 1069.15 370.77 1068.65 C 370.81 1071.94 370.81 1075.23 370.79 1078.52 C 372.62 1080.28 374.42 1082.07 376.23 1083.86 C 376.42 1079.97 375.46 1075.85 377.00 1072.15 C 374.00 1070.48 371.57 1068.03 369.19 1065.60 C 369.16 1064.99 369.10 1063.76 369.07 1063.14 C 370.23 1063.14 371.40 1063.15 372.57 1063.18 C 374.09 1064.74 375.63 1066.28 377.16 1067.85 C 377.14 1065.10 377.01 1062.30 378.00 1059.69 Z" />
</g>
</svg>
