<?xml version="1.0" encoding="UTF-8" ?>
<!DOCTYPE svg PUBLIC "-//W3C//DTD SVG 1.1//EN" "http://www.w3.org/Graphics/SVG/1.1/DTD/svg11.dtd">
<svg width="1100pt" height="1200pt" viewBox="0 0 1100 1200" version="1.1" xmlns="http://www.w3.org/2000/svg">
<g id="#d6d6d6ff">
<path fill="#d6d6d6" opacity="1.00" d=" M 206.68 432.69 C 238.83 392.79 296.35 375.96 344.95 392.09 C 366.01 398.65 385.01 410.89 400.55 426.49 C 416.78 422.43 433.84 420.62 450.44 423.46 C 474.02 427.32 496.15 439.10 512.75 456.25 C 518.94 462.70 523.90 470.15 529.38 477.19 C 551.01 453.92 578.93 436.72 609.27 427.40 C 633.75 420.46 659.58 418.21 684.87 421.16 C 699.41 422.81 713.12 428.22 727.42 431.07 C 751.31 404.63 788.43 392.66 823.48 396.43 C 863.38 401.33 900.02 428.28 915.25 465.71 C 919.18 475.31 921.91 485.40 923.38 495.68 C 935.30 498.54 947.22 503.18 956.21 511.79 C 977.76 530.19 984.50 564.00 970.98 589.00 C 962.85 605.65 947.26 619.00 928.97 622.85 C 923.49 624.40 917.77 624.78 912.16 625.44 C 929.55 653.69 932.67 690.61 918.92 720.95 C 907.98 746.35 886.20 766.91 860.15 776.22 C 840.78 783.83 819.46 782.53 799.09 783.04 C 805.52 793.57 809.51 806.00 807.55 818.44 C 804.77 836.67 790.94 853.15 772.94 857.85 C 765.89 860.23 758.32 859.78 751.01 860.06 C 679.33 859.95 607.65 860.00 535.98 860.04 C 525.09 860.67 513.81 857.61 505.33 850.64 C 490.47 839.30 484.15 817.43 492.37 800.33 C 495.25 792.80 501.20 787.19 506.99 781.86 C 499.31 782.03 491.66 782.39 483.99 782.63 C 441.34 781.48 398.65 781.99 355.99 782.21 C 339.42 783.36 322.25 782.07 307.02 774.97 C 286.11 766.01 269.10 748.80 259.93 728.03 C 248.23 701.58 250.61 669.93 265.26 645.12 C 240.17 644.79 215.08 645.11 189.98 645.06 C 158.09 646.58 127.66 623.47 119.15 592.93 C 109.01 562.45 122.71 526.56 150.04 510.01 C 158.17 504.29 167.85 501.70 177.34 499.24 C 181.01 474.97 190.65 451.43 206.68 432.69 Z" />
</g>
</svg>
