<?xml version="1.0" encoding="UTF-8" ?>
<!DOCTYPE svg PUBLIC "-//W3C//DTD SVG 1.1//EN" "http://www.w3.org/Graphics/SVG/1.1/DTD/svg11.dtd">
<svg width="1100pt" height="1200pt" viewBox="0 0 1100 1200" version="1.1" xmlns="http://www.w3.org/2000/svg">
<g id="#23baeaff">
<path fill="#23baea" opacity="1.00" d=" M 723.85 226.72 C 778.87 218.63 836.93 238.54 875.83 278.17 C 904.57 306.11 922.36 344.10 927.99 383.60 C 968.12 389.76 1002.77 422.12 1010.97 461.99 C 1018.84 494.57 1009.14 530.71 985.79 554.79 C 979.38 561.99 971.51 567.57 963.68 573.09 C 949.23 556.74 929.63 546.69 910.90 536.19 C 904.98 532.96 898.88 530.13 892.75 527.35 C 882.98 466.87 845.51 411.51 792.91 380.10 C 739.04 346.83 669.61 340.10 610.35 362.42 C 594.51 368.00 579.52 375.78 565.65 385.23 C 598.14 394.54 627.93 413.37 649.86 439.14 C 669.91 462.88 683.40 492.02 688.44 522.70 C 704.48 525.82 720.18 531.44 733.45 541.18 C 733.04 546.41 732.71 551.68 732.33 556.93 C 689.22 552.52 645.04 576.68 625.06 615.03 C 618.68 625.94 615.42 638.21 612.56 650.40 C 594.36 653.92 576.57 663.63 567.02 680.01 C 558.78 691.19 557.15 705.40 556.67 718.85 C 486.35 721.41 415.96 719.12 345.62 720.25 C 343.20 710.04 340.85 699.82 338.26 689.66 C 337.15 699.74 336.49 709.86 335.83 719.99 C 296.78 720.05 257.73 719.89 218.69 720.09 C 195.12 719.90 171.55 720.07 147.99 720.05 C 108.44 720.71 70.15 697.33 51.12 662.91 C 30.98 627.95 32.04 581.89 54.01 548.00 C 70.89 521.33 99.29 502.50 130.43 497.31 C 138.38 436.56 175.50 380.07 229.20 350.19 C 291.79 313.45 374.90 315.62 435.19 356.15 C 446.55 336.92 461.01 319.33 479.17 306.15 C 517.76 277.03 570.47 267.85 616.69 281.85 C 644.71 251.98 683.15 231.89 723.85 226.72 M 302.45 369.60 C 270.14 372.67 239.08 386.34 214.73 407.75 C 208.89 412.83 204.12 420.55 206.46 428.58 C 208.57 440.08 222.08 447.82 233.02 443.00 C 241.46 438.88 247.58 431.36 255.61 426.57 C 289.52 404.61 334.83 402.56 371.16 419.86 C 377.99 423.15 386.67 422.24 392.67 417.63 C 395.94 414.35 398.67 410.24 399.68 405.66 C 401.18 397.17 396.46 388.04 388.71 384.31 C 362.13 371.23 331.85 366.51 302.45 369.60 Z" />
<path fill="#23baea" opacity="1.00" d=" M 347.40 886.85 C 353.69 893.23 360.21 899.71 364.13 907.91 C 366.05 913.39 363.33 919.50 358.66 922.61 C 351.78 926.24 341.40 923.22 340.15 914.81 C 338.69 904.88 344.26 895.92 347.40 886.85 Z" />
</g>
<g id="#5fd2ffff">
<path fill="#5fd2ff" opacity="1.00" d=" M 610.35 362.42 C 669.61 340.10 739.04 346.83 792.91 380.10 C 845.51 411.51 882.98 466.87 892.75 527.35 C 898.88 530.13 904.98 532.96 910.90 536.19 C 929.63 546.69 949.23 556.74 963.68 573.09 C 979.57 591.20 990.54 613.77 993.34 637.83 C 1007.30 644.04 1020.05 653.76 1028.11 666.92 C 1038.69 683.11 1042.05 703.81 1037.56 722.60 C 1031.39 752.44 1004.46 776.56 974.03 779.16 C 951.73 780.95 929.33 779.62 907.00 779.99 C 858.32 780.56 809.68 778.28 761.00 778.97 C 713.05 780.06 665.09 777.99 617.14 779.63 C 605.63 779.51 595.63 772.31 584.03 773.03 C 546.36 773.03 508.67 772.55 471.01 773.73 C 433.28 772.29 395.52 773.21 357.78 773.10 C 353.60 755.51 349.66 737.86 345.62 720.25 C 415.96 719.12 486.35 721.41 556.67 718.85 C 557.15 705.40 558.78 691.19 567.02 680.01 C 576.57 663.63 594.36 653.92 612.56 650.40 C 615.42 638.21 618.68 625.94 625.06 615.03 C 645.04 576.68 689.22 552.52 732.33 556.93 C 730.51 588.24 728.18 619.52 725.90 650.81 C 736.68 648.08 747.58 645.84 758.43 643.32 C 767.75 684.02 776.99 724.74 786.61 765.36 C 791.26 709.23 794.27 652.98 798.71 596.83 C 794.70 597.54 790.69 598.20 786.71 599.06 C 795.98 591.75 805.82 584.62 817.32 581.32 C 835.08 576.02 854.79 576.54 871.77 584.28 C 878.18 587.12 886.24 591.07 893.04 587.07 C 899.67 584.26 902.03 575.94 900.69 569.35 C 899.37 563.63 893.97 560.28 889.04 557.96 C 859.59 543.64 823.70 543.03 794.06 557.11 C 781.51 562.58 771.34 571.88 760.80 580.36 C 752.92 547.46 745.89 514.37 737.64 481.57 C 736.03 501.42 735.16 521.33 733.45 541.18 C 720.18 531.44 704.48 525.82 688.44 522.70 C 683.40 492.02 669.91 462.88 649.86 439.14 C 627.93 413.37 598.14 394.54 565.65 385.23 C 579.52 375.78 594.51 368.00 610.35 362.42 M 916.41 586.40 C 909.87 588.01 904.13 593.91 904.97 601.04 C 903.05 611.92 916.32 620.47 925.84 615.84 C 933.31 613.26 937.07 604.47 934.79 597.20 C 933.08 589.35 924.09 584.25 916.41 586.40 M 598.44 722.45 C 588.45 725.04 584.31 739.12 591.21 746.81 C 595.36 752.57 603.82 754.45 609.98 750.94 C 618.30 747.94 620.90 736.52 616.69 729.32 C 612.76 723.43 605.42 720.34 598.44 722.45 Z" />
<path fill="#5fd2ff" opacity="1.00" d=" M 218.69 720.09 C 257.73 719.89 296.78 720.05 335.83 719.99 C 334.27 737.61 333.26 755.28 332.07 772.93 C 327.41 773.03 322.78 773.13 318.14 773.34 C 278.43 776.66 238.01 754.89 218.69 720.09 Z" />
<path fill="#5fd2ff" opacity="1.00" d=" M 830.56 997.44 C 833.11 981.76 839.37 966.94 845.73 952.48 C 854.98 961.16 863.98 970.17 871.68 980.30 C 874.82 984.96 878.10 989.69 879.89 995.09 C 881.29 1000.37 880.23 1005.93 879.06 1011.16 C 873.83 1022.85 859.06 1029.83 846.86 1025.21 C 835.88 1021.33 827.86 1009.19 830.56 997.44 Z" />
<path fill="#5fd2ff" opacity="1.00" d=" M 360.51 1009.67 C 369.67 1017.48 378.23 1026.37 383.89 1037.10 C 388.10 1046.54 381.57 1058.68 371.57 1060.53 C 360.55 1063.94 348.60 1053.31 350.13 1042.04 C 351.71 1030.74 356.24 1020.16 360.51 1009.67 Z" />
</g>
<g id="#ffffffff">
<path fill="#ffffff" opacity="1.00" d=" M 302.45 369.60 C 331.85 366.51 362.13 371.23 388.71 384.31 C 396.46 388.04 401.18 397.17 399.68 405.66 C 398.67 410.24 395.94 414.35 392.67 417.63 C 386.67 422.24 377.99 423.15 371.16 419.86 C 334.83 402.56 289.52 404.61 255.61 426.57 C 247.58 431.36 241.46 438.88 233.02 443.00 C 222.08 447.82 208.57 440.08 206.46 428.58 C 204.12 420.55 208.89 412.83 214.73 407.75 C 239.08 386.34 270.14 372.67 302.45 369.60 Z" />
<path fill="#ffffff" opacity="1.00" d=" M 794.06 557.11 C 823.70 543.03 859.59 543.64 889.04 557.96 C 893.97 560.28 899.37 563.63 900.69 569.35 C 902.03 575.94 899.67 584.26 893.04 587.07 C 886.24 591.07 878.18 587.12 871.77 584.28 C 854.79 576.54 835.08 576.02 817.32 581.32 C 805.82 584.62 795.98 591.75 786.71 599.06 C 779.99 601.15 773.08 602.55 766.22 604.10 C 764.36 596.19 762.56 588.27 760.80 580.36 C 771.34 571.88 781.51 562.58 794.06 557.11 Z" />
<path fill="#ffffff" opacity="1.00" d=" M 916.41 586.40 C 924.09 584.25 933.08 589.35 934.79 597.20 C 937.07 604.47 933.31 613.26 925.84 615.84 C 916.32 620.47 903.05 611.92 904.97 601.04 C 904.13 593.91 909.87 588.01 916.41 586.40 Z" />
<path fill="#ffffff" opacity="1.00" d=" M 598.44 722.45 C 605.42 720.34 612.76 723.43 616.69 729.32 C 620.90 736.52 618.30 747.94 609.98 750.94 C 603.82 754.45 595.36 752.57 591.21 746.81 C 584.31 739.12 588.45 725.04 598.44 722.45 Z" />
</g>
<g id="#dccb61ff">
<path fill="#dccb61" opacity="1.00" d=" M 733.45 541.18 C 735.16 521.33 736.03 501.42 737.64 481.57 C 745.89 514.37 752.92 547.46 760.80 580.36 C 762.56 588.27 764.36 596.19 766.22 604.10 C 773.08 602.55 779.99 601.15 786.71 599.06 C 790.69 598.20 794.70 597.54 798.71 596.83 C 794.27 652.98 791.26 709.23 786.61 765.36 C 776.99 724.74 767.75 684.02 758.43 643.32 C 747.58 645.84 736.68 648.08 725.90 650.81 C 728.18 619.52 730.51 588.24 732.33 556.93 C 732.71 551.68 733.04 546.41 733.45 541.18 Z" />
</g>
<g id="#ffeb2cff">
<path fill="#ffeb2c" opacity="1.00" d=" M 338.26 689.66 C 340.85 699.82 343.20 710.04 345.62 720.25 C 349.66 737.86 353.60 755.51 357.78 773.10 C 360.71 785.74 363.67 798.39 366.33 811.10 C 377.22 808.65 388.10 806.17 398.98 803.70 C 395.54 856.16 391.72 908.61 388.24 961.07 C 387.96 964.53 387.64 968.12 386.89 971.55 C 377.04 931.23 367.98 890.69 358.77 850.22 C 347.87 852.90 336.87 855.15 325.97 857.85 C 328.25 829.56 330.01 801.24 332.07 772.93 C 333.26 755.28 334.27 737.61 335.83 719.99 C 336.49 709.86 337.15 699.74 338.26 689.66 Z" />
</g>
<g id="#2096bdcd">
<path fill="#2096bd" opacity="0.80" d=" M 851.31 789.76 C 855.35 794.32 860.69 798.25 862.95 804.11 C 864.98 809.39 860.32 815.37 854.91 815.80 C 849.68 815.56 844.58 810.62 846.04 804.98 C 847.07 799.70 849.44 794.78 851.31 789.76 Z" />
<path fill="#2096bd" opacity="0.80" d=" M 710.25 839.29 C 713.77 827.80 717.61 816.36 722.73 805.46 C 734.92 816.96 746.85 829.20 755.02 843.98 C 762.19 856.86 753.49 874.89 739.56 878.51 C 726.33 883.28 710.46 873.70 707.95 860.02 C 705.71 853.07 708.95 846.05 710.25 839.29 Z" />
</g>
<g id="#1745565a">
<path fill="#174556" opacity="0.35" d=" M 879.49 959.99 C 887.94 968.44 896.40 977.20 902.28 987.71 C 906.43 995.65 902.81 1005.95 894.98 1009.96 C 890.25 1013.23 884.36 1011.26 879.06 1011.16 C 880.23 1005.93 881.29 1000.37 879.89 995.09 C 878.10 989.69 874.82 984.96 871.68 980.30 C 874.29 973.52 876.94 966.78 879.49 959.99 Z" />
<path fill="#174556" opacity="0.35" d=" M 643.10 1032.74 C 651.46 1040.50 659.20 1049.04 665.17 1058.81 C 669.62 1067.34 666.37 1079.39 657.03 1083.04 C 645.90 1089.22 630.66 1078.66 632.33 1066.14 C 633.59 1054.40 638.42 1043.46 643.10 1032.74 Z" />
</g>
<g id="#0b1a2021">
<path fill="#0b1a20" opacity="0.13" d=" M 407.39 1152.56 C 409.50 1135.76 416.20 1119.97 422.71 1104.47 C 435.48 1116.42 448.16 1129.17 455.99 1145.02 C 460.54 1154.35 455.96 1165.29 449.30 1172.29 C 444.75 1175.89 439.14 1178.02 433.35 1178.50 C 419.58 1178.96 406.26 1166.69 407.39 1152.56 Z" />
</g>
</svg>
