<?xml version="1.0" encoding="UTF-8" ?>
<!DOCTYPE svg PUBLIC "-//W3C//DTD SVG 1.1//EN" "http://www.w3.org/Graphics/SVG/1.1/DTD/svg11.dtd">
<svg width="1100pt" height="1200pt" viewBox="0 0 1100 1200" version="1.1" xmlns="http://www.w3.org/2000/svg">
<g id="#5fd2ffff">
<path fill="#5fd2ff" opacity="1.00" d=" M 254.03 397.04 C 273.53 388.30 295.21 385.02 316.47 386.38 C 348.19 388.85 378.33 403.90 400.54 426.50 C 420.01 421.49 440.81 420.23 460.35 425.58 C 488.48 432.91 513.63 451.55 528.24 476.75 C 535.51 488.84 539.89 502.29 542.90 516.00 C 557.62 518.82 571.97 525.64 581.85 537.15 C 598.32 554.93 603.83 582.64 593.97 604.98 C 584.23 628.05 560.67 645.84 535.04 645.01 C 445.10 645.06 355.16 644.90 265.22 645.05 C 239.81 644.92 214.39 645.10 188.98 645.03 C 157.40 646.15 127.59 623.12 119.15 592.94 C 109.00 562.45 122.71 526.57 150.04 510.01 C 158.18 504.30 167.85 501.68 177.35 499.25 C 183.18 455.03 212.74 414.48 254.03 397.04 M 312.37 412.43 C 294.47 413.46 276.13 417.29 260.73 426.74 C 250.53 433.26 253.16 451.20 265.17 453.85 C 271.62 456.57 277.98 451.91 283.87 449.92 C 311.20 437.52 345.22 443.64 367.35 463.63 C 373.08 468.28 379.28 475.57 387.57 472.55 C 397.84 470.70 403.27 456.01 395.65 448.32 C 375.03 424.78 343.51 411.76 312.37 412.43 M 231.40 452.42 C 218.59 454.48 215.88 474.15 227.06 479.90 C 235.22 486.04 247.86 481.05 250.48 471.40 C 253.66 460.43 242.66 448.58 231.40 452.42 M 551.29 587.28 C 544.25 587.46 538.37 593.37 537.00 600.03 C 536.43 605.98 538.27 613.06 544.03 615.95 C 552.86 622.09 566.92 615.31 567.49 604.60 C 568.93 595.31 560.84 586.40 551.29 587.28 Z" />
<path fill="#5fd2ff" opacity="1.00" d=" M 794.97 396.83 C 824.53 392.44 855.28 401.10 878.92 419.11 C 903.52 437.04 919.32 465.70 923.38 495.69 C 936.02 498.63 948.53 503.85 957.77 513.23 C 980.33 533.70 984.68 571.05 966.97 595.95 C 955.41 614.65 933.59 625.23 911.88 625.26 C 896.58 600.44 870.36 583.34 841.77 578.26 C 837.37 550.53 827.97 523.28 811.85 500.11 C 791.18 469.11 760.76 444.74 725.86 431.61 C 744.56 413.20 768.54 399.56 794.97 396.83 Z" />
<path fill="#5fd2ff" opacity="1.00" d=" M 626.54 709.60 C 655.24 682.91 703.38 681.83 733.90 706.12 C 752.58 719.37 763.28 741.04 767.76 763.05 C 779.77 766.54 791.29 772.93 798.84 783.15 C 805.74 792.47 808.49 804.50 807.89 815.96 C 806.13 833.65 794.00 849.97 777.40 856.45 C 767.44 860.57 756.53 859.92 746.00 860.08 C 674.33 859.80 602.65 860.22 530.98 859.90 C 510.52 859.97 491.78 843.09 489.23 822.87 C 486.53 807.18 494.65 791.17 507.05 781.84 C 512.84 778.55 519.17 776.43 525.49 774.40 C 528.95 759.60 535.47 745.16 546.27 734.26 C 557.94 722.61 573.46 714.61 589.93 712.84 C 598.78 711.53 607.62 713.62 616.46 714.00 C 620.71 715.35 623.59 711.76 626.54 709.60 M 668.44 706.52 C 651.27 708.27 634.82 716.40 623.32 729.30 C 616.77 735.54 623.64 748.75 632.80 745.97 C 638.50 743.26 642.95 738.68 648.14 735.19 C 662.32 724.74 682.09 724.46 697.93 731.14 C 702.33 732.70 707.81 735.87 711.95 731.94 C 718.69 727.96 716.95 716.97 709.93 714.10 C 697.26 707.64 682.62 704.58 668.44 706.52 M 726.44 732.45 C 720.74 733.55 717.17 740.08 719.37 745.58 C 721.31 752.96 733.37 754.93 737.03 748.01 C 743.23 741.40 735.03 729.02 726.44 732.45 M 515.46 822.41 C 510.30 824.79 506.85 832.13 511.00 836.99 C 514.20 844.21 525.49 843.41 528.46 836.40 C 533.41 828.75 523.78 818.32 515.46 822.41 Z" />
</g>
<g id="#ffffffff">
<path fill="#ffffff" opacity="1.00" d=" M 312.37 412.43 C 343.51 411.76 375.03 424.78 395.65 448.32 C 403.27 456.01 397.84 470.70 387.57 472.55 C 379.28 475.57 373.08 468.28 367.35 463.63 C 345.22 443.64 311.20 437.52 283.87 449.92 C 277.98 451.91 271.62 456.57 265.17 453.85 C 253.16 451.20 250.53 433.26 260.73 426.74 C 276.13 417.29 294.47 413.46 312.37 412.43 Z" />
<path fill="#ffffff" opacity="1.00" d=" M 231.40 452.42 C 242.66 448.58 253.66 460.43 250.48 471.40 C 247.86 481.05 235.22 486.04 227.06 479.90 C 215.88 474.15 218.59 454.48 231.40 452.42 Z" />
<path fill="#ffffff" opacity="1.00" d=" M 652.44 461.57 C 693.47 456.67 736.39 470.16 766.64 498.39 C 771.27 503.38 774.42 510.91 771.58 517.59 C 768.94 524.75 761.97 530.72 753.96 530.00 C 748.09 530.52 743.58 525.93 739.24 522.77 C 709.18 496.47 663.83 489.57 627.14 505.18 C 621.21 507.86 614.72 509.76 608.14 508.91 C 598.96 506.12 592.66 495.31 596.01 486.01 C 597.20 479.29 603.60 475.81 609.23 473.15 C 623.02 467.38 637.55 463.14 652.44 461.57 Z" />
<path fill="#ffffff" opacity="1.00" d=" M 551.29 587.28 C 560.84 586.40 568.93 595.31 567.49 604.60 C 566.92 615.31 552.86 622.09 544.03 615.95 C 538.27 613.06 536.43 605.98 537.00 600.03 C 538.37 593.37 544.25 587.46 551.29 587.28 Z" />
<path fill="#ffffff" opacity="1.00" d=" M 668.44 706.52 C 682.62 704.58 697.26 707.64 709.93 714.10 C 716.95 716.97 718.69 727.96 711.95 731.94 C 707.81 735.87 702.33 732.70 697.93 731.14 C 682.09 724.46 662.32 724.74 648.14 735.19 C 642.95 738.68 638.50 743.26 632.80 745.97 C 623.64 748.75 616.77 735.54 623.32 729.30 C 634.82 716.40 651.27 708.27 668.44 706.52 Z" />
<path fill="#ffffff" opacity="1.00" d=" M 726.44 732.45 C 735.03 729.02 743.23 741.40 737.03 748.01 C 733.37 754.93 721.31 752.96 719.37 745.58 C 717.17 740.08 720.74 733.55 726.44 732.45 Z" />
<path fill="#ffffff" opacity="1.00" d=" M 515.46 822.41 C 523.78 818.32 533.41 828.75 528.46 836.40 C 525.49 843.41 514.20 844.21 511.00 836.99 C 506.85 832.13 510.30 824.79 515.46 822.41 Z" />
</g>
<g id="#23baeaff">
<path fill="#23baea" opacity="1.00" d=" M 560.00 451.00 C 607.76 418.17 671.81 410.62 725.86 431.61 C 760.76 444.74 791.18 469.11 811.85 500.11 C 827.97 523.28 837.37 550.53 841.77 578.26 C 870.36 583.34 896.58 600.44 911.88 625.26 C 931.04 655.21 932.77 695.61 916.03 727.02 C 904.44 749.61 884.08 767.66 860.15 776.22 C 840.70 783.85 819.29 782.51 798.84 783.15 C 791.29 772.93 779.77 766.54 767.76 763.05 C 763.28 741.04 752.58 719.37 733.90 706.12 C 703.38 681.83 655.24 682.91 626.54 709.60 C 623.59 711.76 620.71 715.35 616.46 714.00 C 607.62 713.62 598.78 711.53 589.93 712.84 C 573.46 714.61 557.94 722.61 546.27 734.26 C 535.47 745.16 528.95 759.60 525.49 774.40 C 519.17 776.43 512.84 778.55 507.05 781.84 C 486.72 783.68 466.35 781.61 446.00 781.96 C 412.52 782.26 379.03 781.47 345.57 782.49 C 312.53 783.80 279.81 764.97 264.01 736.00 C 247.88 708.36 249.13 672.43 265.22 645.05 C 355.16 644.90 445.10 645.06 535.04 645.01 C 560.67 645.84 584.23 628.05 593.97 604.98 C 603.83 582.64 598.32 554.93 581.85 537.15 C 571.97 525.64 557.62 518.82 542.90 516.00 C 539.89 502.29 535.51 488.84 528.24 476.75 C 538.92 468.30 548.49 458.40 560.00 451.00 M 652.44 461.57 C 637.55 463.14 623.02 467.38 609.23 473.15 C 603.60 475.81 597.20 479.29 596.01 486.01 C 592.66 495.31 598.96 506.12 608.14 508.91 C 614.72 509.76 621.21 507.86 627.14 505.18 C 663.83 489.57 709.18 496.47 739.24 522.77 C 743.58 525.93 748.09 530.52 753.96 530.00 C 761.97 530.72 768.94 524.75 771.58 517.59 C 774.42 510.91 771.27 503.38 766.64 498.39 C 736.39 470.16 693.47 456.67 652.44 461.57 Z" />
</g>
</svg>
