<?xml version="1.0" encoding="UTF-8" ?>
<!DOCTYPE svg PUBLIC "-//W3C//DTD SVG 1.1//EN" "http://www.w3.org/Graphics/SVG/1.1/DTD/svg11.dtd">
<svg width="1100pt" height="1200pt" viewBox="0 0 1100 1200" version="1.1" xmlns="http://www.w3.org/2000/svg">
<g id="#ffc833ff">
<path fill="#ffc833" opacity="1.00" d=" M 468.26 341.26 C 495.49 314.05 522.62 286.75 549.95 259.65 C 583.23 292.55 616.24 325.71 649.25 358.88 C 696.50 359.17 743.75 358.90 791.00 359.01 C 791.05 404.02 790.96 449.04 790.96 494.05 C 789.32 499.40 793.59 502.89 796.68 506.30 C 828.22 537.66 859.67 569.11 891.05 600.63 C 857.56 633.65 824.57 667.16 791.15 700.25 C 790.78 747.50 791.12 794.75 790.99 842.00 C 745.97 842.05 700.96 841.96 655.95 841.96 C 650.58 840.32 647.10 844.59 643.70 847.68 C 612.56 878.98 581.36 910.23 550.05 941.35 C 516.77 908.45 483.76 875.29 450.75 842.12 C 403.50 841.82 356.25 842.10 309.00 841.99 C 308.95 796.97 309.04 751.96 309.04 706.95 C 310.67 701.58 306.40 698.10 303.32 694.70 C 271.78 663.34 240.33 631.89 208.95 600.37 C 242.43 567.35 275.43 533.84 308.85 500.75 C 309.21 453.50 308.88 406.25 309.01 359.00 C 355.94 358.70 402.92 359.53 449.83 358.69 C 456.77 353.81 462.18 347.13 468.26 341.26 M 545.46 359.62 C 492.65 360.26 440.41 379.23 399.26 412.27 C 348.48 452.66 315.36 514.30 309.76 578.95 C 305.19 633.46 318.93 689.77 350.02 734.99 C 383.81 786.16 438.24 822.90 498.07 836.00 C 523.85 842.19 550.68 842.53 576.96 839.96 C 638.41 833.43 696.93 801.94 735.90 753.92 C 777.24 704.40 797.44 637.58 789.44 573.45 C 783.47 515.95 755.28 461.30 712.58 422.45 C 667.63 381.32 606.53 357.59 545.46 359.62 Z" />
</g>
<g id="#ffeb2cff">
<path fill="#ffeb2c" opacity="1.00" d=" M 545.46 359.62 C 606.53 357.59 667.63 381.32 712.58 422.45 C 755.28 461.30 783.47 515.95 789.44 573.45 C 797.44 637.58 777.24 704.40 735.90 753.92 C 696.93 801.94 638.41 833.43 576.96 839.96 C 550.68 842.53 523.85 842.19 498.07 836.00 C 438.24 822.90 383.81 786.16 350.02 734.99 C 318.93 689.77 305.19 633.46 309.76 578.95 C 315.36 514.30 348.48 452.66 399.26 412.27 C 440.41 379.23 492.65 360.26 545.46 359.62 M 531.44 393.56 C 484.15 397.56 438.59 418.49 404.83 451.83 C 400.66 455.44 398.96 461.25 400.46 466.57 C 402.12 475.72 414.09 480.74 421.97 475.95 C 427.63 472.05 432.49 467.15 437.80 462.79 C 467.85 437.59 506.79 423.25 545.99 422.74 C 550.85 422.24 557.07 422.81 560.31 418.30 C 567.30 412.28 566.25 399.35 557.96 395.06 C 549.92 390.50 540.13 393.76 531.44 393.56 M 381.66 492.39 C 370.02 491.39 366.20 503.77 361.96 511.98 C 355.46 526.10 349.98 540.80 347.15 556.13 C 346.19 561.56 347.67 568.29 352.99 571.01 C 360.71 577.55 373.76 572.70 375.77 562.83 C 379.67 550.08 383.01 537.02 389.04 525.04 C 391.74 518.42 397.33 512.08 395.53 504.44 C 394.70 497.79 388.09 492.84 381.66 492.39 Z" />
</g>
<g id="#ffffffff">
<path fill="#ffffff" opacity="1.00" d=" M 531.44 393.56 C 540.13 393.76 549.92 390.50 557.96 395.06 C 566.25 399.35 567.30 412.28 560.31 418.30 C 557.07 422.81 550.85 422.24 545.99 422.74 C 506.79 423.25 467.85 437.59 437.80 462.79 C 432.49 467.15 427.63 472.05 421.97 475.95 C 414.09 480.74 402.12 475.72 400.46 466.57 C 398.96 461.25 400.66 455.44 404.83 451.83 C 438.59 418.49 484.15 397.56 531.44 393.56 Z" />
<path fill="#ffffff" opacity="1.00" d=" M 381.66 492.39 C 388.09 492.84 394.70 497.79 395.53 504.44 C 397.33 512.08 391.74 518.42 389.04 525.04 C 383.01 537.02 379.67 550.08 375.77 562.83 C 373.76 572.70 360.71 577.55 352.99 571.01 C 347.67 568.29 346.19 561.56 347.15 556.13 C 349.98 540.80 355.46 526.10 361.96 511.98 C 366.20 503.77 370.02 491.39 381.66 492.39 Z" />
</g>
</svg>
