<?xml version="1.0" encoding="UTF-8" ?>
<!DOCTYPE svg PUBLIC "-//W3C//DTD SVG 1.1//EN" "http://www.w3.org/Graphics/SVG/1.1/DTD/svg11.dtd">
<svg width="1100pt" height="1200pt" viewBox="0 0 1100 1200" version="1.1" xmlns="http://www.w3.org/2000/svg">
<g id="#ffc833ff">
<path fill="#ffc833" opacity="1.00" d=" M 447.34 275.13 C 486.84 295.88 526.56 316.19 565.96 337.12 C 571.88 341.13 579.13 338.54 585.33 336.60 C 626.05 323.55 666.92 310.95 707.66 297.95 C 716.60 327.85 726.37 357.50 735.62 387.30 C 740.57 401.87 744.19 416.89 749.81 431.22 C 750.79 433.78 753.93 434.47 755.98 435.99 C 791.04 454.23 826.32 472.09 861.05 490.96 C 829.22 480.00 794.30 477.81 761.42 485.11 C 733.99 433.44 686.47 393.03 631.35 373.60 C 597.99 361.22 561.82 357.73 526.48 360.39 C 463.77 366.49 403.93 398.21 364.05 447.04 C 346.32 469.03 331.52 493.74 322.62 520.65 C 310.86 553.05 307.18 588.10 309.86 622.37 C 296.45 619.24 282.74 617.48 268.95 618.05 C 275.68 604.32 284.08 591.28 289.56 577.04 C 276.12 532.22 261.23 487.81 247.72 443.00 C 290.37 429.50 333.04 416.03 375.74 402.70 C 377.91 401.38 381.50 401.51 382.69 398.74 C 390.14 387.39 395.19 374.72 401.84 362.92 C 416.87 333.59 432.67 304.65 447.34 275.13 Z" />
<path fill="#ffc833" opacity="1.00" d=" M 656.10 843.03 C 669.12 842.99 682.15 843.01 695.18 843.04 C 681.81 871.05 666.19 897.93 652.67 925.87 C 637.36 918.07 622.33 909.74 606.98 902.03 C 600.67 898.82 594.34 895.63 588.43 891.71 C 617.14 887.60 643.12 868.97 656.10 843.03 Z" />
<path fill="#ffc833" opacity="1.00" d=" M 389.07 891.95 C 401.45 891.99 413.84 892.14 426.23 892.54 C 414.83 895.74 403.58 899.42 392.32 903.06 C 391.26 899.34 390.17 895.64 389.07 891.95 Z" />
</g>
<g id="#ffeb2cff">
<path fill="#ffeb2c" opacity="1.00" d=" M 526.48 360.39 C 561.82 357.73 597.99 361.22 631.35 373.60 C 686.47 393.03 733.99 433.44 761.42 485.11 C 726.51 493.02 694.33 511.51 669.80 537.56 C 648.87 532.16 627.01 529.58 605.47 532.36 C 565.31 537.26 527.89 558.78 502.59 590.22 C 466.65 572.68 423.89 568.61 385.58 580.55 C 360.62 588.12 337.83 602.11 319.18 620.30 C 316.93 623.40 313.13 623.15 309.86 622.37 C 307.18 588.10 310.86 553.05 322.62 520.65 C 331.52 493.74 346.32 469.03 364.05 447.04 C 403.93 398.21 463.77 366.49 526.48 360.39 M 531.45 393.55 C 484.16 397.57 438.58 418.48 404.82 451.84 C 400.67 455.45 398.96 461.26 400.47 466.58 C 402.11 475.74 414.09 480.71 421.96 475.95 C 427.63 472.05 432.50 467.15 437.80 462.80 C 467.85 437.56 506.80 423.28 545.99 422.72 C 550.85 422.21 557.04 422.79 560.31 418.31 C 567.28 412.29 566.26 399.35 557.96 395.07 C 549.91 390.52 540.14 393.76 531.45 393.55 M 381.66 492.38 C 370.02 491.41 366.21 503.77 361.96 511.98 C 355.35 526.37 349.72 541.37 347.04 557.04 C 345.44 564.52 350.64 571.34 357.59 573.48 C 365.46 575.79 373.86 570.75 375.76 562.83 C 379.68 550.09 383.03 537.03 389.05 525.05 C 391.74 518.43 397.29 512.07 395.52 504.43 C 394.71 497.78 388.09 492.84 381.66 492.38 Z" />
</g>
<g id="#feffffff">
<path fill="#feffff" opacity="1.00" d=" M 531.45 393.55 C 540.14 393.76 549.91 390.52 557.96 395.07 C 566.26 399.35 567.28 412.29 560.31 418.31 C 557.04 422.79 550.85 422.21 545.99 422.72 C 506.80 423.28 467.85 437.56 437.80 462.80 C 432.50 467.15 427.63 472.05 421.96 475.95 C 414.09 480.71 402.11 475.74 400.47 466.58 C 398.96 461.26 400.67 455.45 404.82 451.84 C 438.58 418.48 484.16 397.57 531.45 393.55 Z" />
<path fill="#feffff" opacity="1.00" d=" M 381.66 492.38 C 388.09 492.84 394.71 497.78 395.52 504.43 C 397.29 512.07 391.74 518.43 389.05 525.05 C 383.03 537.03 379.68 550.09 375.76 562.83 C 373.86 570.75 365.46 575.79 357.59 573.48 C 350.64 571.34 345.44 564.52 347.04 557.04 C 349.72 541.37 355.35 526.37 361.96 511.98 C 366.21 503.77 370.02 491.41 381.66 492.38 Z" />
<path fill="#feffff" opacity="1.00" d=" M 792.44 522.59 C 833.41 517.65 876.40 531.16 906.44 559.57 C 912.27 564.75 913.29 573.60 910.68 580.68 C 907.08 588.00 898.30 592.20 890.32 590.69 C 885.12 589.24 881.26 585.06 876.99 582.01 C 858.38 566.45 834.16 558.33 810.02 558.04 C 793.47 557.06 777.16 561.71 762.08 568.16 C 755.66 570.33 747.69 571.76 742.23 566.76 C 734.95 561.96 732.85 551.46 737.02 544.00 C 739.56 537.42 746.76 535.23 752.66 532.61 C 765.38 527.50 778.78 523.93 792.44 522.59 Z" />
<path fill="#feffff" opacity="1.00" d=" M 415.45 606.50 C 435.52 604.81 455.56 609.47 474.12 616.82 C 481.47 620.27 490.26 623.04 493.93 631.08 C 499.22 641.49 492.16 655.71 480.58 657.54 C 474.14 659.46 468.23 656.01 462.63 653.43 C 428.69 637.31 385.31 642.99 357.44 668.47 C 350.12 674.76 341.85 684.06 331.02 679.94 C 318.59 677.29 312.73 659.81 321.39 650.37 C 344.99 623.74 379.98 607.89 415.45 606.50 Z" />
<path fill="#feffff" opacity="1.00" d=" M 518.20 654.48 C 531.71 653.37 541.80 669.15 535.94 680.98 C 532.14 692.25 516.29 696.01 507.27 688.70 C 499.72 683.02 496.93 670.70 503.10 663.07 C 506.01 657.51 512.16 654.78 518.20 654.48 Z" />
<path fill="#feffff" opacity="1.00" d=" M 665.85 659.97 C 667.09 660.46 668.35 660.97 669.62 661.48 C 667.70 666.90 663.58 671.38 662.24 676.98 C 663.32 681.68 664.96 686.37 667.43 690.56 C 668.71 687.42 670.92 684.47 671.30 681.06 C 670.67 676.92 668.90 673.08 667.73 669.09 C 669.11 669.07 670.50 669.07 671.89 669.07 C 672.73 671.36 673.57 673.65 674.38 675.96 C 675.58 673.93 676.80 671.90 678.03 669.89 C 678.78 670.09 680.27 670.48 681.01 670.67 C 680.43 673.14 679.77 675.58 679.10 678.03 C 681.41 677.40 683.73 676.78 686.05 676.14 C 686.78 677.36 687.52 678.58 688.26 679.81 C 684.20 680.98 680.09 682.05 676.03 683.18 C 674.31 686.52 672.62 689.88 670.99 693.27 C 675.65 691.50 680.75 690.58 685.09 688.03 C 688.26 684.23 689.91 679.38 692.15 675.01 C 693.65 675.07 695.16 675.15 696.68 675.23 C 695.91 678.92 694.60 682.45 693.30 685.98 C 696.19 685.16 699.08 684.35 702.00 683.62 C 702.41 685.07 702.82 686.52 703.24 687.98 C 700.48 689.14 697.71 690.27 694.94 691.40 C 697.93 693.15 700.92 694.86 703.94 696.59 C 703.14 698.05 702.38 699.53 701.43 700.91 C 696.13 699.87 692.28 695.22 686.98 694.28 C 681.75 695.06 676.82 697.17 671.74 698.60 C 676.06 700.14 680.44 704.35 685.32 702.46 C 688.54 701.58 691.66 700.51 694.92 699.70 C 694.93 700.53 694.96 702.17 694.97 703.00 C 692.61 704.16 690.28 705.35 687.95 706.55 C 689.69 707.40 691.45 708.26 693.20 709.14 C 692.80 710.47 692.42 711.82 692.03 713.16 C 690.03 712.40 688.04 711.64 686.05 710.89 C 686.37 713.70 686.48 716.28 686.88 719.17 C 685.85 718.93 684.83 718.69 683.83 718.46 C 682.55 715.16 681.82 711.69 680.27 708.56 C 677.12 705.80 673.51 703.70 669.84 701.76 C 671.65 706.98 673.12 712.40 675.72 717.31 C 680.11 720.48 685.53 721.89 690.20 724.63 C 687.32 729.72 681.88 726.53 677.80 725.10 C 678.51 727.70 679.25 730.29 680.01 732.89 C 678.60 733.64 677.20 734.39 675.81 735.15 C 674.63 732.53 673.54 729.86 672.54 727.18 C 669.89 730.20 667.95 734.31 663.88 735.64 C 661.34 729.08 669.05 724.56 669.42 718.34 C 668.49 713.61 667.12 708.99 665.35 704.52 C 663.41 707.21 661.54 710.07 660.63 713.29 C 660.86 717.80 663.16 721.89 664.10 726.28 C 663.29 726.50 661.68 726.95 660.87 727.18 C 659.80 724.91 658.77 722.62 657.79 720.33 C 655.82 722.19 653.74 723.94 651.44 725.38 C 651.63 722.92 651.95 720.48 652.36 718.06 C 649.71 718.27 647.21 718.64 644.59 718.85 C 644.39 718.06 643.99 716.48 643.79 715.70 C 647.77 714.15 651.85 712.97 655.93 711.72 C 657.69 708.48 659.49 705.28 661.20 702.01 C 656.47 703.74 651.36 704.62 646.93 707.05 C 642.47 711.15 642.82 718.99 636.86 721.70 C 636.66 717.46 637.29 713.28 638.70 709.31 C 635.82 710.06 632.81 710.61 629.94 711.29 C 629.54 709.86 629.16 708.44 628.78 707.03 C 631.54 705.88 634.33 704.80 637.11 703.67 C 634.39 702.12 631.71 700.53 629.02 698.95 C 629.09 697.36 629.17 695.78 629.26 694.21 C 634.84 695.71 639.39 699.73 644.93 701.24 C 649.84 700.00 654.65 698.34 659.40 696.56 C 655.96 695.14 652.77 692.74 649.02 692.38 C 645.12 692.82 641.58 694.73 637.96 696.12 C 637.55 694.76 637.15 693.41 636.77 692.07 C 638.82 691.29 640.87 690.51 642.93 689.75 C 641.31 687.54 639.74 685.29 638.36 682.93 C 640.82 683.36 643.28 683.88 645.71 684.49 C 645.91 681.41 646.15 678.32 646.49 675.27 C 648.57 679.07 649.83 683.29 652.12 687.01 C 654.69 689.34 657.97 690.84 661.01 692.54 C 659.90 687.77 659.19 682.67 656.44 678.50 C 652.34 675.45 647.50 673.66 642.90 671.56 C 643.22 669.91 643.56 668.27 643.92 666.64 C 647.18 667.73 650.41 668.92 653.66 670.09 C 653.17 667.59 652.46 665.10 652.51 662.55 C 653.76 661.53 655.19 660.78 656.58 659.97 C 657.64 662.72 658.66 665.48 659.66 668.26 C 661.71 665.49 663.72 662.68 665.85 659.97 Z" />
<path fill="#feffff" opacity="1.00" d=" M 127.42 821.55 C 137.81 820.02 148.71 829.32 147.92 840.00 C 148.67 849.91 140.14 859.58 129.98 858.97 C 117.50 860.71 106.94 846.53 111.05 835.02 C 112.67 827.52 119.99 822.14 127.42 821.55 Z" />
</g>
<g id="#24baeaff">
<path fill="#24baea" opacity="1.00" d=" M 761.42 485.11 C 794.30 477.81 829.22 480.00 861.05 490.96 C 910.82 508.08 952.05 548.06 970.58 597.32 C 976.03 610.78 978.90 625.09 981.54 639.32 C 1004.43 643.52 1026.06 654.97 1041.36 672.65 C 1063.77 696.92 1072.06 732.63 1064.66 764.60 C 1055.84 802.83 1023.29 834.53 984.56 841.48 C 950.92 846.67 916.82 842.30 883.00 842.97 C 820.39 843.25 757.79 842.94 695.18 843.04 C 682.15 843.01 669.12 842.99 656.10 843.03 C 666.63 821.28 669.04 795.18 660.53 772.36 C 653.41 751.49 638.08 733.84 618.91 723.12 C 610.05 718.00 599.99 715.58 590.26 712.71 C 586.54 690.99 579.85 669.62 568.27 650.74 C 552.64 624.90 529.41 603.97 502.59 590.22 C 527.89 558.78 565.31 537.26 605.47 532.36 C 627.01 529.58 648.87 532.16 669.80 537.56 C 694.33 511.51 726.51 493.02 761.42 485.11 M 792.44 522.59 C 778.78 523.93 765.38 527.50 752.66 532.61 C 746.76 535.23 739.56 537.42 737.02 544.00 C 732.85 551.46 734.95 561.96 742.23 566.76 C 747.69 571.76 755.66 570.33 762.08 568.16 C 777.16 561.71 793.47 557.06 810.02 558.04 C 834.16 558.33 858.38 566.45 876.99 582.01 C 881.26 585.06 885.12 589.24 890.32 590.69 C 898.30 592.20 907.08 588.00 910.68 580.68 C 913.29 573.60 912.27 564.75 906.44 559.57 C 876.40 531.16 833.41 517.65 792.44 522.59 M 665.85 659.97 C 663.72 662.68 661.71 665.49 659.66 668.26 C 658.66 665.48 657.64 662.72 656.58 659.97 C 655.19 660.78 653.76 661.53 652.51 662.55 C 652.46 665.10 653.17 667.59 653.66 670.09 C 650.41 668.92 647.18 667.73 643.92 666.64 C 643.56 668.27 643.22 669.91 642.90 671.56 C 647.50 673.66 652.34 675.45 656.44 678.50 C 659.19 682.67 659.90 687.77 661.01 692.54 C 657.97 690.84 654.69 689.34 652.12 687.01 C 649.83 683.29 648.57 679.07 646.49 675.27 C 646.15 678.32 645.91 681.41 645.71 684.49 C 643.28 683.88 640.82 683.36 638.36 682.93 C 639.74 685.29 641.31 687.54 642.93 689.75 C 640.87 690.51 638.82 691.29 636.77 692.07 C 637.15 693.41 637.55 694.76 637.96 696.12 C 641.58 694.73 645.12 692.82 649.02 692.38 C 652.77 692.74 655.96 695.14 659.40 696.56 C 654.65 698.34 649.84 700.00 644.93 701.24 C 639.39 699.73 634.84 695.71 629.26 694.21 C 629.17 695.78 629.09 697.36 629.02 698.95 C 631.71 700.53 634.39 702.12 637.11 703.67 C 634.33 704.80 631.54 705.88 628.78 707.03 C 629.16 708.44 629.54 709.86 629.94 711.29 C 632.81 710.61 635.82 710.06 638.70 709.31 C 637.29 713.28 636.66 717.46 636.86 721.70 C 642.82 718.99 642.47 711.15 646.93 707.05 C 651.36 704.62 656.47 703.74 661.20 702.01 C 659.49 705.28 657.69 708.48 655.93 711.72 C 651.85 712.97 647.77 714.15 643.79 715.70 C 643.99 716.48 644.39 718.06 644.59 718.85 C 647.21 718.64 649.71 718.27 652.36 718.06 C 651.95 720.48 651.63 722.92 651.44 725.38 C 653.74 723.94 655.82 722.19 657.79 720.33 C 658.77 722.62 659.80 724.91 660.87 727.18 C 661.68 726.95 663.29 726.50 664.10 726.28 C 663.16 721.89 660.86 717.80 660.63 713.29 C 661.54 710.07 663.41 707.21 665.35 704.52 C 667.12 708.99 668.49 713.61 669.42 718.34 C 669.05 724.56 661.34 729.08 663.88 735.64 C 667.95 734.31 669.89 730.20 672.54 727.18 C 673.54 729.86 674.63 732.53 675.81 735.15 C 677.20 734.39 678.60 733.64 680.01 732.89 C 679.25 730.29 678.51 727.70 677.80 725.10 C 681.88 726.53 687.32 729.72 690.20 724.63 C 685.53 721.89 680.11 720.48 675.72 717.31 C 673.12 712.40 671.65 706.98 669.84 701.76 C 673.51 703.70 677.12 705.80 680.27 708.56 C 681.82 711.69 682.55 715.16 683.83 718.46 C 684.83 718.69 685.85 718.93 686.88 719.17 C 686.48 716.28 686.37 713.70 686.05 710.89 C 688.04 711.64 690.03 712.40 692.03 713.16 C 692.42 711.82 692.80 710.47 693.20 709.14 C 691.45 708.26 689.69 707.40 687.95 706.55 C 690.28 705.35 692.61 704.16 694.97 703.00 C 694.96 702.17 694.93 700.53 694.92 699.70 C 691.66 700.51 688.54 701.58 685.32 702.46 C 680.44 704.35 676.06 700.14 671.74 698.60 C 676.82 697.17 681.75 695.06 686.98 694.28 C 692.28 695.22 696.13 699.87 701.43 700.91 C 702.38 699.53 703.14 698.05 703.94 696.59 C 700.92 694.86 697.93 693.15 694.94 691.40 C 697.71 690.27 700.48 689.14 703.24 687.98 C 702.82 686.52 702.41 685.07 702.00 683.62 C 699.08 684.35 696.19 685.16 693.30 685.98 C 694.60 682.45 695.91 678.92 696.68 675.23 C 695.16 675.15 693.65 675.07 692.15 675.01 C 689.91 679.38 688.26 684.23 685.09 688.03 C 680.75 690.58 675.65 691.50 670.99 693.27 C 672.62 689.88 674.31 686.52 676.03 683.18 C 680.09 682.05 684.20 680.98 688.26 679.81 C 687.52 678.58 686.78 677.36 686.05 676.14 C 683.73 676.78 681.41 677.40 679.10 678.03 C 679.77 675.58 680.43 673.14 681.01 670.67 C 680.27 670.48 678.78 670.09 678.03 669.89 C 676.80 671.90 675.58 673.93 674.38 675.96 C 673.57 673.65 672.73 671.36 671.89 669.07 C 670.50 669.07 669.11 669.07 667.73 669.09 C 668.90 673.08 670.67 676.92 671.30 681.06 C 670.92 684.47 668.71 687.42 667.43 690.56 C 664.96 686.37 663.32 681.68 662.24 676.98 C 663.58 671.38 667.70 666.90 669.62 661.48 C 668.35 660.97 667.09 660.46 665.85 659.97 Z" />
</g>
<g id="#5fd2ffff">
<path fill="#5fd2ff" opacity="1.00" d=" M 385.58 580.55 C 423.89 568.61 466.65 572.68 502.59 590.22 C 529.41 603.97 552.64 624.90 568.27 650.74 C 579.85 669.62 586.54 690.99 590.26 712.71 C 599.99 715.58 610.05 718.00 618.91 723.12 C 638.08 733.84 653.41 751.49 660.53 772.36 C 669.04 795.18 666.63 821.28 656.10 843.03 C 643.12 868.97 617.14 887.60 588.43 891.71 C 534.44 895.50 480.27 890.76 426.23 892.54 C 413.84 892.14 401.45 891.99 389.07 891.95 C 386.01 891.85 383.01 891.92 379.98 891.86 C 378.64 888.81 377.03 885.89 375.48 882.97 C 378.16 882.74 380.99 882.85 383.70 882.69 C 383.71 881.27 383.71 879.85 383.72 878.45 C 380.84 878.21 378.04 878.13 375.20 877.97 C 377.48 874.92 379.79 871.89 381.85 868.69 C 381.05 868.16 379.46 867.10 378.67 866.58 C 375.43 869.55 372.75 873.29 368.91 875.56 C 364.21 876.65 359.33 876.84 354.52 877.22 C 358.66 872.91 362.76 868.32 367.99 865.31 C 374.89 863.66 382.04 864.27 389.07 863.86 C 386.34 858.63 380.33 858.01 375.08 857.26 C 377.45 854.92 379.84 852.61 382.22 850.27 C 381.56 848.95 380.91 847.63 380.27 846.33 C 376.84 848.36 373.48 850.52 370.14 852.71 C 369.84 848.06 369.61 843.48 369.22 838.87 C 367.64 839.92 365.67 840.61 364.53 842.20 C 363.24 847.91 363.30 853.82 362.05 859.56 C 358.62 864.52 353.95 868.45 349.61 872.58 C 350.75 868.12 349.00 862.66 352.06 858.81 C 355.10 854.47 358.91 850.70 361.60 846.12 C 357.94 847.13 354.39 848.49 350.84 849.84 C 350.79 847.69 350.74 845.55 350.69 843.42 C 349.15 843.26 347.61 843.10 346.08 842.97 C 345.83 845.17 345.53 847.27 345.30 849.52 C 341.81 848.27 338.32 847.06 334.67 846.45 C 337.72 850.78 341.45 854.73 343.84 859.52 C 344.49 863.78 344.88 868.14 345.24 872.47 C 341.17 868.06 336.49 864.07 333.23 859.02 C 332.09 852.56 332.69 845.92 332.67 839.38 C 330.96 839.19 329.25 839.00 327.55 838.84 C 326.85 843.15 326.30 847.45 325.73 851.81 C 322.66 848.78 319.35 845.97 315.71 843.64 C 314.46 848.24 316.97 852.27 319.26 856.07 C 315.59 856.49 311.92 856.93 308.27 857.40 C 308.25 859.02 308.23 860.66 308.23 862.31 C 314.54 863.03 321.25 861.90 327.38 863.83 C 332.35 867.61 336.21 872.69 340.35 877.35 C 335.67 876.52 330.89 875.76 326.44 874.20 C 322.37 871.13 318.70 867.50 314.04 865.30 C 315.08 869.00 316.49 872.54 317.87 876.15 C 315.69 876.20 313.51 876.26 311.35 876.34 C 311.31 877.72 311.28 879.11 311.26 880.51 C 313.83 880.69 316.40 880.89 318.99 881.11 C 316.84 884.00 314.71 886.92 312.60 889.85 C 314.02 890.30 315.44 890.76 316.87 891.23 C 320.07 888.26 322.73 884.57 326.53 882.32 C 330.67 881.59 334.96 881.87 339.16 881.65 C 336.05 885.28 333.01 889.00 329.81 892.57 L 329.08 892.70 C 303.72 891.07 278.36 893.28 253.00 892.04 C 220.60 892.24 188.17 891.25 155.80 892.73 C 154.43 892.78 153.07 892.83 151.71 892.87 C 117.85 892.86 84.82 869.17 75.68 836.29 C 70.15 818.69 70.74 799.24 78.20 782.28 C 85.52 764.67 99.46 750.09 116.37 741.43 C 124.09 737.55 132.55 735.72 140.90 733.74 C 145.14 710.22 154.77 687.53 170.06 669.04 C 193.79 638.88 230.83 620.54 268.95 618.05 C 282.74 617.48 296.45 619.24 309.86 622.37 C 313.13 623.15 316.93 623.40 319.18 620.30 C 337.83 602.11 360.62 588.12 385.58 580.55 M 415.45 606.50 C 379.98 607.89 344.99 623.74 321.39 650.37 C 312.73 659.81 318.59 677.29 331.02 679.94 C 341.85 684.06 350.12 674.76 357.44 668.47 C 385.31 642.99 428.69 637.31 462.63 653.43 C 468.23 656.01 474.14 659.46 480.58 657.54 C 492.16 655.71 499.22 641.49 493.93 631.08 C 490.26 623.04 481.47 620.27 474.12 616.82 C 455.56 609.47 435.52 604.81 415.45 606.50 M 518.20 654.48 C 512.16 654.78 506.01 657.51 503.10 663.07 C 496.93 670.70 499.72 683.02 507.27 688.70 C 516.29 696.01 532.14 692.25 535.94 680.98 C 541.80 669.15 531.71 653.37 518.20 654.48 M 424.83 790.86 C 423.62 793.59 422.54 796.35 421.63 799.21 C 418.46 797.09 415.09 795.07 411.15 795.32 C 413.81 800.37 418.33 803.98 422.26 807.98 C 421.79 812.76 421.39 817.62 420.79 822.41 C 418.73 819.85 416.68 817.24 414.92 814.48 C 413.85 810.74 414.98 806.63 414.51 802.86 C 413.45 803.06 412.40 803.27 411.35 803.49 C 411.20 805.89 411.08 808.31 410.98 810.75 C 408.66 809.20 406.27 807.73 403.78 806.49 C 404.65 809.00 405.66 811.47 406.74 813.91 C 404.13 814.20 401.52 814.50 398.93 814.86 C 399.35 815.75 399.77 816.64 400.19 817.55 C 407.16 817.62 414.20 818.56 418.64 824.54 C 414.84 824.62 407.23 824.77 403.43 824.85 C 399.73 820.87 397.30 813.61 390.99 814.10 C 392.12 817.57 394.01 820.73 395.63 824.03 C 393.21 824.14 390.80 824.28 388.40 824.45 C 388.22 825.88 388.05 827.32 387.90 828.77 C 390.39 829.24 392.88 829.73 395.38 830.25 C 393.52 832.55 391.64 834.82 389.77 837.12 C 390.80 838.16 391.83 839.21 392.88 840.27 C 396.55 836.86 399.98 833.10 404.23 830.40 C 408.64 829.48 413.21 830.30 417.68 830.08 C 415.55 832.66 413.28 835.09 411.03 837.57 C 406.45 837.73 401.88 837.95 397.35 838.49 C 400.01 839.80 402.72 840.74 405.55 841.69 C 404.16 843.51 402.80 845.37 401.49 847.27 C 403.93 847.09 406.33 846.61 408.67 845.94 C 409.56 848.48 410.52 851.17 411.59 853.69 C 412.62 849.25 412.92 844.64 413.55 840.16 C 416.12 838.07 418.67 835.94 421.24 833.85 C 420.81 838.73 420.51 843.64 419.25 848.41 C 416.47 853.11 409.46 855.21 410.13 861.57 C 413.56 859.99 416.78 858.01 419.96 855.99 C 419.99 858.70 420.02 861.42 420.06 864.15 C 421.59 863.95 423.13 863.77 424.67 863.59 C 424.82 861.07 424.97 858.56 425.11 856.06 C 428.08 858.34 431.07 860.63 434.14 862.78 C 436.42 856.17 428.82 853.12 425.86 848.51 C 425.13 843.52 426.33 838.40 426.38 833.43 C 428.56 836.23 430.69 839.08 432.34 842.26 C 432.58 845.83 432.67 849.41 432.60 853.02 C 433.63 852.97 434.68 852.94 435.73 852.92 C 436.20 850.58 436.70 848.26 437.20 845.93 C 438.70 847.27 440.20 848.62 441.70 849.98 C 442.42 849.23 443.14 848.49 443.86 847.76 C 442.79 846.31 441.73 844.86 440.68 843.41 C 443.11 842.91 445.54 842.43 447.98 841.97 C 447.96 841.22 447.92 839.73 447.90 838.99 C 444.09 838.89 440.25 838.76 436.48 838.25 C 433.54 836.54 431.61 833.55 429.29 831.16 C 434.24 831.72 439.74 830.49 444.43 832.63 C 447.62 835.16 449.64 838.78 452.24 841.88 C 453.75 841.83 455.25 841.78 456.76 841.73 C 455.38 838.24 453.45 835.02 451.25 832.00 C 454.08 831.87 456.85 831.63 459.72 831.56 C 459.72 830.13 459.71 828.71 459.70 827.30 C 456.92 827.23 453.99 826.94 451.25 827.00 C 453.63 823.60 456.09 820.22 457.64 816.35 C 452.58 818.42 448.44 822.06 444.37 825.60 C 440.65 825.61 433.20 825.64 429.47 825.65 C 431.96 823.49 434.44 821.28 437.27 819.56 C 440.99 819.10 444.78 819.63 448.53 819.64 C 448.71 818.50 448.89 817.37 449.08 816.25 C 446.98 815.85 444.90 815.46 442.82 815.07 C 443.55 812.60 444.11 810.08 444.29 807.51 C 442.16 808.93 440.09 810.43 438.03 811.96 C 437.97 809.24 437.92 806.53 437.87 803.84 C 436.81 804.03 435.75 804.24 434.69 804.46 C 434.49 811.39 433.24 818.23 427.27 822.53 C 427.09 817.74 427.04 812.91 426.98 808.14 C 430.72 805.11 434.44 802.05 438.14 798.97 C 437.88 798.11 437.37 796.40 437.11 795.54 C 433.72 796.71 430.61 798.51 427.63 800.48 C 427.00 797.17 426.51 793.82 424.83 790.86 M 127.42 821.55 C 119.99 822.14 112.67 827.52 111.05 835.02 C 106.94 846.53 117.50 860.71 129.98 858.97 C 140.14 859.58 148.67 849.91 147.92 840.00 C 148.71 829.32 137.81 820.02 127.42 821.55 Z" />
<path fill="#5fd2ff" opacity="1.00" d=" M 354.84 881.47 C 359.28 882.17 363.77 882.73 368.06 884.19 C 371.13 886.23 373.37 889.30 375.95 891.92 C 371.83 892.04 367.76 892.47 363.66 892.35 L 362.90 892.29 C 360.23 888.65 357.50 885.08 354.84 881.47 Z" />
<path fill="#5fd2ff" opacity="1.00" d=" M 338.45 891.14 C 340.30 890.18 342.07 889.09 343.86 888.05 C 344.04 889.41 344.23 890.79 344.43 892.17 C 342.43 891.83 340.44 891.49 338.45 891.14 Z" />
<path fill="#5fd2ff" opacity="1.00" d=" M 349.98 888.33 C 351.45 889.35 352.92 890.39 354.45 891.33 C 352.78 891.56 351.11 891.79 349.45 892.03 C 349.62 890.78 349.80 889.55 349.98 888.33 Z" />
</g>
<g id="#89dcffff">
<path fill="#89dcff" opacity="1.00" d=" M 424.83 790.86 C 426.51 793.82 427.00 797.17 427.63 800.48 C 430.61 798.51 433.72 796.71 437.11 795.54 C 437.37 796.40 437.88 798.11 438.14 798.97 C 434.44 802.05 430.72 805.11 426.98 808.14 C 427.04 812.91 427.09 817.74 427.27 822.53 C 433.24 818.23 434.49 811.39 434.69 804.46 C 435.75 804.24 436.81 804.03 437.87 803.84 C 437.92 806.53 437.97 809.24 438.03 811.96 C 440.09 810.43 442.16 808.93 444.29 807.51 C 444.11 810.08 443.55 812.60 442.82 815.07 C 444.90 815.46 446.98 815.85 449.08 816.25 C 448.89 817.37 448.71 818.50 448.53 819.64 C 444.78 819.63 440.99 819.10 437.27 819.56 C 434.44 821.28 431.96 823.49 429.47 825.65 C 433.20 825.64 440.65 825.61 444.37 825.60 C 448.44 822.06 452.58 818.42 457.64 816.35 C 456.09 820.22 453.63 823.60 451.25 827.00 C 453.99 826.94 456.92 827.23 459.70 827.30 C 459.71 828.71 459.72 830.13 459.72 831.56 C 456.85 831.63 454.08 831.87 451.25 832.00 C 453.45 835.02 455.38 838.24 456.76 841.73 C 455.25 841.78 453.75 841.83 452.24 841.88 C 449.64 838.78 447.62 835.16 444.43 832.63 C 439.74 830.49 434.24 831.72 429.29 831.16 C 431.61 833.55 433.54 836.54 436.48 838.25 C 440.25 838.76 444.09 838.89 447.90 838.99 C 447.92 839.73 447.96 841.22 447.98 841.97 C 445.54 842.43 443.11 842.91 440.68 843.41 C 441.73 844.86 442.79 846.31 443.86 847.76 C 443.14 848.49 442.42 849.23 441.70 849.98 C 440.20 848.62 438.70 847.27 437.20 845.93 C 436.70 848.26 436.20 850.58 435.73 852.92 C 434.68 852.94 433.63 852.97 432.60 853.02 C 432.67 849.41 432.58 845.83 432.34 842.26 C 430.69 839.08 428.56 836.23 426.38 833.43 C 426.33 838.40 425.13 843.52 425.86 848.51 C 428.82 853.12 436.42 856.17 434.14 862.78 C 431.07 860.63 428.08 858.34 425.11 856.06 C 424.97 858.56 424.82 861.07 424.67 863.59 C 423.13 863.77 421.59 863.95 420.06 864.15 C 420.02 861.42 419.99 858.70 419.96 855.99 C 416.78 858.01 413.56 859.99 410.13 861.57 C 409.46 855.21 416.47 853.11 419.25 848.41 C 420.51 843.64 420.81 838.73 421.24 833.85 C 418.67 835.94 416.12 838.07 413.55 840.16 C 412.92 844.64 412.62 849.25 411.59 853.69 C 410.52 851.17 409.56 848.48 408.67 845.94 C 406.33 846.61 403.93 847.09 401.49 847.27 C 402.80 845.37 404.16 843.51 405.55 841.69 C 402.72 840.74 400.01 839.80 397.35 838.49 C 401.88 837.95 406.45 837.73 411.03 837.57 C 413.28 835.09 415.55 832.66 417.68 830.08 C 413.21 830.30 408.64 829.48 404.23 830.40 C 399.98 833.10 396.55 836.86 392.88 840.27 C 391.83 839.21 390.80 838.16 389.77 837.12 C 391.64 834.82 393.52 832.55 395.38 830.25 C 392.88 829.73 390.39 829.24 387.90 828.77 C 388.05 827.32 388.22 825.88 388.40 824.45 C 390.80 824.28 393.21 824.14 395.63 824.03 C 394.01 820.73 392.12 817.57 390.99 814.10 C 397.30 813.61 399.73 820.87 403.43 824.85 C 407.23 824.77 414.84 824.62 418.64 824.54 C 414.20 818.56 407.16 817.62 400.19 817.55 C 399.77 816.64 399.35 815.75 398.93 814.86 C 401.52 814.50 404.13 814.20 406.74 813.91 C 405.66 811.47 404.65 809.00 403.78 806.49 C 406.27 807.73 408.66 809.20 410.98 810.75 C 411.08 808.31 411.20 805.89 411.35 803.49 C 412.40 803.27 413.45 803.06 414.51 802.86 C 414.98 806.63 413.85 810.74 414.92 814.48 C 416.68 817.24 418.73 819.85 420.79 822.41 C 421.39 817.62 421.79 812.76 422.26 807.98 C 418.33 803.98 413.81 800.37 411.15 795.32 C 415.09 795.07 418.46 797.09 421.63 799.21 C 422.54 796.35 423.62 793.59 424.83 790.86 Z" />
<path fill="#89dcff" opacity="1.00" d=" M 327.55 838.84 C 329.25 839.00 330.96 839.19 332.67 839.38 C 332.69 845.92 332.09 852.56 333.23 859.02 C 336.49 864.07 341.17 868.06 345.24 872.47 C 344.88 868.14 344.49 863.78 343.84 859.52 C 341.45 854.73 337.72 850.78 334.67 846.45 C 338.32 847.06 341.81 848.27 345.30 849.52 C 345.53 847.27 345.83 845.17 346.08 842.97 C 347.61 843.10 349.15 843.26 350.69 843.42 C 350.74 845.55 350.79 847.69 350.84 849.84 C 354.39 848.49 357.94 847.13 361.60 846.12 C 358.91 850.70 355.10 854.47 352.06 858.81 C 349.00 862.66 350.75 868.12 349.61 872.58 C 353.95 868.45 358.62 864.52 362.05 859.56 C 363.30 853.82 363.24 847.91 364.53 842.20 C 365.67 840.61 367.64 839.92 369.22 838.87 C 369.61 843.48 369.84 848.06 370.14 852.71 C 373.48 850.52 376.84 848.36 380.27 846.33 C 380.91 847.63 381.56 848.95 382.22 850.27 C 379.84 852.61 377.45 854.92 375.08 857.26 C 380.33 858.01 386.34 858.63 389.07 863.86 C 382.04 864.27 374.89 863.66 367.99 865.31 C 362.76 868.32 358.66 872.91 354.52 877.22 C 359.33 876.84 364.21 876.65 368.91 875.56 C 372.75 873.29 375.43 869.55 378.67 866.58 C 379.46 867.10 381.05 868.16 381.85 868.69 C 379.79 871.89 377.48 874.92 375.20 877.97 C 378.04 878.13 380.84 878.21 383.72 878.45 C 383.71 879.85 383.71 881.27 383.70 882.69 C 380.99 882.85 378.16 882.74 375.48 882.97 C 377.03 885.89 378.64 888.81 379.98 891.86 C 378.96 891.55 377.93 891.52 376.90 891.77 L 375.95 891.92 C 373.37 889.30 371.13 886.23 368.06 884.19 C 363.77 882.73 359.28 882.17 354.84 881.47 C 357.50 885.08 360.23 888.65 362.90 892.29 C 360.27 892.09 357.66 891.87 355.06 891.63 L 354.45 891.33 C 352.92 890.39 351.45 889.35 349.98 888.33 C 349.80 889.55 349.62 890.78 349.45 892.03 C 347.77 892.06 346.10 892.11 344.43 892.17 C 344.23 890.79 344.04 889.41 343.86 888.05 C 342.07 889.09 340.30 890.18 338.45 891.14 L 337.78 891.34 C 335.11 891.71 332.46 892.12 329.81 892.57 C 333.01 889.00 336.05 885.28 339.16 881.65 C 334.96 881.87 330.67 881.59 326.53 882.32 C 322.73 884.57 320.07 888.26 316.87 891.23 C 315.44 890.76 314.02 890.30 312.60 889.85 C 314.71 886.92 316.84 884.00 318.99 881.11 C 316.40 880.89 313.83 880.69 311.26 880.51 C 311.28 879.11 311.31 877.72 311.35 876.34 C 313.51 876.26 315.69 876.20 317.87 876.15 C 316.49 872.54 315.08 869.00 314.04 865.30 C 318.70 867.50 322.37 871.13 326.44 874.20 C 330.89 875.76 335.67 876.52 340.35 877.35 C 336.21 872.69 332.35 867.61 327.38 863.83 C 321.25 861.90 314.54 863.03 308.23 862.31 C 308.23 860.66 308.25 859.02 308.27 857.40 C 311.92 856.93 315.59 856.49 319.26 856.07 C 316.97 852.27 314.46 848.24 315.71 843.64 C 319.35 845.97 322.66 848.78 325.73 851.81 C 326.30 847.45 326.85 843.15 327.55 838.84 Z" />
</g>
<g id="#3f3f3f44">
<path fill="#3f3f3f" opacity="0.27" d=" M 329.08 892.70 L 329.81 892.57 C 332.46 892.12 335.11 891.71 337.78 891.34 C 335.82 894.08 333.35 896.54 331.85 899.60 C 331.02 905.88 330.95 912.26 330.64 918.60 C 328.97 918.79 327.30 918.97 325.64 919.17 C 324.75 914.91 324.28 910.58 323.84 906.27 C 320.78 908.62 318.06 912.03 313.94 912.37 C 311.20 907.79 316.50 904.46 318.83 901.08 C 314.70 900.52 310.57 899.95 306.45 899.35 C 307.03 897.71 307.54 896.05 308.42 894.56 C 315.30 894.05 322.32 894.32 329.08 892.70 Z" />
<path fill="#3f3f3f" opacity="0.27" d=" M 344.43 892.17 C 346.10 892.11 347.77 892.06 349.45 892.03 C 347.48 901.26 357.45 905.62 359.72 913.57 C 355.99 912.17 352.59 910.04 349.18 908.03 C 349.01 910.57 348.82 913.13 348.63 915.71 C 347.24 915.71 345.85 915.71 344.47 915.72 C 344.24 912.71 344.07 909.89 343.87 906.96 C 341.24 909.05 338.58 911.09 335.95 913.21 C 334.88 912.32 333.81 911.42 332.74 910.55 C 335.46 907.65 338.44 904.99 341.26 902.20 C 344.00 899.67 343.51 895.52 344.43 892.17 Z" />
<path fill="#3f3f3f" opacity="0.27" d=" M 355.06 891.63 C 357.66 891.87 360.27 892.09 362.90 892.29 L 363.66 892.35 C 365.06 893.22 366.32 894.28 367.62 895.31 C 374.47 895.83 381.53 895.08 388.23 896.97 C 385.81 902.61 379.49 901.90 374.31 902.30 C 376.33 905.42 378.97 908.29 380.29 911.84 C 379.05 912.73 377.73 913.59 376.22 913.93 C 373.75 912.16 371.50 910.14 369.20 908.18 C 368.41 912.18 367.69 916.23 366.45 920.13 C 365.61 920.06 363.94 919.90 363.11 919.82 C 362.45 919.13 361.80 918.44 361.15 917.77 C 361.61 912.26 362.95 906.76 362.50 901.24 C 360.37 897.77 357.53 894.84 355.06 891.63 Z" />
<path fill="#3f3f3f" opacity="0.27" d=" M 376.90 891.77 C 377.93 891.52 378.96 891.55 379.98 891.86 C 380.22 893.72 376.34 893.66 376.90 891.77 Z" />
<path fill="#3f3f3f" opacity="0.27" d=" M 151.71 892.87 C 153.07 892.83 154.43 892.78 155.80 892.73 C 155.91 897.28 154.85 902.00 155.64 906.56 C 158.43 910.20 161.86 913.29 165.17 916.46 C 164.92 913.99 164.42 909.03 164.17 906.56 C 162.50 903.95 159.95 902.03 157.97 899.74 C 158.34 898.75 158.72 897.76 159.10 896.79 C 160.89 898.05 162.67 899.34 164.43 900.66 C 165.34 898.58 166.30 896.52 167.32 894.50 C 168.01 896.51 168.68 898.53 169.32 900.59 C 171.77 899.72 174.24 898.92 176.78 898.37 C 171.85 903.22 168.34 909.03 168.41 916.24 C 171.98 913.19 175.45 910.04 178.90 906.88 C 178.84 902.21 178.73 897.54 178.74 892.88 C 180.01 893.04 181.29 893.22 182.57 893.42 C 182.75 896.22 182.96 899.21 183.15 902.08 C 185.91 900.41 188.70 898.79 191.67 897.52 C 191.08 900.51 189.91 903.34 188.54 906.05 C 191.09 906.51 193.53 906.46 196.12 907.11 C 195.94 908.56 195.75 910.03 195.56 911.51 C 191.09 911.38 186.61 911.07 182.15 911.35 C 178.42 913.73 175.52 917.14 172.44 920.28 C 180.10 921.14 185.88 917.05 191.48 912.64 C 190.43 915.61 189.00 918.45 187.37 921.16 C 188.81 921.14 191.68 921.09 193.12 921.06 C 192.90 922.25 192.68 923.44 192.47 924.65 C 190.82 924.34 189.17 924.05 187.53 923.76 C 188.93 926.39 190.07 929.22 190.10 932.25 C 187.13 929.90 184.77 926.74 181.40 924.96 C 178.98 924.59 174.15 923.84 171.73 923.47 C 174.77 926.99 177.92 930.42 181.11 933.83 C 185.90 933.91 190.70 934.03 195.49 934.24 C 195.65 935.02 195.99 936.59 196.16 937.38 C 193.31 938.01 190.44 938.52 187.59 939.11 C 188.95 941.76 190.08 944.54 190.68 947.48 C 187.73 946.22 184.96 944.62 182.25 942.93 C 182.01 945.71 181.86 948.92 181.60 951.81 C 180.17 951.56 178.75 951.32 177.33 951.08 C 177.28 946.82 178.06 942.49 177.49 938.26 C 174.77 933.95 171.20 930.31 167.71 926.64 C 166.97 934.08 170.97 939.84 175.84 944.81 C 175.15 945.49 174.46 946.18 173.77 946.88 C 172.04 945.57 170.30 944.28 168.55 943.00 C 167.74 945.27 166.89 947.54 166.01 949.81 C 165.19 947.75 164.40 945.69 163.65 943.64 C 161.29 944.59 158.87 945.42 156.42 946.13 C 158.47 942.75 161.18 939.82 163.41 936.59 C 164.68 933.49 164.74 930.05 165.31 926.80 C 161.88 929.83 158.53 932.95 155.18 936.09 C 155.04 940.92 154.96 945.84 154.72 950.71 C 153.29 950.71 151.86 950.71 150.44 950.72 C 150.28 947.83 150.16 945.13 150.02 942.33 C 147.69 943.89 145.31 945.44 142.65 946.42 C 141.83 943.26 143.86 940.60 145.49 938.14 C 142.63 937.56 139.78 936.90 136.95 936.22 C 136.99 935.38 137.07 933.71 137.11 932.87 C 141.66 932.75 146.22 932.84 150.75 932.46 C 154.67 930.02 158.07 926.89 161.40 923.73 C 154.09 923.44 148.23 927.24 142.57 931.22 C 143.16 928.58 144.23 926.08 145.35 923.63 C 143.87 923.26 140.90 922.51 139.42 922.13 C 141.58 921.11 143.73 920.01 145.90 919.05 C 144.55 917.05 143.19 915.06 141.86 913.06 C 142.71 912.74 143.56 912.44 144.42 912.16 C 148.52 917.60 154.20 920.83 161.24 920.57 C 158.20 917.00 155.06 913.53 151.88 910.11 C 147.25 910.02 142.62 910.02 137.99 909.97 C 138.00 908.61 138.02 907.26 138.04 905.92 C 140.88 905.60 143.72 905.28 146.58 905.03 C 144.89 902.49 142.95 899.76 143.60 896.53 C 146.35 897.73 148.77 899.52 151.05 901.46 C 151.21 898.50 151.41 895.76 151.71 892.87 Z" />
</g>
<g id="#acbac7cb">
<path fill="#acbac7" opacity="0.80" d=" M 966.00 922.87 C 966.65 923.04 967.96 923.38 968.61 923.55 C 968.44 925.55 968.31 927.59 968.21 929.67 C 971.22 928.33 974.53 927.27 977.77 928.54 C 974.49 931.02 970.79 932.96 967.77 935.77 C 965.48 939.56 965.30 944.26 964.20 948.49 C 966.40 946.72 968.85 945.14 970.58 942.86 C 971.79 940.03 972.57 937.10 973.48 934.18 C 974.10 934.13 975.33 934.04 975.94 933.99 C 975.76 935.48 975.40 938.46 975.22 939.96 C 977.15 939.41 979.08 938.87 981.03 938.40 C 980.20 940.24 979.30 942.05 978.38 943.86 C 979.88 944.25 981.39 944.66 982.91 945.08 C 982.93 945.82 982.97 947.31 982.99 948.06 C 979.74 947.48 976.52 946.34 973.19 946.55 C 970.69 947.27 968.64 948.97 966.51 950.39 C 970.26 951.24 973.99 952.06 977.77 952.90 C 981.57 950.51 985.32 947.89 989.62 946.44 C 988.28 949.12 986.60 951.61 984.66 953.88 C 986.82 955.09 988.94 956.41 990.89 957.96 C 988.35 958.09 985.85 958.24 983.38 958.40 C 984.71 961.35 985.70 964.61 984.45 967.78 C 981.95 964.48 980.02 960.78 977.24 957.75 C 973.78 955.53 969.39 955.56 965.48 954.74 C 966.89 956.77 968.11 959.08 970.10 960.65 C 972.82 961.82 975.93 962.59 978.83 963.46 C 978.88 964.07 978.98 965.27 979.04 965.87 C 977.57 965.90 974.65 965.97 973.19 966.01 C 973.81 967.80 974.42 969.60 975.02 971.43 C 973.03 970.44 971.08 969.41 969.16 968.34 C 968.74 969.85 968.32 971.37 967.91 972.90 C 967.20 972.93 965.78 972.97 965.07 972.99 C 965.65 969.75 966.73 966.51 966.48 963.19 C 965.72 960.63 963.92 958.56 962.43 956.41 C 961.88 960.14 960.29 963.89 960.74 967.69 C 962.45 971.82 965.57 975.57 965.64 980.26 C 963.55 978.30 961.55 976.39 959.54 974.43 C 958.20 976.70 956.72 978.90 954.96 980.88 C 954.89 978.42 954.87 975.99 954.88 973.59 C 951.79 974.76 948.46 975.61 945.23 974.46 C 948.50 971.96 952.21 970.02 955.25 967.24 C 957.45 963.78 957.43 959.39 958.26 955.48 C 956.21 956.89 953.91 958.11 952.35 960.10 C 951.04 962.82 950.45 965.93 949.53 968.83 C 948.93 968.88 947.73 968.98 947.13 969.03 C 947.10 967.60 947.05 964.76 947.02 963.34 C 945.21 963.96 943.38 964.54 941.56 965.12 C 942.59 963.12 943.72 961.18 944.87 959.26 C 943.26 958.80 941.68 958.35 940.10 957.90 C 940.07 957.19 940.03 955.78 940.01 955.07 C 943.23 955.64 946.47 956.73 949.79 956.44 C 952.27 955.71 954.35 954.08 956.51 952.73 C 952.69 951.88 948.91 951.08 945.12 950.26 C 941.28 952.76 937.53 956.06 932.67 955.56 C 934.59 953.51 936.59 951.53 938.59 949.55 C 936.29 948.21 934.09 946.73 932.12 944.96 C 934.63 944.88 937.16 944.84 939.72 944.83 C 938.62 942.18 937.64 939.49 936.88 936.73 C 937.59 936.55 939.01 936.19 939.72 936.01 C 941.62 939.16 943.43 942.36 945.70 945.29 C 949.56 947.34 954.07 947.87 958.27 949.04 C 956.58 946.75 955.16 944.17 952.89 942.41 C 950.00 941.16 947.07 940.63 944.13 939.73 C 944.10 939.05 944.04 937.70 944.01 937.02 C 945.47 937.21 948.40 937.60 949.86 937.79 C 949.29 935.85 948.74 933.91 948.27 931.96 C 950.12 932.84 951.94 933.82 953.75 934.83 C 954.18 933.24 954.64 931.66 955.10 930.10 C 955.81 930.07 957.22 930.03 957.93 930.01 C 957.34 933.24 956.26 936.48 956.53 939.80 C 957.28 942.38 959.07 944.49 960.56 946.69 C 960.96 942.88 962.68 939.15 962.25 935.27 C 960.56 931.19 958.04 927.54 956.59 923.38 C 959.26 924.76 961.75 926.50 964.04 928.47 C 964.68 926.60 965.33 924.73 966.00 922.87 Z" />
<path fill="#acbac7" opacity="0.80" d=" M 687.53 1010.88 C 693.85 1012.22 695.73 1018.62 697.58 1023.92 C 699.41 1020.98 700.63 1017.56 703.16 1015.14 C 705.18 1013.39 707.49 1015.79 709.49 1016.46 C 707.97 1019.96 706.40 1023.43 704.90 1026.96 C 709.56 1026.14 714.21 1025.41 718.92 1024.84 C 719.37 1026.65 719.82 1028.47 720.28 1030.31 C 713.87 1032.97 706.73 1033.57 700.51 1036.65 C 696.09 1042.14 693.65 1048.89 690.80 1055.26 C 695.27 1053.62 700.08 1052.60 704.28 1050.28 C 707.40 1045.99 708.68 1040.68 710.89 1035.93 C 712.51 1036.01 714.14 1036.10 715.77 1036.21 C 715.16 1040.25 713.79 1044.11 712.33 1047.92 C 715.44 1047.17 718.52 1046.41 721.68 1045.80 C 722.16 1046.99 722.65 1048.19 723.16 1049.40 C 720.17 1051.10 717.04 1052.51 713.88 1053.83 C 717.02 1055.63 720.19 1057.49 723.36 1059.30 C 722.59 1060.94 721.81 1062.58 721.03 1064.22 C 716.19 1061.80 711.82 1058.33 706.63 1056.71 C 702.08 1056.70 697.89 1059.08 693.77 1060.77 C 698.54 1064.02 703.67 1066.80 709.01 1069.04 C 712.19 1070.50 715.48 1068.74 718.41 1067.52 C 723.00 1065.45 727.88 1063.15 733.06 1064.09 C 733.03 1065.76 733.01 1067.45 733.00 1069.15 C 728.94 1070.98 724.88 1072.81 720.81 1074.62 C 723.87 1076.36 726.97 1078.13 730.02 1079.95 C 729.98 1081.25 729.95 1082.57 729.93 1083.90 C 728.87 1084.53 727.81 1085.17 726.76 1085.83 C 723.59 1084.52 720.42 1083.20 717.27 1081.91 C 718.35 1086.52 719.35 1091.14 720.37 1095.80 C 718.32 1095.99 716.06 1096.98 714.12 1095.94 C 709.18 1089.96 712.37 1078.56 704.01 1075.04 C 699.20 1072.31 694.14 1070.06 689.12 1067.78 C 690.53 1072.13 691.98 1076.51 693.34 1080.91 C 698.62 1083.52 703.93 1086.08 709.12 1088.89 C 708.35 1090.31 707.58 1091.73 706.82 1093.17 C 703.24 1091.78 699.67 1090.33 696.13 1088.93 C 697.13 1091.90 698.12 1094.87 699.10 1097.85 C 697.68 1098.60 696.27 1099.36 694.86 1100.13 C 693.29 1097.19 691.90 1094.16 690.61 1091.10 C 688.51 1094.45 686.41 1097.83 684.21 1101.13 C 683.07 1099.65 680.66 1098.36 681.36 1096.19 C 682.77 1091.46 686.84 1087.86 687.74 1082.98 C 687.01 1078.12 685.03 1073.57 683.69 1068.89 C 680.70 1075.47 676.97 1081.79 674.91 1088.77 C 675.68 1094.85 679.79 1099.95 680.69 1106.01 C 681.00 1108.51 677.99 1109.51 676.53 1111.02 C 674.17 1106.77 671.90 1102.52 669.89 1098.13 C 667.46 1102.69 664.39 1107.76 658.47 1107.05 C 659.45 1102.67 660.94 1098.49 662.48 1094.31 C 657.39 1095.40 652.30 1096.68 647.07 1096.49 C 647.24 1092.29 649.26 1089.90 653.12 1089.31 C 657.93 1087.55 662.85 1086.17 667.77 1084.74 C 670.81 1078.42 673.90 1072.14 676.93 1065.82 C 672.30 1067.56 667.66 1069.29 663.05 1071.06 C 660.13 1076.40 659.25 1084.92 651.99 1086.20 C 652.58 1081.95 653.61 1077.88 654.83 1073.80 C 652.18 1074.52 649.54 1075.30 646.91 1076.09 C 646.11 1074.43 645.32 1072.76 644.56 1071.10 C 647.30 1069.95 650.05 1068.85 652.82 1067.78 C 649.45 1065.22 646.09 1062.64 643.12 1059.64 C 649.75 1056.52 655.23 1062.80 661.16 1064.57 C 665.98 1064.06 670.53 1061.91 675.21 1060.61 C 668.90 1057.43 662.77 1053.75 655.99 1051.71 C 648.88 1052.83 642.81 1058.19 635.37 1057.76 C 635.34 1056.42 635.26 1053.74 635.23 1052.40 C 638.96 1050.10 642.98 1048.31 646.98 1046.55 C 643.65 1044.76 640.32 1043.02 637.04 1041.19 C 637.00 1040.15 636.91 1038.08 636.87 1037.04 C 641.42 1035.91 645.83 1037.58 649.97 1039.41 C 649.78 1034.03 644.14 1024.46 653.60 1024.02 C 655.58 1030.92 657.59 1037.83 659.36 1044.79 C 665.72 1047.88 672.08 1050.99 678.52 1053.95 C 676.01 1048.64 676.27 1040.47 669.91 1038.17 C 665.80 1036.35 661.61 1034.69 657.75 1032.39 C 660.86 1027.17 666.55 1030.39 670.90 1031.87 C 670.14 1028.94 669.33 1025.86 668.70 1022.95 C 670.16 1022.53 671.64 1022.12 673.12 1021.73 C 674.36 1024.44 675.51 1027.20 676.59 1029.99 C 678.71 1026.86 680.81 1023.72 683.06 1020.69 C 684.41 1021.80 685.76 1022.93 687.12 1024.06 C 684.49 1028.83 681.72 1033.52 678.90 1038.19 C 680.66 1042.54 681.95 1047.18 684.31 1051.29 C 687.17 1045.29 691.55 1039.66 692.67 1033.00 C 691.69 1025.49 685.13 1018.82 687.53 1010.88 Z" />
</g>
</svg>
