<?xml version="1.0" encoding="UTF-8" ?>
<!DOCTYPE svg PUBLIC "-//W3C//DTD SVG 1.1//EN" "http://www.w3.org/Graphics/SVG/1.1/DTD/svg11.dtd">
<svg width="1100pt" height="1200pt" viewBox="0 0 1100 1200" version="1.1" xmlns="http://www.w3.org/2000/svg">
<g id="#ddddddff">
<path fill="#dddddd" opacity="1.00" d=" M 574.42 352.93 C 576.68 351.42 580.32 351.42 582.58 352.93 C 587.69 353.13 592.81 352.86 597.93 353.04 C 598.34 353.27 599.17 353.72 599.58 353.94 C 602.53 354.39 605.99 353.06 608.58 354.91 C 610.56 355.17 612.91 354.41 614.57 355.90 C 615.85 355.97 617.13 356.02 618.43 356.10 C 620.12 357.69 622.75 356.37 624.55 357.80 C 625.90 358.02 627.38 357.93 628.55 358.79 C 629.90 359.03 631.38 358.93 632.55 359.80 C 633.90 360.05 635.42 359.89 636.56 360.84 C 637.03 360.92 637.97 361.09 638.44 361.17 C 639.40 361.67 640.42 362.04 641.50 362.28 C 642.84 362.79 644.23 363.21 645.54 363.82 C 646.02 363.91 646.98 364.09 647.46 364.18 C 649.16 364.89 650.92 365.49 652.61 366.28 C 654.25 366.96 655.95 367.50 657.60 368.21 C 659.70 369.71 662.31 370.10 664.61 371.21 C 665.87 372.00 667.23 372.63 668.59 373.26 C 669.90 373.99 671.24 374.67 672.64 375.24 C 674.39 376.09 675.85 377.38 677.55 378.33 C 678.06 378.56 679.06 379.02 679.56 379.25 C 687.52 383.37 694.56 389.03 702.17 393.75 C 705.88 397.50 710.22 400.48 714.31 403.77 C 720.11 409.62 725.92 415.45 731.78 421.24 C 733.76 422.97 734.60 425.63 736.73 427.24 C 739.15 429.18 740.60 431.94 742.28 434.48 C 745.85 439.00 749.34 443.61 752.29 448.58 C 753.16 450.68 754.83 452.31 755.71 454.43 C 756.45 455.88 757.51 457.13 758.33 458.55 C 759.43 460.85 760.51 463.16 761.75 465.40 C 762.23 466.46 762.74 467.52 763.25 468.59 C 764.05 469.88 764.64 471.28 765.16 472.73 C 758.54 471.08 751.74 470.15 744.93 469.94 C 729.69 470.68 714.23 473.42 700.62 480.64 C 691.46 484.87 683.25 490.99 676.24 498.23 C 672.60 501.95 668.66 505.42 665.64 509.70 C 656.42 522.62 649.77 537.56 647.63 553.37 C 643.13 553.33 641.66 548.64 639.27 545.69 C 633.11 537.30 626.28 529.35 618.68 522.24 C 609.32 514.45 599.84 506.61 588.96 501.00 C 571.34 491.12 551.72 484.66 531.64 482.44 C 522.27 482.05 512.91 479.92 503.55 481.53 C 491.55 482.24 479.69 484.48 468.14 487.76 C 462.98 482.62 458.19 477.09 452.38 472.66 C 444.20 466.40 436.19 459.79 427.01 454.99 C 389.05 432.64 342.63 425.70 299.60 434.60 C 293.37 435.95 287.31 438.02 280.99 438.97 L 281.00 438.28 C 281.61 438.05 282.84 437.59 283.46 437.37 C 285.89 435.90 288.09 434.08 290.55 432.67 C 291.05 432.44 292.06 431.98 292.56 431.75 C 293.87 431.01 295.22 430.36 296.59 429.74 C 298.19 428.87 299.83 428.10 301.44 427.26 C 301.93 427.02 302.91 426.53 303.40 426.29 C 306.20 424.49 309.61 424.01 312.40 422.21 C 313.73 421.61 315.08 421.04 316.52 420.73 C 317.85 420.19 319.23 419.76 320.54 419.18 C 321.02 419.09 321.97 418.91 322.44 418.83 C 323.41 418.34 324.42 417.95 325.48 417.68 C 326.46 417.32 327.46 416.99 328.47 416.68 C 329.70 416.04 331.10 415.98 332.45 415.79 C 333.61 414.93 335.09 415.03 336.45 414.80 C 338.24 413.37 340.85 414.66 342.57 413.11 C 343.52 413.03 344.47 412.96 345.43 412.89 C 347.73 410.81 351.31 413.21 353.58 411.07 C 355.52 411.00 357.47 410.99 359.42 410.93 C 360.60 409.62 362.40 410.07 363.93 409.97 C 374.28 410.07 384.63 409.91 394.98 410.04 C 395.38 410.26 396.18 410.71 396.58 410.93 C 398.85 411.00 401.14 410.99 403.42 411.07 C 405.04 412.61 407.43 411.80 409.43 412.09 C 411.11 413.74 413.84 412.27 415.57 413.87 C 417.24 414.07 419.15 413.64 420.56 414.85 C 421.03 414.92 421.97 415.08 422.44 415.15 C 423.57 416.12 425.10 415.94 426.47 416.18 C 427.39 417.18 428.27 417.25 429.11 416.39 C 433.19 412.75 436.44 408.09 441.17 405.25 C 450.36 395.86 461.59 388.85 472.57 381.71 C 474.38 380.95 475.86 379.64 477.55 378.67 C 479.19 377.91 480.81 377.12 482.40 376.25 C 483.46 375.76 484.52 375.24 485.59 374.75 C 486.89 374.01 488.23 373.35 489.59 372.73 C 491.18 371.88 492.83 371.13 494.39 370.22 C 496.68 369.10 499.29 368.70 501.40 367.21 C 503.06 366.48 504.79 365.90 506.51 365.30 C 507.56 365.04 508.58 364.66 509.56 364.17 C 510.03 364.08 510.98 363.91 511.45 363.82 C 512.76 363.21 514.15 362.80 515.50 362.28 C 516.56 362.04 517.58 361.67 518.56 361.17 C 519.03 361.09 519.97 360.92 520.44 360.84 C 521.57 359.89 523.08 360.04 524.45 359.79 C 525.61 358.94 527.09 359.03 528.45 358.79 C 529.61 357.94 531.09 358.02 532.45 357.79 C 533.89 356.70 535.75 357.05 537.43 356.87 C 538.82 355.63 540.75 356.09 542.43 355.87 C 544.11 354.44 546.42 355.16 548.42 354.91 C 551.01 352.64 555.01 355.37 557.58 353.06 C 563.19 352.89 568.81 353.11 574.42 352.93 Z" />
<path fill="#dddddd" opacity="1.00" d=" M 713.35 588.21 C 739.37 566.76 772.29 553.59 806.04 551.96 C 812.68 552.04 819.33 551.90 825.98 552.01 C 838.75 553.01 851.37 555.60 863.62 559.36 C 882.01 565.22 899.14 574.74 914.22 586.75 C 921.43 592.13 927.25 599.06 933.75 605.24 C 949.04 622.40 960.75 642.88 967.10 664.99 C 967.27 665.38 967.63 666.16 967.80 666.55 C 968.04 667.89 967.87 669.42 968.84 670.56 C 968.92 671.03 969.08 671.97 969.16 672.44 C 970.10 673.56 969.94 675.08 970.20 676.45 C 971.47 678.19 970.86 680.42 971.09 682.43 C 972.82 684.88 971.38 688.29 973.17 690.86 C 975.22 691.72 977.49 691.90 979.55 692.77 C 980.88 692.97 982.27 693.05 983.53 693.67 C 984.52 693.98 985.52 694.32 986.52 694.69 C 987.52 694.98 988.52 695.31 989.52 695.69 C 990.47 695.97 991.41 696.30 992.35 696.67 C 994.35 697.72 996.54 698.30 998.61 699.22 C 999.53 699.74 1000.47 700.23 1001.44 700.71 C 1006.72 703.99 1011.83 707.54 1016.79 711.28 C 1025.14 719.36 1033.40 727.87 1038.26 738.59 C 1038.98 739.88 1039.62 741.23 1040.27 742.59 C 1041.40 744.37 1041.91 746.44 1042.72 748.39 C 1043.34 749.70 1043.94 751.05 1044.33 752.48 C 1045.04 754.12 1044.84 756.04 1045.87 757.57 C 1045.94 758.51 1046.02 759.47 1046.12 760.43 C 1047.73 762.14 1046.22 764.91 1047.94 766.58 C 1048.52 770.18 1046.88 774.39 1048.95 777.58 C 1048.82 779.57 1049.66 781.96 1048.06 783.58 C 1047.48 787.18 1049.07 791.34 1047.09 794.58 C 1046.86 796.56 1047.48 798.80 1046.20 800.55 C 1046.00 801.89 1045.93 803.28 1045.34 804.53 C 1045.03 805.57 1044.64 806.58 1044.17 807.56 C 1044.09 808.03 1043.92 808.97 1043.83 809.44 C 1043.32 810.40 1042.94 811.42 1042.70 812.49 C 1041.99 814.50 1041.40 816.58 1040.27 818.41 C 1039.61 819.75 1038.96 821.10 1038.33 822.45 C 1037.34 824.13 1036.04 825.61 1035.29 827.43 C 1032.38 832.67 1028.12 836.92 1024.73 841.78 C 1022.18 844.21 1019.97 847.07 1016.83 848.75 C 1013.61 852.31 1009.46 854.77 1005.43 857.29 C 1003.62 858.05 1002.13 859.34 1000.45 860.33 C 999.10 860.96 997.75 861.61 996.42 862.26 C 994.59 863.40 992.49 863.97 990.50 864.72 C 989.02 865.00 987.67 865.64 986.37 866.34 C 985.18 866.95 983.83 867.00 982.55 867.21 C 981.37 868.05 979.89 867.97 978.55 868.20 C 976.47 869.91 973.35 867.99 971.42 869.94 C 968.14 870.47 964.30 868.95 961.42 870.94 C 929.95 871.06 898.48 871.01 867.01 870.96 C 866.62 870.74 865.82 870.29 865.42 870.06 C 850.81 869.96 836.19 869.96 821.58 870.06 C 818.18 872.07 813.78 870.60 809.99 870.96 C 809.60 870.73 808.82 870.29 808.42 870.06 C 760.63 869.94 712.83 869.99 665.04 870.04 C 664.63 870.27 663.83 870.71 663.42 870.94 C 661.14 871.02 658.85 871.02 656.58 870.94 C 655.40 869.61 653.58 870.06 652.06 869.97 C 614.90 870.08 577.74 869.90 540.58 870.06 C 539.08 871.56 536.85 870.84 534.99 871.04 C 533.13 870.84 530.90 871.56 529.42 870.06 C 526.80 869.97 524.19 870.01 521.58 869.94 C 519.90 868.24 517.19 869.70 515.44 868.16 C 514.97 868.07 514.03 867.91 513.56 867.83 C 512.05 866.92 510.23 867.01 508.64 866.36 C 506.41 865.04 503.76 864.69 501.59 863.26 C 500.23 862.62 498.89 861.98 497.59 861.26 C 496.23 860.61 494.89 859.97 493.55 859.32 C 490.40 857.63 487.84 855.14 484.84 853.24 C 482.56 851.51 481.09 848.75 478.33 847.67 C 476.85 844.26 473.25 842.53 471.27 839.48 C 469.15 836.08 466.78 832.84 464.67 829.45 C 464.44 828.95 463.98 827.94 463.76 827.43 C 462.22 824.93 461.26 822.16 460.18 819.46 C 460.09 818.98 459.92 818.02 459.83 817.54 C 459.23 816.19 458.77 814.79 458.16 813.46 C 458.08 812.99 457.92 812.03 457.84 811.56 C 456.89 810.41 457.04 808.89 456.80 807.55 C 455.38 805.50 456.20 802.89 455.93 800.58 C 454.17 798.46 455.30 795.49 454.96 793.00 C 454.71 785.19 455.80 777.39 457.73 769.83 C 461.16 756.61 468.71 744.84 477.84 734.83 C 484.29 728.40 491.99 723.45 499.85 718.93 C 501.02 720.42 502.18 721.93 503.35 723.44 C 502.53 723.68 500.91 724.16 500.09 724.40 C 500.08 725.01 500.05 726.22 500.04 726.83 C 501.24 726.90 502.44 726.98 503.66 727.07 C 503.34 729.28 503.39 731.52 503.96 733.70 C 505.82 731.21 507.05 728.31 508.93 725.84 C 511.10 724.43 513.86 724.39 516.33 723.84 C 514.54 727.05 513.13 730.80 509.97 732.92 C 507.14 733.97 504.04 733.78 501.14 734.47 C 500.40 735.48 499.95 736.66 499.42 737.80 C 502.03 737.92 504.65 738.01 507.28 738.10 C 506.53 739.40 505.79 740.71 505.05 742.03 C 505.34 742.66 505.91 743.92 506.20 744.55 C 508.02 743.24 509.68 741.70 511.08 739.95 C 511.84 742.14 512.62 744.31 513.42 746.50 C 514.36 746.10 515.23 745.59 516.01 744.95 C 516.01 741.55 514.81 738.31 513.95 735.07 C 515.96 732.07 517.88 729.01 519.75 725.92 C 520.38 728.52 521.02 731.12 521.63 733.74 C 519.22 736.16 517.43 739.13 516.56 742.45 C 518.83 741.38 520.84 739.86 522.65 738.14 C 522.99 739.26 523.34 740.38 523.69 741.51 C 524.22 741.65 525.28 741.94 525.82 742.08 C 525.89 740.50 525.98 738.92 526.06 737.36 C 528.15 738.38 530.41 738.98 532.75 739.12 C 530.75 735.99 527.48 734.16 524.26 732.55 C 523.86 730.28 523.48 728.02 523.10 725.76 C 526.23 727.53 530.14 728.75 532.07 732.01 C 533.10 735.23 533.26 738.65 534.03 741.95 C 534.73 741.96 536.14 741.98 536.84 741.99 C 536.96 739.60 537.08 737.22 537.22 734.85 C 538.62 735.62 540.03 736.40 541.44 737.20 C 542.08 736.26 542.72 735.32 543.37 734.39 C 542.13 733.13 540.90 731.89 539.68 730.65 C 541.99 729.73 544.30 728.79 546.58 727.79 C 545.64 727.02 544.77 726.19 543.75 725.55 C 540.74 725.87 537.96 727.34 534.94 727.59 C 531.22 726.97 528.35 724.24 525.49 721.99 C 527.85 721.42 530.25 720.32 532.72 720.63 C 535.67 721.90 537.84 725.66 541.48 724.36 C 540.12 722.77 538.69 721.26 537.21 719.82 C 538.80 718.78 540.34 717.64 541.72 716.32 C 539.92 716.17 538.14 716.07 536.35 715.99 C 537.34 713.87 537.93 711.61 538.13 709.29 C 535.24 711.09 533.92 714.33 531.74 716.79 C 529.74 718.31 527.06 718.42 524.71 719.05 C 526.52 715.82 528.09 712.29 530.89 709.78 C 534.58 708.64 538.62 708.72 542.19 707.01 C 540.08 704.68 536.88 704.87 534.02 704.77 C 534.92 702.97 535.83 701.13 535.98 699.10 C 533.50 698.15 531.94 700.68 530.10 701.82 C 528.64 700.40 528.36 698.17 527.52 696.39 C 526.64 698.31 525.84 700.29 525.53 702.40 C 525.37 700.79 525.15 699.19 524.96 697.59 C 526.00 696.48 527.44 695.61 528.01 694.13 C 534.23 674.67 543.97 656.01 558.07 641.08 C 560.77 637.48 564.06 634.40 567.59 631.63 C 574.56 625.10 582.27 619.33 590.68 614.77 C 606.46 604.97 624.63 599.43 642.99 597.09 C 661.66 594.28 680.77 596.67 698.85 601.75 C 703.52 597.06 707.86 591.98 713.35 588.21 M 798.41 584.45 C 795.28 585.05 792.09 584.98 788.93 585.12 C 756.57 588.83 725.50 604.40 703.84 628.83 C 700.60 633.40 699.00 639.50 701.12 644.89 C 702.78 652.39 709.71 657.84 717.16 658.83 C 722.09 659.80 726.82 657.38 730.87 654.83 C 735.11 652.17 737.98 647.95 741.87 644.87 C 753.73 634.74 768.32 628.12 783.43 624.49 C 790.54 623.06 797.82 622.93 804.98 621.90 C 813.69 622.66 822.48 623.62 830.95 625.97 C 838.69 627.90 845.78 631.68 853.05 634.88 C 859.24 637.49 866.56 635.75 871.77 631.77 C 879.93 624.77 880.49 610.75 872.73 603.26 C 868.93 600.11 864.38 598.08 859.89 596.16 C 846.04 589.91 831.13 585.99 815.99 584.73 C 810.18 583.82 804.23 583.52 798.41 584.45 M 901.26 632.67 C 896.18 632.79 891.01 634.62 887.70 638.63 C 883.70 642.22 882.54 647.82 882.91 652.98 C 882.78 658.74 886.54 663.71 890.79 667.20 C 895.66 670.46 902.08 671.08 907.68 669.57 C 913.70 667.40 918.51 662.23 920.10 656.01 C 922.18 650.34 919.66 644.27 916.48 639.56 C 912.94 634.98 907.03 632.37 901.26 632.67 M 652.23 697.96 C 651.43 700.92 650.89 703.95 650.70 707.02 C 648.86 705.22 646.96 703.49 645.04 701.78 C 644.49 702.15 643.38 702.88 642.82 703.24 C 642.79 706.42 644.95 708.74 647.04 710.87 C 643.47 711.15 639.25 710.08 636.43 712.86 C 639.78 718.17 646.57 714.95 651.59 716.32 C 655.10 718.80 657.63 722.38 660.00 725.91 C 657.11 725.95 654.14 726.32 651.30 725.63 C 648.10 723.12 646.44 719.09 643.03 716.75 C 641.15 719.58 643.28 722.28 644.84 724.65 C 642.76 725.14 639.84 724.68 638.78 727.02 C 639.92 729.29 642.81 728.83 644.91 729.33 C 642.77 731.51 639.80 734.05 641.94 737.28 C 645.28 735.27 647.17 731.65 650.31 729.44 C 653.57 729.49 656.81 730.08 660.07 730.30 C 657.09 733.25 653.88 735.98 650.56 738.54 C 645.99 740.57 641.02 736.71 636.38 738.37 C 634.91 739.46 635.16 741.51 636.76 742.35 C 639.19 743.05 641.74 743.27 644.18 743.98 C 642.64 746.04 639.63 747.81 640.10 750.72 C 642.63 753.54 645.65 749.49 647.82 748.04 C 647.88 750.58 647.80 753.17 648.34 755.68 C 648.91 757.63 651.86 757.32 652.68 755.75 C 653.63 751.71 652.33 747.45 653.37 743.45 C 656.10 739.54 660.19 736.87 663.98 734.08 C 663.20 737.40 663.46 741.00 662.23 744.17 C 659.70 746.47 656.80 748.36 654.62 751.02 C 655.38 751.72 656.14 752.43 656.92 753.15 C 658.94 751.74 660.99 750.36 663.08 749.04 C 662.84 750.73 662.60 752.44 662.35 754.15 C 663.38 754.48 664.42 754.81 665.47 755.16 C 665.95 753.43 666.45 751.72 666.95 750.01 C 668.83 751.39 670.70 752.79 672.57 754.20 C 673.11 753.18 674.13 752.26 673.98 751.02 C 672.32 748.11 669.25 746.36 667.41 743.59 C 666.30 740.72 666.93 737.55 667.99 734.77 C 671.48 737.69 674.42 741.30 676.87 745.11 C 676.70 749.21 675.27 753.24 675.73 757.36 C 675.73 759.01 677.47 759.33 678.72 758.77 C 681.21 756.59 680.85 752.98 681.30 750.02 C 683.14 751.74 684.91 753.57 687.01 755.00 C 688.87 754.68 689.41 752.73 688.97 751.11 C 687.93 749.24 686.39 747.72 684.98 746.14 C 687.91 746.07 690.87 746.17 693.78 745.66 C 694.99 744.96 694.76 743.33 695.17 742.20 C 690.46 740.12 685.29 741.46 680.39 740.69 C 676.95 738.14 674.80 734.28 672.08 731.05 C 674.93 731.01 677.86 730.63 680.67 731.35 C 684.17 733.62 685.17 739.39 690.18 739.17 C 689.82 736.68 688.80 734.37 687.32 732.36 C 689.74 732.03 692.82 732.03 693.42 729.04 C 691.34 728.44 689.23 727.98 687.12 727.60 C 689.20 725.52 692.15 722.96 690.04 719.85 C 686.68 721.36 684.43 724.32 681.64 726.58 C 678.48 727.49 675.13 726.93 671.90 726.81 C 674.79 723.14 678.92 720.81 682.13 717.48 C 686.11 717.81 690.00 718.79 693.99 719.01 C 696.39 719.52 697.71 715.52 695.26 714.77 C 692.90 713.92 690.42 713.46 688.02 712.80 C 689.61 710.74 694.04 707.60 690.68 705.25 C 688.04 704.29 686.11 707.67 684.14 709.05 C 684.08 706.46 684.22 703.83 683.58 701.32 C 682.91 699.45 680.57 700.28 679.10 699.90 C 678.67 704.45 679.58 709.16 678.54 713.62 C 675.87 717.49 671.58 719.81 668.14 722.92 C 668.65 719.75 668.71 716.51 669.43 713.39 C 671.17 710.50 674.81 709.42 676.77 706.69 C 677.19 705.51 676.48 704.09 675.14 704.14 C 672.95 705.15 671.02 706.60 669.04 707.94 C 669.42 705.34 670.05 702.22 667.18 700.82 C 666.29 702.82 665.45 704.85 664.64 706.89 C 663.14 705.53 661.73 704.02 659.91 703.09 C 658.51 703.17 657.25 705.43 658.37 706.61 C 660.31 708.67 663.13 709.89 664.62 712.38 C 665.39 715.61 665.72 719.52 663.48 722.28 C 661.12 718.77 658.07 715.85 655.43 712.61 C 654.67 708.30 656.98 703.94 656.32 699.57 C 655.96 697.58 653.66 698.17 652.23 697.96 M 876.74 706.69 C 875.01 709.56 875.03 713.02 874.64 716.25 C 870.77 714.59 869.39 710.24 866.26 707.72 C 864.31 706.09 861.25 707.26 860.23 709.39 C 859.63 711.43 861.13 713.20 862.28 714.73 C 865.71 718.89 869.03 723.15 872.56 727.24 C 871.53 734.49 870.20 741.69 868.72 748.86 C 865.76 744.96 862.66 741.12 860.21 736.88 C 860.09 731.46 863.53 726.49 862.93 721.02 C 862.82 719.10 860.51 718.87 859.05 718.84 C 856.28 721.52 856.38 725.76 855.42 729.26 C 852.26 727.35 850.84 721.67 846.33 723.24 C 843.94 726.57 848.08 729.78 849.21 732.84 C 845.46 732.95 841.71 733.08 837.97 733.09 C 838.17 734.87 837.37 737.68 839.63 738.44 C 843.71 739.35 847.95 739.05 852.06 739.85 C 853.53 740.16 855.41 740.22 856.18 741.80 C 858.72 745.49 861.30 749.17 863.93 752.81 C 858.01 751.73 852.02 751.02 846.13 749.79 C 844.25 749.26 841.94 749.01 840.83 747.19 C 837.83 742.77 835.58 737.87 832.42 733.55 C 830.80 730.60 825.73 731.83 825.20 735.00 C 826.53 739.32 829.72 742.77 831.20 747.05 C 827.60 746.82 823.94 745.37 820.37 746.29 C 818.76 747.40 817.06 750.28 819.19 751.78 C 822.12 754.56 826.68 753.51 830.09 755.46 C 826.88 758.11 823.22 760.35 820.61 763.65 C 818.58 766.74 822.61 770.36 825.64 768.61 C 831.25 765.42 835.14 759.62 841.12 757.05 C 848.17 757.15 855.02 759.46 862.02 760.36 C 858.45 763.78 854.22 766.51 849.87 768.81 C 844.45 769.26 839.46 765.78 834.05 766.05 C 831.79 766.44 831.27 769.75 832.71 771.21 C 836.02 772.52 839.57 773.10 842.96 774.21 C 840.70 775.87 838.18 777.23 836.26 779.31 C 835.33 781.52 837.44 783.00 838.88 784.27 C 841.49 782.59 844.15 780.96 846.72 779.21 C 846.19 783.61 844.36 789.50 848.96 792.37 C 852.94 790.02 852.10 784.90 852.69 780.98 C 853.16 778.49 852.20 775.18 854.63 773.52 C 858.29 770.80 861.94 768.01 865.91 765.74 C 865.24 772.17 863.69 778.47 862.75 784.86 C 862.58 787.50 859.92 788.67 858.02 789.97 C 853.94 792.56 849.38 794.49 845.78 797.76 C 843.34 800.11 846.42 805.23 849.60 803.67 C 853.23 802.06 856.42 799.61 860.07 798.00 C 860.13 801.36 859.02 804.62 859.05 807.96 C 859.66 811.26 864.40 811.90 866.03 809.05 C 867.27 805.79 867.57 802.27 868.36 798.90 C 871.27 801.92 873.38 805.69 876.64 808.38 C 879.40 810.16 883.55 807.42 881.89 804.13 C 878.98 798.59 874.06 794.42 870.71 789.16 C 869.58 787.55 870.45 785.55 870.61 783.80 C 871.76 778.34 872.11 772.71 873.88 767.39 C 876.36 770.53 878.64 773.81 881.01 777.03 C 881.60 778.04 882.73 779.05 882.37 780.36 C 881.63 785.26 879.39 789.86 879.11 794.85 C 879.18 797.56 883.56 797.82 884.66 795.70 C 886.11 792.71 886.37 789.31 887.23 786.13 C 888.77 788.11 890.17 790.20 891.86 792.07 C 893.36 794.25 897.59 792.76 897.04 790.00 C 896.27 787.41 894.29 785.40 892.95 783.10 C 896.75 782.86 900.70 783.49 904.39 782.39 C 906.06 780.43 904.23 777.41 901.89 777.28 C 897.12 776.62 892.23 776.71 887.57 775.44 C 884.42 771.56 881.41 767.51 878.97 763.14 C 886.19 764.54 893.63 765.27 900.65 767.42 C 904.65 772.22 906.77 778.39 910.72 783.27 C 912.85 784.80 917.36 784.40 917.11 780.98 C 916.48 776.40 912.79 773.03 910.97 768.90 C 914.85 769.04 918.76 770.63 922.63 769.66 C 923.79 768.16 924.34 766.09 923.70 764.26 C 920.90 761.38 916.38 762.24 912.87 760.85 C 914.93 758.22 917.66 756.29 920.23 754.21 C 922.31 752.80 922.64 749.70 921.26 747.72 C 919.81 746.40 917.34 746.60 915.88 747.81 C 911.12 751.37 906.84 755.58 901.93 758.93 C 894.54 758.68 887.27 756.67 879.96 755.60 C 884.00 752.77 887.90 749.66 892.16 747.17 C 897.58 746.45 902.54 749.79 907.91 749.98 C 909.43 749.49 910.30 748.01 911.43 746.98 C 908.71 743.20 903.67 743.39 899.82 741.49 C 902.05 739.89 904.81 738.55 905.97 735.90 C 906.34 734.31 905.81 732.14 903.93 731.93 C 901.16 732.82 898.93 734.77 896.58 736.40 C 895.46 733.31 896.62 730.14 896.90 727.03 C 896.61 725.29 894.63 724.62 893.14 724.32 C 891.32 724.78 890.66 726.72 890.37 728.37 C 889.64 732.77 890.38 737.48 888.49 741.64 C 885.13 744.99 880.93 747.34 877.00 749.95 C 877.10 742.65 879.16 735.58 880.38 728.43 C 885.72 725.06 891.48 722.28 896.53 718.49 C 899.45 716.37 896.57 710.83 893.18 712.13 C 889.20 713.62 885.99 716.61 882.03 718.18 C 882.52 714.33 883.71 710.33 882.64 706.49 C 881.20 704.72 877.88 704.46 876.74 706.69 M 510.41 799.33 C 506.69 800.26 502.58 800.97 499.68 803.70 C 494.12 808.62 491.33 816.86 493.92 824.00 C 496.27 830.40 501.94 836.14 508.96 836.90 C 512.55 837.21 516.41 837.46 519.72 835.75 C 527.65 832.67 532.37 823.37 530.81 815.12 C 529.24 805.73 520.03 798.03 510.41 799.33 Z" />
<path fill="#dddddd" opacity="1.00" d=" M 146.21 586.28 C 150.82 583.59 153.72 578.66 158.84 576.71 C 158.16 580.98 157.20 585.20 156.54 589.48 C 150.81 590.34 145.25 591.96 139.78 593.81 C 140.85 590.59 144.09 588.78 146.21 586.28 Z" />
</g>
<g id="#bbbbbbff">
<path fill="#bbbbbb" opacity="1.00" d=" M 299.60 434.60 C 342.63 425.70 389.05 432.64 427.01 454.99 C 436.19 459.79 444.20 466.40 452.38 472.66 C 458.19 477.09 462.98 482.62 468.14 487.76 C 479.69 484.48 491.55 482.24 503.55 481.53 C 512.91 479.92 522.27 482.05 531.64 482.44 C 551.72 484.66 571.34 491.12 588.96 501.00 C 599.84 506.61 609.32 514.45 618.68 522.24 C 626.28 529.35 633.11 537.30 639.27 545.69 C 641.66 548.64 643.13 553.33 647.63 553.37 C 649.77 537.56 656.42 522.62 665.64 509.70 C 668.66 505.42 672.60 501.95 676.24 498.23 C 683.25 490.99 691.46 484.87 700.62 480.64 C 714.23 473.42 729.69 470.68 744.93 469.94 C 751.74 470.15 758.54 471.08 765.16 472.73 C 766.24 472.95 767.33 473.06 768.44 473.23 C 769.67 474.04 771.14 474.01 772.56 474.10 C 775.61 470.92 778.48 467.46 782.24 465.08 C 786.41 462.28 789.79 458.41 794.43 456.29 C 795.84 455.49 797.14 454.52 798.55 453.69 C 799.49 453.22 800.45 452.74 801.41 452.27 C 802.76 451.64 804.10 450.97 805.42 450.26 C 806.76 449.63 808.12 449.00 809.39 448.21 C 811.46 447.31 813.64 446.70 815.65 445.67 C 816.57 445.31 817.51 444.98 818.48 444.69 C 819.46 444.32 820.46 443.98 821.47 443.66 C 823.15 443.10 824.97 442.97 826.58 442.16 C 827.51 442.05 828.46 441.95 829.42 441.85 C 831.22 440.44 833.80 441.57 835.59 440.12 C 837.59 439.85 839.90 440.52 841.60 439.09 C 850.53 438.94 859.47 438.94 868.41 439.08 C 870.74 441.04 874.10 439.05 876.57 440.76 C 877.91 440.98 879.32 441.07 880.57 441.75 C 881.91 441.98 883.32 442.07 884.57 442.75 C 885.91 443.00 887.36 443.02 888.57 443.81 C 889.04 443.90 889.97 444.10 890.43 444.20 C 891.42 444.62 892.43 444.99 893.48 445.32 C 895.49 446.01 897.62 446.54 899.40 447.79 C 901.72 448.82 904.21 449.44 906.46 450.66 C 907.83 451.52 909.14 452.47 910.54 453.32 C 911.50 453.77 912.48 454.22 913.46 454.68 C 923.49 461.06 932.95 468.42 940.67 477.49 C 942.02 480.26 944.97 481.74 946.34 484.50 C 947.89 487.32 950.29 489.54 951.79 492.38 C 952.01 492.91 952.43 493.95 952.65 494.47 C 953.50 495.84 954.48 497.14 955.34 498.53 C 955.57 499.04 956.02 500.05 956.25 500.56 C 957.10 502.16 957.85 503.83 958.79 505.39 C 959.67 507.45 960.31 509.61 961.28 511.65 C 961.81 512.93 962.26 514.25 962.81 515.55 C 962.91 516.02 963.10 516.96 963.20 517.44 C 963.99 519.06 964.00 520.93 964.79 522.57 C 964.89 523.03 965.09 523.97 965.19 524.43 C 966.22 525.90 965.95 527.73 966.16 529.42 C 967.54 531.23 966.44 533.78 967.87 535.58 C 967.91 536.11 967.99 537.15 968.04 537.68 C 968.66 537.96 969.90 538.52 970.53 538.80 C 971.89 538.97 973.31 539.05 974.57 539.74 C 975.83 539.96 977.15 540.10 978.36 540.64 C 981.33 542.13 984.61 542.93 987.43 544.76 C 987.94 544.98 988.96 545.43 989.46 545.66 C 992.93 548.13 996.90 550.01 999.77 553.24 C 1002.50 556.14 1005.49 558.79 1008.17 561.75 C 1009.90 564.33 1011.65 566.92 1013.33 569.55 C 1013.97 570.88 1014.61 572.23 1015.25 573.59 C 1016.48 575.78 1017.67 578.04 1018.32 580.50 C 1018.66 581.48 1019.00 582.46 1019.34 583.46 C 1019.86 584.72 1020.01 586.08 1020.25 587.43 C 1021.35 589.23 1020.91 591.40 1021.12 593.41 C 1022.27 594.68 1021.96 596.39 1022.03 597.97 C 1021.98 601.44 1022.05 604.93 1021.92 608.41 C 1020.13 610.43 1021.75 613.40 1020.24 615.57 C 1020.00 616.91 1019.92 618.32 1019.24 619.56 C 1019.09 621.34 1018.60 623.04 1017.73 624.61 C 1017.05 626.26 1016.47 627.95 1015.79 629.61 C 1015.25 630.53 1014.76 631.48 1014.30 632.44 C 1008.43 642.48 1000.63 651.48 990.46 657.32 C 988.80 658.08 987.17 658.87 985.58 659.74 C 983.30 660.98 980.86 661.87 978.45 662.82 C 977.98 662.91 977.04 663.10 976.57 663.19 C 975.36 663.97 973.90 663.97 972.56 664.24 C 970.93 665.37 968.92 664.91 967.10 664.99 C 960.75 642.88 949.04 622.40 933.75 605.24 C 927.25 599.06 921.43 592.13 914.22 586.75 C 899.14 574.74 882.01 565.22 863.62 559.36 C 851.37 555.60 838.75 553.01 825.98 552.01 C 819.33 551.90 812.68 552.04 806.04 551.96 C 772.29 553.59 739.37 566.76 713.35 588.21 C 707.86 591.98 703.52 597.06 698.85 601.75 C 680.77 596.67 661.66 594.28 642.99 597.09 C 624.63 599.43 606.46 604.97 590.68 614.77 C 582.27 619.33 574.56 625.10 567.59 631.63 C 564.06 634.40 560.77 637.48 558.07 641.08 C 543.97 656.01 534.23 674.67 528.01 694.13 C 527.44 695.61 526.00 696.48 524.96 697.59 C 525.15 699.19 525.37 700.79 525.53 702.40 C 525.58 705.70 524.96 708.95 524.11 712.13 C 522.74 712.35 521.37 712.59 520.01 712.81 C 519.80 711.56 519.60 710.33 519.41 709.10 C 521.64 706.55 523.79 703.78 524.40 700.35 C 521.79 701.26 519.73 703.10 518.16 705.33 C 518.04 703.87 517.92 702.42 517.80 700.98 C 517.13 700.98 515.80 700.99 515.14 700.99 C 515.07 702.29 515.01 703.60 514.95 704.92 C 512.72 704.51 510.49 704.14 508.25 703.86 C 510.01 708.34 517.34 707.69 517.05 713.24 C 517.26 714.35 517.46 715.47 517.68 716.60 C 515.90 715.60 514.08 714.68 512.27 713.76 C 507.00 711.72 508.26 705.39 507.06 700.97 C 506.29 700.97 504.77 700.98 504.00 700.98 C 504.01 703.26 504.02 705.54 504.05 707.82 C 502.05 707.04 500.04 706.30 498.01 705.62 C 498.02 706.37 498.04 707.88 498.05 708.63 C 499.36 709.66 500.66 710.72 501.83 711.94 C 499.15 712.98 496.33 713.88 494.26 715.98 C 499.03 718.35 503.80 714.95 508.67 714.92 C 506.78 716.23 504.73 717.31 502.52 718.00 C 501.62 718.29 500.73 718.60 499.85 718.93 C 491.99 723.45 484.29 728.40 477.84 734.83 C 468.71 744.84 461.16 756.61 457.73 769.83 C 455.80 777.39 454.71 785.19 454.96 793.00 C 416.51 793.06 378.05 792.89 339.59 793.08 C 338.21 794.42 336.30 793.92 334.59 793.95 C 334.18 793.73 333.37 793.27 332.96 793.05 C 293.84 792.99 254.71 792.92 215.59 793.08 C 215.18 793.30 214.36 793.73 213.95 793.95 C 200.17 794.02 186.38 794.07 172.59 793.92 C 168.34 791.35 162.69 794.61 158.41 792.12 C 156.41 791.91 154.23 792.37 152.44 791.24 C 151.08 791.00 149.67 790.92 148.43 790.25 C 147.09 790.01 145.73 789.85 144.46 789.34 C 143.46 789.00 142.46 788.66 141.48 788.31 C 140.47 787.99 139.46 787.66 138.47 787.32 C 137.47 786.99 136.48 786.66 135.50 786.31 C 133.76 785.88 132.11 785.18 130.58 784.27 C 129.22 783.61 127.87 782.97 126.56 782.25 C 126.05 782.02 125.04 781.57 124.54 781.34 C 122.90 780.29 121.35 779.11 119.58 778.28 C 114.83 775.57 110.77 771.84 106.27 768.75 C 101.55 763.77 96.08 759.42 92.25 753.67 C 90.05 750.60 87.52 747.75 85.72 744.42 C 84.76 742.37 83.30 740.62 82.23 738.65 C 81.66 737.24 81.02 735.87 80.21 734.61 C 79.32 732.53 78.70 730.35 77.67 728.34 C 77.31 727.41 76.98 726.47 76.68 725.53 C 76.32 724.52 75.99 723.52 75.69 722.52 C 75.33 721.53 74.99 720.53 74.66 719.54 C 74.13 718.26 73.98 716.90 73.75 715.57 C 72.55 713.68 73.53 711.18 72.11 709.41 C 72.02 707.80 71.98 706.19 71.89 704.59 C 71.68 704.18 71.26 703.35 71.05 702.94 C 70.96 694.97 70.96 687.00 71.05 679.04 C 71.26 678.63 71.69 677.81 71.91 677.41 C 72.15 675.07 71.49 672.54 72.76 670.43 C 72.98 669.07 73.07 667.66 73.75 666.43 C 73.98 665.08 74.16 663.73 74.63 662.45 C 74.99 661.43 75.39 660.42 75.81 659.44 C 75.90 658.97 76.10 658.03 76.20 657.57 C 76.62 656.56 77.00 655.55 77.31 654.52 C 78.16 651.75 79.26 649.07 80.75 646.60 C 81.25 645.52 81.76 644.46 82.26 643.40 C 82.75 642.45 83.23 641.49 83.69 640.54 C 84.70 638.88 85.89 637.33 86.71 635.57 C 88.80 631.51 92.16 628.43 94.73 624.73 C 97.45 622.69 98.96 619.62 101.22 617.20 C 103.69 615.74 105.85 613.89 107.74 611.73 C 112.74 607.69 118.14 604.17 123.54 600.69 C 124.51 600.22 125.48 599.75 126.45 599.28 C 126.93 599.01 127.89 598.49 128.37 598.23 C 130.43 597.33 132.60 596.69 134.64 595.72 C 135.89 595.18 137.19 594.76 138.45 594.25 C 138.79 594.14 139.45 593.92 139.78 593.81 C 145.25 591.96 150.81 590.34 156.54 589.48 C 157.20 585.20 158.16 580.98 158.84 576.71 C 158.97 575.65 159.10 574.60 159.21 573.56 C 159.98 571.91 160.00 570.05 160.79 568.43 C 160.90 567.97 161.10 567.04 161.20 566.57 C 161.96 565.36 162.00 563.91 162.26 562.56 C 162.90 560.92 163.14 559.16 163.65 557.48 C 164.07 556.06 164.66 554.70 165.27 553.36 C 165.82 552.07 166.27 550.74 166.82 549.46 C 166.91 548.98 167.09 548.02 167.17 547.54 C 167.91 545.85 168.50 544.10 169.21 542.40 C 170.91 540.03 171.14 536.98 172.73 534.55 C 172.98 534.06 173.48 533.10 173.73 532.62 C 174.22 531.53 174.75 530.47 175.26 529.40 C 175.75 528.45 176.23 527.49 176.69 526.54 C 177.69 524.88 178.89 523.34 179.71 521.58 C 180.50 520.15 181.47 518.84 182.33 517.46 C 182.78 516.48 183.22 515.51 183.66 514.54 C 187.32 509.53 190.81 504.39 194.63 499.50 C 196.57 496.19 200.08 494.21 201.84 490.76 C 206.38 486.04 211.04 481.40 215.75 476.84 C 219.02 475.17 220.94 471.85 224.22 470.20 C 226.92 467.16 230.73 465.56 233.75 462.90 C 236.30 461.09 238.89 459.31 241.58 457.72 C 243.35 456.89 244.89 455.69 246.53 454.66 C 247.04 454.43 248.05 453.98 248.56 453.75 C 250.16 452.88 251.80 452.09 253.45 451.33 C 255.59 449.65 258.05 448.64 260.61 447.80 C 263.00 446.20 265.72 445.29 268.38 444.27 C 269.71 443.64 271.06 443.04 272.50 442.71 C 275.06 441.91 277.48 440.75 279.96 439.71 L 280.01 439.12 L 280.99 438.97 C 287.31 438.02 293.37 435.95 299.60 434.60 M 313.43 472.39 C 284.81 475.71 256.88 487.08 235.21 506.25 C 231.62 509.40 227.75 512.77 226.52 517.60 C 225.56 521.87 225.57 526.56 227.31 530.64 C 230.00 536.32 235.91 539.99 242.00 540.96 C 247.68 541.78 253.18 538.98 257.23 535.20 C 268.35 525.10 281.67 517.42 296.08 513.12 C 306.76 510.02 317.84 507.58 329.01 508.01 C 341.28 507.50 353.47 510.16 365.12 513.83 C 370.30 515.32 374.95 518.20 380.10 519.77 C 383.57 520.24 387.18 520.28 390.63 519.64 C 394.78 518.27 397.98 514.95 400.61 511.59 C 404.89 504.86 403.36 495.62 398.32 489.71 C 394.69 485.82 389.33 484.47 384.59 482.43 C 376.26 478.80 367.41 476.60 358.62 474.42 C 351.13 473.31 343.64 471.56 336.03 471.99 C 328.50 472.26 320.92 471.47 313.43 472.39 Z" />
</g>
<g id="#ffffffff">
<path fill="#ffffff" opacity="1.00" d=" M 313.43 472.39 C 320.92 471.47 328.50 472.26 336.03 471.99 C 343.64 471.56 351.13 473.31 358.62 474.42 C 367.41 476.60 376.26 478.80 384.59 482.43 C 389.33 484.47 394.69 485.82 398.32 489.71 C 403.36 495.62 404.89 504.86 400.61 511.59 C 397.98 514.95 394.78 518.27 390.63 519.64 C 387.18 520.28 383.57 520.24 380.10 519.77 C 374.95 518.20 370.30 515.32 365.12 513.83 C 353.47 510.16 341.28 507.50 329.01 508.01 C 317.84 507.58 306.76 510.02 296.08 513.12 C 281.67 517.42 268.35 525.10 257.23 535.20 C 253.18 538.98 247.68 541.78 242.00 540.96 C 235.91 539.99 230.00 536.32 227.31 530.64 C 225.57 526.56 225.56 521.87 226.52 517.60 C 227.75 512.77 231.62 509.40 235.21 506.25 C 256.88 487.08 284.81 475.71 313.43 472.39 Z" />
<path fill="#ffffff" opacity="1.00" d=" M 798.41 584.45 C 804.23 583.52 810.18 583.82 815.99 584.73 C 831.13 585.99 846.04 589.91 859.89 596.16 C 864.38 598.08 868.93 600.11 872.73 603.26 C 880.49 610.75 879.93 624.77 871.77 631.77 C 866.56 635.75 859.24 637.49 853.05 634.88 C 845.78 631.68 838.69 627.90 830.95 625.97 C 822.48 623.62 813.69 622.66 804.98 621.90 C 797.82 622.93 790.54 623.06 783.43 624.49 C 768.32 628.12 753.73 634.74 741.87 644.87 C 737.98 647.95 735.11 652.17 730.87 654.83 C 726.82 657.38 722.09 659.80 717.16 658.83 C 709.71 657.84 702.78 652.39 701.12 644.89 C 699.00 639.50 700.60 633.40 703.84 628.83 C 725.50 604.40 756.57 588.83 788.93 585.12 C 792.09 584.98 795.28 585.05 798.41 584.45 Z" />
<path fill="#ffffff" opacity="1.00" d=" M 901.26 632.67 C 907.03 632.37 912.94 634.98 916.48 639.56 C 919.66 644.27 922.18 650.34 920.10 656.01 C 918.51 662.23 913.70 667.40 907.68 669.57 C 902.08 671.08 895.66 670.46 890.79 667.20 C 886.54 663.71 882.78 658.74 882.91 652.98 C 882.54 647.82 883.70 642.22 887.70 638.63 C 891.01 634.62 896.18 632.79 901.26 632.67 Z" />
<path fill="#ffffff" opacity="1.00" d=" M 510.41 799.33 C 520.03 798.03 529.24 805.73 530.81 815.12 C 532.37 823.37 527.65 832.67 519.72 835.75 C 516.41 837.46 512.55 837.21 508.96 836.90 C 501.94 836.14 496.27 830.40 493.92 824.00 C 491.33 816.86 494.12 808.62 499.68 803.70 C 502.58 800.97 506.69 800.26 510.41 799.33 Z" />
</g>
<g id="#f2f2f2ff">
<path fill="#f2f2f2" opacity="1.00" d=" M 525.53 702.40 C 525.84 700.29 526.64 698.31 527.52 696.39 C 528.36 698.17 528.64 700.40 530.10 701.82 C 531.94 700.68 533.50 698.15 535.98 699.10 C 535.83 701.13 534.92 702.97 534.02 704.77 C 536.88 704.87 540.08 704.68 542.19 707.01 C 538.62 708.72 534.58 708.64 530.89 709.78 C 528.09 712.29 526.52 715.82 524.71 719.05 C 527.06 718.42 529.74 718.31 531.74 716.79 C 533.92 714.33 535.24 711.09 538.13 709.29 C 537.93 711.61 537.34 713.87 536.35 715.99 C 538.14 716.07 539.92 716.17 541.72 716.32 C 540.34 717.64 538.80 718.78 537.21 719.82 C 538.69 721.26 540.12 722.77 541.48 724.36 C 537.84 725.66 535.67 721.90 532.72 720.63 C 530.25 720.32 527.85 721.42 525.49 721.99 C 528.35 724.24 531.22 726.97 534.94 727.59 C 537.96 727.34 540.74 725.87 543.75 725.55 C 544.77 726.19 545.64 727.02 546.58 727.79 C 544.30 728.79 541.99 729.73 539.68 730.65 C 540.90 731.89 542.13 733.13 543.37 734.39 C 542.72 735.32 542.08 736.26 541.44 737.20 C 540.03 736.40 538.62 735.62 537.22 734.85 C 537.08 737.22 536.96 739.60 536.84 741.99 C 536.14 741.98 534.73 741.96 534.03 741.95 C 533.26 738.65 533.10 735.23 532.07 732.01 C 530.14 728.75 526.23 727.53 523.10 725.76 C 523.48 728.02 523.86 730.28 524.26 732.55 C 527.48 734.16 530.75 735.99 532.75 739.12 C 530.41 738.98 528.15 738.38 526.06 737.36 C 525.98 738.92 525.89 740.50 525.82 742.08 C 525.28 741.94 524.22 741.65 523.69 741.51 C 523.34 740.38 522.99 739.26 522.65 738.14 C 520.84 739.86 518.83 741.38 516.56 742.45 C 517.43 739.13 519.22 736.16 521.63 733.74 C 521.02 731.12 520.38 728.52 519.75 725.92 C 517.88 729.01 515.96 732.07 513.95 735.07 C 514.81 738.31 516.01 741.55 516.01 744.95 C 515.23 745.59 514.36 746.10 513.42 746.50 C 512.62 744.31 511.84 742.14 511.08 739.95 C 509.68 741.70 508.02 743.24 506.20 744.55 C 505.91 743.92 505.34 742.66 505.05 742.03 C 505.79 740.71 506.53 739.40 507.28 738.10 C 504.65 738.01 502.03 737.92 499.42 737.80 C 499.95 736.66 500.40 735.48 501.14 734.47 C 504.04 733.78 507.14 733.97 509.97 732.92 C 513.13 730.80 514.54 727.05 516.33 723.84 C 513.86 724.39 511.10 724.43 508.93 725.84 C 507.05 728.31 505.82 731.21 503.96 733.70 C 503.39 731.52 503.34 729.28 503.66 727.07 C 502.44 726.98 501.24 726.90 500.04 726.83 C 500.05 726.22 500.08 725.01 500.09 724.40 C 500.91 724.16 502.53 723.68 503.35 723.44 C 502.18 721.93 501.02 720.42 499.85 718.93 C 500.73 718.60 501.62 718.29 502.52 718.00 C 504.47 719.62 506.29 721.79 508.93 722.22 C 511.47 722.37 513.91 721.49 516.35 720.91 C 513.84 719.21 511.28 717.57 508.72 715.97 C 509.90 715.22 511.08 714.49 512.27 713.76 C 514.08 714.68 515.90 715.60 517.68 716.60 C 517.46 715.47 517.26 714.35 517.05 713.24 C 517.79 713.13 519.27 712.92 520.01 712.81 C 521.37 712.59 522.74 712.35 524.11 712.13 C 524.96 708.95 525.58 705.70 525.53 702.40 Z" />
</g>
<g id="#e9e9e9ff">
<path fill="#e9e9e9" opacity="1.00" d=" M 652.23 697.96 C 653.66 698.17 655.96 697.58 656.32 699.57 C 656.98 703.94 654.67 708.30 655.43 712.61 C 658.07 715.85 661.12 718.77 663.48 722.28 C 665.72 719.52 665.39 715.61 664.62 712.38 C 663.13 709.89 660.31 708.67 658.37 706.61 C 657.25 705.43 658.51 703.17 659.91 703.09 C 661.73 704.02 663.14 705.53 664.64 706.89 C 665.45 704.85 666.29 702.82 667.18 700.82 C 670.05 702.22 669.42 705.34 669.04 707.94 C 671.02 706.60 672.95 705.15 675.14 704.14 C 676.48 704.09 677.19 705.51 676.77 706.69 C 674.81 709.42 671.17 710.50 669.43 713.39 C 668.71 716.51 668.65 719.75 668.14 722.92 C 671.58 719.81 675.87 717.49 678.54 713.62 C 679.58 709.16 678.67 704.45 679.10 699.90 C 680.57 700.28 682.91 699.45 683.58 701.32 C 684.22 703.83 684.08 706.46 684.14 709.05 C 686.11 707.67 688.04 704.29 690.68 705.25 C 694.04 707.60 689.61 710.74 688.02 712.80 C 690.42 713.46 692.90 713.92 695.26 714.77 C 697.71 715.52 696.39 719.52 693.99 719.01 C 690.00 718.79 686.11 717.81 682.13 717.48 C 678.92 720.81 674.79 723.14 671.90 726.81 C 675.13 726.93 678.48 727.49 681.64 726.58 C 684.43 724.32 686.68 721.36 690.04 719.85 C 692.15 722.96 689.20 725.52 687.12 727.60 C 689.23 727.98 691.34 728.44 693.42 729.04 C 692.82 732.03 689.74 732.03 687.32 732.36 C 688.80 734.37 689.82 736.68 690.18 739.17 C 685.17 739.39 684.17 733.62 680.67 731.35 C 677.86 730.63 674.93 731.01 672.08 731.05 C 674.80 734.28 676.95 738.14 680.39 740.69 C 685.29 741.46 690.46 740.12 695.17 742.20 C 694.76 743.33 694.99 744.96 693.78 745.66 C 690.87 746.17 687.91 746.07 684.98 746.14 C 686.39 747.72 687.93 749.24 688.97 751.11 C 689.41 752.73 688.87 754.68 687.01 755.00 C 684.91 753.57 683.14 751.74 681.30 750.02 C 680.85 752.98 681.21 756.59 678.72 758.77 C 677.47 759.33 675.73 759.01 675.73 757.36 C 675.27 753.24 676.70 749.21 676.87 745.11 C 674.42 741.30 671.48 737.69 667.99 734.77 C 666.93 737.55 666.30 740.72 667.41 743.59 C 669.25 746.36 672.32 748.11 673.98 751.02 C 674.13 752.26 673.11 753.18 672.57 754.20 C 670.70 752.79 668.83 751.39 666.95 750.01 C 666.45 751.72 665.95 753.43 665.47 755.16 C 664.42 754.81 663.38 754.48 662.35 754.15 C 662.60 752.44 662.84 750.73 663.08 749.04 C 660.99 750.36 658.94 751.74 656.92 753.15 C 656.14 752.43 655.38 751.72 654.62 751.02 C 656.80 748.36 659.70 746.47 662.23 744.17 C 663.46 741.00 663.20 737.40 663.98 734.08 C 660.19 736.87 656.10 739.54 653.37 743.45 C 652.33 747.45 653.63 751.71 652.68 755.75 C 651.86 757.32 648.91 757.63 648.34 755.68 C 647.80 753.17 647.88 750.58 647.82 748.04 C 645.65 749.49 642.63 753.54 640.10 750.72 C 639.63 747.81 642.64 746.04 644.18 743.98 C 641.74 743.27 639.19 743.05 636.76 742.35 C 635.16 741.51 634.91 739.46 636.38 738.37 C 641.02 736.71 645.99 740.57 650.56 738.54 C 653.88 735.98 657.09 733.25 660.07 730.30 C 656.81 730.08 653.57 729.49 650.31 729.44 C 647.17 731.65 645.28 735.27 641.94 737.28 C 639.80 734.05 642.77 731.51 644.91 729.33 C 642.81 728.83 639.92 729.29 638.78 727.02 C 639.84 724.68 642.76 725.14 644.84 724.65 C 643.28 722.28 641.15 719.58 643.03 716.75 C 646.44 719.09 648.10 723.12 651.30 725.63 C 654.14 726.32 657.11 725.95 660.00 725.91 C 657.63 722.38 655.10 718.80 651.59 716.32 C 646.57 714.95 639.78 718.17 636.43 712.86 C 639.25 710.08 643.47 711.15 647.04 710.87 C 644.95 708.74 642.79 706.42 642.82 703.24 C 643.38 702.88 644.49 702.15 645.04 701.78 C 646.96 703.49 648.86 705.22 650.70 707.02 C 650.89 703.95 651.43 700.92 652.23 697.96 Z" />
</g>
<g id="#e5e5e5ff">
<path fill="#e5e5e5" opacity="1.00" d=" M 504.00 700.98 C 504.77 700.98 506.29 700.97 507.06 700.97 C 508.26 705.39 507.00 711.72 512.27 713.76 C 511.08 714.49 509.90 715.22 508.72 715.97 C 511.28 717.57 513.84 719.21 516.35 720.91 C 513.91 721.49 511.47 722.37 508.93 722.22 C 506.29 721.79 504.47 719.62 502.52 718.00 C 504.73 717.31 506.78 716.23 508.67 714.92 C 503.80 714.95 499.03 718.35 494.26 715.98 C 496.33 713.88 499.15 712.98 501.83 711.94 C 500.66 710.72 499.36 709.66 498.05 708.63 C 498.04 707.88 498.02 706.37 498.01 705.62 C 500.04 706.30 502.05 707.04 504.05 707.82 C 504.02 705.54 504.01 703.26 504.00 700.98 Z" />
<path fill="#e5e5e5" opacity="1.00" d=" M 515.14 700.99 C 515.80 700.99 517.13 700.98 517.80 700.98 C 517.92 702.42 518.04 703.87 518.16 705.33 C 519.73 703.10 521.79 701.26 524.40 700.35 C 523.79 703.78 521.64 706.55 519.41 709.10 C 519.60 710.33 519.80 711.56 520.01 712.81 C 519.27 712.92 517.79 713.13 517.05 713.24 C 517.34 707.69 510.01 708.34 508.25 703.86 C 510.49 704.14 512.72 704.51 514.95 704.92 C 515.01 703.60 515.07 702.29 515.14 700.99 Z" />
</g>
<g id="#e6e6e6ff">
<path fill="#e6e6e6" opacity="1.00" d=" M 876.74 706.69 C 877.88 704.46 881.20 704.72 882.64 706.49 C 883.71 710.33 882.52 714.33 882.03 718.18 C 885.99 716.61 889.20 713.62 893.18 712.13 C 896.57 710.83 899.45 716.37 896.53 718.49 C 891.48 722.28 885.72 725.06 880.38 728.43 C 879.16 735.58 877.10 742.65 877.00 749.95 C 880.93 747.34 885.13 744.99 888.49 741.64 C 890.38 737.48 889.64 732.77 890.37 728.37 C 890.66 726.72 891.32 724.78 893.14 724.32 C 894.63 724.62 896.61 725.29 896.90 727.03 C 896.62 730.14 895.46 733.31 896.58 736.40 C 898.93 734.77 901.16 732.82 903.93 731.93 C 905.81 732.14 906.34 734.31 905.97 735.90 C 904.81 738.55 902.05 739.89 899.82 741.49 C 903.67 743.39 908.71 743.20 911.43 746.98 C 910.30 748.01 909.43 749.49 907.91 749.98 C 902.54 749.79 897.58 746.45 892.16 747.17 C 887.90 749.66 884.00 752.77 879.96 755.60 C 887.27 756.67 894.54 758.68 901.93 758.93 C 906.84 755.58 911.12 751.37 915.88 747.81 C 917.34 746.60 919.81 746.40 921.26 747.72 C 922.64 749.70 922.31 752.80 920.23 754.21 C 917.66 756.29 914.93 758.22 912.87 760.85 C 916.38 762.24 920.90 761.38 923.70 764.26 C 924.34 766.09 923.79 768.16 922.63 769.66 C 918.76 770.63 914.85 769.04 910.97 768.90 C 912.79 773.03 916.48 776.40 917.11 780.98 C 917.36 784.40 912.85 784.80 910.72 783.27 C 906.77 778.39 904.65 772.22 900.65 767.42 C 893.63 765.27 886.19 764.54 878.97 763.14 C 881.41 767.51 884.42 771.56 887.57 775.44 C 892.23 776.71 897.12 776.62 901.89 777.28 C 904.23 777.41 906.06 780.43 904.39 782.39 C 900.70 783.49 896.75 782.86 892.95 783.10 C 894.29 785.40 896.27 787.41 897.04 790.00 C 897.59 792.76 893.36 794.25 891.86 792.07 C 890.17 790.20 888.77 788.11 887.23 786.13 C 886.37 789.31 886.11 792.71 884.66 795.70 C 883.56 797.82 879.18 797.56 879.11 794.85 C 879.39 789.86 881.63 785.26 882.37 780.36 C 882.73 779.05 881.60 778.04 881.01 777.03 C 878.64 773.81 876.36 770.53 873.88 767.39 C 872.11 772.71 871.76 778.34 870.61 783.80 C 870.45 785.55 869.58 787.55 870.71 789.16 C 874.06 794.42 878.98 798.59 881.89 804.13 C 883.55 807.42 879.40 810.16 876.64 808.38 C 873.38 805.69 871.27 801.92 868.36 798.90 C 867.57 802.27 867.27 805.79 866.03 809.05 C 864.40 811.90 859.66 811.26 859.05 807.96 C 859.02 804.62 860.13 801.36 860.07 798.00 C 856.42 799.61 853.23 802.06 849.60 803.67 C 846.42 805.23 843.34 800.11 845.78 797.76 C 849.38 794.49 853.94 792.56 858.02 789.97 C 859.92 788.67 862.58 787.50 862.75 784.86 C 863.69 778.47 865.24 772.17 865.91 765.74 C 861.94 768.01 858.29 770.80 854.63 773.52 C 852.20 775.18 853.16 778.49 852.69 780.98 C 852.10 784.90 852.94 790.02 848.96 792.37 C 844.36 789.50 846.19 783.61 846.72 779.21 C 844.15 780.96 841.49 782.59 838.88 784.27 C 837.44 783.00 835.33 781.52 836.26 779.31 C 838.18 777.23 840.70 775.87 842.96 774.21 C 839.57 773.10 836.02 772.52 832.71 771.21 C 831.27 769.75 831.79 766.44 834.05 766.05 C 839.46 765.78 844.45 769.26 849.87 768.81 C 854.22 766.51 858.45 763.78 862.02 760.36 C 855.02 759.46 848.17 757.15 841.12 757.05 C 835.14 759.62 831.25 765.42 825.64 768.61 C 822.61 770.36 818.58 766.74 820.61 763.65 C 823.22 760.35 826.88 758.11 830.09 755.46 C 826.68 753.51 822.12 754.56 819.19 751.78 C 817.06 750.28 818.76 747.40 820.37 746.29 C 823.94 745.37 827.60 746.82 831.20 747.05 C 829.72 742.77 826.53 739.32 825.20 735.00 C 825.73 731.83 830.80 730.60 832.42 733.55 C 835.58 737.87 837.83 742.77 840.83 747.19 C 841.94 749.01 844.25 749.26 846.13 749.79 C 852.02 751.02 858.01 751.73 863.93 752.81 C 861.30 749.17 858.72 745.49 856.18 741.80 C 855.41 740.22 853.53 740.16 852.06 739.85 C 847.95 739.05 843.71 739.35 839.63 738.44 C 837.37 737.68 838.17 734.87 837.97 733.09 C 841.71 733.08 845.46 732.95 849.21 732.84 C 848.08 729.78 843.94 726.57 846.33 723.24 C 850.84 721.67 852.26 727.35 855.42 729.26 C 856.38 725.76 856.28 721.52 859.05 718.84 C 860.51 718.87 862.82 719.10 862.93 721.02 C 863.53 726.49 860.09 731.46 860.21 736.88 C 862.66 741.12 865.76 744.96 868.72 748.86 C 870.20 741.69 871.53 734.49 872.56 727.24 C 869.03 723.15 865.71 718.89 862.28 714.73 C 861.13 713.20 859.63 711.43 860.23 709.39 C 861.25 707.26 864.31 706.09 866.26 707.72 C 869.39 710.24 870.77 714.59 874.64 716.25 C 875.03 713.02 875.01 709.56 876.74 706.69 Z" />
</g>
<g id="#c6dcf1f2">
<path fill="#c6dcf1" opacity="0.95" d=" M 418.68 825.55 C 419.47 823.54 421.90 820.37 423.86 823.14 C 426.14 824.63 424.09 826.75 423.26 828.41 C 422.62 829.76 421.97 831.12 421.27 832.45 C 421.01 832.93 420.50 833.90 420.25 834.38 C 418.99 836.44 418.26 839.18 419.68 841.36 C 420.49 842.97 421.06 844.69 421.72 846.38 C 422.88 848.31 422.79 850.89 424.76 852.32 C 425.48 849.96 426.18 847.59 427.24 845.37 C 427.51 844.89 428.04 843.94 428.31 843.47 C 429.69 842.30 427.54 840.81 427.25 839.59 C 426.75 838.51 426.24 837.46 425.75 836.41 C 424.79 834.63 423.05 832.53 424.56 830.53 C 426.77 828.84 428.48 831.86 429.36 833.55 C 429.59 834.16 430.06 835.39 430.29 836.00 C 430.64 836.00 431.35 836.00 431.70 836.00 C 431.94 835.40 432.42 834.18 432.66 833.58 C 433.23 832.56 433.46 830.91 434.98 831.03 C 437.37 830.94 437.42 834.11 436.33 835.53 C 435.92 836.76 435.39 837.94 434.87 839.15 C 436.23 838.17 437.83 837.92 439.45 837.79 C 440.77 836.48 444.03 836.61 443.96 839.01 C 444.08 840.47 442.42 840.76 441.44 841.37 C 440.47 841.69 439.49 842.00 438.52 842.31 C 437.53 842.66 436.53 843.00 435.53 843.33 C 434.44 843.74 433.32 844.02 432.16 844.17 C 432.05 845.75 431.45 847.19 430.78 848.61 C 429.69 850.49 428.77 852.46 427.75 854.39 C 428.44 854.11 429.81 853.56 430.50 853.29 C 431.95 852.97 433.30 852.34 434.64 851.71 C 435.90 851.17 437.20 850.76 438.49 850.28 C 439.95 849.90 441.35 849.33 442.78 848.81 C 443.01 848.23 443.48 847.08 443.71 846.50 C 443.96 845.42 444.33 844.41 444.82 843.44 C 444.91 842.97 445.09 842.02 445.18 841.54 C 445.76 840.25 446.18 838.90 446.67 837.59 C 447.13 834.89 449.78 834.79 452.02 834.91 C 451.99 837.54 452.44 840.40 450.64 842.62 C 450.18 843.78 449.88 844.99 449.75 846.26 C 451.72 844.73 454.25 844.35 456.35 843.10 C 457.22 843.58 458.14 843.99 459.09 844.33 C 459.25 846.49 458.90 848.84 456.45 849.36 C 454.73 849.87 452.83 850.17 451.70 851.73 C 453.02 852.12 454.31 852.65 455.60 853.20 C 456.97 854.13 458.52 854.77 460.10 855.30 C 459.94 856.68 460.15 858.18 459.46 859.47 C 457.78 860.73 455.93 859.51 454.38 858.75 C 453.90 858.50 452.93 857.98 452.45 857.73 C 450.82 856.89 449.17 856.13 447.60 855.23 C 446.00 854.34 444.14 853.29 442.47 854.69 C 441.51 854.98 440.57 855.31 439.65 855.68 C 437.95 856.48 436.18 857.10 434.46 857.83 C 433.98 857.91 433.02 858.08 432.54 858.16 C 431.91 858.45 430.64 859.03 430.00 859.31 L 429.99 859.86 C 431.63 859.91 433.14 860.50 434.62 861.19 C 435.54 861.72 436.46 862.25 437.39 862.79 C 438.71 863.27 440.08 864.65 441.40 863.35 C 442.74 862.65 444.08 861.97 445.41 861.27 C 446.93 860.53 448.40 859.69 449.95 859.03 C 453.22 859.30 452.39 864.18 449.41 864.27 C 448.00 864.82 446.78 865.68 445.68 866.71 C 448.42 867.38 451.79 868.59 451.17 872.10 C 448.42 872.40 445.96 871.24 443.76 869.74 C 443.80 871.11 444.16 872.38 444.85 873.56 C 444.92 874.03 445.07 874.98 445.14 875.45 C 447.08 876.94 445.27 879.47 443.20 879.04 C 440.31 878.93 441.39 875.26 440.35 873.47 C 440.01 872.46 439.65 871.47 439.28 870.50 C 439.47 866.50 434.97 867.10 432.58 865.28 C 430.95 864.49 429.34 863.68 427.75 862.86 C 428.23 864.15 428.94 865.37 429.73 866.52 C 430.00 867.47 430.31 868.41 430.67 869.35 C 431.49 871.00 432.11 872.74 432.72 874.50 C 432.84 877.11 434.90 879.10 437.49 879.31 C 438.48 879.66 439.48 879.99 440.49 880.29 C 442.23 880.89 443.97 881.49 445.64 882.28 C 446.25 882.55 447.47 883.07 448.08 883.33 C 447.94 884.70 448.15 886.19 447.46 887.47 C 446.24 888.32 444.65 888.10 443.48 887.30 C 442.02 886.97 440.68 886.33 439.36 885.68 C 438.68 885.43 437.33 884.94 436.66 884.69 C 436.95 885.41 437.53 886.84 437.83 887.56 C 437.91 888.03 438.08 888.97 438.17 889.44 C 439.18 890.61 438.97 892.18 439.08 893.63 C 438.47 893.96 437.26 894.61 436.66 894.94 C 435.87 894.44 435.04 894.05 434.17 893.75 C 433.64 892.33 433.10 890.94 432.72 889.49 C 432.47 888.87 431.97 887.62 431.73 887.00 L 431.26 886.98 C 430.80 888.21 430.27 889.42 429.78 890.65 C 428.68 893.56 426.27 895.83 422.95 895.10 C 422.47 892.12 423.38 889.63 425.33 887.45 C 426.08 885.79 426.86 884.16 427.78 882.60 C 428.31 881.23 429.69 879.83 428.30 878.48 C 428.01 877.51 427.69 876.57 427.33 875.64 C 426.24 873.62 425.78 871.35 424.65 869.36 C 424.15 868.17 423.88 866.93 423.84 865.64 C 422.96 866.48 422.14 867.42 421.63 868.54 C 421.12 870.28 420.50 872.00 419.68 873.63 C 418.02 875.56 419.79 877.63 420.73 879.42 C 421.85 881.91 424.22 884.71 422.42 887.49 C 420.21 889.19 418.98 886.25 418.23 884.63 C 417.72 883.40 417.18 882.21 416.74 880.99 L 416.24 881.00 C 416.03 881.61 415.59 882.85 415.37 883.46 C 414.62 884.87 413.65 886.18 412.34 887.13 C 411.73 885.95 408.80 884.72 410.90 883.50 C 410.96 883.01 411.08 882.04 411.14 881.56 C 411.47 880.87 412.13 879.49 412.45 878.80 C 411.17 879.38 409.88 879.96 408.52 880.32 C 407.14 881.13 405.52 880.98 404.00 881.10 C 403.99 879.82 403.99 878.56 404.00 877.30 C 404.63 877.05 405.88 876.54 406.51 876.29 C 407.56 876.02 408.58 875.65 409.56 875.18 C 410.03 875.09 410.97 874.92 411.44 874.83 C 412.45 874.24 413.56 873.90 414.75 873.84 C 415.29 872.36 415.92 870.91 416.79 869.61 C 417.66 867.62 418.22 865.52 419.21 863.59 C 418.53 863.87 417.17 864.43 416.49 864.71 C 415.52 864.97 414.57 865.29 413.64 865.67 C 411.63 866.72 409.44 867.32 407.36 868.21 C 405.79 868.96 404.22 869.80 403.60 871.53 C 403.29 872.51 403.00 873.50 402.73 874.50 C 402.19 875.83 401.77 877.22 401.18 878.55 C 401.09 879.02 400.92 879.98 400.84 880.46 C 400.54 881.11 399.94 882.43 399.64 883.08 C 398.26 882.92 396.79 883.15 395.53 882.46 C 394.65 881.23 394.89 879.64 395.69 878.47 C 395.99 877.46 396.32 876.47 396.68 875.49 C 397.01 874.11 397.59 872.82 398.21 871.58 C 396.88 872.05 395.62 872.69 394.37 873.33 C 392.28 874.65 387.39 874.61 387.99 871.10 C 388.05 868.77 390.93 869.12 392.48 868.40 C 393.53 867.83 394.43 867.04 395.33 866.27 C 394.63 866.05 393.23 865.61 392.53 865.39 C 390.71 863.49 386.15 862.91 387.06 859.53 C 388.22 856.80 391.73 858.14 393.66 859.20 C 395.36 860.13 396.87 861.35 398.55 862.32 C 400.99 864.03 404.10 864.79 406.61 862.71 C 408.28 862.06 409.99 861.48 411.62 860.72 C 413.38 859.95 415.21 859.38 417.04 858.79 L 416.99 858.28 C 416.41 858.03 415.23 857.54 414.64 857.29 C 412.61 856.27 410.39 855.74 408.37 854.69 C 407.08 853.30 405.70 854.71 404.39 855.21 C 403.46 855.73 402.53 856.26 401.62 856.81 C 399.93 857.58 397.95 857.83 396.52 859.08 C 393.95 857.68 394.74 854.04 397.59 853.73 C 398.99 853.17 400.21 852.29 401.32 851.29 C 398.62 850.60 395.24 849.45 395.84 845.98 C 397.36 845.98 398.90 846.00 400.44 846.03 C 401.54 846.86 402.66 847.71 403.96 848.25 C 403.47 847.00 402.98 845.76 402.62 844.49 C 401.71 842.73 402.04 840.72 401.96 838.84 C 403.98 838.69 405.84 839.46 406.37 841.56 C 406.70 842.52 407.02 843.49 407.33 844.48 C 407.82 845.73 407.95 847.08 408.24 848.41 C 408.81 850.25 410.88 850.82 412.35 851.79 C 413.70 852.34 415.06 852.93 416.50 853.30 C 417.19 853.57 418.58 854.11 419.27 854.38 C 417.90 852.25 417.10 849.86 416.28 847.50 C 415.99 846.02 415.34 844.67 414.65 843.36 C 414.26 842.35 413.98 841.32 413.81 840.27 C 413.27 840.02 412.18 839.52 411.64 839.27 C 409.93 838.51 408.17 837.89 406.46 837.18 C 405.98 837.09 405.03 836.91 404.55 836.81 C 402.45 835.95 399.67 835.52 398.92 833.01 C 399.60 831.32 401.82 828.69 403.54 830.86 C 404.02 830.94 404.96 831.09 405.44 831.17 C 406.41 831.64 407.42 832.02 408.48 832.30 C 409.18 832.57 410.57 833.11 411.27 833.38 C 410.16 831.53 409.19 829.60 408.71 827.50 C 406.86 825.67 409.33 823.60 411.00 822.92 C 412.98 823.57 414.07 825.52 414.27 827.52 C 414.53 828.14 415.05 829.38 415.32 830.00 C 415.66 830.00 416.36 830.00 416.71 830.00 C 417.25 828.46 417.94 826.99 418.68 825.55 Z" />
</g>
<g id="#a8a8a8a9">
<path fill="#a8a8a8" opacity="0.66" d=" M 537.49 876.48 C 538.81 875.99 540.23 876.01 541.62 875.89 C 541.94 876.56 542.60 877.90 542.92 878.57 C 542.98 880.50 542.99 882.44 543.01 884.39 C 545.21 882.33 547.35 880.21 549.40 878.00 C 550.45 877.99 551.52 877.99 552.59 878.01 C 552.94 878.62 553.64 879.83 553.99 880.44 C 553.06 881.39 552.22 882.44 551.69 883.69 C 549.20 886.38 546.60 888.98 543.89 891.46 C 543.98 892.88 543.99 894.38 544.89 895.62 C 545.21 898.27 544.34 901.23 545.87 903.62 C 545.92 904.74 545.97 905.87 546.02 907.02 L 546.58 906.97 C 547.42 904.82 549.13 903.27 550.70 901.67 C 551.37 899.91 554.18 898.25 552.14 896.41 C 552.03 895.12 551.94 893.85 551.85 892.60 C 550.55 890.81 550.75 888.40 551.50 886.46 C 553.33 885.21 554.83 886.88 555.45 888.52 C 556.16 890.40 555.96 892.43 556.06 894.42 C 557.99 892.67 558.72 889.56 561.70 889.18 C 563.67 889.43 562.87 892.21 562.51 893.49 C 561.60 894.72 560.64 895.90 559.65 897.07 C 562.89 897.14 566.46 896.25 569.37 898.15 C 568.43 899.09 567.50 900.03 566.58 901.00 C 563.39 901.03 560.20 900.85 557.02 901.08 C 555.29 901.06 555.20 903.16 554.22 904.15 C 552.48 905.98 550.78 907.86 549.72 910.19 C 551.37 909.98 553.19 910.17 554.61 909.11 C 557.26 908.79 560.19 909.62 562.60 908.18 C 563.10 908.12 564.12 908.01 564.62 907.95 C 565.65 906.86 566.69 905.78 567.70 904.68 C 569.25 901.86 571.23 899.31 572.84 896.52 C 573.86 895.57 575.39 895.99 576.52 896.49 C 576.99 897.74 576.94 899.10 577.06 900.43 C 575.24 902.35 573.75 904.58 572.61 906.96 C 575.56 907.15 578.66 906.52 581.52 907.50 C 582.95 909.36 580.64 910.71 579.66 912.03 C 577.63 911.98 575.60 911.98 573.58 912.06 C 574.89 915.19 577.79 917.18 580.16 919.47 C 580.25 921.73 578.96 923.30 576.61 923.09 C 575.60 922.14 574.57 921.26 573.34 920.68 C 570.96 918.58 568.77 916.29 566.59 914.01 C 563.55 914.26 560.12 913.17 557.39 914.89 C 554.78 915.04 552.17 914.97 549.56 915.02 C 551.31 916.80 553.59 917.91 555.40 919.64 C 556.52 920.31 557.56 921.11 558.55 922.00 C 560.26 921.94 562.12 922.28 563.60 921.15 C 564.85 921.03 566.12 920.94 567.40 920.85 C 569.02 919.04 571.55 920.64 571.01 922.86 C 570.80 926.64 565.39 923.59 564.05 926.29 C 564.12 927.53 565.71 927.66 566.56 928.28 C 568.83 928.76 568.44 933.31 565.96 932.93 C 564.20 932.00 562.63 930.73 560.93 929.70 C 560.90 932.27 561.39 934.98 560.53 937.48 C 559.39 937.82 558.24 938.06 557.06 938.19 C 557.00 936.98 556.94 935.79 556.87 934.61 C 555.22 932.06 556.36 928.89 555.93 926.08 C 555.97 924.30 553.82 924.19 552.83 923.20 C 551.01 921.53 549.24 919.77 546.95 918.77 C 548.50 921.39 547.88 924.49 548.11 927.39 C 549.61 929.50 548.84 932.19 549.01 934.60 C 553.04 936.66 556.53 939.61 560.47 941.84 C 562.04 944.17 560.68 947.58 557.60 947.12 C 555.30 944.87 552.47 943.27 549.71 941.70 C 549.83 943.09 550.25 944.40 550.95 945.62 C 550.92 947.24 551.18 948.96 550.53 950.52 C 549.19 951.00 547.76 950.96 546.38 951.11 C 546.06 950.44 545.41 949.10 545.08 948.43 C 545.00 946.27 544.99 944.12 545.00 941.98 L 544.42 942.03 C 543.27 944.94 540.58 946.72 538.58 948.99 C 537.48 948.99 536.39 948.99 535.31 949.00 C 534.99 948.01 534.54 947.10 533.95 946.27 C 536.57 942.19 540.71 939.45 543.51 935.53 C 544.03 934.12 544.30 932.55 543.10 931.38 C 542.78 928.72 543.67 925.76 542.13 923.39 C 542.06 922.10 541.99 920.82 541.93 919.56 C 539.83 922.24 537.71 924.89 535.48 927.48 C 534.92 928.58 535.04 929.62 535.85 930.60 C 535.95 931.85 536.04 933.12 536.15 934.40 C 537.43 936.16 537.27 938.59 536.48 940.54 C 534.18 942.00 532.84 939.55 532.65 937.54 C 531.91 935.99 532.03 934.25 531.92 932.61 C 530.51 933.81 529.17 935.16 528.62 937.00 C 527.40 936.99 526.20 936.99 524.99 937.00 C 524.99 935.80 525.00 934.61 525.01 933.44 C 526.16 932.30 527.30 931.15 528.42 929.99 C 525.29 929.70 521.74 930.82 518.93 929.04 C 519.40 928.02 519.86 927.01 520.31 925.99 C 523.69 926.00 527.08 926.02 530.47 925.95 C 531.01 925.63 532.09 925.00 532.63 924.69 C 533.39 923.16 534.52 921.88 535.66 920.64 C 536.37 919.25 537.33 918.04 538.34 916.89 C 536.76 916.95 535.19 917.02 533.62 917.13 C 530.90 918.77 527.55 917.72 524.55 918.05 C 524.00 918.36 522.89 918.98 522.34 919.29 C 520.32 922.89 517.68 926.10 515.66 929.70 C 514.89 930.10 514.12 930.52 513.37 930.96 C 512.76 930.61 511.52 929.91 510.90 929.56 C 510.99 928.19 511.10 926.84 511.53 925.55 C 512.87 923.73 514.10 921.84 515.28 919.92 C 512.24 919.47 506.89 921.70 505.91 917.66 C 506.27 917.02 507.01 915.73 507.37 915.09 C 509.76 915.14 512.08 914.66 514.31 913.82 C 512.19 911.68 510.11 909.51 507.85 907.53 C 507.97 906.47 508.20 905.45 508.55 904.47 C 509.82 903.99 511.20 904.01 512.55 903.89 C 515.36 907.06 518.54 909.88 521.41 913.01 C 523.40 913.00 525.39 912.99 527.39 912.89 C 530.37 911.11 534.05 912.33 537.33 911.99 C 536.47 908.71 532.61 907.89 530.52 905.51 C 528.22 904.86 525.46 904.37 523.40 905.89 C 521.20 906.00 519.00 906.01 516.80 906.01 C 516.91 904.83 517.14 903.68 517.50 902.57 C 519.75 901.88 522.10 901.60 524.34 900.82 C 522.89 899.24 520.86 897.96 520.00 896.01 C 519.80 893.89 522.12 893.84 523.48 894.48 C 524.71 895.37 525.90 896.34 527.07 897.35 C 527.09 894.74 526.58 892.02 527.48 889.52 C 528.60 889.16 529.75 888.92 530.94 888.81 C 530.98 889.99 531.05 891.18 531.13 892.39 C 532.81 895.13 531.72 898.53 532.00 901.58 C 534.16 902.38 535.69 904.13 537.32 905.69 C 538.76 906.37 539.98 907.41 541.21 908.45 C 538.83 905.48 541.14 901.41 539.11 898.39 C 539.00 896.39 538.99 894.40 538.98 892.42 C 537.29 891.75 535.93 890.54 534.64 889.33 C 531.98 887.86 529.69 885.78 526.89 884.59 C 527.01 883.20 527.00 881.79 527.48 880.49 C 528.75 879.68 530.21 880.08 531.53 880.49 C 533.67 882.24 535.75 884.11 538.29 885.30 C 538.16 883.89 537.75 882.58 537.06 881.39 C 537.06 879.74 536.78 878.02 537.49 876.48 Z" />
</g>
<g id="#8f8f8f9d">
<path fill="#8f8f8f" opacity="0.62" d=" M 765.92 949.00 C 766.61 949.00 767.98 949.00 768.66 949.00 C 768.97 949.64 769.58 950.92 769.88 951.56 C 769.92 952.07 769.99 953.11 770.03 953.62 C 770.44 954.02 771.26 954.82 771.68 955.22 C 772.20 953.44 773.32 951.97 774.48 950.58 C 776.04 951.42 777.77 952.53 776.52 954.49 C 775.55 955.75 774.57 957.00 773.61 958.28 C 775.98 957.50 779.04 955.94 781.34 957.67 C 782.74 958.60 781.83 960.30 780.60 960.84 C 778.52 961.11 776.34 960.78 774.40 961.71 C 772.30 961.69 770.35 962.42 769.60 964.54 C 768.76 965.78 767.96 967.07 767.24 968.39 C 766.75 969.34 766.25 970.29 765.76 971.25 C 767.37 971.03 769.00 970.85 770.59 970.44 C 772.25 970.02 773.70 969.15 774.37 967.51 C 775.04 966.01 775.69 964.51 776.29 963.00 C 776.98 963.00 778.34 963.00 779.03 963.00 C 779.00 963.63 778.96 964.88 778.93 965.50 C 778.16 966.74 777.41 967.99 776.67 969.27 C 778.42 968.69 780.17 968.11 781.98 967.76 C 781.99 968.57 782.00 970.19 782.01 971.00 C 781.35 971.00 780.04 971.00 779.39 971.00 C 778.99 971.42 778.18 972.26 777.78 972.69 C 780.10 973.13 781.74 974.70 782.38 976.96 C 781.65 976.97 780.20 976.98 779.47 976.99 C 777.62 975.88 775.87 974.61 774.52 972.94 C 772.76 973.01 770.89 972.77 769.37 973.86 C 768.23 973.91 767.10 973.97 765.99 974.03 L 766.03 974.60 C 767.60 975.40 769.09 976.37 770.59 977.32 C 771.86 978.25 773.17 979.13 774.48 980.05 C 776.20 979.98 778.02 980.14 779.60 979.25 C 780.05 979.13 780.95 978.88 781.40 978.75 C 783.27 977.43 785.61 977.92 787.35 979.23 C 786.42 980.12 785.50 981.03 784.59 981.95 C 784.09 982.00 783.07 982.09 782.56 982.13 C 781.92 982.42 780.63 983.01 779.99 983.30 L 780.04 983.60 C 781.52 984.26 782.83 985.23 784.06 986.30 C 784.04 986.98 784.00 988.34 783.98 989.02 C 783.36 989.00 782.11 988.96 781.49 988.94 C 780.30 988.20 779.10 987.46 777.92 986.73 C 777.99 989.15 778.00 991.57 778.01 994.00 C 777.34 994.00 776.01 994.00 775.34 994.00 C 775.04 993.36 774.43 992.07 774.13 991.43 C 773.98 989.39 774.25 987.23 773.20 985.39 C 773.13 984.89 773.00 983.89 772.93 983.39 C 771.37 982.57 769.90 981.62 768.43 980.68 C 766.95 979.52 765.33 978.56 763.68 977.70 C 763.95 979.01 764.30 980.30 764.71 981.59 C 764.52 984.15 766.00 986.10 768.47 986.72 C 770.32 987.66 771.78 989.17 773.29 990.59 C 772.54 991.09 771.78 991.58 771.02 992.06 C 769.27 990.95 767.64 989.67 765.84 988.66 C 767.34 990.67 767.39 993.35 765.79 995.34 C 765.34 994.91 764.45 994.03 764.00 993.60 C 763.99 992.24 763.99 990.91 763.99 989.58 C 762.54 990.78 761.22 992.17 760.59 993.99 C 759.94 993.99 758.64 994.00 758.00 994.01 C 758.00 993.37 758.01 992.10 758.02 991.47 C 759.62 990.05 760.89 988.33 762.03 986.54 C 762.17 983.78 761.89 981.04 760.68 978.54 C 759.99 979.50 759.33 980.49 758.72 981.51 C 757.88 983.32 756.72 984.94 755.52 986.53 C 754.89 987.85 754.87 989.35 755.75 990.60 C 755.88 991.05 756.13 991.95 756.26 992.40 C 757.34 994.43 756.96 996.78 757.03 999.00 C 756.36 999.00 755.02 999.00 754.34 999.00 C 754.04 998.36 753.42 997.07 753.11 996.43 C 753.03 995.13 752.95 993.84 752.88 992.57 C 750.69 993.22 749.91 995.42 748.54 996.99 C 746.58 997.45 745.96 995.11 745.85 993.64 C 746.99 992.56 747.93 991.30 748.43 989.81 C 746.91 989.79 745.54 990.20 744.32 991.04 C 741.83 991.40 740.68 989.28 740.77 987.08 C 741.96 987.00 743.17 986.92 744.38 986.85 C 746.52 985.44 749.19 986.12 751.60 985.98 C 752.40 984.39 753.36 982.91 754.31 981.42 C 755.77 979.81 756.66 977.81 757.44 975.81 C 755.91 976.72 754.19 977.08 752.44 977.13 C 749.97 978.05 748.63 980.30 747.39 982.46 C 746.74 983.92 745.53 984.86 744.07 985.43 C 744.02 984.10 743.99 982.78 743.99 981.47 C 744.79 980.64 745.59 979.81 746.40 979.00 C 744.46 978.98 742.52 978.98 740.60 978.94 C 741.06 976.51 743.19 975.64 745.47 975.73 C 743.95 974.21 739.63 973.31 741.51 970.53 C 743.35 969.40 744.90 971.90 746.43 972.67 C 748.07 973.46 749.77 976.13 751.62 974.12 C 753.07 974.03 754.54 973.98 756.02 973.96 C 756.01 973.58 755.98 972.82 755.97 972.44 C 754.80 971.79 753.67 971.10 752.57 970.39 C 750.84 969.24 749.13 968.09 747.40 966.98 C 745.95 968.07 744.06 968.15 742.41 968.75 C 741.96 968.87 741.05 969.12 740.60 969.24 C 738.95 970.77 735.53 969.94 736.00 967.40 C 736.78 966.25 738.23 966.07 739.42 965.58 C 740.75 965.26 742.09 964.97 743.45 964.73 C 741.96 963.67 740.38 962.74 739.02 961.55 C 738.52 960.02 739.61 958.85 740.47 957.75 C 742.00 958.92 743.55 960.09 745.07 961.33 C 744.99 959.01 744.98 956.70 745.00 954.40 C 745.42 953.99 746.26 953.17 746.68 952.76 C 747.42 953.99 748.17 955.24 748.94 956.49 C 748.97 958.16 749.00 959.84 749.03 961.54 C 749.94 963.06 750.95 964.55 752.29 965.76 C 753.77 966.50 755.16 967.42 756.59 968.28 C 757.46 968.98 758.34 969.69 759.24 970.40 C 759.10 968.98 758.74 967.63 758.15 966.37 C 758.08 965.34 758.03 964.32 758.01 963.32 C 756.90 962.33 755.76 961.39 754.46 960.70 C 752.57 959.97 751.02 958.66 749.60 957.26 C 751.69 954.97 754.16 956.91 756.08 958.25 C 756.01 956.35 756.00 954.47 756.03 952.60 C 758.39 953.06 759.41 955.05 759.17 957.35 C 760.68 955.83 762.18 954.29 763.63 952.71 C 764.39 953.86 765.44 955.10 764.54 956.54 C 763.46 957.93 762.28 959.25 761.01 960.47 C 760.98 962.45 761.00 964.44 761.08 966.44 C 761.39 967.08 762.01 968.36 762.31 969.00 L 762.62 968.98 C 763.57 967.10 764.76 965.37 765.69 963.49 C 766.40 962.35 767.24 961.29 768.17 960.33 C 767.86 959.33 767.54 958.35 767.21 957.39 C 767.06 956.44 766.92 955.51 766.80 954.60 C 765.73 952.91 766.03 950.87 765.92 949.00 Z" />
</g>
<g id="#7b7b7b87">
<path fill="#7b7b7b" opacity="0.53" d=" M 967.76 956.63 C 966.43 954.33 966.63 951.44 968.56 949.57 C 969.33 950.87 970.12 952.19 970.95 953.49 C 970.96 954.79 970.99 956.09 971.04 957.41 C 972.55 956.15 973.84 954.64 974.49 952.75 C 975.77 953.13 977.02 953.57 978.29 954.07 C 977.20 955.81 976.02 957.49 974.69 959.05 C 977.19 958.99 979.70 958.98 982.22 959.01 C 982.02 960.43 982.03 962.07 980.60 962.89 C 977.84 963.17 975.07 962.99 972.32 962.94 C 970.06 965.94 967.63 968.84 965.70 972.07 C 967.30 972.02 968.91 971.99 970.53 971.96 C 973.47 970.64 975.55 968.13 976.30 965.00 C 977.04 965.00 978.51 965.01 979.24 965.02 C 978.90 966.71 978.37 968.37 977.83 970.02 C 979.21 970.00 980.60 969.99 982.00 970.00 C 982.00 970.75 982.00 972.24 982.00 972.99 C 980.52 972.98 979.05 972.99 977.60 973.01 C 978.70 974.17 979.84 975.31 981.00 976.45 C 981.00 977.16 980.99 978.57 980.99 979.28 C 977.82 978.65 975.80 976.17 973.50 974.18 C 970.88 974.82 968.20 975.19 965.50 975.11 C 968.58 977.49 971.89 979.55 974.93 981.99 C 975.36 981.80 976.21 981.41 976.63 981.21 C 977.53 981.05 978.44 980.91 979.37 980.78 C 981.83 979.34 985.39 979.38 986.39 982.52 C 985.65 982.86 984.18 983.54 983.45 983.88 C 982.14 983.95 980.85 984.02 979.58 984.12 C 980.12 985.86 981.45 986.95 983.19 987.50 C 983.02 988.83 982.66 990.94 981.01 991.05 C 979.40 990.25 978.27 988.80 976.98 987.63 C 976.99 989.94 976.99 992.26 977.00 994.59 C 976.62 994.98 975.85 995.75 975.47 996.13 C 974.64 995.25 973.82 994.38 973.00 993.53 C 972.99 990.79 972.98 988.05 973.04 985.33 C 970.22 982.77 966.73 981.14 963.86 978.67 C 964.01 980.65 963.74 982.80 964.80 984.61 C 964.86 985.14 964.99 986.18 965.06 986.70 C 967.73 987.58 970.32 989.04 971.84 991.51 C 971.60 991.94 971.13 992.81 970.89 993.24 C 969.43 992.09 967.76 991.28 966.02 990.72 C 965.99 992.13 965.98 993.56 965.99 995.00 C 965.25 995.00 963.76 995.00 963.01 995.00 C 963.00 993.52 962.99 992.06 962.99 990.60 C 961.37 992.09 959.83 993.66 958.35 995.28 C 957.85 994.51 957.38 993.75 956.94 993.00 C 958.55 990.68 960.35 988.50 962.18 986.35 C 961.84 985.34 961.50 984.35 961.14 983.37 C 961.05 981.77 961.00 980.16 960.98 978.58 C 958.69 981.88 956.09 984.95 954.09 988.45 C 954.81 989.64 955.02 991.03 955.34 992.39 C 956.20 994.48 956.01 996.78 956.04 999.00 C 955.37 999.00 954.02 999.00 953.35 999.00 C 953.04 998.36 952.41 997.08 952.10 996.44 C 952.03 995.27 951.99 994.12 951.95 992.98 C 951.58 992.99 950.84 993.02 950.47 993.03 C 949.96 994.09 949.35 995.09 948.63 996.02 C 947.19 996.26 945.95 995.46 944.73 994.91 C 945.80 993.16 946.98 991.48 948.31 989.93 C 946.00 989.99 943.70 990.00 941.40 990.00 C 940.99 989.59 940.16 988.76 939.74 988.34 C 940.99 987.58 942.25 986.82 943.49 986.04 C 945.88 985.98 948.29 985.98 950.71 986.04 C 952.95 982.99 955.47 980.11 957.31 976.79 C 955.63 976.96 953.89 976.98 952.38 977.80 C 951.86 977.85 950.82 977.94 950.30 977.99 C 949.35 979.09 948.45 980.24 947.70 981.49 C 947.14 983.88 945.02 986.30 942.74 983.89 C 943.80 982.16 944.97 980.49 946.31 978.96 C 944.38 978.98 942.47 978.98 940.57 978.94 C 941.16 976.67 943.02 975.53 945.34 975.83 C 944.22 974.73 943.10 973.63 941.99 972.56 C 942.01 971.81 942.06 970.31 942.09 969.56 C 944.78 971.09 947.19 973.09 949.57 975.08 C 950.94 974.95 952.37 974.90 953.61 974.16 C 954.74 974.07 955.88 974.01 957.04 973.97 L 956.96 973.40 C 954.21 971.99 951.55 970.33 949.52 967.99 C 947.45 968.01 945.20 967.64 943.38 968.87 C 941.11 969.00 938.84 969.01 936.58 968.96 C 937.14 967.03 938.75 965.92 940.44 965.03 C 941.79 964.99 943.14 964.95 944.51 964.91 C 942.53 963.25 939.40 962.13 939.77 959.01 C 941.01 958.99 942.27 958.99 943.54 959.00 C 944.35 959.79 945.17 960.59 946.01 961.39 C 945.99 958.85 945.99 956.31 946.02 953.78 C 947.43 953.95 949.06 953.96 949.89 955.39 C 950.13 958.12 950.00 960.87 949.97 963.61 C 952.63 966.38 955.92 968.39 959.23 970.30 C 959.03 968.64 958.84 967.00 958.45 965.39 C 957.72 961.00 951.80 961.14 950.57 957.07 C 951.88 957.02 953.20 957.00 954.54 956.99 C 955.35 957.78 956.17 958.59 957.00 959.40 C 956.99 957.44 957.00 955.50 957.07 953.57 C 959.75 954.18 960.43 956.53 960.08 959.02 L 960.56 958.95 C 961.29 957.49 962.24 956.16 963.29 954.92 C 964.06 954.96 965.60 955.03 966.37 955.06 C 964.98 957.83 963.31 960.55 960.86 962.52 C 961.00 963.91 961.13 965.34 961.81 966.62 C 961.91 967.90 962.02 969.19 962.13 970.49 C 964.58 967.65 966.05 964.07 968.92 961.59 C 967.85 960.13 967.97 958.30 967.76 956.63 Z" />
</g>
<g id="#191c2020">
<path fill="#191c20" opacity="0.13" d=" M 298.01 1010.70 C 301.17 1012.16 302.60 1015.57 305.47 1017.42 C 306.00 1015.27 306.52 1013.13 307.06 1011.00 C 308.40 1010.98 309.73 1010.97 311.07 1010.98 C 311.06 1013.77 310.80 1016.58 310.04 1019.30 C 312.40 1018.26 314.67 1017.01 317.09 1016.10 C 319.20 1015.24 320.77 1017.99 319.82 1019.72 C 316.53 1022.45 312.16 1023.32 308.73 1025.82 C 307.02 1030.14 306.54 1034.87 305.13 1039.32 C 307.90 1037.69 310.94 1036.41 313.32 1034.22 C 314.55 1031.13 314.32 1027.63 315.67 1024.57 C 316.81 1024.20 317.97 1023.90 319.15 1023.68 C 318.94 1026.23 318.62 1028.78 318.10 1031.30 C 320.03 1030.43 322.28 1027.96 324.43 1029.59 C 326.41 1031.95 322.30 1032.97 321.05 1034.41 C 322.56 1036.33 325.26 1036.50 327.40 1037.38 C 326.62 1038.23 326.36 1040.07 324.90 1040.00 C 321.82 1039.95 319.09 1038.08 316.02 1037.92 C 312.93 1038.80 310.40 1040.95 307.58 1042.42 C 311.84 1044.21 316.47 1044.90 320.97 1045.89 C 324.52 1043.84 327.39 1040.73 331.17 1039.04 C 333.14 1038.35 334.77 1040.91 333.79 1042.58 C 331.70 1044.57 329.20 1046.05 326.87 1047.74 C 329.60 1048.52 333.64 1048.03 335.10 1050.99 C 334.48 1051.92 333.76 1052.79 333.06 1053.69 C 330.93 1053.25 328.77 1052.96 326.61 1052.76 C 327.65 1055.23 328.98 1057.58 329.90 1060.12 C 330.03 1062.17 326.93 1062.53 325.74 1061.35 C 322.76 1058.35 322.29 1053.70 319.27 1050.74 C 315.28 1049.14 310.92 1048.76 306.74 1047.88 C 308.15 1050.47 309.08 1053.52 311.33 1055.53 C 314.50 1056.96 318.13 1056.59 321.44 1057.56 C 322.14 1058.73 322.24 1060.25 320.70 1060.79 C 318.44 1061.51 316.15 1060.46 313.96 1059.97 C 314.90 1062.38 318.30 1065.53 315.10 1067.61 C 313.63 1065.92 312.11 1064.28 310.55 1062.69 C 309.88 1064.60 309.44 1066.66 308.30 1068.38 C 307.22 1069.58 305.89 1068.32 304.75 1067.99 C 305.80 1064.69 307.33 1061.51 307.94 1058.09 C 306.72 1055.07 304.73 1052.44 303.06 1049.67 C 301.65 1053.95 300.44 1058.39 300.08 1062.90 C 301.69 1067.15 305.12 1070.37 307.49 1074.20 C 306.42 1074.99 305.43 1076.14 303.99 1076.14 C 301.50 1074.55 299.97 1071.93 298.18 1069.67 C 297.60 1071.93 297.14 1074.25 296.26 1076.43 C 294.97 1077.48 292.98 1077.27 292.17 1075.74 C 291.88 1073.36 292.71 1071.05 293.11 1068.75 C 290.62 1069.69 288.21 1070.81 285.91 1072.14 C 284.87 1071.31 283.82 1070.49 282.79 1069.69 C 285.77 1065.62 291.03 1064.74 294.71 1061.68 C 296.58 1057.61 296.67 1052.95 298.08 1048.71 C 295.27 1050.24 291.98 1051.33 289.92 1053.88 C 288.78 1057.12 288.75 1060.64 287.84 1063.97 C 287.15 1063.98 285.77 1064.01 285.08 1064.02 C 285.00 1061.60 284.94 1059.19 284.91 1056.79 C 283.03 1057.83 281.05 1058.70 279.00 1059.36 C 279.00 1058.00 279.02 1056.66 279.04 1055.34 C 280.47 1054.72 281.90 1054.10 283.34 1053.49 C 281.38 1052.30 279.27 1051.39 277.09 1050.73 C 277.06 1050.01 276.99 1048.58 276.96 1047.86 C 280.76 1047.64 284.17 1049.73 287.87 1049.96 C 290.87 1048.74 293.49 1046.78 296.29 1045.18 C 291.89 1044.14 287.54 1042.90 283.09 1042.13 C 278.75 1043.34 276.05 1047.50 271.84 1048.99 C 270.42 1049.19 269.51 1047.78 268.44 1047.14 C 270.38 1044.19 273.36 1042.28 276.27 1040.43 C 274.00 1039.78 271.67 1039.28 269.54 1038.28 C 268.38 1036.96 269.45 1035.33 269.89 1033.99 C 272.24 1034.60 274.63 1034.97 277.05 1035.18 C 275.46 1032.25 273.89 1029.21 273.80 1025.80 C 275.37 1026.19 277.72 1025.44 278.58 1027.28 C 280.40 1030.36 281.76 1033.70 283.36 1036.91 C 287.79 1038.47 292.45 1039.19 297.04 1040.16 C 295.43 1037.68 294.30 1034.84 292.21 1032.73 C 289.60 1031.00 286.29 1031.36 283.38 1030.59 C 282.27 1030.01 280.40 1028.93 281.55 1027.53 C 283.94 1026.75 286.49 1027.01 288.96 1027.01 C 287.51 1025.19 286.74 1023.02 286.88 1020.70 C 289.83 1020.61 291.29 1023.17 292.79 1025.26 C 293.38 1023.29 293.97 1021.33 294.57 1019.38 C 295.79 1019.21 297.02 1019.04 298.25 1018.90 C 298.00 1022.73 295.88 1026.21 295.93 1030.06 C 296.78 1033.15 298.95 1035.64 300.63 1038.31 C 301.29 1033.75 302.88 1029.40 303.75 1024.89 C 301.73 1021.10 298.10 1018.20 296.89 1013.98 C 297.20 1012.85 297.57 1011.76 298.01 1010.70 Z" />
</g>
<g id="#6a768182">
<path fill="#6a7681" opacity="0.51" d=" M 378.14 1059.64 C 379.09 1060.55 380.03 1061.47 380.99 1062.41 C 381.00 1063.74 381.03 1065.08 381.08 1066.43 C 382.79 1065.65 384.24 1064.43 385.48 1063.03 C 386.11 1063.02 387.37 1063.00 388.00 1062.99 C 387.99 1064.16 387.99 1065.35 387.98 1066.55 C 384.76 1067.76 383.23 1071.23 380.02 1072.45 C 379.98 1076.42 379.99 1080.40 380.00 1084.39 C 382.03 1082.48 383.99 1080.50 386.00 1078.58 C 386.00 1075.23 385.97 1071.90 386.06 1068.57 C 389.50 1069.24 389.20 1072.61 389.04 1075.38 C 390.31 1074.14 391.57 1072.89 392.83 1071.65 C 395.47 1074.15 392.31 1076.24 390.62 1078.02 C 392.74 1077.99 394.87 1077.99 397.00 1078.01 C 397.00 1078.75 397.00 1080.25 397.00 1081.00 C 393.81 1080.99 390.62 1080.99 387.43 1081.00 C 385.81 1082.65 384.20 1084.31 382.62 1086.00 C 386.60 1085.91 390.61 1086.22 394.58 1085.88 C 396.43 1083.39 398.32 1080.93 400.54 1078.75 C 401.80 1079.15 403.04 1079.58 404.29 1080.07 C 402.98 1082.23 401.45 1084.24 399.65 1086.01 C 400.93 1086.00 402.21 1086.00 403.50 1086.02 C 404.44 1086.85 405.39 1087.68 406.34 1088.52 C 404.25 1090.59 401.26 1089.95 398.62 1090.02 C 400.03 1091.53 401.48 1093.00 402.99 1094.42 C 402.99 1095.60 402.99 1096.79 403.00 1098.00 C 402.34 1098.00 401.02 1098.02 400.36 1098.02 C 397.84 1095.56 396.15 1092.43 393.64 1089.98 C 389.96 1090.02 386.29 1089.98 382.62 1090.00 C 384.51 1092.04 386.50 1093.98 388.42 1096.01 C 390.84 1095.81 393.70 1096.76 395.66 1094.87 C 397.07 1096.17 397.29 1097.67 395.84 1099.08 C 394.10 1099.02 392.36 1098.99 390.63 1098.96 C 392.14 1100.41 393.54 1102.02 394.43 1103.96 C 393.72 1103.95 392.30 1103.93 391.59 1103.92 C 390.47 1103.03 389.31 1102.22 388.08 1101.55 C 388.01 1103.35 387.99 1105.17 387.98 1107.00 C 387.23 1107.00 385.73 1107.00 384.98 1107.00 C 384.86 1104.23 384.93 1101.46 385.82 1098.82 C 384.57 1096.28 381.91 1094.68 380.00 1092.63 C 380.00 1096.27 379.99 1099.92 380.00 1103.58 C 382.76 1106.15 385.30 1108.96 388.13 1111.46 C 387.75 1111.85 386.98 1112.62 386.59 1113.01 C 386.06 1113.00 385.01 1112.98 384.48 1112.97 C 383.24 1111.55 381.80 1110.33 380.07 1109.58 C 380.03 1110.90 380.00 1112.23 379.99 1113.58 C 379.04 1114.49 378.10 1115.42 377.15 1116.36 C 375.64 1114.03 375.98 1111.23 375.97 1108.62 C 374.46 1110.03 372.98 1111.48 371.56 1113.00 C 370.37 1112.98 369.19 1112.98 368.00 1113.00 C 368.00 1112.34 367.98 1111.04 367.97 1110.39 C 370.41 1107.84 373.56 1106.16 376.02 1103.64 C 375.98 1099.96 376.00 1096.29 376.01 1092.62 C 374.05 1094.57 371.78 1096.26 370.17 1098.53 C 370.96 1101.60 372.49 1106.33 368.21 1107.43 C 367.91 1105.53 368.48 1103.19 366.60 1101.97 C 365.06 1101.72 364.36 1103.42 363.30 1104.20 C 360.42 1101.87 363.73 1099.75 365.37 1097.99 C 363.24 1097.99 361.12 1097.99 359.00 1097.99 C 359.00 1097.25 359.00 1095.75 359.00 1095.00 C 362.19 1094.99 365.39 1094.99 368.59 1095.00 C 370.19 1093.33 371.80 1091.67 373.38 1090.00 C 369.72 1089.99 366.06 1089.99 362.41 1090.00 C 360.17 1092.38 357.82 1094.64 355.56 1097.00 C 354.92 1097.00 353.64 1097.00 353.00 1097.00 C 353.00 1096.36 353.00 1095.08 353.01 1094.44 C 354.50 1093.00 355.95 1091.54 357.37 1090.05 C 355.32 1089.69 352.41 1090.91 351.20 1088.63 C 351.10 1087.97 350.88 1086.65 350.77 1085.99 C 352.94 1085.99 355.11 1086.01 357.29 1086.04 C 356.16 1083.98 354.61 1082.23 353.17 1080.42 C 352.33 1079.10 354.14 1078.41 354.98 1077.80 C 357.82 1080.14 360.79 1082.62 362.46 1085.98 C 366.43 1086.01 370.41 1085.99 374.38 1086.00 C 372.48 1083.95 370.49 1082.00 368.57 1079.98 C 366.02 1079.84 363.46 1079.96 361.02 1080.78 C 359.44 1079.58 360.11 1078.17 361.16 1076.92 C 362.57 1076.95 363.98 1076.99 365.40 1077.03 C 364.60 1076.19 363.80 1075.36 363.00 1074.55 C 363.01 1073.81 363.05 1072.32 363.06 1071.58 C 364.96 1072.45 366.57 1073.81 367.97 1075.36 C 367.77 1072.59 367.51 1069.23 370.94 1068.57 C 371.03 1071.89 371.00 1075.23 371.00 1078.57 C 372.65 1080.18 374.31 1081.80 376.01 1083.38 C 376.33 1079.68 375.05 1075.57 376.99 1072.19 C 373.80 1070.68 371.49 1067.99 369.01 1065.58 C 369.01 1064.94 369.00 1063.65 368.99 1063.00 C 370.19 1062.99 371.38 1062.99 372.59 1063.01 C 373.99 1064.51 375.46 1065.96 376.97 1067.38 C 376.98 1064.75 376.64 1061.96 378.14 1059.64 Z" />
</g>
<g id="#171a1c1d">
<path fill="#171a1c" opacity="0.11" d=" M 667.30 1063.16 C 668.95 1062.72 671.94 1062.67 671.95 1065.03 C 672.55 1070.77 669.70 1076.24 670.05 1081.97 C 673.74 1086.89 678.09 1091.37 681.88 1096.26 C 681.53 1091.81 683.08 1087.47 682.94 1083.08 C 680.64 1078.14 673.19 1076.08 673.85 1069.80 C 678.46 1069.27 680.83 1073.67 683.89 1076.27 C 683.98 1073.66 683.76 1071.00 684.53 1068.49 C 685.95 1068.06 687.44 1067.97 688.93 1067.81 C 688.95 1070.59 688.98 1073.38 689.06 1076.18 C 692.18 1074.08 695.16 1071.12 699.27 1071.89 C 699.06 1078.15 691.78 1079.30 688.38 1083.38 C 687.61 1087.59 687.17 1091.87 686.88 1096.16 C 691.70 1092.63 696.65 1089.03 700.68 1084.64 C 701.28 1078.59 701.49 1072.48 702.52 1066.48 C 704.16 1065.71 705.99 1066.17 707.73 1066.25 C 707.98 1070.30 708.03 1074.37 708.12 1078.44 C 710.76 1076.68 713.14 1074.58 715.81 1072.87 C 716.92 1073.33 718.03 1073.80 719.15 1074.27 C 719.53 1078.65 715.21 1080.82 712.85 1083.83 C 716.98 1085.14 722.36 1084.03 725.09 1088.14 C 724.09 1089.70 723.37 1092.44 720.97 1091.96 C 715.67 1091.34 710.47 1090.04 705.18 1089.41 C 700.50 1093.75 695.52 1097.76 690.72 1101.96 C 694.91 1101.98 699.18 1101.68 703.28 1102.83 C 707.32 1100.12 710.92 1096.83 714.16 1093.22 C 715.14 1093.54 716.14 1093.87 717.14 1094.21 C 717.58 1098.09 714.06 1100.30 711.84 1102.87 C 714.10 1103.49 716.40 1103.95 718.73 1104.34 C 719.16 1105.20 719.61 1106.08 720.06 1106.97 C 717.52 1109.63 713.87 1109.11 710.63 1108.37 C 712.48 1110.98 714.36 1113.57 716.27 1116.14 C 715.17 1117.25 714.08 1118.37 713.00 1119.51 C 709.42 1116.48 707.38 1112.16 704.20 1108.81 C 700.13 1106.61 695.28 1106.98 690.81 1107.02 C 694.80 1111.52 698.75 1116.06 702.35 1120.89 C 708.59 1121.42 715.05 1120.05 721.12 1122.09 C 720.92 1123.86 721.24 1125.81 720.39 1127.47 C 716.68 1128.57 712.71 1127.85 708.90 1128.01 C 710.57 1130.70 713.22 1132.92 714.12 1136.01 C 713.33 1137.77 711.43 1139.71 709.33 1138.80 C 706.95 1136.79 705.39 1134.01 703.29 1131.73 C 702.79 1135.86 702.07 1139.97 700.90 1143.98 C 699.35 1143.94 697.80 1143.92 696.26 1143.92 C 695.84 1142.91 695.43 1141.92 695.04 1140.94 C 696.23 1135.94 696.61 1130.79 697.91 1125.82 C 695.09 1121.78 691.68 1118.21 688.70 1114.30 C 687.76 1113.44 687.01 1111.42 685.51 1112.49 C 684.71 1116.45 684.61 1120.65 685.35 1124.63 C 688.01 1128.29 692.48 1130.60 694.05 1135.05 C 693.78 1137.17 691.05 1137.52 689.58 1136.39 C 687.63 1134.71 686.07 1132.64 684.33 1130.78 C 683.93 1133.57 683.43 1136.37 682.80 1139.13 C 681.38 1138.89 679.80 1139.15 678.54 1138.40 C 677.25 1135.94 678.59 1133.15 678.92 1130.63 C 675.41 1132.36 672.40 1136.07 668.10 1134.77 C 667.88 1129.89 673.67 1128.45 676.63 1125.64 C 681.62 1122.38 679.71 1115.73 680.04 1110.76 C 675.58 1114.79 670.67 1118.30 666.25 1122.34 C 665.62 1127.82 666.14 1133.36 666.00 1138.87 C 664.99 1139.59 664.09 1140.48 662.94 1140.97 C 661.29 1141.18 660.22 1139.60 658.97 1138.84 C 658.84 1135.16 658.98 1131.45 659.95 1127.89 C 657.27 1129.90 654.83 1132.28 651.90 1133.94 C 649.44 1134.38 646.71 1130.84 648.65 1128.79 C 650.54 1126.58 653.03 1125.02 655.29 1123.24 C 651.87 1122.29 648.24 1122.28 644.89 1121.12 C 642.25 1120.35 642.12 1115.24 645.06 1115.06 C 650.46 1114.71 655.60 1117.17 661.00 1117.05 C 663.51 1116.71 665.40 1114.79 667.22 1113.19 C 670.11 1110.32 673.55 1108.07 676.34 1105.10 C 672.46 1105.15 668.59 1104.97 664.77 1104.32 C 662.46 1103.81 661.26 1106.51 659.72 1107.75 C 657.24 1110.15 654.55 1114.64 650.53 1112.50 C 648.43 1108.46 653.75 1106.30 656.19 1104.18 C 653.84 1102.86 651.08 1103.05 648.54 1102.44 C 647.77 1101.20 647.62 1098.86 649.25 1098.30 C 651.51 1097.81 653.85 1097.97 656.16 1097.93 C 654.70 1095.63 653.03 1093.42 652.02 1090.89 C 651.37 1088.92 653.75 1087.06 655.36 1088.59 C 658.73 1091.29 660.68 1095.33 663.41 1098.63 C 667.56 1099.63 671.81 1100.23 676.09 1100.05 C 673.71 1096.14 670.45 1092.91 667.70 1089.29 C 666.33 1087.51 664.53 1085.59 662.05 1085.95 C 657.17 1085.50 651.77 1087.19 647.28 1084.72 C 644.60 1083.44 646.36 1080.27 648.29 1079.24 C 651.92 1078.73 655.59 1079.06 659.25 1078.98 C 657.19 1076.26 652.92 1074.12 654.03 1070.11 C 654.04 1067.85 656.93 1067.44 658.39 1068.65 C 660.41 1070.16 661.80 1072.33 663.41 1074.25 C 666.33 1071.24 664.12 1066.05 667.30 1063.16 Z" />
</g>
</svg>
