<?xml version="1.0" encoding="UTF-8" ?>
<!DOCTYPE svg PUBLIC "-//W3C//DTD SVG 1.1//EN" "http://www.w3.org/Graphics/SVG/1.1/DTD/svg11.dtd">
<svg width="1100pt" height="1200pt" viewBox="0 0 1100 1200" version="1.1" xmlns="http://www.w3.org/2000/svg">
<g id="#bbbbbbff">
<path fill="#bbbbbb" opacity="1.00" d=" M 735.49 225.07 C 743.83 224.95 752.17 224.95 760.50 225.07 C 763.57 227.61 768.42 224.39 771.50 226.93 C 773.49 227.00 775.49 227.00 777.51 227.07 C 779.04 228.89 781.90 227.13 783.49 228.88 C 785.14 229.12 787.11 228.56 788.48 229.83 C 789.82 230.07 791.39 229.78 792.48 230.82 C 793.82 231.07 795.39 230.78 796.48 231.82 C 797.82 232.08 799.43 231.75 800.49 232.86 C 800.99 232.93 802.01 233.09 802.51 233.17 C 804.18 233.94 805.93 234.51 807.62 235.27 C 808.87 235.79 810.17 236.22 811.46 236.72 C 812.91 237.01 814.27 237.62 815.62 238.28 C 817.28 238.94 818.97 239.54 820.63 240.22 C 821.12 240.50 822.08 241.06 822.57 241.34 C 824.26 241.93 825.95 242.51 827.62 243.21 C 830.02 244.43 832.32 245.83 834.57 247.32 C 835.51 247.78 836.46 248.25 837.40 248.74 C 837.91 248.96 838.93 249.42 839.44 249.65 C 847.77 255.24 856.45 260.42 863.84 267.23 C 865.19 268.15 866.65 268.96 867.76 270.22 C 873.51 276.16 879.53 281.83 885.22 287.83 C 886.72 290.84 889.73 292.62 891.37 295.53 C 894.88 301.33 900.07 306.06 902.67 312.43 C 903.50 313.83 904.49 315.15 905.29 316.59 C 906.10 318.37 907.32 319.90 908.35 321.56 C 908.58 322.07 909.04 323.08 909.27 323.59 C 910.62 325.77 911.16 328.30 912.23 330.62 C 913.10 332.19 913.88 333.82 914.78 335.39 C 915.47 337.05 916.07 338.76 916.71 340.45 C 917.01 341.91 917.62 343.27 918.28 344.62 C 918.78 345.90 919.21 347.23 919.83 348.49 C 919.91 348.99 920.07 350.00 920.15 350.51 C 920.72 351.43 921.09 352.43 921.28 353.52 C 922.11 354.69 921.96 356.16 922.18 357.51 C 923.20 358.60 922.92 360.16 923.18 361.51 C 924.19 362.60 923.91 364.16 924.18 365.52 C 925.21 366.60 924.91 368.16 925.18 369.52 C 926.79 371.16 925.14 373.95 926.93 375.49 C 926.99 377.49 926.99 379.50 927.09 381.50 C 927.39 382.12 927.99 383.35 928.29 383.96 C 930.01 384.13 932.05 383.50 933.49 384.82 C 934.82 385.07 936.39 384.78 937.49 385.82 C 938.82 386.08 940.42 385.76 941.49 386.86 C 942.00 386.93 943.01 387.09 943.51 387.16 C 944.74 387.79 946.08 388.20 947.38 388.73 C 949.40 389.69 951.56 390.31 953.62 391.23 C 954.89 391.99 956.23 392.65 957.60 393.27 C 960.38 394.44 962.74 396.33 965.41 397.72 C 970.80 400.75 975.29 405.08 980.25 408.71 C 983.21 412.06 986.99 414.73 989.36 418.57 C 992.75 422.61 996.23 426.71 998.71 431.41 C 999.48 432.85 1000.48 434.16 1001.36 435.56 C 1001.58 436.07 1002.02 437.10 1002.24 437.62 C 1002.74 438.53 1003.26 439.45 1003.79 440.37 C 1004.46 442.03 1005.05 443.72 1005.73 445.38 C 1006.47 447.04 1007.09 448.75 1007.72 450.46 C 1007.87 451.55 1008.25 452.56 1008.85 453.49 C 1008.93 454.00 1009.07 455.01 1009.15 455.51 C 1010.41 456.90 1009.59 459.06 1010.82 460.49 C 1011.09 461.83 1010.69 463.49 1011.92 464.49 C 1011.98 466.16 1012.00 467.83 1012.08 469.51 C 1014.66 472.91 1011.32 478.10 1013.93 481.49 C 1013.74 483.78 1014.84 486.63 1013.07 488.50 C 1012.40 492.41 1014.17 497.01 1012.08 500.49 C 1012.00 502.16 1011.98 503.83 1011.92 505.51 C 1010.69 506.50 1011.09 508.16 1010.82 509.51 C 1009.60 510.94 1010.40 513.08 1009.15 514.49 C 1009.07 514.99 1008.91 516.01 1008.84 516.51 C 1008.19 517.75 1007.78 519.08 1007.27 520.38 C 1006.30 522.40 1005.67 524.56 1004.78 526.62 C 1004.00 527.89 1003.34 529.24 1002.73 530.60 C 1001.87 532.19 1001.08 533.80 1000.33 535.43 C 999.47 536.83 998.49 538.15 997.70 539.59 C 993.71 546.06 988.88 552.08 983.25 557.25 C 977.73 563.26 971.27 568.44 964.10 572.31 L 963.87 573.37 C 958.84 568.63 954.47 563.16 948.73 559.22 C 941.09 553.24 932.73 548.26 924.07 543.91 C 915.79 538.57 907.27 533.51 898.02 529.99 C 895.76 528.82 892.21 528.15 892.13 525.03 C 884.46 478.05 859.32 434.61 824.10 402.86 C 817.48 397.83 811.51 391.95 804.39 387.62 C 777.69 368.82 746.54 356.18 714.16 351.70 C 707.81 350.79 701.44 349.75 695.01 350.01 C 690.03 350.20 685.13 348.38 680.17 349.32 C 674.04 350.48 667.77 349.47 661.64 350.49 C 627.52 354.22 593.86 365.63 565.66 385.40 C 585.34 390.56 603.60 400.08 620.26 411.63 C 630.31 419.53 640.43 427.59 648.41 437.67 C 658.05 448.45 666.13 460.59 672.34 473.66 C 677.66 482.84 681.07 492.97 683.94 503.15 C 686.13 509.52 687.13 516.20 688.33 522.81 C 695.69 524.65 703.25 525.81 710.32 528.67 C 718.52 531.91 726.62 535.79 733.41 541.50 C 732.62 546.72 733.48 552.07 732.11 557.22 C 727.45 556.23 722.67 555.82 717.96 556.70 C 695.41 557.42 673.25 565.59 655.44 579.40 C 632.63 596.38 617.48 622.70 612.74 650.63 C 596.01 653.23 579.74 661.92 569.86 675.90 C 560.21 687.90 556.04 703.67 556.93 718.91 C 552.95 719.04 548.97 718.98 544.99 718.93 C 540.29 718.84 535.67 719.91 530.98 720.02 C 476.65 719.96 422.31 720.05 367.98 719.99 C 360.54 720.03 353.11 719.79 345.68 720.24 C 343.14 710.24 340.79 700.13 338.80 689.99 L 338.22 689.98 C 336.80 695.22 337.01 700.63 336.93 706.01 C 336.06 710.63 335.82 715.31 336.00 720.01 C 296.90 720.02 257.80 719.97 218.69 720.00 C 192.46 720.02 166.22 719.96 139.99 720.03 C 138.49 719.86 136.60 720.48 135.51 719.07 C 133.21 718.70 130.42 719.78 128.51 718.12 C 126.84 717.87 124.88 718.42 123.52 717.18 C 122.17 716.92 120.60 717.20 119.51 716.18 C 118.16 715.97 116.70 716.10 115.52 715.29 C 114.50 715.06 113.53 714.72 112.60 714.27 C 110.96 713.49 109.25 712.90 107.54 712.29 C 106.09 711.95 104.72 711.37 103.37 710.76 C 102.88 710.50 101.91 709.96 101.42 709.69 C 100.92 709.45 99.90 708.98 99.40 708.74 C 98.46 708.24 97.53 707.74 96.61 707.25 C 96.09 707.03 95.07 706.58 94.56 706.36 C 92.91 705.32 91.36 704.11 89.60 703.29 C 84.82 700.58 80.76 696.82 76.24 693.73 C 71.90 689.41 67.57 685.08 63.26 680.75 C 60.17 676.23 56.41 672.18 53.71 667.40 C 52.87 665.64 51.67 664.09 50.67 662.43 C 49.70 660.40 48.67 658.41 47.75 656.38 C 47.24 655.45 46.73 654.53 46.21 653.63 C 45.61 652.26 45.04 650.90 44.71 649.45 C 44.09 647.75 43.50 646.04 42.73 644.40 C 42.27 643.46 41.93 642.49 41.70 641.48 C 40.73 639.95 41.37 637.88 40.11 636.51 C 40.04 635.49 39.96 634.49 39.89 633.49 C 38.50 632.19 39.15 630.14 38.89 628.49 C 36.89 626.63 39.14 623.31 37.06 621.51 C 36.96 612.84 36.95 604.16 37.07 595.49 C 38.94 593.32 37.62 590.10 38.06 587.50 C 39.31 586.51 38.89 584.83 39.18 583.49 C 40.21 582.39 39.93 580.82 40.19 579.49 C 41.39 578.05 40.59 575.90 41.85 574.51 C 41.93 574.01 42.09 572.99 42.16 572.49 C 42.79 571.23 43.21 569.90 43.72 568.62 C 44.88 566.34 45.34 563.76 46.73 561.60 C 47.24 560.52 47.76 559.46 48.26 558.39 C 49.48 556.16 50.56 553.86 51.67 551.57 C 55.11 545.83 59.35 540.65 63.27 535.24 C 67.58 530.91 71.91 526.58 76.24 522.27 C 79.77 519.86 82.99 516.98 86.59 514.70 C 90.35 512.81 93.48 509.88 97.40 508.27 C 98.76 507.65 100.10 506.98 101.39 506.22 C 103.03 505.52 104.73 504.94 106.38 504.27 C 108.06 503.51 109.81 502.93 111.49 502.17 C 111.99 502.09 113.01 501.92 113.51 501.83 C 114.82 501.22 116.19 500.77 117.49 500.16 C 118.00 500.09 119.01 499.94 119.51 499.86 C 121.13 498.19 123.88 499.80 125.49 498.13 C 127.16 497.94 128.92 498.18 130.51 497.50 C 131.45 495.60 130.31 493.09 131.92 491.51 C 131.99 489.83 132.01 488.16 132.08 486.50 C 133.51 485.22 132.84 483.15 133.12 481.49 C 134.80 479.89 133.22 477.16 134.83 475.52 C 135.09 474.16 134.75 472.56 135.86 471.51 C 135.93 471.01 136.07 469.99 136.14 469.49 C 137.34 468.08 136.74 466.03 137.71 464.52 C 137.89 463.43 138.27 462.42 138.85 461.51 C 138.93 461.00 139.07 459.99 139.15 459.49 C 139.73 458.56 140.11 457.55 140.28 456.46 C 140.91 454.75 141.52 453.04 142.27 451.38 C 142.79 450.14 143.21 448.86 143.73 447.62 C 144.70 445.59 145.32 443.42 146.24 441.37 C 146.50 440.88 147.03 439.90 147.29 439.41 C 148.09 437.80 148.89 436.19 149.74 434.61 C 150.24 433.52 150.76 432.45 151.25 431.38 C 151.75 430.45 152.25 429.53 152.76 428.61 C 152.98 428.10 153.42 427.07 153.64 426.56 C 154.68 424.91 155.88 423.36 156.71 421.59 C 157.50 420.15 158.50 418.84 159.29 417.41 C 163.48 409.83 169.31 403.33 174.25 396.25 C 176.53 394.15 178.60 391.88 180.25 389.25 C 186.60 383.28 192.16 376.38 199.23 371.28 C 207.16 363.99 216.22 357.96 225.37 352.25 C 228.62 351.02 231.17 348.55 234.40 347.27 C 234.91 347.04 235.93 346.58 236.44 346.35 C 238.58 344.67 241.07 343.68 243.62 342.79 C 245.98 341.10 248.98 340.85 251.42 339.30 C 251.90 339.03 252.88 338.50 253.37 338.23 C 255.04 337.53 256.75 336.90 258.46 336.29 C 259.50 336.06 260.51 335.73 261.48 335.29 C 262.51 335.05 263.51 334.71 264.48 334.29 C 265.51 334.05 266.51 333.71 267.48 333.29 C 268.56 333.10 269.57 332.72 270.49 332.15 C 270.99 332.07 272.00 331.93 272.51 331.85 C 273.91 330.60 276.05 331.38 277.49 330.18 C 278.83 329.90 280.46 330.26 281.49 329.11 C 282.49 329.03 283.50 328.96 284.51 328.89 C 286.08 327.12 288.95 328.89 290.49 327.08 C 292.16 327.01 293.83 326.99 295.51 326.92 C 297.63 324.68 301.38 327.32 303.50 325.06 C 307.08 324.43 311.36 326.15 314.49 324.07 C 322.83 323.96 331.17 323.95 339.51 324.07 C 342.89 326.69 348.10 323.31 351.50 325.93 C 353.83 326.01 356.17 325.98 358.51 326.07 C 359.76 327.53 361.84 326.83 363.51 327.12 C 365.09 328.85 367.91 327.15 369.49 328.89 C 370.49 328.96 371.50 329.03 372.51 329.10 C 374.08 330.84 376.88 329.17 378.48 330.87 C 378.99 330.94 380.00 331.08 380.51 331.15 C 381.92 332.33 383.96 331.73 385.48 332.71 C 386.57 332.88 387.57 333.26 388.49 333.85 C 388.99 333.93 390.00 334.07 390.51 334.15 C 391.43 334.73 392.44 335.11 393.54 335.28 C 395.24 335.90 396.96 336.52 398.62 337.27 C 400.28 337.93 401.96 338.51 403.61 339.22 C 405.73 340.69 408.33 341.13 410.63 342.24 C 411.12 342.50 412.10 343.03 412.59 343.29 C 413.91 343.98 415.25 344.64 416.60 345.27 C 418.19 346.11 419.80 346.91 421.43 347.67 C 422.83 348.51 424.15 349.50 425.59 350.29 C 427.66 351.21 429.33 352.80 431.41 353.71 C 432.84 354.51 434.15 355.50 435.60 356.30 C 436.05 354.44 437.41 353.05 438.30 351.41 C 442.31 344.27 447.42 337.84 452.25 331.26 C 454.57 328.61 457.62 326.57 459.35 323.44 C 460.11 322.17 461.17 321.11 462.44 320.36 C 466.78 317.87 469.22 313.12 473.57 310.64 C 479.09 305.71 485.36 301.69 491.57 297.67 C 492.52 297.22 493.47 296.77 494.43 296.33 C 495.84 295.49 497.16 294.51 498.56 293.65 C 499.07 293.42 500.09 292.96 500.59 292.73 C 501.90 292.02 503.24 291.36 504.60 290.72 C 507.01 289.13 510.03 288.91 512.39 287.22 C 514.05 286.51 515.76 285.92 517.46 285.29 C 518.49 285.05 519.50 284.72 520.48 284.30 C 521.51 284.05 522.51 283.72 523.48 283.29 C 524.56 283.12 525.57 282.73 526.49 282.14 C 526.99 282.07 528.00 281.92 528.51 281.85 C 529.42 281.26 530.42 280.88 531.52 280.72 C 533.27 279.37 535.82 280.69 537.48 279.17 C 538.83 278.89 540.49 279.30 541.49 278.08 C 543.16 278.01 544.83 277.99 546.51 277.92 C 548.37 276.18 551.20 277.30 553.50 276.93 C 554.59 275.52 556.47 276.12 557.97 275.97 C 561.15 275.99 564.33 276.06 567.51 275.93 C 569.99 273.99 573.57 275.36 576.51 275.07 C 580.56 277.75 586.45 274.24 590.50 276.93 C 592.83 277.01 595.16 276.98 597.51 277.07 C 598.76 278.53 600.84 277.83 602.51 278.12 C 604.10 279.80 606.83 278.22 608.48 279.82 C 609.82 280.09 611.44 279.74 612.49 280.87 C 613.00 280.93 614.01 281.06 614.52 281.12 C 614.89 281.35 615.63 281.80 616.00 282.03 C 621.49 278.13 625.31 271.85 631.16 268.23 C 638.14 262.12 645.63 256.55 653.59 251.71 C 656.25 250.32 658.62 248.44 661.40 247.27 C 661.91 247.04 662.93 246.58 663.44 246.35 C 664.84 245.49 666.16 244.51 667.55 243.62 C 669.57 243.03 671.59 242.38 673.40 241.28 C 676.00 239.76 678.90 238.95 681.62 237.72 C 683.29 237.07 684.97 236.46 686.62 235.74 C 687.90 235.21 689.22 234.77 690.49 234.17 C 690.99 234.09 692.01 233.93 692.51 233.85 C 693.91 232.58 696.08 233.42 697.49 232.15 C 698.00 232.08 699.01 231.93 699.51 231.86 C 700.55 230.75 702.16 231.09 703.52 230.83 C 704.59 229.77 706.16 230.07 707.52 229.83 C 709.16 228.23 711.89 229.80 713.49 228.12 C 715.15 227.83 717.23 228.52 718.49 227.07 C 720.49 227.00 722.49 227.00 724.51 226.93 C 727.57 224.38 732.42 227.62 735.49 225.07 M 302.44 369.40 C 296.17 370.62 289.70 370.70 283.58 372.61 C 279.16 373.86 274.55 374.50 270.28 376.27 C 264.80 378.57 258.82 379.63 253.65 382.68 C 242.12 387.86 231.19 394.39 221.34 402.32 C 217.51 405.84 213.05 408.68 209.81 412.82 C 206.10 417.94 204.66 424.95 207.08 430.94 C 209.02 436.74 213.93 441.31 219.57 443.49 C 225.43 444.60 231.95 444.68 236.98 441.00 C 241.06 437.77 244.95 434.27 248.99 430.98 C 255.95 426.45 262.75 421.43 270.60 418.55 C 283.87 412.60 298.36 409.16 312.87 408.74 C 318.16 407.46 323.73 407.71 329.02 408.86 C 339.81 409.38 350.47 411.83 360.64 415.44 C 367.40 417.70 373.68 422.26 381.05 422.06 C 386.73 421.25 392.73 418.96 396.09 414.05 C 399.89 408.22 401.70 400.34 398.02 394.00 C 395.23 386.84 387.77 383.51 381.13 380.83 C 365.52 374.27 348.80 370.51 331.98 368.96 C 322.14 369.31 312.23 368.44 302.44 369.40 Z" />
</g>
<g id="#aaaaaaff">
<path fill="#aaaaaa" opacity="1.00" d=" M 661.64 350.49 C 667.77 349.47 674.04 350.48 680.17 349.32 C 685.13 348.38 690.03 350.20 695.01 350.01 C 701.44 349.75 707.81 350.79 714.16 351.70 C 746.54 356.18 777.69 368.82 804.39 387.62 C 811.51 391.95 817.48 397.83 824.10 402.86 C 859.32 434.61 884.46 478.05 892.13 525.03 C 892.21 528.15 895.76 528.82 898.02 529.99 C 907.27 533.51 915.79 538.57 924.07 543.91 C 932.73 548.26 941.09 553.24 948.73 559.22 C 954.47 563.16 958.84 568.63 963.87 573.37 C 968.92 578.95 973.24 585.23 977.32 591.56 C 977.76 592.51 978.21 593.47 978.67 594.44 C 979.95 596.44 981.37 598.37 982.29 600.59 C 983.61 602.77 984.15 605.30 985.23 607.61 C 986.41 609.39 986.97 611.47 987.70 613.47 C 987.89 614.54 988.27 615.55 988.84 616.50 C 988.92 617.00 989.08 618.00 989.16 618.50 C 990.36 619.93 989.60 622.09 990.88 623.50 C 990.94 624.49 991.02 625.49 991.12 626.50 C 992.80 628.11 991.18 630.89 992.90 632.50 C 993.08 634.45 992.69 636.54 993.48 638.41 C 996.28 639.09 998.88 640.33 1001.43 641.68 C 1011.74 647.98 1021.44 656.00 1027.71 666.42 C 1028.51 667.84 1029.46 669.16 1030.33 670.56 C 1030.97 671.90 1031.62 673.24 1032.26 674.61 C 1033.77 677.08 1034.72 679.82 1035.82 682.49 C 1035.91 683.00 1036.07 684.00 1036.15 684.50 C 1037.18 685.58 1036.91 687.15 1037.19 688.51 C 1038.73 690.19 1037.20 692.92 1038.93 694.50 C 1039.06 697.83 1038.93 701.16 1039.07 704.50 C 1040.37 705.46 1040.37 707.52 1039.07 708.50 C 1038.95 711.49 1039.04 714.49 1038.93 717.50 C 1037.19 719.07 1038.72 721.79 1037.19 723.50 C 1036.92 724.84 1037.18 726.40 1036.16 727.50 C 1036.07 728.00 1035.91 729.01 1035.83 729.51 C 1035.23 730.76 1034.78 732.08 1034.27 733.38 C 1033.30 735.41 1032.62 737.55 1031.82 739.65 C 1030.66 741.57 1029.29 743.37 1028.27 745.39 C 1025.93 749.52 1022.35 752.77 1019.76 756.74 C 1017.39 759.81 1013.79 761.41 1011.18 764.22 C 1009.09 765.35 1007.55 767.28 1005.39 768.27 C 1003.64 769.14 1002.08 770.31 1000.43 771.35 C 999.93 771.58 998.92 772.04 998.41 772.27 C 996.24 773.65 993.66 774.09 991.40 775.30 C 990.44 775.68 989.47 776.02 988.49 776.30 C 987.28 777.06 985.83 776.98 984.49 777.19 C 982.79 778.73 980.07 777.19 978.49 778.93 C 976.19 779.29 973.37 778.19 971.50 779.93 C 929.34 780.11 887.18 779.92 845.02 780.03 C 843.49 779.88 841.63 780.45 840.50 779.07 C 803.68 778.93 766.85 778.98 730.04 779.05 C 729.65 779.27 728.88 779.71 728.50 779.93 C 725.16 780.04 721.83 780.04 718.50 779.93 C 717.36 778.55 715.50 779.09 714.00 778.97 C 685.17 779.08 656.33 778.88 627.50 779.07 C 624.50 781.02 620.43 779.65 617.01 779.95 C 616.63 779.73 615.87 779.29 615.49 779.08 C 613.18 778.76 610.51 779.66 608.50 778.19 C 607.14 777.94 605.61 778.15 604.50 777.19 C 603.17 776.98 601.74 777.08 600.59 776.28 C 598.97 775.51 597.28 774.92 595.61 774.30 C 593.08 772.39 589.86 773.08 586.94 772.99 C 554.64 773.01 522.35 773.02 490.06 772.97 C 488.52 773.10 486.64 772.54 485.50 773.93 C 479.83 774.05 474.16 774.05 468.50 773.93 C 467.38 772.56 465.54 773.09 464.05 772.97 C 428.62 773.08 393.19 772.90 357.76 773.06 C 353.73 755.45 349.48 737.90 345.68 720.24 C 353.11 719.79 360.54 720.03 367.98 719.99 C 422.31 720.05 476.65 719.96 530.98 720.02 C 535.67 719.91 540.29 718.84 544.99 718.93 C 548.97 718.98 552.95 719.04 556.93 718.91 C 556.04 703.67 560.21 687.90 569.86 675.90 C 579.74 661.92 596.01 653.23 612.74 650.63 C 617.48 622.70 632.63 596.38 655.44 579.40 C 673.25 565.59 695.41 557.42 717.96 556.70 C 722.67 555.82 727.45 556.23 732.11 557.22 C 731.78 561.31 732.36 565.46 731.58 569.52 C 730.56 574.43 731.43 579.50 730.44 584.42 C 729.54 589.10 730.45 593.90 729.56 598.58 C 728.58 603.48 729.42 608.53 728.44 613.43 C 727.54 618.11 728.46 622.91 727.56 627.60 C 726.61 632.19 727.37 636.92 726.57 641.54 C 726.02 644.60 725.88 647.71 725.92 650.83 C 736.61 648.00 747.54 646.14 758.17 643.08 C 764.76 670.28 770.73 697.64 777.20 724.87 C 780.12 738.28 783.51 751.58 786.29 765.02 L 786.88 765.00 C 787.02 759.65 788.32 754.40 788.02 749.04 C 788.46 743.70 789.31 738.39 789.04 733.01 C 790.23 725.71 789.76 718.29 790.96 711.00 C 790.61 703.61 792.34 696.38 792.12 689.00 C 793.46 682.65 792.49 676.13 793.68 669.78 C 794.31 665.38 793.64 660.88 794.58 656.51 C 795.45 651.85 794.54 647.06 795.44 642.41 C 796.43 637.50 795.56 632.46 796.57 627.56 C 797.45 622.90 796.55 618.13 797.42 613.47 C 798.59 607.93 797.35 602.20 798.70 596.68 C 794.66 597.57 790.68 598.83 786.52 599.01 C 797.46 589.28 810.84 582.24 825.20 579.27 C 833.33 577.44 841.71 577.91 849.97 578.15 C 857.94 579.49 865.93 581.31 873.29 584.74 C 877.65 586.62 881.94 589.68 886.94 588.97 C 890.44 588.37 893.98 587.07 896.70 584.74 C 899.57 581.21 901.62 576.65 901.04 572.01 C 900.99 566.57 896.99 562.00 892.34 559.66 C 879.61 552.63 865.32 549.11 851.04 547.06 C 844.69 546.89 838.33 547.00 831.99 547.01 C 817.42 548.48 803.07 552.47 789.95 558.99 C 782.37 563.52 774.65 568.00 768.30 574.22 C 766.08 576.50 763.47 578.34 761.04 580.38 C 757.77 569.41 755.86 558.08 753.00 547.00 C 748.82 528.60 744.56 510.22 740.28 491.85 C 739.64 488.26 738.97 484.62 737.16 481.40 C 736.75 486.74 737.46 492.14 736.43 497.44 C 735.55 502.11 736.45 506.91 735.56 511.59 C 734.56 516.49 735.44 521.53 734.44 526.43 C 733.47 531.41 734.57 536.54 733.41 541.50 C 726.62 535.79 718.52 531.91 710.32 528.67 C 703.25 525.81 695.69 524.65 688.33 522.81 C 687.13 516.20 686.13 509.52 683.94 503.15 C 681.07 492.97 677.66 482.84 672.34 473.66 C 666.13 460.59 658.05 448.45 648.41 437.67 C 640.43 427.59 630.31 419.53 620.26 411.63 C 603.60 400.08 585.34 390.56 565.66 385.40 C 593.86 365.63 627.52 354.22 661.64 350.49 M 913.40 587.27 C 910.86 589.06 907.97 590.68 906.60 593.63 C 904.37 596.99 904.91 601.18 905.05 605.00 C 905.58 609.84 909.39 613.36 913.38 615.72 C 917.59 617.51 922.39 617.49 926.62 615.72 C 928.91 614.01 931.63 612.62 933.04 610.00 C 934.76 607.52 935.02 604.47 935.54 601.59 C 935.04 598.61 934.78 595.47 933.00 592.93 C 931.57 590.33 928.87 588.94 926.57 587.25 C 922.36 585.51 917.60 585.50 913.40 587.27 M 598.40 722.33 C 592.15 724.30 587.74 730.45 587.91 737.01 C 587.28 742.88 591.44 747.85 595.94 751.05 C 601.11 753.39 607.17 753.09 612.02 750.03 C 616.38 747.59 617.89 742.45 618.83 737.88 C 618.90 733.28 617.04 728.57 613.28 725.73 C 609.43 721.78 603.54 721.24 598.40 722.33 Z" />
<path fill="#aaaaaa" opacity="1.00" d=" M 218.69 720.00 C 257.80 719.97 296.90 720.02 336.00 720.01 C 334.62 725.24 335.22 730.63 334.82 735.96 C 333.43 742.26 334.52 748.76 333.07 755.07 C 333.36 761.09 332.39 767.01 331.95 773.00 C 327.13 773.04 322.32 772.91 317.50 773.07 C 315.78 774.74 313.16 773.74 311.04 774.03 C 308.89 773.73 306.23 774.77 304.50 773.07 C 301.50 772.94 298.50 773.04 295.50 772.93 C 293.94 771.14 291.12 772.81 289.50 771.13 C 287.83 770.87 285.86 771.41 284.50 770.15 C 284.00 770.08 283.00 769.92 282.49 769.85 C 281.05 768.72 279.07 769.18 277.52 768.31 C 276.07 767.96 274.71 767.36 273.38 766.71 C 271.43 765.96 269.40 765.35 267.59 764.29 C 266.25 763.63 264.91 762.98 263.60 762.27 C 260.09 760.62 256.62 758.91 253.42 756.70 C 249.55 754.75 246.50 751.49 242.82 749.21 C 233.56 740.54 224.61 731.31 218.69 720.00 Z" />
<path fill="#aaaaaa" opacity="1.00" d=" M 360.37 1009.70 C 365.03 1012.48 368.18 1017.21 372.28 1020.74 C 375.98 1025.66 380.11 1030.28 383.40 1035.54 C 383.71 1036.52 384.01 1037.51 384.30 1038.51 C 385.48 1041.55 385.46 1045.43 384.29 1048.49 C 384.00 1049.47 383.71 1050.47 383.42 1051.48 C 381.30 1054.56 378.56 1057.30 375.48 1059.42 C 374.48 1059.71 373.48 1059.99 372.49 1060.29 C 369.43 1061.47 365.56 1061.47 362.51 1060.30 C 361.51 1060.00 360.51 1059.71 359.53 1059.42 C 355.89 1057.31 353.63 1053.74 351.08 1050.56 C 351.03 1050.04 350.93 1049.02 350.87 1048.50 C 349.15 1046.23 350.25 1043.12 350.08 1040.50 C 351.81 1038.91 350.21 1036.14 351.85 1034.50 C 351.93 1034.00 352.08 1033.00 352.16 1032.50 C 353.34 1031.05 352.65 1028.94 353.84 1027.50 C 353.92 1027.00 354.09 1025.99 354.18 1025.49 C 354.92 1023.80 355.53 1022.06 356.26 1020.38 C 356.78 1019.12 357.21 1017.85 357.73 1016.62 C 358.36 1015.27 358.96 1013.91 359.30 1012.47 C 359.57 1011.78 360.10 1010.40 360.37 1009.70 Z" />
</g>
<g id="#ffffffff">
<path fill="#ffffff" opacity="1.00" d=" M 302.44 369.40 C 312.23 368.44 322.14 369.31 331.98 368.96 C 348.80 370.51 365.52 374.27 381.13 380.83 C 387.77 383.51 395.23 386.84 398.02 394.00 C 401.70 400.34 399.89 408.22 396.09 414.05 C 392.73 418.96 386.73 421.25 381.05 422.06 C 373.68 422.26 367.40 417.70 360.64 415.44 C 350.47 411.83 339.81 409.38 329.02 408.86 C 323.73 407.71 318.16 407.46 312.87 408.74 C 298.36 409.16 283.87 412.60 270.60 418.55 C 262.75 421.43 255.95 426.45 248.99 430.98 C 244.95 434.27 241.06 437.77 236.98 441.00 C 231.95 444.68 225.43 444.60 219.57 443.49 C 213.93 441.31 209.02 436.74 207.08 430.94 C 204.66 424.95 206.10 417.94 209.81 412.82 C 213.05 408.68 217.51 405.84 221.34 402.32 C 231.19 394.39 242.12 387.86 253.65 382.68 C 258.82 379.63 264.80 378.57 270.28 376.27 C 274.55 374.50 279.16 373.86 283.58 372.61 C 289.70 370.70 296.17 370.62 302.44 369.40 Z" />
<path fill="#ffffff" opacity="1.00" d=" M 789.95 558.99 C 803.07 552.47 817.42 548.48 831.99 547.01 C 838.33 547.00 844.69 546.89 851.04 547.06 C 865.32 549.11 879.61 552.63 892.34 559.66 C 896.99 562.00 900.99 566.57 901.04 572.01 C 901.62 576.65 899.57 581.21 896.70 584.74 C 893.98 587.07 890.44 588.37 886.94 588.97 C 881.94 589.68 877.65 586.62 873.29 584.74 C 865.93 581.31 857.94 579.49 849.97 578.15 C 841.71 577.91 833.33 577.44 825.20 579.27 C 810.84 582.24 797.46 589.28 786.52 599.01 C 786.24 599.26 785.68 599.76 785.39 600.00 C 778.96 601.03 772.62 602.61 766.31 604.20 C 764.30 596.45 762.78 588.59 760.72 580.86 L 761.04 580.38 C 763.47 578.34 766.08 576.50 768.30 574.22 C 774.65 568.00 782.37 563.52 789.95 558.99 Z" />
<path fill="#ffffff" opacity="1.00" d=" M 913.40 587.27 C 917.60 585.50 922.36 585.51 926.57 587.25 C 928.87 588.94 931.57 590.33 933.00 592.93 C 934.78 595.47 935.04 598.61 935.54 601.59 C 935.02 604.47 934.76 607.52 933.04 610.00 C 931.63 612.62 928.91 614.01 926.62 615.72 C 922.39 617.49 917.59 617.51 913.38 615.72 C 909.39 613.36 905.58 609.84 905.05 605.00 C 904.91 601.18 904.37 596.99 906.60 593.63 C 907.97 590.68 910.86 589.06 913.40 587.27 Z" />
<path fill="#ffffff" opacity="1.00" d=" M 598.40 722.33 C 603.54 721.24 609.43 721.78 613.28 725.73 C 617.04 728.57 618.90 733.28 618.83 737.88 C 617.89 742.45 616.38 747.59 612.02 750.03 C 607.17 753.09 601.11 753.39 595.94 751.05 C 591.44 747.85 587.28 742.88 587.91 737.01 C 587.74 730.45 592.15 724.30 598.40 722.33 Z" />
</g>
<g id="#ecc24eff">
<path fill="#ecc24e" opacity="1.00" d=" M 737.16 481.40 C 738.97 484.62 739.64 488.26 740.28 491.85 C 744.56 510.22 748.82 528.60 753.00 547.00 C 755.86 558.08 757.77 569.41 761.04 580.38 L 760.72 580.86 C 758.34 584.46 755.56 588.39 756.01 592.95 C 756.94 599.00 760.90 605.13 767.08 606.79 C 770.45 607.38 774.01 607.32 777.31 606.36 C 780.70 605.29 782.98 602.43 785.39 600.00 C 785.68 599.76 786.24 599.26 786.52 599.01 C 790.68 598.83 794.66 597.57 798.70 596.68 C 797.35 602.20 798.59 607.93 797.42 613.47 C 796.55 618.13 797.45 622.90 796.57 627.56 C 795.56 632.46 796.43 637.50 795.44 642.41 C 794.54 647.06 795.45 651.85 794.58 656.51 C 793.64 660.88 794.31 665.38 793.68 669.78 C 792.49 676.13 793.46 682.65 792.12 689.00 C 792.34 696.38 790.61 703.61 790.96 711.00 C 789.76 718.29 790.23 725.71 789.04 733.01 C 789.31 738.39 788.46 743.70 788.02 749.04 C 788.32 754.40 787.02 759.65 786.88 765.00 L 786.29 765.02 C 783.51 751.58 780.12 738.28 777.20 724.87 C 770.73 697.64 764.76 670.28 758.17 643.08 C 747.54 646.14 736.61 648.00 725.92 650.83 C 725.88 647.71 726.02 644.60 726.57 641.54 C 727.37 636.92 726.61 632.19 727.56 627.60 C 728.46 622.91 727.54 618.11 728.44 613.43 C 729.42 608.53 728.58 603.48 729.56 598.58 C 730.45 593.90 729.54 589.10 730.44 584.42 C 731.43 579.50 730.56 574.43 731.58 569.52 C 732.36 565.46 731.78 561.31 732.11 557.22 C 733.48 552.07 732.62 546.72 733.41 541.50 C 734.57 536.54 733.47 531.41 734.44 526.43 C 735.44 521.53 734.56 516.49 735.56 511.59 C 736.45 506.91 735.55 502.11 736.43 497.44 C 737.46 492.14 736.75 486.74 737.16 481.40 Z" />
</g>
<g id="#ffd561ff">
<path fill="#ffd561" opacity="1.00" d=" M 756.01 592.95 C 755.56 588.39 758.34 584.46 760.72 580.86 C 762.78 588.59 764.30 596.45 766.31 604.20 C 772.62 602.61 778.96 601.03 785.39 600.00 C 782.98 602.43 780.70 605.29 777.31 606.36 C 774.01 607.32 770.45 607.38 767.08 606.79 C 760.90 605.13 756.94 599.00 756.01 592.95 Z" />
</g>
<g id="#ffeb2cff">
<path fill="#ffeb2c" opacity="1.00" d=" M 338.22 689.98 L 338.80 689.99 C 340.79 700.13 343.14 710.24 345.68 720.24 C 349.48 737.90 353.73 755.45 357.76 773.06 C 357.88 773.68 358.10 774.92 358.22 775.54 C 359.42 776.92 358.88 778.85 359.11 780.52 C 360.31 781.51 359.89 783.17 360.16 784.53 C 361.26 785.57 360.90 787.17 361.16 788.53 C 362.81 790.13 361.19 792.86 362.84 794.47 C 363.11 795.81 362.68 797.48 363.90 798.48 C 363.96 799.48 364.03 800.50 364.10 801.52 C 365.93 803.04 364.05 805.97 365.93 807.48 C 365.97 808.69 366.00 809.91 366.03 811.14 C 367.34 811.21 368.49 810.87 369.48 810.11 C 371.14 809.84 373.14 810.46 374.47 809.16 C 375.81 808.90 377.42 809.25 378.47 808.16 C 379.82 807.87 381.50 808.32 382.48 807.08 C 383.82 807.01 385.17 806.97 386.52 806.92 C 387.49 805.66 389.17 806.11 390.53 805.84 C 391.57 804.73 393.17 805.08 394.52 804.84 C 395.70 803.58 397.51 804.11 399.01 803.93 C 399.00 805.78 399.00 807.65 398.94 809.52 C 397.08 811.48 398.33 814.53 398.00 816.97 C 397.60 819.74 399.00 823.18 397.06 825.48 C 396.90 829.82 397.09 834.17 396.94 838.52 C 395.08 840.50 396.34 843.59 396.00 846.05 C 395.61 848.79 396.98 852.20 395.06 854.49 C 394.90 858.82 395.09 863.17 394.94 867.52 C 392.99 869.79 394.39 873.21 394.00 875.98 C 393.65 878.41 394.92 881.49 393.06 883.48 C 392.91 887.82 393.09 892.17 392.94 896.52 C 391.48 897.57 392.14 899.46 391.97 900.96 C 391.99 904.48 392.06 907.99 391.94 911.51 C 389.20 915.85 392.81 922.15 390.06 926.48 C 389.78 931.16 390.32 935.89 389.82 940.55 L 389.06 941.48 C 388.78 946.16 389.31 950.89 388.82 955.55 L 388.06 956.49 C 387.90 960.31 388.08 964.13 388.00 967.97 C 388.28 969.46 387.30 970.63 386.02 971.27 C 385.99 970.00 385.97 968.73 385.94 967.48 C 384.07 965.98 385.87 963.12 384.16 961.53 C 383.88 960.17 384.31 958.50 383.10 957.52 C 383.03 956.49 382.96 955.48 382.90 954.48 C 381.47 953.20 382.16 951.13 381.89 949.48 C 380.69 948.47 381.10 946.81 380.84 945.47 C 379.73 944.41 380.08 942.81 379.83 941.48 C 378.20 939.85 379.80 937.13 378.16 935.53 C 377.88 934.16 378.31 932.50 377.10 931.52 C 377.03 930.49 376.96 929.48 376.90 928.48 C 375.08 926.94 376.91 924.04 375.10 922.52 C 375.03 921.49 374.96 920.48 374.90 919.48 C 373.67 918.48 374.11 916.81 373.84 915.47 C 372.15 913.86 373.88 911.05 372.10 909.52 C 372.03 908.49 371.96 907.48 371.90 906.48 C 370.68 905.48 371.11 903.81 370.84 902.47 C 369.16 900.86 370.88 898.05 369.10 896.52 C 369.03 895.49 368.96 894.48 368.90 893.48 C 367.68 892.48 368.11 890.81 367.84 889.47 C 366.18 887.86 367.81 885.12 366.16 883.53 C 365.88 882.17 366.32 880.50 365.10 879.52 C 365.03 878.49 364.96 877.48 364.90 876.48 C 363.12 874.93 364.84 872.13 363.16 870.53 C 362.88 869.17 363.31 867.50 362.10 866.52 C 362.03 865.49 361.96 864.48 361.90 863.48 C 360.12 861.93 361.84 859.12 360.16 857.53 C 359.87 856.16 360.35 854.45 359.05 853.51 C 359.03 852.28 359.03 851.06 359.05 849.85 C 357.29 851.77 354.37 850.21 352.52 851.83 C 351.18 852.08 349.57 851.73 348.52 852.84 C 347.17 853.10 345.49 852.66 344.52 853.92 C 343.17 853.97 341.82 854.01 340.48 854.08 C 339.50 855.32 337.82 854.87 336.47 855.16 C 335.42 856.25 333.81 855.90 332.47 856.17 C 330.60 857.77 327.67 856.24 325.87 858.17 C 326.17 856.61 325.49 854.63 326.94 853.52 C 327.09 849.17 326.90 844.82 327.06 840.48 C 328.91 838.51 327.66 835.46 327.99 833.04 C 328.35 830.24 327.00 826.83 328.92 824.49 C 329.20 820.15 328.64 815.76 329.18 811.46 L 329.93 810.49 C 330.07 805.82 329.88 801.15 330.06 796.48 C 331.51 795.40 330.85 793.47 331.03 791.97 C 331.01 788.47 330.94 784.97 331.06 781.49 C 333.01 779.18 331.58 775.76 331.95 773.00 C 332.39 767.01 333.36 761.09 333.07 755.07 C 334.52 748.76 333.43 742.26 334.82 735.96 C 335.22 730.63 334.62 725.24 336.00 720.01 C 335.82 715.31 336.06 710.63 336.93 706.01 C 337.01 700.63 336.80 695.22 338.22 689.98 Z" />
</g>
<g id="#898989d0">
<path fill="#898989" opacity="0.82" d=" M 851.22 789.74 C 854.06 792.60 857.00 795.37 859.73 798.36 C 860.67 800.09 861.80 801.71 862.82 803.41 C 862.79 804.57 863.19 805.54 864.00 806.31 C 862.84 807.46 863.01 809.11 862.90 810.62 C 861.44 812.04 860.00 813.47 858.61 814.96 C 858.09 815.00 857.05 815.09 856.53 815.14 C 854.99 816.83 852.97 815.58 851.37 814.80 C 849.34 813.86 847.56 812.51 846.55 810.49 C 845.70 807.94 845.53 804.95 846.66 802.48 C 846.99 801.47 847.32 800.47 847.66 799.48 C 847.96 798.44 848.35 797.44 848.82 796.47 C 848.90 795.97 849.05 794.97 849.13 794.46 C 850.14 793.04 850.83 791.42 851.22 789.74 Z" />
</g>
<g id="#959595cd">
<path fill="#959595" opacity="0.80" d=" M 722.34 805.69 C 725.61 807.23 727.59 810.44 730.26 812.76 C 732.86 815.77 736.48 818.01 738.27 821.65 C 740.02 823.61 741.98 825.38 743.73 827.35 C 744.62 829.89 747.35 831.10 748.28 833.63 C 749.08 834.54 749.90 835.45 750.73 836.37 C 751.52 837.80 752.44 839.16 753.32 840.56 C 753.98 841.89 754.62 843.23 755.27 844.60 C 757.05 846.87 757.15 849.69 757.12 852.47 C 758.33 853.58 758.30 855.38 757.15 856.53 C 756.92 858.20 757.31 860.09 756.17 861.53 C 756.09 862.03 755.94 863.03 755.87 863.54 C 755.32 864.48 754.79 865.45 754.27 866.42 C 753.44 867.83 752.52 869.19 751.73 870.64 C 749.97 872.64 748.15 874.76 745.56 875.69 C 744.43 876.27 743.44 877.05 742.50 877.89 C 742.01 877.96 741.02 878.09 740.52 878.15 C 738.81 879.50 736.52 878.85 734.53 879.12 C 733.13 880.43 730.89 880.38 729.47 879.15 C 727.78 878.98 726.01 879.18 724.49 878.32 C 723.49 878.00 722.51 877.69 721.54 877.39 C 720.16 876.45 718.82 875.49 717.36 874.73 C 715.56 873.13 713.86 871.43 712.27 869.64 C 711.49 868.17 710.53 866.82 709.62 865.46 C 709.29 864.47 708.98 863.49 708.68 862.51 C 708.05 861.26 707.96 859.86 707.78 858.52 C 706.64 857.06 707.03 855.21 707.05 853.53 C 709.14 851.29 706.96 847.85 708.77 845.47 C 709.02 844.11 708.94 842.62 709.82 841.47 C 709.91 840.98 710.09 840.01 710.19 839.52 C 711.16 837.98 710.83 836.01 711.81 834.48 C 711.91 833.99 712.09 833.00 712.19 832.51 C 712.74 831.19 713.22 829.85 713.71 828.52 C 713.94 827.44 714.31 826.43 714.84 825.48 C 714.90 824.97 715.03 823.94 715.10 823.43 C 715.69 822.47 716.29 821.51 716.90 820.57 C 716.97 820.06 717.10 819.03 717.16 818.52 C 717.70 817.55 718.05 816.51 718.21 815.42 C 718.75 814.44 719.31 813.49 719.90 812.55 C 719.95 812.03 720.05 810.98 720.10 810.45 C 720.42 809.95 721.05 808.96 721.37 808.46 C 721.61 807.77 722.10 806.38 722.34 805.69 Z" />
</g>
<g id="#b4b4b4f7">
<path fill="#b4b4b4" opacity="0.97" d=" M 347.21 886.75 C 352.11 891.24 356.48 896.19 360.37 901.54 C 361.65 903.88 363.88 905.77 364.30 908.52 C 365.38 910.29 365.41 912.71 364.29 914.48 C 364.00 915.47 363.71 916.47 363.42 917.47 C 362.19 919.59 360.29 921.19 358.62 922.96 C 358.09 923.00 357.03 923.07 356.50 923.11 C 353.24 924.93 348.70 924.32 345.58 922.32 C 343.76 921.61 342.38 920.23 341.68 918.42 C 339.25 915.11 340.01 910.90 340.05 907.07 C 340.25 906.68 340.66 905.90 340.86 905.51 C 340.93 905.00 341.08 904.00 341.15 903.50 C 341.71 902.56 342.10 901.55 342.31 900.49 C 342.71 899.50 343.03 898.49 343.29 897.47 C 343.77 896.18 344.20 894.87 344.72 893.61 C 345.82 891.43 346.51 889.07 347.21 886.75 Z" />
</g>
<g id="#a8a8a8fd">
<path fill="#a8a8a8" opacity="1.00" d=" M 845.38 952.70 C 847.62 953.60 849.06 955.62 850.75 957.26 C 854.54 961.14 858.52 964.84 862.22 968.81 C 863.68 971.85 866.76 973.58 868.34 976.54 C 869.22 978.08 870.85 979.00 871.81 980.52 C 873.69 983.80 876.00 986.80 878.02 990.01 C 879.79 992.59 879.92 995.80 880.90 998.70 C 881.24 1002.79 879.94 1006.75 879.06 1010.70 L 878.84 1011.59 C 877.73 1012.68 876.87 1013.97 876.30 1015.42 C 874.74 1018.29 872.21 1020.65 869.44 1022.36 C 868.94 1022.58 867.92 1023.04 867.42 1023.27 C 865.88 1024.18 864.22 1024.89 862.48 1025.29 C 860.99 1026.28 859.16 1025.93 857.50 1026.12 C 856.46 1027.33 854.49 1027.37 853.50 1026.09 C 851.49 1025.87 849.30 1026.43 847.52 1025.30 C 845.76 1024.89 844.14 1024.14 842.56 1023.35 C 838.61 1020.50 834.58 1017.02 832.72 1012.40 C 831.80 1010.86 831.08 1009.22 830.70 1007.49 C 829.24 1004.40 830.24 1000.79 830.08 997.50 C 831.78 995.91 830.26 993.19 831.81 991.51 C 832.06 990.14 831.79 988.57 832.85 987.50 C 832.93 987.00 833.08 986.00 833.16 985.50 C 834.22 984.02 833.84 982.07 834.68 980.51 C 834.96 979.48 835.29 978.48 835.69 977.51 C 835.95 976.50 836.29 975.53 836.71 974.59 C 837.37 973.26 837.97 971.90 838.29 970.46 C 838.89 968.74 839.51 967.03 840.27 965.38 C 840.77 964.13 841.20 962.85 841.73 961.62 C 842.70 959.59 843.29 957.40 844.29 955.39 C 844.56 954.72 845.10 953.38 845.38 952.70 Z" />
</g>
<g id="#3f3f3f57">
<path fill="#3f3f3f" opacity="0.34" d=" M 879.27 959.77 C 883.02 963.66 887.22 967.16 890.29 971.66 C 895.14 976.62 899.28 982.31 902.64 988.37 C 905.89 994.90 903.38 1002.59 898.58 1007.61 C 895.63 1009.47 892.73 1012.09 889.02 1012.02 C 885.67 1012.09 882.10 1012.40 879.06 1010.70 C 879.94 1006.75 881.24 1002.79 880.90 998.70 C 879.92 995.80 879.79 992.59 878.02 990.01 C 876.00 986.80 873.69 983.80 871.81 980.52 C 874.04 973.50 877.27 966.83 879.27 959.77 Z" />
</g>
<g id="#3d3d3d5d">
<path fill="#3d3d3d" opacity="0.36" d=" M 643.16 1032.74 C 651.76 1040.64 659.24 1049.66 665.71 1059.38 C 667.72 1064.68 667.71 1070.95 665.00 1076.01 C 661.95 1080.91 656.60 1084.03 650.98 1085.01 C 645.57 1084.98 639.94 1082.85 636.38 1078.66 C 633.70 1074.89 630.97 1070.20 632.37 1065.43 C 634.10 1054.03 638.36 1043.17 643.16 1032.74 Z" />
</g>
<g id="#15151521">
<path fill="#151515" opacity="0.13" d=" M 422.42 1104.75 C 425.78 1106.52 427.98 1109.74 430.75 1112.25 C 438.54 1119.55 445.22 1127.94 451.43 1136.61 C 455.07 1142.36 458.80 1149.07 457.38 1156.12 C 456.88 1162.30 453.40 1167.81 449.30 1172.27 C 441.62 1178.47 430.27 1180.64 421.37 1175.70 C 412.97 1172.08 407.61 1163.19 407.37 1154.19 C 408.97 1136.86 416.08 1120.74 422.42 1104.75 Z" />
</g>
</svg>
